<svg xmlns="http://www.w3.org/2000/svg" xmlns:xlink="http://www.w3.org/1999/xlink" width="119px" height="30px" viewBox="0 0 119 30" version="1.1" class="injected-svg" data-src="/content/dam/empire/logos/logo-train/caesars_republic.svg">
	<title>Caesars Republic</title>
  <path d="M26.2660559,3.04706476 L26.2660559,3.03250549 C26.2660559,1.36401274 27.5123297,0.00126474189 29.2798255,0.00126474189 C30.3688591,0.00126474189 31.0211146,0.376893999 31.5831026,0.912675264 L30.9221115,1.6755812 C30.4445674,1.23880299 29.9495521,0.95344123 29.2710899,0.95344123 C28.167497,0.95344123 27.346354,1.86776361 27.346354,3.01503436 L27.346354,3.03250549 C27.346354,4.17686439 28.1587614,5.10865789 29.2798255,5.10865789 C29.9990536,5.10865789 30.4591266,4.82329613 30.9628775,4.35448752 L31.6238685,5.02421411 C31.012379,5.65899843 30.3426525,6.06083438 29.2448832,6.06083438 C27.5298008,6.06083438 26.2660559,4.73011678 26.2660559,3.04706476 M39.9395432,3.63438586 L38.9262177,1.29034282 L37.9216279,3.63438586 L39.9395432,3.63438586 Z M38.4661447,0.0586282795 L39.421233,0.0586282795 L42.0011363,5.96095776 L40.9121027,5.96095776 L40.3151724,4.54579638 L37.5459986,4.54579638 L36.9432447,5.96095776 L35.8862414,5.96095776 L38.4661447,0.0586282795 Z M46.6900959,0.101141358 L51.0345832,0.101141358 L51.0345832,1.02128744 L47.7208925,1.02128744 L47.7208925,2.54418745 L50.6589539,2.54418745 L50.6589539,3.47598096 L47.7208925,3.47598096 L47.7208925,5.03964694 L51.078261,5.03964694 L51.078261,5.96270488 L46.6900959,5.96270488 L46.6900959,0.101141358 Z M55.591927,5.10720196 L56.2092402,4.37050272 C56.7712281,4.85678246 57.3419516,5.13340866 58.0611797,5.13340866 C58.6959641,5.13340866 59.1007119,4.83057577 59.1007119,4.39670942 L59.1007119,4.37923829 C59.1007119,3.95993121 58.8648516,3.73280654 57.775818,3.48238704 C56.5295442,3.18246601 55.8248753,2.81266046 55.8248753,1.73236236 L55.8248753,1.71489123 C55.8248753,0.710301362 56.6634895,0.0172799428 57.8282314,0.0172799428 C58.6814048,0.0172799428 59.3598669,0.276435011 59.9538853,0.753979183 L59.4006329,1.53144439 C58.8735872,1.138344 58.3465415,0.928690465 57.8107602,0.928690465 C57.2080063,0.928690465 56.8556719,1.23734706 56.8556719,1.62462374 L56.8556719,1.64209487 C56.8556719,2.09343235 57.1235625,2.29435032 58.2533622,2.56224095 C59.4938123,2.86216199 60.1285966,3.30767576 60.1285966,4.27732337 L60.1285966,4.2947945 C60.1285966,5.39256373 59.2666876,6.04481918 58.0349731,6.04481918 C57.1410337,6.04481918 56.2936839,5.73616258 55.591927,5.10720196 M68.4535892,3.63438586 L67.4402637,1.29034282 L66.4356739,3.63438586 L68.4535892,3.63438586 Z M66.9801907,0.0586282795 L67.935279,0.0586282795 L70.5151823,5.96095776 L69.4232368,5.96095776 L68.8292184,4.54579638 L66.0600446,4.54579638 L65.4543788,5.96095776 L64.4002874,5.96095776 L66.9801907,0.0586282795 Z M77.7409498,3.00571642 C78.477649,3.00571642 78.9464576,2.6213516 78.9464576,2.02733324 L78.9464576,2.00986212 C78.9464576,1.3809015 78.4951201,1.03730265 77.7322142,1.03730265 L76.232609,1.03730265 L76.232609,3.00571642 L77.7409498,3.00571642 Z M75.2018125,0.0996854309 L77.816658,0.0996854309 C78.5533572,0.0996854309 79.1299045,0.318074534 79.5055337,0.687880081 C79.8171022,1.00527224 79.9918134,1.43913859 79.9918134,1.95162502 L79.9918134,1.96909615 C79.9918134,2.9300082 79.4152662,3.50655543 78.6028588,3.74241566 L80.1839959,5.96124895 L78.9610169,5.96124895 L77.5225607,3.91712695 L76.232609,3.91712695 L76.232609,5.96124895 L75.2018125,5.96124895 L75.2018125,0.0996854309 Z M84.5485749,5.10720196 L85.1687999,4.37050272 C85.727876,4.85678246 86.2985995,5.13340866 87.0178277,5.13340866 C87.6555238,5.13340866 88.0573598,4.83057577 88.0573598,4.39670942 L88.0573598,4.37923829 C88.0573598,3.95993121 87.8244114,3.73280654 86.7324659,3.48238704 C85.4861921,3.18246601 84.7844351,2.81266046 84.7844351,1.73236236 L84.7844351,1.71489123 C84.7844351,0.710301362 85.6201374,0.0172799428 86.7848793,0.0172799428 C87.6380527,0.0172799428 88.3165149,0.276435011 88.9105332,0.753979183 L88.3601927,1.53144439 C87.8302351,1.138344 87.3031894,0.928690465 86.7674082,0.928690465 C86.1646542,0.928690465 85.8123198,1.23734706 85.8123198,1.62462374 L85.8123198,1.64209487 C85.8123198,2.09343235 86.0802104,2.29435032 87.2129219,2.56224095 C88.4504602,2.86216199 89.0881564,3.30767576 89.0881564,4.27732337 L89.0881564,4.2947945 C89.0881564,5.39256373 88.2233355,6.04481918 86.9945328,6.04481918 C86.0976816,6.04481918 85.2532437,5.73616258 84.5485749,5.10720196 M18.2354518,21.3713664 L29.3965909,21.3713664 L29.3965909,22.6089047 L18.2354518,22.6089047 L18.2354518,28.0948389 L29.3965909,28.0948389 L29.3965909,29.4080854 L16.8989105,29.4080854 L16.8989105,11.7331273 L29.3965909,11.7331273 L29.3965909,13.023079 L18.2354518,13.023079 L18.2354518,21.3713664 Z M33.0835813,29.4069206 L34.4492411,29.4069206 L34.4492411,23.9792235 L33.0835813,23.9792235 L33.0835813,29.4069206 Z M40.8349385,21.3702017 L34.4492411,21.3702017 L34.4492411,12.9927957 L40.8349385,12.9927957 C46.7197969,12.9927957 46.7197969,21.3702017 40.8349385,21.3702017 L40.8349385,21.3702017 Z M40.8349385,11.7348745 L33.0835813,11.7348745 L33.0835813,22.6106518 L40.8349385,22.6106518 C48.5105875,22.6106518 48.5105875,11.7348745 40.8349385,11.7348745 L40.8349385,11.7348745 Z M63.1644963,11.7342921 L63.1644963,22.5838627 C63.1644963,31.7125272 49.7961714,31.7387339 49.7961714,22.5838627 L49.7961714,11.7342921 L51.1181534,11.7342921 L51.1181534,22.5838627 C51.1181534,30.0906241 61.8425143,30.0673293 61.8425143,22.5838627 L61.8425143,11.7342921 L63.1644963,11.7342921 Z M85.2025774,11.7342921 L85.2025774,28.1367696 L95.0300871,28.1367696 L95.0300871,29.4063383 L83.8573006,29.4063383 L83.8573006,11.7342921 L85.2025774,11.7342921 Z M119.00164,26.8805955 C117.254527,28.6277083 114.936691,29.4983529 112.639237,29.4983529 C106.754379,29.4983529 103.688196,25.3839022 103.661989,20.6725213 C103.612488,16.00773 106.655376,11.6428598 112.639237,11.6428598 C114.936691,11.6428598 117.254527,12.5135044 119.00164,14.2606172 L118.078582,15.0584654 C116.581888,13.5617721 114.610563,12.8396321 112.639237,12.8396321 C107.552227,12.8396321 104.93447,16.429949 104.960676,20.6230198 C105.010178,24.7112638 107.601729,28.2520791 112.639237,28.2520791 C114.610563,28.2520791 116.608095,27.5037324 118.101877,26.0332458 L119.00164,26.8805955 Z M7.66600158,21.3996114 L1.37348357,21.3996114 L1.37348357,12.9930869 L7.82032988,12.9930869 C10.7613031,12.9930869 12.1852001,15.1303882 12.1560815,17.1948932 C12.1327867,19.6583223 10.7613031,21.3996114 7.66600158,21.3996114 M7.82032988,11.7351656 L0.00200000001,11.7351656 L0.00200000001,22.6080311 L7.89312625,22.6080311 C11.7804523,22.6080311 13.6818934,20.0892768 13.6527748,17.2210999 C13.62948,14.4810446 11.6756255,11.7351656 7.82032988,11.7351656 M14.1606023,29.4072118 L12.3610761,29.4072118 L8.52033975,25.2024936 L1.37464831,25.2024936 L1.37464831,29.4072118 L0.00316474189,29.4072118 L0.00316474189,23.9795147 L8.50286862,23.9795147 C9.04738545,23.9795147 9.42301471,24.2444934 9.77534913,24.6288583 C10.0345042,24.9113082 10.2907474,25.1937581 10.5528143,25.4732961 C11.1817749,26.1604938 11.8136474,26.8506034 12.4455199,27.5378011 C12.9347115,28.0706705 13.4239031,28.6035399 13.9160065,29.1334975 C13.9975384,29.2266768 14.0761585,29.3140325 14.1606023,29.4072118 M99.9907227,11.7328362 L98.6716526,11.7328362 L98.6716526,22.6115253 L99.9936346,22.6115253 L99.9907227,11.7328362 Z M98.6716526,29.4077942 L99.9936346,29.4077942 L99.9936346,23.980097 L98.6716526,23.980097 L98.6716526,29.4077942 Z M68.1950165,28.0794061 L74.0653156,28.0794061 C76.281237,28.0794061 79.1290309,27.5494485 79.1290309,24.754068 C79.1057361,22.008189 76.6102766,21.0239821 74.2429387,21.0239821 L68.1950165,21.0239821 L68.1950165,28.0794061 Z M68.1950165,19.7398542 L74.2429387,19.7398542 C76.3598571,19.7398542 78.5757785,19.0846869 78.5757785,16.5630207 C78.5757785,13.9947649 76.2579422,12.9115549 74.0653156,12.9115549 L68.1950165,12.9115549 L68.1950165,19.7398542 Z M79.8599064,16.5630207 C79.8599064,18.3800181 78.7504898,19.7893557 76.9888177,20.34552 C79.2047391,20.9482739 80.4655722,22.7390646 80.4655722,24.7802747 C80.4655722,28.4055338 77.0878207,29.3897407 74.0653156,29.3897407 L66.8351803,29.3897407 L66.8351803,11.7526368 L74.0653156,11.7526368 C77.0383192,11.7526368 79.8599064,13.2143878 79.8599064,16.5630207 L79.8599064,16.5630207 Z" id="caesars_republic-26" fill="#343840"></path>
</svg>