<svg xmlns="http://www.w3.org/2000/svg" xmlns:xlink="http://www.w3.org/1999/xlink" width="219px" height="33px" viewBox="0 0 219 33" version="1.1" class="injected-svg" data-src="/content/dam/empire/logos/logo-train/caesars.svg">
	<title>Caesars Entertainment</title>
  <path d="M120.156,19.75 L120.156,19.687 L110.437,10.031 L115.343,5.125 L110.218,0 L105.312,4.906 L99.906,10.375 L109.625,20.063 L103.219,26.438 L108.438,31.719 L120.313,19.906 L120.157,19.75 L120.156,19.75 Z M217.594,19.688 L207.906,10.032 L212.844,5.126 L207.719,0.001 L202.781,4.907 L197.437,10.376 L207.093,20.064 L200.593,26.439 L205.937,31.72 L217.781,19.907 L217.593,19.688 L217.594,19.688 Z M21.781,26.5 L11.187,15.906 L21.781,5.343 L16.718,0.28 L0.999,15.905 L6.062,20.999 L6.125,20.936 L16.75,31.624 L21.781,26.499 L21.781,26.5 Z M88.219,26.5 L80.375,18.781 L87.719,18.781 L87.719,13.062 L80.438,13.062 L88.094,5.343 L83.063,0.28 L67.438,15.905 L72.438,20.999 L72.501,20.936 L83.064,31.624 L88.22,26.499 L88.219,26.5 Z M53.719,31.406 L60.688,28.656 L50.469,2.281 L42.875,2.281 L32.687,28.594 L39.843,31.344 L41.687,26.438 L51.781,26.438 L53.719,31.406 Z M44.156,20.438 L46.875,13.438 L49.563,20.438 L44.156,20.438 Z M148.844,31.406 L155.875,28.593 L145.625,2.28 L138.062,2.28 L127.874,28.593 L134.999,31.343 L136.812,26.437 L146.687,26.437 L148.844,31.406 Z M139.156,20.625 L141.844,13.594 L144.532,20.625 L139.156,20.625 Z M187.063,26.125 L180.969,31.5 L173.688,23.906 L173.688,28.5 L166.063,31.5 L166.063,2.281 L177.501,2.281 L185.564,9.781 L185.564,15.687 L181.251,19.968 L187.063,26.125 Z M173.688,16.875 L178.094,12.937 L173.688,8.968 L173.688,16.875 Z M214.313,29.531 C214.313,28.133 215.446,27 216.844,27 C218.242,27 219.375,28.133 219.375,29.531 C219.375,30.929 218.242,32.062 216.844,32.062 L216.844,32.062 L216.781,32.062 C216.781,32.062 216.781,32.062 216.78,32.062 C215.417,32.062 214.311,30.957 214.311,29.593 C214.311,29.571 214.311,29.549 214.312,29.527 L214.312,29.53 L214.313,29.531 Z M219,29.531 L219,29.468 C219,28.277 218.035,27.312 216.844,27.312 C215.653,27.312 214.688,28.277 214.688,29.468 C214.688,30.659 215.653,31.624 216.844,31.624 L216.844,31.624 C218.032,31.624 218.969,30.686 219,29.53 L219,29.531 Z M218.094,30.875 L217.594,30.875 L216.844,29.562 L216.313,29.562 L216.313,30.875 L215.938,30.875 L215.938,28.125 L216.844,28.125 C217.344,28.125 217.813,28.125 217.813,28.875 C217.813,29.625 217.438,29.625 216.969,29.625 L218.094,30.875 Z M216.844,29.188 C217.188,29.188 217.782,29.188 217.782,28.813 C217.782,28.438 217.407,28.5 217.126,28.5 L216.313,28.5 L216.313,29.188 L216.844,29.188 Z" id="caesars-4" fill="#343840"></path>
</svg>