<svg xmlns="http://www.w3.org/2000/svg" xmlns:xlink="http://www.w3.org/1999/xlink" viewBox="0 0 260 70" version="1.1" class="injected-svg" data-src="/content/dam/empire/clv/logos/clv_las_vegas_logo_wide_nav.svg">
    <title>Caesars Palace Las Vegas Logo</title>
    <rect id="logo-container" fill-opacity="0" fill="#FFFFFF" x="0" y="0" width="260" height="70"></rect>
    <path d="M136.684211,18.7631579 L136.684211,18.7631579 L130.631579,12.7631579 L133.736842,9.71052632 L130.526316,6.5 L127.473684,9.55263158 L127.473684,9.55263158 L124.105263,12.9210526 L130.105263,18.9736842 L126.157895,22.9736842 L129.421053,26.2368421 L136.789474,18.8684211 L136.684211,18.7631579 Z M197.210526,18.7631579 L197.210526,18.7631579 L191.210526,12.7631579 L194.263158,9.71052632 L191.052632,6.5 L188,9.55263158 L188,9.55263158 L184.631579,12.9210526 L190.684211,18.9736842 L186.684211,22.9736842 L189.947368,26.2368421 L197.315789,18.8684211 L197.210526,18.7631579 Z M75.5789474,22.9736842 L69,16.3947368 L75.5789474,9.81578947 L72.4210526,6.65789474 L62.6842105,16.3947368 L65.8421053,19.5526316 L65.8421053,19.5526316 L72.4210526,26.1315789 L75.5789474,22.9736842 Z M116.842105,22.9736842 L112,18.1842105 L116.526316,18.1842105 L116.526316,14.6052632 L112,14.6052632 L116.789474,9.81578947 L113.631579,6.65789474 L103.894737,16.3947368 L107.052632,19.5526316 L107.052632,19.5526316 L113.684211,26.1315789 L116.842105,22.9736842 Z M89.3684211,19.2368421 L91,14.9210526 L92.6842105,19.2368421 L89.3684211,19.2368421 Z M95.4210526,26.0263158 L99.7368421,24.2894737 L93.4210526,7.92105263 L88.6842105,7.92105263 L82.3684211,24.2894737 L86.7894737,26.0263158 L87.9473684,22.9736842 L94.2105263,22.9736842 L95.4210526,26.0263158 Z M148.526316,19.2368421 L150.157895,14.9210526 L151.842105,19.2368421 L148.526316,19.2368421 Z M154.526316,26.0263158 L158.842105,24.2894737 L152.526316,7.92105263 L147.842105,7.92105263 L141.526316,24.2894737 L145.947368,26.0263158 L147.105263,22.9736842 L153.368421,22.9736842 L154.526316,26.0263158 Z M170.052632,17.0263158 L172.789474,14.5526316 L170.052632,12.0789474 L170.052632,17.0263158 Z M178.263158,22.7631579 L174.473684,26.0789474 L170.052632,21.3947368 L170.052632,24.1842105 L165.315789,26.0789474 L165.315789,7.92105263 L172.421053,7.92105263 L177.421053,12.5526316 L177.421053,16.2368421 L174.736842,18.9210526 L178.263158,22.7631579 Z M186.052632,47.3421053 L186.315789,47.3421053 L186.315789,46.7631579 L186.526316,46.7631579 C186.631579,46.7631579 186.736842,46.7631579 186.842105,46.8157895 C186.947368,46.8684211 187,46.9736842 187,47.1842105 L187,47.2894737 L187,47.3421053 L187,47.3421053 L187,47.3421053 L187.263158,47.3421053 L187.263158,47.3421053 C187.263158,47.3421053 187.263158,47.2894737 187.263158,47.2894737 L187.263158,47.0789474 C187.263158,46.9736842 187.210526,46.9210526 187.157895,46.8684211 C187.105263,46.7631579 187,46.7105263 186.894737,46.7105263 C186.947368,46.7105263 187.052632,46.6578947 187.105263,46.6578947 C187.210526,46.6052632 187.263158,46.5 187.263158,46.3421053 C187.263158,46.1842105 187.157895,46.0263158 187.052632,45.9736842 C186.947368,45.9210526 186.789474,45.9210526 186.631579,45.9210526 L186.105263,45.9210526 L186.052632,47.3421053 Z M186.789474,46.5526316 C186.684211,46.6052632 186.631579,46.6052632 186.526316,46.6052632 L186.315789,46.6052632 L186.315789,46.0789474 L186.526316,46.0789474 C186.631579,46.0789474 186.736842,46.0789474 186.842105,46.1315789 C186.894737,46.1842105 186.947368,46.2894737 186.947368,46.3421053 C186.947368,46.4473684 186.894737,46.5 186.789474,46.5526316 M187.526316,45.6578947 C187,45.1315789 186.157895,45.1315789 185.631579,45.6578947 C185.105263,46.1842105 185.105263,47.0263158 185.631579,47.5526316 C185.894737,47.8157895 186.210526,47.9736842 186.578947,47.9736842 C187.315789,47.9736842 187.947368,47.3421053 187.947368,46.6052632 C187.947368,46.2368421 187.789474,45.9210526 187.526316,45.6578947 M187.421053,45.8157895 C187.894737,46.2894737 187.894737,47.0263158 187.421053,47.4473684 C187.421053,47.4473684 187.421053,47.4473684 187.421053,47.4473684 C187.210526,47.6578947 186.894737,47.8157895 186.578947,47.7631579 C186.263158,47.7631579 185.947368,47.6578947 185.736842,47.4473684 C185.526316,47.2368421 185.421053,46.9210526 185.421053,46.6052632 C185.421053,45.9736842 185.947368,45.4473684 186.578947,45.4473684 C186.894737,45.4473684 187.157895,45.5526316 187.421053,45.8157895 M79.9473684,39.2368421 L82.6842105,36.8157895 L79.9473684,34.3421053 L79.9473684,39.2368421 Z M79.9473684,41.6578947 L79.9473684,46.5 L75.2105263,48.2368421 L75.2105263,30.1315789 L82.7368421,30.1315789 L87.6842105,34.8157895 L87.6842105,38.5526316 L82.1052632,43.7105263 L79.9473684,41.6578947 Z M128.105263,43.3421053 L120.263158,43.3421053 L120.263158,30.1842105 L115.526316,30.1842105 L115.526316,43.3421053 L115.526316,47.3947368 L115.526316,47.4473684 L120.263158,47.4473684 L120.263158,47.3947368 L128.105263,47.3947368 L128.105263,43.3421053 Z M98.7368421,41.5 L100.368421,37.1315789 L102.052632,41.5 L98.7368421,41.5 Z M104.789474,48.2894737 L109.105263,46.5526316 L102.789474,30.1842105 L98.0526316,30.1842105 L91.7368421,46.5526316 L96.1578947,48.2894737 L97.3157895,45.2368421 L103.578947,45.2368421 L104.789474,48.2894737 Z M184.684211,45.2368421 L179.842105,40.3947368 L184.368421,40.3947368 L184.368421,36.8684211 L179.842105,36.8684211 L184.631579,32.0789474 L181.473684,28.9210526 L171.736842,38.6578947 L174.894737,41.8157895 L174.894737,41.8157895 L181.526316,48.3947368 L184.684211,45.2368421 Z M167.263158,45.2368421 L160.684211,38.6578947 L167.263158,32.0789474 L164.105263,28.9210526 L154.368421,38.6578947 L157.526316,41.8157895 L157.526316,41.8157895 L164.105263,48.3947368 L167.263158,45.2368421 Z M79.9473684,39.2368421 L82.6842105,36.8157895 L79.9473684,34.3421053 L79.9473684,39.2368421 Z M79.9473684,41.6578947 L79.9473684,46.5 L75.2105263,48.2368421 L75.2105263,30.1315789 L82.7368421,30.1315789 L87.6842105,34.8157895 L87.6842105,38.5526316 L82.1052632,43.7105263 L79.9473684,41.6578947 Z M140.157895,41.5 L141.789474,37.1842105 L143.473684,41.5 L140.157895,41.5 Z M146.210526,48.2894737 L150.526316,46.5526316 L144.210526,30.1842105 L139.473684,30.1842105 L133.157895,46.5526316 L137.578947,48.2894737 L138.736842,45.2368421 L145,45.2368421 L146.210526,48.2894737 Z M88.1052632,63.1842105 L88.1052632,62.8684211 C88.2631579,62.8157895 88.4210526,62.7105263 88.5789474,62.6052632 C88.6315789,62.5526316 88.6842105,62.5526316 88.7368421,62.5 C88.7368421,62.5 88.7894737,62.4473684 88.7368421,62.4473684 C88.7894737,62.0789474 88.7894737,61.7105263 88.7894737,61.3421053 C88.7894737,60.7105263 88.7894737,59.9210526 88.7894737,59.0263158 C88.7894737,57.7105263 88.7894737,56.9210526 88.7894737,56.6052632 C88.7894737,56.1315789 88.7894737,55.7105263 88.6842105,55.2368421 C88.6842105,55.1842105 88.6315789,55.1315789 88.5789474,55.1315789 C88.2631579,55.0263158 87.9473684,54.9736842 87.6315789,55.0263158 L87.6315789,54.5 C88.1578947,54.5526316 88.7894737,54.5526316 89.4210526,54.5526316 C90.1578947,54.5526316 90.8947368,54.5526316 91.5789474,54.5 L91.5789474,55.0263158 C91.2631579,55.0263158 91,55.0789474 90.7368421,55.1315789 C90.6842105,55.1842105 90.6315789,55.1842105 90.6315789,55.2368421 C90.5789474,55.5 90.5789474,55.7631579 90.5789474,56.0263158 C90.5789474,56.5 90.5263158,57.0789474 90.5263158,57.7631579 C90.5263158,57.8157895 90.5263158,58.4473684 90.5263158,59.5526316 C90.5263158,60.1315789 90.5263158,60.7105263 90.5263158,61.3421053 C90.5263158,61.9736842 90.5263158,62.2894737 90.5263158,62.3947368 C91.1052632,62.4473684 91.4736842,62.4473684 91.6842105,62.4473684 C92.2105263,62.4473684 92.7894737,62.3947368 93.3157895,62.3421053 C93.4210526,62.3421053 93.5263158,62.2894737 93.6315789,62.2894737 C93.6842105,62.2368421 93.7368421,62.1315789 93.7368421,62.0789474 C93.8421053,61.7631579 93.8947368,61.3947368 94,60.9736842 L94.5263158,60.9736842 C94.5263158,61.0789474 94.5263158,61.1842105 94.5263158,61.1842105 L94.3684211,62.4473684 C94.3157895,62.8684211 94.3157895,63.0789474 94.3157895,63.1842105 C94.2105263,63.2368421 94.0526316,63.2368421 93.9473684,63.2368421 C93.6842105,63.2894737 93.3157895,63.2894737 92.7894737,63.2894737 L91.3684211,63.2894737 C90.6842105,63.2894737 90.2105263,63.2894737 89.9473684,63.2894737 C89.5789474,63.1315789 88.9473684,63.1315789 88.1052632,63.1842105 Z M96.7894737,63.1842105 L96.7894737,62.6578947 C97,62.6578947 97.2105263,62.6052632 97.4210526,62.6052632 C97.4736842,62.6052632 97.5263158,62.5526316 97.5789474,62.5 C97.6315789,62.4473684 97.6842105,62.3947368 97.7368421,62.2894737 C97.7894737,62.1842105 97.9473684,61.8684211 98.1578947,61.3421053 C98.2631579,61.0789474 98.4736842,60.6052632 98.7894737,59.8157895 L100.421053,55.8157895 L100.947368,54.3947368 L101.842105,54.3947368 L104.631579,60.9210526 L105,61.7631579 L105.263158,62.3421053 C105.315789,62.3947368 105.315789,62.4473684 105.368421,62.5 C105.421053,62.5526316 105.421053,62.5526316 105.473684,62.5526316 C105.578947,62.6052632 105.736842,62.6052632 105.842105,62.6052632 L106.105263,62.6578947 L106.105263,63.1842105 L104.368421,63.1315789 L102.157895,63.1315789 L102.157895,62.6052632 C102.421053,62.6052632 102.736842,62.6052632 103,62.5 C103.052632,62.4473684 103.105263,62.3947368 103.105263,62.3421053 C103.105263,62.1842105 103.052632,61.9736842 102.947368,61.8157895 L102.421053,60.4473684 L99.2105263,60.4473684 L98.9473684,61.1842105 C98.7894737,61.5 98.6842105,61.8684211 98.6315789,62.2368421 C98.6315789,62.3421053 98.6842105,62.3947368 98.7368421,62.4473684 C99.0526316,62.5526316 99.3157895,62.5526316 99.6315789,62.5526316 L99.6315789,63.0789474 L98.2105263,63.0789474 L96.7894737,63.1842105 Z M99.5263158,59.7631579 C99.8947368,59.7631579 100.368421,59.8157895 100.842105,59.8157895 C101.315789,59.8157895 101.789474,59.8157895 102.157895,59.7631579 L100.842105,56.5526316 L99.5263158,59.7631579 Z M114.263158,56.7105263 L113.736842,56.7105263 C113.736842,56.3947368 113.736842,56.0263158 113.684211,55.7105263 C113.526316,55.5 113.263158,55.3421053 113,55.2368421 C112.684211,55.0789474 112.315789,55.0263158 111.947368,55.0263158 C111.473684,54.9736842 111,55.1315789 110.631579,55.4473684 C110.315789,55.7105263 110.157895,56.0789474 110.157895,56.4473684 C110.157895,56.6578947 110.210526,56.9210526 110.315789,57.1315789 C110.421053,57.2894737 110.526316,57.4473684 110.684211,57.5526316 C110.894737,57.6578947 111.157895,57.7631579 111.421053,57.8157895 C111.684211,57.8684211 112,57.9210526 112.421053,58.0263158 C112.842105,58.0789474 113.105263,58.1315789 113.263158,58.1842105 C113.526316,58.2368421 113.842105,58.3421053 114.105263,58.5 C114.315789,58.6052632 114.473684,58.7631579 114.631579,58.9210526 C114.789474,59.0789474 114.842105,59.2894737 114.947368,59.5 C115.052632,59.7631579 115.052632,60.0263158 115.052632,60.3421053 C115.052632,60.8157895 114.947368,61.2894737 114.736842,61.7631579 C114.578947,62.0789474 114.315789,62.3421053 114.052632,62.6052632 C113.789474,62.8157895 113.473684,63.0263158 113.157895,63.1842105 C112.578947,63.3947368 111.947368,63.5 111.368421,63.5 C110.894737,63.5 110.473684,63.4473684 110,63.3421053 C109.526316,63.2368421 109.105263,63.0789474 108.684211,62.8684211 C108.842105,62.1315789 108.894737,61.4473684 108.894737,60.7105263 L109.421053,60.7105263 C109.421053,61.0789474 109.421053,61.4473684 109.473684,61.8157895 C109.684211,62.1315789 109.947368,62.3421053 110.263158,62.5 C110.631579,62.7105263 111.105263,62.8157895 111.526316,62.8157895 C111.894737,62.8157895 112.263158,62.7631579 112.578947,62.6052632 C112.842105,62.5 113.105263,62.2894737 113.263158,62.0263158 C113.421053,61.7631579 113.473684,61.5 113.473684,61.1842105 C113.473684,60.9736842 113.421053,60.7105263 113.315789,60.5 C113.210526,60.2894737 113.052632,60.1315789 112.842105,60.0263158 C112.473684,59.8684211 112.105263,59.7631579 111.736842,59.6578947 C111,59.5 110.473684,59.3947368 110.263158,59.2894737 C109.947368,59.1842105 109.631579,59.0263158 109.421053,58.8157895 C109.210526,58.6052632 109.052632,58.3421053 108.947368,58.0789474 C108.842105,57.7631579 108.789474,57.4473684 108.789474,57.1315789 C108.789474,56.7105263 108.894737,56.2368421 109.105263,55.8684211 C109.263158,55.5 109.526316,55.1842105 109.894737,54.9736842 C110.210526,54.7631579 110.578947,54.6052632 111,54.5 C111.421053,54.3947368 111.842105,54.3421053 112.263158,54.3421053 C112.684211,54.3421053 113.105263,54.3947368 113.526316,54.4473684 C113.894737,54.5 114.263158,54.6052632 114.578947,54.7631579 L114.631579,54.9210526 C114.578947,55.1842105 114.526316,55.4473684 114.526316,55.7105263 C114.263158,55.9210526 114.263158,56.2894737 114.263158,56.7105263 Z M126.263158,63.1842105 C125.894737,62.2894737 125.578947,61.5 125.263158,60.7105263 L124.368421,58.6052632 C123.684211,56.9210526 123.263158,55.9736842 123.105263,55.6578947 C123,55.4473684 122.894737,55.2894737 122.736842,55.1315789 C122.473684,55.0263158 122.210526,55.0263158 121.947368,55.0263158 L121.947368,54.5 C122.947368,54.5526316 123.526316,54.5526316 123.789474,54.5526316 L126.052632,54.5 L126.052632,55.0263158 C125.789474,55.0263158 125.526316,55.0263158 125.315789,55.0789474 C125.263158,55.0789474 125.157895,55.1315789 125.105263,55.1842105 C125.052632,55.2368421 125.052632,55.2894737 125.052632,55.3421053 C125.157895,55.7631579 125.263158,56.1315789 125.473684,56.5 C125.631579,56.8684211 125.736842,57.0789474 125.736842,57.1315789 C125.736842,57.1842105 125.736842,57.1842105 125.789474,57.2368421 L127.368421,61.0789474 L128.736842,57.6578947 C128.789474,57.6052632 128.894737,57.1842105 129.157895,56.5 C129.315789,56.0263158 129.473684,55.6578947 129.526316,55.5 C129.526316,55.4473684 129.526316,55.3947368 129.526316,55.3421053 C129.526316,55.2894737 129.526316,55.2368421 129.473684,55.1842105 C129.473684,55.1315789 129.421053,55.1315789 129.368421,55.1315789 C129.315789,55.1315789 129.210526,55.0789474 129.157895,55.0789474 C128.894737,55.0789474 128.631579,55.0263158 128.473684,55.0263158 L128.473684,54.5 L130.052632,54.5526316 L131.421053,54.5 L131.421053,55.0263158 C131.157895,55.0263158 130.947368,55.0789474 130.736842,55.1315789 C130.421053,55.5526316 130.210526,56.0263158 130.052632,56.5526316 L129.631579,57.6052632 L128.789474,59.6052632 C128.105263,61.3421053 127.578947,62.5526316 127.315789,63.2368421 L126.263158,63.1842105 Z M133.947368,63.1842105 L133.947368,62.8684211 C134.157895,62.7631579 134.368421,62.6578947 134.526316,62.5 C134.578947,62.3421053 134.578947,62.0263158 134.578947,61.6578947 C134.631579,60.9210526 134.631579,60.3947368 134.631579,60.0789474 L134.631579,57.2894737 C134.631579,57.1842105 134.631579,56.7631579 134.631579,56.0789474 C134.631579,55.7631579 134.631579,55.5 134.526316,55.2368421 C134.526316,55.1842105 134.473684,55.1842105 134.421053,55.1315789 C134.105263,55.0263158 133.842105,55.0263158 133.526316,55.0263158 L133.526316,54.5526316 L135.789474,54.5526316 C136.368421,54.5526316 137,54.5526316 137.684211,54.5526316 L138.947368,54.5 L139.842105,54.5526316 C139.894737,54.5526316 140,54.5526316 140.052632,54.6052632 L140.105263,54.7105263 L140,55.6052632 C140,55.6578947 140,55.9736842 139.947368,56.5 L139.526316,56.5 C139.526316,56.1842105 139.526316,55.9210526 139.473684,55.6052632 C139.473684,55.5526316 139.421053,55.5 139.421053,55.5 C139.263158,55.4473684 139.105263,55.3947368 138.947368,55.3947368 C138.526316,55.3421053 138.157895,55.3421053 137.736842,55.3421053 C137.368421,55.3421053 137,55.3421053 136.578947,55.3947368 C136.526316,55.9736842 136.473684,56.6052632 136.473684,57.1842105 L136.473684,58.4473684 C136.789474,58.5 137.052632,58.5 137.368421,58.5 L138.421053,58.4473684 C138.578947,58.4473684 138.684211,58.4473684 138.842105,58.3947368 C138.894737,58.3421053 138.894737,58.2894737 138.947368,58.2894737 C139,58.0263158 139.052632,57.7631579 139.052632,57.5 L139.578947,57.5 L139.526316,58.8684211 L139.578947,60.2368421 L139.052632,60.2368421 C139.105263,59.9210526 139.052632,59.6052632 138.947368,59.3421053 C138.894737,59.2368421 138.789474,59.1842105 138.684211,59.1842105 C138.315789,59.1315789 137.947368,59.1315789 137.578947,59.1315789 C137.263158,59.1315789 136.894737,59.1315789 136.578947,59.1842105 L136.578947,61.8157895 C136.578947,62.1315789 136.578947,62.3421053 136.631579,62.5526316 C136.947368,62.6052632 137.368421,62.6052632 137.842105,62.6052632 C138.315789,62.6052632 138.684211,62.6052632 139.105263,62.5526316 C139.368421,62.5526316 139.578947,62.5 139.789474,62.4473684 C139.842105,62.3947368 139.842105,62.3947368 139.894737,62.3421053 C140,61.9736842 140.105263,61.6052632 140.105263,61.1842105 L140.631579,61.1842105 C140.526316,61.8684211 140.526316,62.5526316 140.473684,63.2368421 L140.368421,63.3421053 C140,63.3947368 139.631579,63.3947368 139.210526,63.3947368 L138.210526,63.3421053 C137.210526,63.3421053 136.526316,63.3421053 136.157895,63.3421053 C135.947368,63.1315789 135.210526,63.1315789 133.947368,63.1842105 Z M151.368421,56.9736842 L150.894737,56.9736842 C150.894737,56.8684211 150.894737,56.6578947 150.842105,56.3947368 C150.842105,56.2368421 150.789474,56.0789474 150.789474,55.9210526 C150.684211,55.8157895 150.578947,55.7105263 150.473684,55.6052632 C150.210526,55.3947368 149.894737,55.2894737 149.526316,55.1842105 C149.157895,55.0789474 148.736842,55.0263158 148.315789,55.0263158 C147.368421,54.9736842 146.473684,55.3421053 145.842105,55.9736842 C145.210526,56.7105263 144.842105,57.6578947 144.894737,58.6578947 C144.842105,59.7105263 145.210526,60.7631579 145.894737,61.6052632 C146.526316,62.2894737 147.368421,62.7105263 148.315789,62.7105263 C148.578947,62.7105263 148.842105,62.6578947 149.157895,62.6052632 C149.421053,62.5526316 149.684211,62.4473684 149.947368,62.3421053 C149.947368,62.2368421 149.947368,62.0263158 149.947368,61.7105263 C149.947368,61.3947368 149.947368,61.1842105 149.947368,61.1315789 C149.947368,60.8684211 149.947368,60.6578947 149.894737,60.3947368 C149.842105,60.3421053 149.789474,60.2894737 149.736842,60.2894737 C149.368421,60.2368421 148.947368,60.1842105 148.578947,60.1842105 L148.578947,59.7105263 L150.473684,59.7105263 L152.368421,59.7105263 L152.368421,60.1315789 C152.210526,60.1315789 152,60.2368421 151.894737,60.3421053 C151.842105,60.4473684 151.789474,60.5526316 151.842105,60.6578947 C151.842105,61.1315789 151.789474,61.5 151.789474,61.6578947 C151.789474,61.9736842 151.789474,62.2894737 151.842105,62.6578947 C151.157895,62.9210526 150.526316,63.1315789 149.789474,63.2368421 C149.210526,63.3421053 148.631579,63.3947368 148.052632,63.3947368 C147.210526,63.3947368 146.368421,63.2368421 145.578947,62.9210526 C145.105263,62.7105263 144.684211,62.3947368 144.315789,62.0789474 C144,61.7631579 143.684211,61.3421053 143.473684,60.9210526 C143.157895,60.2368421 143,59.5526316 143,58.8157895 C143,58.2368421 143.105263,57.6578947 143.315789,57.1315789 C143.526316,56.6578947 143.789474,56.2368421 144.105263,55.8684211 C144.421053,55.5 144.842105,55.1842105 145.263158,54.9736842 C145.684211,54.7631579 146.157895,54.6052632 146.631579,54.5 C147.157895,54.3947368 147.684211,54.3421053 148.210526,54.3421053 C148.894737,54.3421053 149.526316,54.3947368 150.210526,54.5526316 C150.684211,54.6578947 151.157895,54.8157895 151.631579,54.9736842 L151.684211,55.0789474 C151.526316,55.6578947 151.421053,56.2894737 151.368421,56.9736842 Z M154.526316,63.1842105 L154.526316,62.6578947 C154.736842,62.6578947 154.947368,62.6052632 155.105263,62.6052632 C155.157895,62.6052632 155.210526,62.5526316 155.263158,62.5 C155.315789,62.4473684 155.368421,62.3947368 155.421053,62.2894737 C155.473684,62.1842105 155.631579,61.8684211 155.842105,61.3421053 C155.947368,61.0789474 156.157895,60.6052632 156.473684,59.8157895 L158.105263,55.8157895 L158.684211,54.3947368 L159.578947,54.3947368 L162.368421,60.9210526 L162.736842,61.7631579 L163,62.3421053 C163.052632,62.3947368 163.052632,62.4473684 163.105263,62.5 C163.157895,62.5526316 163.157895,62.5526316 163.210526,62.5526316 C163.315789,62.6052632 163.473684,62.6052632 163.578947,62.6052632 L163.842105,62.6578947 L163.842105,63.1842105 L162.105263,63.1315789 L159.894737,63.1842105 L159.894737,62.6578947 C160.157895,62.6578947 160.473684,62.6578947 160.736842,62.5526316 C160.789474,62.5 160.842105,62.4473684 160.842105,62.3947368 C160.842105,62.2368421 160.789474,62.0263158 160.684211,61.8684211 L160.157895,60.5 L156.947368,60.5 L156.684211,61.2368421 C156.526316,61.5526316 156.421053,61.9210526 156.368421,62.2894737 C156.368421,62.3947368 156.421053,62.4473684 156.473684,62.5 C156.736842,62.6052632 157.052632,62.6052632 157.368421,62.6052632 L157.368421,63.1315789 L155.947368,63.0789474 L154.526316,63.1842105 Z M157.263158,59.7631579 C157.631579,59.7631579 158.105263,59.8157895 158.578947,59.8157895 C159.052632,59.8157895 159.473684,59.8157895 159.842105,59.7631579 L158.526316,56.5526316 L157.263158,59.7631579 Z M172,56.7105263 L171.473684,56.7105263 C171.473684,56.3947368 171.473684,56.0263158 171.421053,55.7105263 C171.263158,55.5 171,55.3421053 170.736842,55.2368421 C170.421053,55.0789474 170.052632,55.0263158 169.684211,55.0263158 C169.210526,54.9736842 168.736842,55.1315789 168.368421,55.4473684 C168.052632,55.7105263 167.894737,56.0789474 167.894737,56.4473684 C167.894737,56.6578947 167.947368,56.9210526 168.052632,57.1315789 C168.157895,57.2894737 168.263158,57.4473684 168.421053,57.5526316 C168.631579,57.6578947 168.894737,57.7631579 169.157895,57.8157895 C169.421053,57.8684211 169.736842,57.9210526 170.157895,58.0263158 C170.578947,58.1315789 170.894737,58.1315789 171,58.1842105 C171.263158,58.2368421 171.578947,58.3421053 171.842105,58.5 C172.052632,58.6052632 172.210526,58.7631579 172.315789,58.9210526 C172.473684,59.0789474 172.578947,59.2894737 172.631579,59.5 C172.736842,59.7631579 172.736842,60.0263158 172.736842,60.3421053 C172.736842,60.8157895 172.631579,61.2894737 172.421053,61.7631579 C172.263158,62.0789474 172,62.3421053 171.736842,62.6052632 C171.473684,62.8157895 171.157895,63.0263158 170.842105,63.1842105 C170.263158,63.3947368 169.684211,63.5 169.052632,63.5 C168.578947,63.5 168.157895,63.4473684 167.684211,63.3421053 C167.210526,63.2368421 166.789474,63.0789474 166.368421,62.8684211 C166.526316,62.1315789 166.578947,61.4473684 166.578947,60.7105263 L167.105263,60.7105263 C167.105263,61.0789474 167.105263,61.4473684 167.157895,61.8157895 C167.368421,62.1315789 167.631579,62.3421053 168,62.5 C168.368421,62.7105263 168.842105,62.8157895 169.263158,62.8157895 C169.631579,62.8157895 170,62.7631579 170.315789,62.6052632 C170.578947,62.5 170.842105,62.2894737 171,62.0263158 C171.157895,61.7631579 171.210526,61.4473684 171.210526,61.1842105 C171.210526,60.9736842 171.157895,60.7105263 171.052632,60.5 C170.947368,60.2894737 170.789474,60.1315789 170.578947,60.0263158 C170.210526,59.8684211 169.842105,59.7631579 169.473684,59.6578947 C168.736842,59.5 168.210526,59.3947368 168,59.2894737 C167.684211,59.1842105 167.368421,59.0263158 167.157895,58.8157895 C166.947368,58.6052632 166.789474,58.3421053 166.684211,58.0789474 C166.578947,57.7631579 166.526316,57.4473684 166.526316,57.1315789 C166.526316,56.7105263 166.631579,56.2368421 166.842105,55.8684211 C167,55.5 167.263158,55.1842105 167.631579,54.9736842 C167.947368,54.7631579 168.315789,54.6052632 168.736842,54.5 C169.157895,54.3947368 169.578947,54.3421053 170,54.3421053 C170.421053,54.3421053 170.842105,54.3947368 171.263158,54.4473684 C171.631579,54.5 172,54.6052632 172.315789,54.7631579 L172.368421,54.9210526 C172.315789,55.1842105 172.263158,55.4473684 172.263158,55.7105263 C172,55.9210526 172,56.2894737 172,56.7105263 Z" id="caesarspalace-stacked-lv-logo-41" fill="#FFFFFF"></path>
</svg>