<svg xmlns="http://www.w3.org/2000/svg" xmlns:xlink="http://www.w3.org/1999/xlink" width="160px" height="54px" viewBox="0 0 160 54" version="1.1">
    <title>Atom/Logo/Caesars Rewards </title>
    <g id="⚛️-Molecules/UI/Interface/Navigation-Links" stroke="none" stroke-width="1" fill="none" fill-rule="evenodd">
        <g id="Primary-Nav" transform="translate(-16.000000, -8.000000)">
            <g id="nav" transform="translate(16.000000, 0.000000)">
                <g id="Atom/Logo/Caesars-Rewards-" transform="translate(0.000000, 8.000000)">
                    <rect id="base" fill-opacity="0" fill="#FFFFFF" x="9.09494702e-13" y="0" width="160" height="54"/>
                    <path d="M36.1274027,31.6451613 C37.3403241,31.6451613 38.117286,31.9692656 38.7047774,32.503334 C39.3490656,33.0948076 39.7468648,33.9534271 39.7468648,34.9074239 C39.7468648,35.8611974 39.3490656,36.7198168 38.7047774,37.3112904 C38.1552244,37.8263727 37.4350593,38.1314909 36.3359533,38.1696865 L41.4525424,45 L40.088089,45 L34.9715,38.1696865 L32.7353495,38.1696865 L32.7353495,45 L31.5983051,45 L31.5983051,31.6451613 L36.1274027,31.6451613 Z M53.4322324,31.6451613 L53.4322324,32.7325077 L47.2492047,32.7325077 L47.2492047,37.0823401 L52.079893,37.0823401 L52.079893,38.1696865 L47.2492047,38.1696865 L47.2492047,43.9126536 L53.6254237,43.9126536 L53.6254237,45 L46.0898305,45 L46.0898305,31.6451613 L53.4322324,31.6451613 Z M111.331654,31.6451613 C113.439395,31.6451613 114.82551,32.1028385 115.907725,32.9040529 C117.541051,34.1251956 118.547458,36.1093572 118.547458,38.322469 C118.547458,40.5358041 117.541051,42.5197423 115.907725,43.7406616 C114.82551,44.5420994 113.439395,45 111.331654,45 L107.533898,45 L107.533898,31.6451613 L111.331654,31.6451613 Z M97.5715725,31.6451613 C98.7842993,31.6451613 99.5612787,31.9692656 100.148783,32.503334 C100.793086,33.0948076 101.190894,33.9534271 101.190894,34.9074239 C101.190894,35.8611974 100.793086,36.7198168 100.148783,37.3112904 C99.5989961,37.8263727 98.8788148,38.1314909 97.7799059,38.1696865 L102.89661,45 L101.532126,45 L96.4156437,38.1696865 L94.1794429,38.1696865 L94.1794429,45 L93.0423729,45 L93.0423729,31.6451613 L97.5715725,31.6451613 Z M58.2664772,31.6451613 L61.8512866,42.6915108 L65.4168973,31.6451613 L66.1797129,31.6451613 L69.7453236,42.6915108 L73.330133,31.6451613 L74.4932203,31.6451613 L70.1076443,45 L69.3448286,45 L65.7984167,34.0295949 L62.2517816,45 L61.4889659,45 L57.1033898,31.6451613 L58.2664772,31.6451613 Z M83.2763909,31.6451613 L88.9847458,45 L87.8505989,45 L86.1116475,40.9744953 L79.6849627,40.9744953 L77.9460113,45 L76.8118644,45 L82.5202192,31.6451613 L83.2763909,31.6451613 Z M126.269257,31.0645161 C127.944127,31.0645161 129.005357,31.8773193 129.60091,32.4193391 L128.893569,33.2708903 C128.130441,32.5741048 127.385837,32.1675899 126.306519,32.1675899 C124.854573,32.1675899 123.681989,33.0968639 123.681989,34.5677045 C123.681989,36.619313 126.306519,36.8903229 128.167704,38.089927 C129.247239,38.7871657 130.140678,39.7934826 130.140678,41.3610801 C130.140678,43.5094455 128.465372,45 126.343564,45 C124.612473,45 123.142004,44.2452057 122.025424,42.7159031 L122.844336,41.9611087 C123.607464,42.986913 124.630995,43.896473 126.343564,43.896473 C127.646459,43.896473 129.024098,42.9289042 129.024098,41.3610801 C129.024098,38.9029567 126.231994,38.6319468 124.333328,37.4128554 C123.365581,36.7933394 122.565191,35.999797 122.565191,34.6257133 C122.565191,32.516096 124.184712,31.0645161 126.269257,31.0645161 Z M111.27452,32.7325077 L108.673247,32.7325077 L108.673247,43.9126536 L111.27452,43.9126536 C113.135494,43.9126536 114.36977,43.5309208 115.319265,42.7868882 C116.62935,41.7567235 117.407886,40.1158758 117.407886,38.322469 C117.407886,36.5290621 116.62935,34.8884378 115.319265,33.8580497 C114.36977,33.1140171 113.135494,32.7325077 111.27452,32.7325077 Z M82.8981944,33.4381214 L80.1386215,39.8867021 L85.6389572,39.8867021 L82.8981944,33.4381214 Z M97.5145526,32.7325077 L94.1794429,32.7325077 L94.1794429,37.0823401 L97.5145526,37.0823401 C98.4621479,37.0823401 98.973774,36.8723759 99.3527234,36.5098527 C99.7886927,36.1093572 100.054046,35.5368697 100.054046,34.9074239 C100.054046,34.2777547 99.7886927,33.7054907 99.3527234,33.3047718 C98.973774,32.9422485 98.4621479,32.7325077 97.5145526,32.7325077 Z M36.0708278,32.7325077 L32.7353495,32.7325077 L32.7353495,37.0823401 L36.0708278,37.0823401 C37.01818,37.0823401 37.5297945,36.8723759 37.9087354,36.5098527 C38.3446948,36.1093572 38.6098203,35.5368697 38.6098203,34.9074239 C38.6098203,34.2777547 38.3446948,33.7054907 37.9087354,33.3047718 C37.5297945,32.9422485 37.01818,32.7325077 36.0708278,32.7325077 Z M126.197848,9 C127.793607,9 129.277205,9.37004873 130.760573,10.4370003 L129.187108,12.6145433 C128.557815,12.0483376 127.501714,11.612829 126.467447,11.612829 C125.32125,11.612829 124.040139,12.0919775 124.040139,13.2675836 C124.040139,15.7281182 131.3,14.9659781 131.3,20.1048016 C131.3,22.8046878 128.805119,24.6774194 125.973068,24.6774194 C123.860406,24.6774194 121.904953,23.8282221 120.286441,22.3909992 L122.264418,20.3877931 C123.16354,21.3458675 124.534518,22.0643677 125.973068,22.0643677 C127.321521,22.0643677 128.265692,21.2588104 128.265692,20.1482189 C128.265692,18.1886528 125.343774,17.9490785 123.230883,16.7514298 C121.994819,16.0547496 121.00583,15.009618 121.00583,13.2894036 C121.00583,10.5676974 123.590577,9 126.197848,9 Z M52.9164507,9 L59.4220339,24.6774194 L56.3646005,24.6774194 L54.9332303,21.2059662 L48.8396511,21.2059662 L47.4085026,24.6774194 L44.3508475,24.6774194 L50.8564307,9 L52.9164507,9 Z M71.9590936,9 L71.9590936,11.6875249 L65.8117728,11.6875249 L65.8117728,14.9349985 L70.4491712,14.9349985 L70.4491712,17.6225234 L65.8117728,17.6225234 L65.8117728,21.9898945 L72.1745763,21.9898945 L72.1745763,24.6774194 L62.9,24.6774194 L62.9,9 L71.9590936,9 Z M81.5638267,9 C83.1595517,9 84.6431186,9.37004873 86.1264557,10.4370003 L84.5530244,12.6145433 C83.9237438,12.0483376 82.867435,11.612829 81.8334199,11.612829 C80.6872467,11.612829 79.406162,12.0919775 79.406162,13.2675836 C79.406162,15.7281182 86.6661017,14.9659781 86.6661017,20.1048016 C86.6661017,22.8046878 84.1710433,24.6774194 81.3390508,24.6774194 C79.2262033,24.6774194 77.2707909,23.8282221 75.6525424,22.3909992 L77.6304783,20.3877931 C78.5295819,21.3458675 79.900531,22.0643677 81.3390508,22.0643677 C82.6877062,22.0643677 83.6316271,21.2588104 83.6316271,20.1482189 C83.6316271,18.1886528 80.7097702,17.9490785 78.5969228,16.7514298 C77.3606553,16.0547496 76.3719172,15.009618 76.3719172,13.2894036 C76.3719172,10.5676974 78.9566102,9 81.5638267,9 Z M96.391027,9 L102.89661,24.6774194 L99.838955,24.6774194 L98.4078065,21.2059662 L92.3142274,21.2059662 L90.8830789,24.6774194 L87.8254237,24.6774194 L94.3307852,9 L96.391027,9 Z M112.040825,9 C113.640635,9 114.662868,9.44795898 115.440393,10.1645559 C116.284718,10.9709279 116.818215,12.1130401 116.818215,13.3673711 C116.818215,14.621473 116.284718,15.7638142 115.440393,16.5699572 C115.01823,16.9730287 114.507227,17.2865542 113.885117,17.4883189 L119.70678,24.6774194 L115.99593,24.6774194 L110.463055,17.7347422 L109.374248,17.7347422 L109.374248,24.6774194 L106.374576,24.6774194 L106.374576,9 L112.040825,9 Z M36.7411666,9 C39.0073824,9 40.9469244,9.84919726 42.3198011,11.1773204 L40.4239344,13.1805264 C39.5087576,12.2660919 38.2230088,11.612829 36.7193289,11.612829 C33.8211575,11.612829 31.6418467,13.9426665 31.6418467,16.8387097 C31.6418467,19.7999901 33.9082854,22.0643677 36.8501321,22.0643677 C38.8331267,22.0643677 40.2715164,21.1062933 41.1648555,19.9522845 L43.1915254,21.7595562 C41.8404864,23.4797707 39.5740478,24.6774194 36.7848419,24.6774194 C32.0342564,24.6774194 28.7,21.2151704 28.7,16.8387097 C28.7,12.4620263 31.990581,9 36.7411666,9 Z M51.8757969,13.8824323 L49.94572,18.5184414 L53.805652,18.5184414 L51.8757969,13.8824323 Z M95.3501514,13.8824323 L93.4202962,18.5184414 L97.2802283,18.5184414 L95.3501514,13.8824323 Z M111.862917,11.6875249 L109.374248,11.6875249 L109.374248,15.0469882 L111.862917,15.0469882 C112.729736,15.0469882 113.107365,14.8678963 113.374114,14.5768145 C113.640635,14.2855038 113.818543,13.8375448 113.818543,13.3895858 C113.818543,12.9194121 113.640635,12.4714531 113.374114,12.1803714 C113.107365,11.8890606 112.729736,11.6875249 111.862917,11.6875249 Z M136.812514,40.5120086 C137.734253,41.4559133 137.734253,42.9482528 136.812514,43.8917185 C135.890995,44.813677 134.398436,44.8354037 133.476916,43.9136647 L133.45475,43.8917185 C132.533011,42.9699795 132.511065,41.4559133 133.45475,40.5120086 C134.376489,39.590489 135.890995,39.5683234 136.812514,40.5120086 L136.812514,40.5120086 Z M137.098034,40.2488741 C136.022452,39.1732924 134.266759,39.1515657 133.16945,40.2488741 C132.094088,41.3240169 132.072142,43.0797103 133.16945,44.1770187 C134.266759,45.2743271 136.000725,45.2743271 137.098034,44.1770187 C137.624522,43.6505301 137.909823,42.9482528 137.909823,42.2018636 C137.909823,41.4559133 137.624522,40.753636 137.098034,40.2488741 L137.098034,40.2488741 Z M135.561802,42.070406 C135.386013,42.1142984 135.232609,42.1360251 135.056821,42.1360251 L134.574224,42.1360251 L134.574224,41.0387167 L135.034875,41.0387167 C135.254336,41.01699 135.473798,41.0606628 135.69326,41.1484475 C135.934667,41.3461825 135.956833,41.6971017 135.759098,41.9165634 C135.69326,41.9824019 135.627641,42.0262942 135.561802,42.070406 L135.561802,42.070406 Z M134.02557,43.694203 L134.552059,43.694203 L134.552059,42.4871638 L134.969255,42.4871638 C135.166552,42.4652176 135.386013,42.5093294 135.561802,42.5968946 C135.759098,42.7066254 135.847102,42.9482528 135.847102,43.299172 L135.847102,43.5407993 L135.847102,43.6283645 L135.847102,43.6505301 L135.847102,43.6722568 L136.351645,43.6722568 L136.329918,43.6283645 C136.307752,43.5844722 136.307752,43.5186337 136.307752,43.4747413 L136.307752,43.2552796 L136.307752,43.035818 C136.307752,42.8602486 136.241914,42.7066254 136.132183,42.5532217 C136.000725,42.3774329 135.824937,42.2677021 135.605475,42.2677021 C135.759098,42.2457559 135.912721,42.2018636 136.044398,42.1142984 C136.241914,41.9824019 136.351645,41.7629402 136.351645,41.5217518 C136.373591,41.1925593 136.198021,40.8850935 135.890995,40.753636 C135.627641,40.6656318 135.34234,40.6217395 135.056821,40.6439051 L133.981678,40.6439051 L134.02557,43.694203 Z" id="Combined-Shape" fill="#343840" fill-rule="nonzero"/>
                </g>
            </g>
        </g>
    </g>
</svg>