<svg xmlns="http://www.w3.org/2000/svg" viewBox="0 0 186 87" version="1.1" class="injected-svg" data-src="/content/dam/empire/logos/logo-train/caesars_sportsbook_and_casino.svg" xmlns:xlink="http://www.w3.org/1999/xlink">
    <path d="M10.2,43.9 L2.00001,35.8 C0.800012,34.7 0.200012,33.3 0.200012,31.5 L0.200012,28.5 C0.200012,26 1.90001,24.2 4.50001,24.2 L11.2,24.2 C13.8,24.2 15.5,26 15.5,28.5 L15.5,33 L10.4,33 L10.4,29.2 C10.4,29.1 10.3,29 10.2,29 L5.40001,29 C5.30001,29 5.200012,29 5.200012,29.2 L5.200012,32 C5.200012,32.2 5.200012,32.2 5.40001,32.4 L13.7,40.6 C14.8,41.7 15.5,43.1 15.5,44.9 L15.5,48.7 C15.5,51.3 13.7,53 11.2,53 L4.50001,53 C1.90001,53 0.200012,51.2 0.200012,48.7 L0.200012,44.2 L5.30001,44.2 L5.30001,48 C5.30001,48.1 5.30001,48.2 5.50001,48.2 L10.3,48.2 C10.4,48.2 10.5,48.1 10.5,48 L10.5,44.3 C10.4,44.1 10.3,44.1 10.2,43.9 Z M30.1,41.7 L24.2,41.7 L24.2,52.9 L19.1,52.9 L19.1,24.2 L30.1,24.2 C32.7,24.2 34.4,26 34.4,28.5 L34.4,37.4 C34.4,39.9 32.7,41.7 30.1,41.7 Z M29.2,28.9 L24.3,28.9 L24.3,36.9 L29.2,36.9 C29.3,36.9 29.4,36.9 29.4,36.7 L29.4,29 C29.3,29 29.3,28.9 29.2,28.9 Z M48.6,52.9 L41.9,52.9 C39.4,52.9 37.6,51.1 37.6,48.6 L37.6,28.4 C37.6,25.9 39.4,24.1 41.9,24.1 L48.6,24.1 C51.2,24.1 52.9,25.9 52.9,28.4 L52.9,48.5 C52.9,51.2 51.2,52.9 48.6,52.9 Z M47.6,28.9 L42.8,28.9 C42.7,28.9 42.6,28.9 42.6,29.1 L42.6,48 C42.6,48.1 42.6,48.2 42.8,48.2 L47.6,48.2 C47.7,48.2 47.8,48.1 47.8,48 L47.8,29.1 C47.8,29 47.7,28.9 47.6,28.9 Z M66.9,52.8 L64,41.7 L61.6,41.7 L61.6,52.9 L56.5,52.9 L56.5,24.2 L67.5,24.2 C70.1,24.2 71.8,26 71.8,28.5 L71.8,37.4 C71.8,39.5 70.7,41 68.8,41.5 L72.2,52.8 L66.9,52.8 Z M61.7,37 L66.6,37 C66.7,37 66.8,37 66.8,36.8 L66.8,29.1 C66.8,29 66.7,28.9 66.6,28.9 L61.7,28.9 L61.7,37 Z M84.7,28.9 L84.7,52.8 L79.6,52.8 L79.6,28.9 L74.5,28.9 L74.5,24.2 L89.8,24.2 L89.8,28.9 L84.7,28.9 Z M102.5,43.9 L94.2,35.7 C93,34.6 92.4,33.2 92.4,31.4 L92.4,28.4 C92.4,25.9 94.1,24.1 96.7,24.1 L103.4,24.1 C106,24.1 107.7,25.9 107.7,28.4 L107.7,32.9 L102.6,32.9 L102.6,29.1 C102.6,29 102.5,28.9 102.4,28.9 L97.6,28.9 C97.5,28.9 97.4,28.9 97.4,29.1 L97.4,31.9 C97.4,32.1 97.4,32.1 97.6,32.3 L105.9,40.5 C107,41.6 107.7,43 107.7,44.8 L107.7,48.6 C107.7,51.2 105.9,52.9 103.4,52.9 L96.7,52.9 C94.1,52.9 92.4,51.1 92.4,48.6 L92.4,44.1 L97.5,44.1 L97.5,48 C97.5,48.1 97.5,48.2 97.7,48.2 L102.5,48.2 C102.6,48.2 102.7,48.1 102.7,48 L102.7,44.3 C102.6,44.1 102.6,44.1 102.5,43.9 Z M122.4,52.8 L111.4,52.8 L111.4,24.2 L122.4,24.2 C125,24.2 126.7,26 126.7,28.5 L126.7,34.6 C126.7,36.4 126,37.5 124.7,37.9 L124.7,38 C126,38.4 126.7,39.6 126.7,41.3 L126.7,48.5 C126.7,51.1 125,52.8 122.4,52.8 Z M121.6,35.6 L121.6,29.1 C121.6,29 121.5,28.9 121.4,28.9 L116.5,28.9 L116.5,35.7 L121.4,35.7 C121.6,35.7 121.6,35.7 121.6,35.6 Z M121.6,48 L121.6,40.4 C121.6,40.3 121.5,40.2 121.4,40.2 L116.5,40.2 L116.5,48.1 L121.4,48.1 C121.6,48.1 121.6,48.1 121.6,48 Z M141.4,52.9 L134.7,52.9 C132.2,52.9 130.4,51.1 130.4,48.6 L130.4,28.4 C130.4,25.9 132.2,24.1 134.7,24.1 L141.4,24.1 C144,24.1 145.7,25.9 145.7,28.4 L145.7,48.5 C145.7,51.2 143.9,52.9 141.4,52.9 Z M140.4,28.9 L135.6,28.9 C135.5,28.9 135.4,28.9 135.4,29.1 L135.4,48 C135.4,48.1 135.4,48.2 135.6,48.2 L140.4,48.2 C140.5,48.2 140.6,48.1 140.6,48 L140.6,29.1 C140.6,29 140.5,28.9 140.4,28.9 Z M160.3,52.9 L153.6,52.9 C151.1,52.9 149.3,51.1 149.3,48.6 L149.3,28.4 C149.3,25.9 151.1,24.1 153.6,24.1 L160.3,24.1 C162.9,24.1 164.6,25.9 164.6,28.4 L164.6,48.5 C164.7,51.2 162.9,52.9 160.3,52.9 Z M159.4,28.9 L154.6,28.9 C154.5,28.9 154.4,28.9 154.4,29.1 L154.4,48 C154.4,48.1 154.4,48.2 154.6,48.2 L159.4,48.2 C159.5,48.2 159.6,48.1 159.6,48 L159.6,29.1 C159.6,29 159.5,28.9 159.4,28.9 Z M179.9,52.8 L175.6,42.1 L173.4,46.5 L173.4,52.8 L168.3,52.8 L168.3,24.2 L173.4,24.2 L173.4,37.4 L179.8,24.2 L185.2,24.2 L178.9,36.7 L185.6,52.8 L179.9,52.8 Z M9.20001,3 C8.100006,3 7.20001,3.3 6.30001,3.8 C5.40001,4.3 4.70001,5 4.20001,5.9 C3.70001,6.8 3.50001,7.8 3.50001,8.9 C3.50001,10.6 4.100006,12 5.20001,13.1 C6.30001,14.2 7.70001,14.8 9.40001,14.8 C10.4,14.8 11.4,14.6 12.2,14.1 C13,13.7 13.7,13.1 14.3,12.4 L16.600006,14.4 C15.8,15.4 14.8,16.2 13.5,16.8 C12.2,17.4 10.9,17.7 9.30001,17.7 C8.00001,17.7 6.80001,17.5 5.600006,17 C4.40001,16.5 3.50001,15.9 2.70001,15.1 C1.90001,14.3 1.30001,13.4 0.800006,12.3 C0.300006,11.2 0.100006,10.1 0.100006,8.8 C0.100006,7.5 0.300006,6.4 0.800006,5.3 C1.30001,4.2 1.90001,3.3 2.70001,2.5 C3.50001,1.7 4.40001,1.1 5.600006,0.6 C6.80001,0.1 7.90001,0 9.20001,0 C10.4,0 11.600006,0.2 12.7,0.6 C13.8,1 14.7,1.6 15.5,2.4 L13.4,4.7 C12.2,3.5 10.8,3 9.20001,3 Z M21,17.5 L17.5,17.5 L24.9,0.300003 L27.2,0.300003 L34.6,17.5 L31.1,17.5 L29.5,13.7 L22.6,13.7 L21,17.5 Z M26.1,5.6 L23.9,10.7 L28.3,10.7 L26.1,5.6 Z M46.9,3.199997 L39.9,3.199997 L39.9,6.8 L45.2,6.8 L45.2,9.8 L39.9,9.8 L39.9,14.6 L47.2,14.6 L47.2,17.6 L36.6,17.6 L36.6,0.199997 L46.9,0.199997 L46.9,3.199997 Z M48.7,15.1 L50.9,12.8 C51.4,13.4 52,13.8 52.7,14.2 C53.4,14.5 54.2,14.7 54.9,14.7 C55.6,14.7 56.2,14.5 56.7,14.1 C57.2,13.7 57.4,13.2 57.4,12.5 C57.4,12.1 57.3,11.7 57.1,11.4 C56.9,11.1 56.6,10.8 56.1,10.6 C55.6,10.4 55.3,10.2 54.8,10 C54.4,9.8 53.9,9.6 53.3,9.4 C52.7,9.2 52.4,9 52,8.8 C50.4,7.8 49.6,6.5 49.6,4.9 C49.6,4.2 49.8,3.5 50.1,2.9 C50.4,2.3 50.9,1.8 51.4,1.4 C51.9,1 52.5,0.7 53.2,0.5 C53.8,0.1 54.5,0 55.2,0 C57.1,0 58.7,0.5 60.2,1.6 L58.5,4.1 C58.1,3.8 57.7,3.5 57.2,3.3 C56.6,3.1 56.1,3 55.5,3 C55.2,3 54.9,3 54.6,3.1 C54.3,3.2 54,3.3 53.8,3.4 C53.5,3.5 53.3,3.7 53.2,4 C53.1,4.3 53,4.5 53,4.9 C53,5.2 53.1,5.5 53.3,5.8 C53.5,6.1 53.8,6.3 54.2,6.5 C54.6,6.7 55,6.9 55.5,7.1 C56,7.3 56.5,7.5 57,7.7 C57.5,7.9 58,8.1 58.5,8.4 C59,8.7 59.4,9 59.8,9.4 C60.2,9.8 60.5,10.2 60.7,10.8 C60.9,11.4 61,12 61,12.7 C61,13.7 60.7,14.6 60.2,15.4 C59.7,16.2 58.9,16.8 58.1,17.2 C57.3,17.6 56,17.7 55,17.7 C52.7,17.7 50.6,16.8 48.7,15.1 Z M65.2,17.5 L61.7,17.5 L69.1,0.300003 L71.4,0.300003 L78.8,17.5 L75.3,17.5 L73.7,13.7 L66.8,13.7 L65.2,17.5 Z M70.3,5.6 L68.1,10.7 L72.5,10.7 L70.3,5.6 Z M85.4,9.8 L84.2,9.8 L84.2,17.4 L80.9,17.4 L80.9,0.199997 L87.2,0.199997 C88.8,0.199997 90,0.599997 91,1.5 C91.5,2 91.9,2.5 92.1,3.1 C92.3,3.699997 92.5,4.3 92.5,5 C92.5,5.699997 92.3,6.4 92,7 C91.7,7.6 91.4,8.1 90.9,8.6 C90.4,9.1 89.8,9.4 89.2,9.6 L95.7,17.5 L91.6,17.5 L85.4,9.8 Z M84.2,6.9 L87,6.9 C87.8,6.9 88.3,6.7 88.7,6.4 C89,6 89.2,5.6 89.2,5.1 C89.2,4.6 89,4.1 88.7,3.8 C88.4,3.4 87.8,3.3 87,3.3 L84.2,3.3 L84.2,6.9 Z M96,15.1 L98.2,12.8 C98.7,13.4 99.3,13.8 100,14.199997 C100.7,14.5 101.5,14.699997 102.2,14.699997 C102.9,14.699997 103.5,14.5 104,14.1 C104.5,13.699997 104.7,13.199997 104.7,12.5 C104.7,12.1 104.6,11.699997 104.4,11.4 C104.2,11.1 103.9,10.8 103.4,10.6 C103,10.4 102.6,10.199997 102.1,10 C101.6,9.8 101.2,9.6 100.6,9.4 C100,9.199997 99.6,9 99.2,8.8 C97.6,7.8 96.8,6.5 96.8,4.9 C96.8,4.199997 97,3.5 97.3,2.9 C97.6,2.3 98.1,1.8 98.6,1.4 C99.1,0.999997 99.7,0.699997 100.4,0.499997 C101.1,0.299997 101.8,0.199997 102.5,0.199997 C104.4,0.199997 106,0.699997 107.5,1.8 L105.8,4.3 C105.4,4 105,3.699997 104.5,3.5 C104,3.3 103.4,3.199997 102.9,3.199997 C102.6,3.199997 102.3,3.199997 102,3.3 C101.7,3.4 101.4,3.5 101.2,3.6 C101,3.699997 100.7,3.9 100.6,4.199997 C100.4,4.4 100.4,4.699997 100.4,5.1 C100.4,5.4 100.5,5.699997 100.7,6 C100.9,6.3 101.2,6.5 101.6,6.699997 C102,6.9 102.4,7.1 102.9,7.3 C103.4,7.5 103.9,7.699997 104.4,7.9 C104.9,8.1 105.4,8.3 105.9,8.6 C106.4,8.9 106.8,9.199997 107.2,9.6 C107.6,10 107.9,10.4 108.1,11 C108.3,11.6 108.4,12.199997 108.4,12.9 C108.4,13.9 108.1,14.8 107.6,15.6 C107.1,16.4 106.3,17 105.5,17.4 C104.6,17.8 103.7,18 102.6,18 C99.9,17.699997 97.8,16.8 96,15.1 Z M20.1,86.7 L15.4,82 L14.7,83.3 C13.8,85 12.4,86.3 10.1,86.3 L4.3,86.3 C1.8,86.3 0,84.5 0,82 L0,75.9 C0,74.1 0.7,73.2 1.7,72.1 L3.5,70.3 L2.7,69.5 C1.7,68.5 0.8,67.2 0.8,65.5 L0.8,62 C0.8,59.6 2.6,57.7 5.1,57.7 L11.8,57.7 C14.4,57.7 16.1,59.5 16.1,61.9 L16.1,66.4 L11,66.4 L11,62.6 C11,62.5 10.9,62.4 10.8,62.4 L6.1,62.4 C6,62.4 5.9,62.4 5.9,62.6 L5.9,65.7 C5.9,65.8 5.9,65.9 6,66 L14.2,74.1 L16.7,69.2 L21.9,69.2 L17.7,77.6 L23.5,83.4 L20.1,86.7 Z M11.9,78.6 L6.9,73.6 L5.2,75.4 C5.1,75.5 5.1,75.6 5.1,75.7 L5.1,81.4 C5.1,81.5 5.1,81.6 5.3,81.6 L10.2,81.6 C10.4,81.6 10.4,81.5 10.5,81.4 L11.9,78.6 Z M41.1,86.3 L34.4,86.3 C31.9,86.3 30.1,84.5 30.1,82 L30.1,61.9 C30.1,59.4 31.9,57.6 34.4,57.6 L41.1,57.6 C43.6,57.6 45.4,59.4 45.4,61.9 L45.4,66.3 L40.3,66.3 L40.3,62.5 C40.3,62.4 40.2,62.3 40.1,62.3 L35.3,62.3 C35.2,62.3 35.1,62.3 35.1,62.5 L35.1,81.3 C35.1,81.4 35.1,81.5 35.3,81.5 L40.1,81.5 C40.2,81.5 40.3,81.4 40.3,81.3 L40.3,77.5 L45.4,77.5 L45.4,82 C45.5,84.5 43.7,86.3 41.1,86.3 Z M60,82.4 L53.8,82.4 L53,86.3 L47.7,86.3 L53.8,57.8 L60,57.8 L66.1,86.3 L60.8,86.3 L60,82.4 Z M59.1,77.9 L57.1,67 L57,66 L56.9,67 L54.8,77.9 L59.1,77.9 Z M78.4,77.4 L70.2,69.2 C69,68.1 68.4,66.7 68.4,64.9 L68.4,61.9 C68.4,59.4 70.1,57.6 72.7,57.6 L79.4,57.6 C82,57.6 83.7,59.4 83.7,61.9 L83.7,66.3 L78.6,66.3 L78.6,62.5 C78.6,62.4 78.5,62.3 78.4,62.3 L73.6,62.3 C73.5,62.3 73.4,62.3 73.4,62.5 L73.4,65.3 C73.4,65.5 73.4,65.5 73.6,65.7 L81.8,73.9 C82.9,75 83.6,76.4 83.6,78.2 L83.6,82 C83.6,84.6 81.8,86.3 79.3,86.3 L72.6,86.3 C70,86.3 68.3,84.5 68.3,82 L68.3,77.6 L73.4,77.6 L73.4,81.4 C73.4,81.5 73.4,81.6 73.6,81.6 L78.4,81.6 C78.5,81.6 78.6,81.5 78.6,81.4 L78.6,77.7 C78.6,77.6 78.5,77.5 78.4,77.4 Z M87.3,86.3 L87.3,57.7 L92.4,57.7 L92.4,86.2 L87.3,86.2 L87.3,86.3 Z M106.7,86.3 L101.2,69.8 L101.1,69.2 L101.1,86.3 L96.1,86.3 L96.1,57.7 L101.5,57.7 L106.2,72.3 L106.3,72.9 L106.3,57.7 L111.3,57.7 L111.3,86.2 L106.7,86.2 L106.7,86.3 Z M125.9,86.3 L119.2,86.3 C116.7,86.3 114.9,84.5 114.9,82 L114.9,61.9 C114.9,59.4 116.7,57.6 119.2,57.6 L125.9,57.6 C128.5,57.6 130.2,59.4 130.2,61.9 L130.2,82 C130.2,84.6 128.5,86.3 125.9,86.3 Z M125,62.4 L120.2,62.4 C120.1,62.4 120,62.4 120,62.6 L120,81.4 C120,81.5 120,81.6 120.2,81.6 L125,81.6 C125.1,81.6 125.2,81.5 125.2,81.4 L125.2,62.6 C125.2,62.4 125.1,62.4 125,62.4 Z" fill="#343840" fill-rule="nonzero"></path>
</svg>