<svg xmlns="http://www.w3.org/2000/svg" xmlns:xlink="http://www.w3.org/1999/xlink" viewBox="0 0 73 34" version="1.1" class="injected-svg" data-src="/content/dam/empire/logos/brand-logos/circus_circus.svg">
	<title>Circus Circus</title>
  <path d="M10.8818397,19.9288083 C9.80977453,19.9086283 9.62058656,20.5594349 9.62058656,20.9655584 C9.62058656,21.4952847 9.75175689,21.7374453 10.4858062,21.9846509 C10.1099528,22.9457258 9.32293083,23.2509491 8.03393014,23.2635616 C5.77880955,23.2837416 5.5971891,21.4549246 5.61484665,20.3248418 C5.8771873,18.6070151 7.02492764,19.0888137 7.01231511,19.0030485 C6.95429746,18.586835 6.51538138,18.2563867 5.80655712,18.188279 C5.73088194,18.1807115 5.65520675,18.1756665 5.57700905,18.1756665 C5.57700905,17.7317054 5.57700905,17.0380162 5.64259422,16.5991001 C5.80151211,15.5043324 6.38925607,14.9191109 7.41843861,14.9418135 C8.37194597,14.964516 9.27752571,15.0351462 9.42635358,16.4679298 L9.4313986,16.7378379 L11.3131883,16.7378379 L11.3131883,13.3072294 L9.6760817,13.3072294 C8.52834136,13.2239867 8.14492041,13.115519 6.99718007,13.115519 C4.72440194,13.1230865 1.45018884,13.8798384 1.22820829,17.7115253 C3.05702532,17.6383727 3.38495113,19.1064713 3.38495113,19.1064713 C3.0923404,18.3320619 1.80081721,18.2109816 1.22316328,18.2261166 C0.509294011,18.2462967 0.0804679492,18.5843125 0.00479276186,18.990436 C-0.0254773131,19.1291738 1.08190293,18.5515199 1.34424358,20.2668242 C1.58892668,21.9644709 2.06315786,25.1932789 7.31249335,25.1932789 C10.0595026,25.1932789 11.9892199,23.8513055 12.1784079,21.7954629 C12.2591281,20.9277208 12.0094,19.9489884 10.8818397,19.9288083 M18.8595179,23.4588036 C18.8670855,23.1535803 18.8242028,20.406571 18.8418604,20.3687334 C19.104201,18.6509067 20.080411,19.1730655 20.0652759,18.9990125 C20.0223933,18.582799 19.6061798,18.2170356 18.894833,18.1968555 C18.8822205,18.1968555 18.9024005,14.9831826 18.894833,14.8747148 C18.8267254,14.2339982 19.6314048,14.3046284 20.2342838,14.1734581 L20.2342838,13.2855359 L12.9669433,13.2855359 L12.9669433,14.158323 C13.6354075,14.1860706 14.4703571,14.2693133 14.5056722,14.9125524 C14.5208072,15.1421005 14.5107172,17.6999218 14.5107172,17.6999218 C16.2663815,17.6469492 16.6069199,18.9435174 16.6069199,18.9435174 C15.9611583,18.1237029 14.9042281,18.194333 14.3316192,18.2069456 C13.61775,18.2271256 13.0325285,18.6206366 13.0779336,19.0191926 C13.0855011,19.1074803 14.2761241,18.6887443 14.5384647,20.406571 C14.5384647,20.4645887 14.5939599,22.6314215 14.5208072,23.3932184 C14.4627895,23.9860074 13.5622548,24.1045652 12.9543308,24.1953754 L12.9543308,25.0479825 L20.2494189,25.040415 L20.2494189,24.2180779 C19.5809547,24.1852854 18.8393379,24.1020427 18.8595179,23.4588036 M55.8076759,14.1103954 C56.4206449,14.2213857 56.9831638,14.3172409 57.068929,14.95039 C57.1017216,15.1875056 57.068929,17.9471274 57.079019,18.179198 C56.9327137,18.179198 57.0033438,18.189288 56.9554162,18.1918105 C56.2390245,18.2069456 56.0599265,18.602979 56.0246114,19.0166701 C56.0145214,19.1554079 57.1219016,18.572709 57.1420817,20.810172 C57.1900093,20.9186398 57.079019,21.6930492 57.079019,21.6930492 C56.8065884,22.4371885 56.5089326,22.9240322 54.9853389,23.0728601 C52.8538211,23.0728601 52.6873357,22.2959282 52.4628326,21.5416988 C52.4628326,21.5416988 52.3493198,20.9489099 52.3795899,20.7017042 C52.3165272,18.4642412 53.7770584,19.1932455 53.7644458,19.0116251 C53.7316532,18.6004565 53.2801246,18.2271256 52.5687779,18.2094681 C52.5536428,18.2094681 52.5385078,18.1968555 52.5233728,18.1968555 C52.5258953,18.1010003 52.5258953,15.5103864 52.5183277,14.9175974 C52.5031927,14.3248085 53.2624671,14.2592233 53.8552561,14.1179629 L53.8552561,13.2880584 L46.6307982,13.3006709 L46.6307982,14.1457105 C47.2866498,14.1684131 48.1165544,14.2213857 48.1543919,14.8646248 C48.1670045,15.0891278 48.1569145,17.6822643 48.1569145,17.6822643 C49.8520386,17.6469492 50.1471719,18.792167 50.1471719,18.792167 C49.4938428,18.1262254 48.2956523,18.1918105 47.9097088,18.2094681 C47.1933171,18.2447832 46.7897161,18.5853215 46.754401,18.9990125 C46.7367434,19.1932455 47.9374564,18.582799 48.1997971,20.3031483 C48.4545702,24.0768176 49.5241128,25.1539278 54.054534,25.1539278 C56.9554162,25.1942879 58.9456737,24.7074442 59.1146816,21.8393546 C59.1146816,21.8393546 59.1676542,20.6714342 59.1550417,20.396481 C59.4173823,18.6786542 60.1741342,19.0898228 60.1766567,19.0116251 C60.2018818,18.597934 59.8689109,18.2069456 59.1550417,18.1918105 C59.1121591,18.189288 59.0692765,18.1867655 59.0289164,18.189288 C59.0263939,17.3694735 59.0339614,15.2682258 59.0289164,15.0184977 C59.0112588,14.4257087 59.6721555,14.322286 60.2422419,14.1356205 L60.2447644,13.3057159 L55.8051534,13.3082384 L55.8076759,14.1103954 Z M68.0249304,18.699591 C67.0234954,17.882299 68.2393434,17.6073458 68.2141183,17.5518507 C68.0476329,17.1886098 67.2126834,17.0877095 66.6703445,17.3399602 C66.5795343,17.3828428 66.3853013,17.5417607 66.2919686,17.5947333 C64.3672963,17.1280696 64.7128797,14.9561918 66.269266,14.9637593 C67.4245739,14.9688043 67.9315976,15.052047 68.1283531,16.5756408 L68.1283531,16.8405039 L70.0076203,16.8405039 L70.0076203,13.3165627 L68.3705137,13.3165627 C67.2252959,13.23332 66.7308847,13.0516996 65.3359387,13.0541961 C61.5572244,13.0567446 60.7752474,14.439078 60.79795,16.6160009 C60.997228,18.464998 62.5410018,19.1460746 62.5410018,19.1460746 C64.0040554,18.2127473 65.1871109,19.0804895 65.1871109,19.0804895 C64.1629733,18.8711215 63.623157,19.0905795 63.1615383,19.4285953 C62.5864069,19.8548989 62.8916302,20.4325528 63.1766734,20.6948935 C63.3103662,20.8184963 63.3885639,19.9305741 64.9550403,20.3770577 C65.8883676,20.7781362 65.8808001,21.4415553 65.865665,22.0948844 C65.84044,23.4570378 63.9662178,23.4570378 63.1161332,22.9853291 C63.3784739,22.7810061 63.2649611,22.8163212 63.3406363,22.306775 C63.2271235,21.1766922 62.4552366,21.0631794 61.6656921,21.0833594 C61.1384883,21.0631794 60.3136288,21.5802932 60.3741689,22.7885737 C60.4498441,24.3752301 62.2862287,25.1294595 64.7860324,25.1294595 C66.2364735,25.1294595 68.1031281,25.0134242 69.3820387,23.9817191 C70.6281568,22.7759611 70.8173448,20.4174178 68.0249304,18.699591 M45.3198517,19.986826 C44.2477865,19.9666459 44.0611211,20.6174525 44.0611211,21.0260985 C44.0611211,21.5533023 44.1948139,21.7979855 44.9238182,22.0426686 C44.5504873,23.0037434 43.7634653,23.3114892 42.4744646,23.3241017 C40.2168215,23.3392368 40.0352011,21.5154648 40.0553811,20.3803369 C40.3177218,18.6675552 41.4654621,19.1468314 41.4503271,19.0610662 C41.394832,18.6448527 40.9584384,18.3144043 40.2445691,18.2488192 C40.1739389,18.2412517 40.0957412,18.2362066 40.015021,18.2362066 C40.015021,17.7922455 40.0175436,17.0960338 40.0831287,16.6571177 C40.2420466,15.56235 40.8297906,14.9746061 41.8589731,14.9998311 C42.8124805,15.0225337 43.7180602,15.0931639 43.8668881,16.5259474 L43.8719331,16.7983781 L45.7512002,16.7983781 L45.7512002,13.3677696 L44.1166162,13.3677696 C42.9663534,13.2845269 42.605635,13.1533566 41.4578946,13.1558432 C39.187639,13.1659691 35.8907233,13.9403785 35.6662203,17.7720655 C37.5000823,17.6963903 37.8254856,19.1670114 37.8254856,19.1670114 C37.5328749,18.3900795 36.2388292,18.2689992 35.6636978,18.2866568 C34.9498285,18.3017918 34.5210024,18.6423301 34.4428048,19.0509762 C34.4150572,19.189714 35.5224374,18.6070151 35.7847781,20.3248418 C36.0294612,22.0224885 36.5036924,25.238684 41.7530278,25.238684 C44.5000371,25.238684 46.4297544,23.9093232 46.6189424,21.8534806 C46.6971401,20.9857384 46.4499345,20.007006 45.3198517,19.986826 M28.1698362,18.1171443 C27.6476774,18.160027 27.1709238,18.0641717 27.1709238,17.5420129 C27.1658787,16.3236424 27.1456987,16.2933723 27.1759688,15.6097731 C27.2062388,14.8883364 27.6098398,14.9009489 28.084071,14.9135614 C29.0148758,14.9337415 29.5874847,15.549233 29.698475,16.0335542 C29.9456806,17.0930068 29.4689269,18.0616492 28.1698362,18.1171443 M34.0069157,22.9553113 C34.0069157,22.9553113 34.3247515,19.1286693 31.5651296,18.8991213 C31.6004447,18.6594832 34.2137612,18.578763 34.1607886,16.4749928 C34.1456535,15.7358985 34.7762801,13.2865449 29.095596,13.2865449 C28.9064081,13.3067249 21.7349228,13.2461848 21.7349228,13.2840224 L21.7399678,14.2022147 C21.9518583,14.1870796 23.1752739,14.2274397 23.2660841,14.9186064 C23.2938317,15.145632 23.2660841,17.7009308 23.2660841,17.7009308 C24.4819321,17.6277781 25.1705763,18.4425476 25.3067916,18.8284911 C24.64085,18.2306571 23.6040999,18.2003871 23.230769,18.2306571 C22.5219447,18.2937198 21.8383456,18.6317356 21.835823,19.0454266 C21.8333005,19.171552 23.0138335,18.6998433 23.2761741,20.41767 C23.2761741,20.5513629 23.3266242,23.2050394 23.230769,23.3740474 C22.9381583,23.8962061 22.3579818,24.0702591 21.7450128,24.1610693 L21.7450128,25.051514 L28.5885723,25.0489915 L28.5885723,24.1963844 C27.9201081,24.1686368 27.2264189,24.050079 27.2037163,23.4093624 C27.1810138,22.8619786 27.1532662,20.6901007 27.1709238,20.6522631 C27.3575892,19.9560514 27.9554232,19.7920885 28.5885723,19.8475836 C29.2217213,19.9005563 29.7388351,20.596768 29.8523479,20.8818112 C30.2080213,21.5780229 29.9582932,25.051514 30.0768509,25.051514 L35.4750143,25.051514 C35.4825818,24.7639483 35.4750143,24.1862944 35.4346542,24.1812494 C34.5088944,24.0778266 34.0270957,24.2367445 34.0069157,22.9553113 M71.2532339,24.9332085 C70.8042278,24.9332085 70.4510769,24.5851026 70.4510769,24.1108714 C70.4510769,23.6442078 70.8042278,23.2961019 71.2532339,23.2961019 C71.697195,23.2961019 72.0503458,23.6442078 72.0503458,24.1108714 C72.0503458,24.5851026 71.697195,24.9332085 71.2532339,24.9332085 M71.2532339,23.1296165 C70.710895,23.1296165 70.2543214,23.54583 70.2543214,24.1108714 C70.2543214,24.6809578 70.710895,25.0971714 71.2532339,25.0971714 C71.7905277,25.0971714 72.2471013,24.6809578 72.2471013,24.1108714 C72.2471013,23.54583 71.7905277,23.1296165 71.2532339,23.1296165 M71.0463884,24.0465475 L71.0463884,23.6908741 L71.2809814,23.6908741 C71.3995392,23.6908741 71.5256645,23.7186217 71.5256645,23.8573596 C71.5256645,24.033935 71.3970167,24.0465475 71.2507114,24.0465475 L71.0463884,24.0465475 Z M71.707285,23.8674496 C71.707285,23.645469 71.5735922,23.5470913 71.308729,23.5470913 L70.8723354,23.5470913 L70.8723354,24.6796966 L71.0463884,24.6796966 L71.0463884,24.1903304 L71.2431438,24.1903304 L71.5433221,24.6796966 L71.7350326,24.6796966 L71.4146743,24.1802404 C71.5786372,24.1600603 71.707285,24.0692501 71.707285,23.8674496 L71.707285,23.8674496 Z M10.8805784,6.87660427 C9.80599077,6.85642422 9.61932531,7.50723083 9.61932531,7.91083183 C9.61932531,8.44308065 9.75049563,8.68776375 10.484545,8.92992435 C10.106169,9.89352174 9.32166957,10.198745 8.03266888,10.2113575 C5.7775483,10.2315376 5.59592785,8.40272055 5.6135854,7.27263775 C5.87592604,5.55733351 7.02366639,6.03660969 7.01357636,5.95336699 C6.95303621,5.53463095 6.51412012,5.20166013 5.80529587,5.13859747 C5.73214319,5.12850744 5.656468,5.12598494 5.5757478,5.12598494 C5.5757478,4.68202384 5.57827031,3.98328961 5.64133296,3.54689603 C5.80025086,2.45465083 6.38799481,1.86942938 7.41969987,1.88960943 C8.37320723,1.91231198 9.27626446,1.98294216 9.42509233,3.4157257 L9.43265985,3.68815638 L11.311927,3.68815638 L11.311927,0.257547887 L9.67482045,0.257547887 C8.52960261,0.169260169 8.14365916,0.0607924005 6.99591882,0.063271715 C4.7256632,0.0708824255 1.45145009,0.830156805 1.22694704,4.65932128 C3.06080908,4.5861686 3.38368988,6.05426724 3.38368988,6.05426724 C3.09360166,5.28238033 1.79955595,5.15877752 1.22442453,5.17391256 C0.510555264,5.19409261 0.0792066961,5.53210844 0.0010090025,5.93823195 C-0.0242160599,6.0794923 1.08064167,5.49931586 1.34550483,7.21714261 C1.59018794,8.91478932 2.06441911,12.1435973 7.3137546,12.1435973 C10.0607639,12.1435973 11.9879587,10.801624 12.1771466,8.7457814 C12.2578668,7.87551674 12.0106612,6.89678432 10.8805784,6.87660427 M20.2476531,11.1641081 C19.579189,11.1363606 18.8375721,11.0505954 18.8577522,10.4098788 C18.8678422,10.1046555 18.8224371,7.35512371 18.8400946,7.31728611 C19.1024353,5.59945936 20.0811677,6.12414066 20.0660327,5.94756522 C20.0231501,5.5338742 19.604414,5.16306578 18.8930673,5.14540824 C18.8804547,5.14540824 18.9031573,1.93173528 18.8905448,1.82326751 C18.8274821,1.18255093 19.6296391,1.2531811 20.2350406,1.12453328 L20.2350406,0.234088579 L12.9677001,0.234088579 L12.9677001,1.10687574 C13.6361643,1.13714581 14.4685913,1.21786601 14.5064289,1.86110511 C14.5190414,2.08813067 14.5114739,4.65099701 14.5114739,4.65099701 C16.2671383,4.59550188 16.6076766,5.89459259 16.6076766,5.89459259 C15.9593925,5.07225556 14.9024624,5.14288573 14.3298535,5.15802077 C13.6185067,5.17567831 13.0332853,5.56666678 13.0761679,5.96774527 C13.0837354,6.05603299 14.2768808,5.63477445 14.5392215,7.35764621 C14.5392215,7.41314135 14.5947166,9.58249672 14.5190414,10.3417711 C14.4635463,10.9370826 13.5630116,11.0531179 12.9500426,11.1414056 L12.9500426,11.9940127 L20.2476531,11.9864452 L20.2476531,11.1641081 Z M48.1516172,1.81317749 C48.1667522,2.03768054 48.1566622,4.62829446 48.1566622,4.62829446 C49.8517864,4.59802438 50.1469196,5.74324222 50.1469196,5.74324222 C49.491068,5.07477806 48.2954,5.13784072 47.9069341,5.15802077 C47.1930648,5.19333585 46.7869413,5.5338742 46.7541487,5.95008773 C46.7364912,6.14432071 47.9397267,5.5338742 48.2020673,7.24917844 C48.4568404,11.0253703 49.5238606,12.099958 54.0517593,12.099958 C56.9526415,12.1428406 58.9454214,11.6585194 59.1119068,8.79042976 C59.1119068,8.79042976 59.1648794,7.62250937 59.1547894,7.34503368 C59.4196526,5.62972944 60.1738819,6.03837545 60.178927,5.96017775 C60.2016295,5.54396422 59.8686587,5.15802077 59.1547894,5.13784072 C59.1119068,5.13784072 59.0715467,5.13531821 59.0286641,5.13784072 C59.0286641,4.32054869 59.0362316,2.21677849 59.0286641,1.96957288 C59.0110066,1.3742614 59.6744257,1.27336115 60.2419896,1.08669569 L60.2445121,0.256791136 L55.8074236,0.259313642 L55.8074236,1.05642561 C56.4203927,1.1724609 56.9829115,1.26579363 57.0711993,1.8989427 C57.1014693,2.13353578 57.0711993,4.89315761 57.0812893,5.12775069 C56.9324614,5.12775069 57.0030916,5.13784072 56.9526415,5.13784072 C56.2387722,5.15802077 56.0571518,5.55405425 56.0268817,5.96774527 C56.0142691,6.1014381 57.1241719,5.52126167 57.1443519,7.7587247 C57.1897571,7.86719247 57.0812893,8.64160189 57.0812893,8.64160189 C56.8038136,9.38321873 56.5086804,9.87258494 54.9825641,10.0188903 C52.8535688,10.0188903 52.6870834,9.24448088 52.4625804,8.49025152 C52.4625804,8.49025152 52.3515901,7.89746255 52.3793377,7.65277944 C52.316275,5.41027139 53.7768061,6.14432071 53.7667161,5.96017775 C53.731401,5.54648673 53.2849174,5.17567831 52.5685256,5.15802077 C52.5533906,5.15802077 52.5382555,5.14540824 52.5231205,5.14540824 C52.525643,5.04703049 52.525643,2.45893909 52.5180755,1.86867263 C52.5079855,1.27588366 53.2622148,1.2102985 53.8550038,1.06903815 L53.8550038,0.239133592 L46.6305459,0.244178604 L46.6305459,1.09426321 C47.2863975,1.11948827 48.1163021,1.1699384 48.1516172,1.81317749 M63.338366,9.25507541 C63.2248532,8.12499261 62.4554888,8.01147983 61.6634219,8.03165988 C61.1387406,8.01147983 60.313881,8.5260711 60.3744212,9.7368741 C60.4475739,11.321008 62.2839584,12.0777599 64.7837621,12.0777599 C66.2316807,12.0777599 68.1008578,11.9642471 69.3797685,10.9300196 C70.6284091,9.72426157 70.817597,7.36571823 68.0251826,5.64536897 C67.0212251,4.83059946 68.2370732,4.55564628 68.2143706,4.50267365 C68.0529302,4.13691024 67.2129356,4.0385325 66.6680743,4.28826061 C66.5797866,4.33114322 66.3855536,4.48753861 66.2871758,4.54303375 C64.3675486,4.07637009 64.7131319,1.90449221 66.2669958,1.91205973 C67.4223036,1.91458224 67.9318499,2.00286996 68.1260829,3.52394122 L68.1260829,3.78628187 L70.0078725,3.78628187 L70.0078725,0.267385662 L68.370766,0.267385662 C67.2255482,0.18162045 66.7286144,3.45590223e-12 65.336191,3.45590223e-12 C61.5574766,0.00504501249 60.7754997,1.38233342 60.7982022,3.56682383 C60.9974802,5.4132984 62.5412541,6.09437509 62.5412541,6.09437509 C64.0017852,5.15852527 65.1873631,6.02878992 65.1873631,6.02878992 C64.1632256,5.82194441 63.6208867,6.03635744 63.1617906,6.37941829 C62.5866592,6.80572185 62.8918824,7.37833076 63.1769256,7.64067141 C63.308096,7.76679672 63.3888162,6.88139703 64.9552925,7.32535813 C65.8860973,7.72895913 65.8810523,8.38733326 65.8659173,9.04318488 C65.8381697,10.4078608 63.9664701,10.4078608 63.113863,9.9386746 C63.3787261,9.72930658 63.2626908,9.76714418 63.338366,9.25507541 M35.7852826,7.27566476 C36.0299657,8.97078895 36.5041969,12.1869844 41.7535324,12.1869844 C44.5005417,12.1869844 46.4302589,10.8576236 46.6169244,8.80178104 C46.6976446,7.93403889 46.450439,6.95530647 45.3203562,6.93512642 C44.248291,6.91494637 44.0591031,7.56575298 44.0591031,7.97187648 C44.0591031,8.49908029 44.1927959,8.74376339 44.9268452,8.9884465 C44.5484693,9.95204388 43.7614473,10.2623122 42.4749691,10.2698797 C40.217326,10.2900597 40.0357056,8.4637652 40.0533631,7.3311599 C40.3182263,5.61585565 41.4634441,6.09765434 41.4533541,6.01441164 C41.3953365,5.59315309 40.9538979,5.26270478 40.2450736,5.19711961 C40.1744434,5.1895521 40.0937232,5.18450708 40.0180481,5.18198458 C40.0180481,4.73802348 40.0180481,4.04433426 40.0836332,3.60289567 C40.2425511,2.50812796 40.8302951,1.92795152 41.8594776,1.95065408 C42.812985,1.97083413 43.7160422,2.0389418 43.8673926,3.47424785 L43.8724376,3.74920103 L45.7517047,3.74920103 L45.7517047,0.316070032 L44.1171207,0.316070032 C42.9693804,0.23030482 42.6061395,0.101657002 41.4583991,0.106702014 C39.185621,0.114269533 35.8912278,0.88867895 35.6667248,4.71784343 C37.5005868,4.64469075 37.8259901,6.11278938 37.8259901,6.11278938 C37.5333794,5.34090247 36.2393337,5.21982217 35.6642023,5.2324347 C34.950333,5.25261475 34.5215069,5.59315309 34.4433093,5.9992766 C34.4130392,6.13801444 35.5229419,5.55783801 35.7852826,7.27566476 M23.2635616,1.86842037 C23.2913092,2.09292343 23.2635616,4.65074476 23.2635616,4.65074476 C24.4819321,4.57759208 25.1705763,5.3923616 25.3067916,5.77578255 C24.64085,5.18299358 23.6040999,5.150201 23.2332915,5.18299358 C22.5219447,5.24353373 21.8383456,5.57902706 21.8333005,5.99271808 C21.830778,6.12388841 23.0138335,5.65217974 23.2761741,7.36748399 C23.2761741,7.50117682 23.3241017,10.1523309 23.2282465,10.3289063 C22.9381583,10.8460201 22.3554593,11.020073 21.7450128,11.1108833 L21.7450128,11.9988055 L28.5885723,11.9937604 L28.5885723,11.1436758 C27.9175856,11.1184508 27.2264189,10.9973705 27.2011938,10.3566539 C27.1810138,9.81179254 27.1532662,7.63991466 27.1709238,7.60207707 C27.3575892,6.90082033 27.9554232,6.73937993 28.5885723,6.79487507 C29.2217213,6.8478477 29.7388351,7.54405942 29.8523479,7.82910263 C30.2080213,8.52783686 29.9582932,11.9988055 30.0768509,11.9988055 L35.4724918,11.9988055 C35.4825818,11.7137622 35.4750143,11.1335858 35.4371767,11.1285408 C34.5063719,11.025118 34.0245732,11.1865584 34.0069157,9.90512527 C34.0069157,9.90512527 34.327274,6.07596079 31.5626071,5.84893523 C31.6004447,5.60929713 34.2162837,5.52857693 34.1633111,3.42480673 C34.1456535,2.68318989 34.7762801,0.233836329 29.095596,0.233836329 C28.9064081,0.256538885 21.7324003,0.198521241 21.7324003,0.228791316 L21.7424903,1.1495061 C21.9518583,1.13689356 23.1752739,1.17220865 23.2635616,1.86842037 M27.1734463,2.56210959 C27.2037163,1.8381503 27.6123623,1.85076283 28.084071,1.86337536 C29.0148758,1.88103291 29.5874847,2.49904694 29.698475,2.98336813 C29.9431581,4.04029825 29.4664044,5.01146315 28.1673137,5.06695829 C27.6476774,5.10731839 27.1734463,5.01398566 27.1734463,4.48930436 C27.1658787,3.27093385 27.1456987,3.24066377 27.1734463,2.56210959 M30.2889937,30.7112613 L30.2889937,30.7011712 C30.2889937,30.3101828 30.1653909,29.9847795 29.9358428,29.7552314 C29.6634122,29.4853232 29.2572887,29.3364954 28.7300849,29.3364954 L26.8407277,29.3364954 L26.8407277,33.4683606 L27.7488299,33.4683606 L27.7488299,32.1465673 L28.4652217,32.1465673 L29.3506214,33.4683606 L30.4125965,33.4683606 L29.403594,31.9926944 C29.9282753,31.7984615 30.2889937,31.3797254 30.2889937,30.7112613 L30.2889937,30.7112613 Z M29.3682789,30.7591889 C29.3682789,31.1072947 29.1135058,31.3444103 28.6720672,31.3444103 L27.7488299,31.3444103 L27.7488299,30.1563099 L28.6544097,30.1563099 C29.0958483,30.1563099 29.3682789,30.3581104 29.3682789,30.7490989 L29.3682789,30.7591889 Z M32.5017362,31.7926597 L34.449111,31.7926597 L34.449111,30.9829352 L32.5017362,30.9829352 L32.5017362,30.1454631 L34.7139742,30.1454631 L34.7139742,29.3357386 L31.598679,29.3357386 L31.598679,33.4701263 L34.7467668,33.4701263 L34.7467668,32.6604018 L32.5017362,32.6604018 L32.5017362,31.7926597 Z M38.8178396,31.8811997 L36.8805548,29.3359909 L36.0430827,29.3359909 L36.0430827,33.4678561 L36.9410949,33.4678561 L36.9410949,30.8419271 L38.9414424,33.4678561 L39.7133293,33.4678561 L39.7133293,29.3359909 L38.8178396,29.3359909 L38.8178396,31.8811997 Z M44.4553888,31.414536 C44.4553888,32.1233603 43.9458425,32.7010142 43.2143157,32.7010142 C42.4827889,32.7010142 41.9631526,32.1107477 41.9631526,31.404446 L41.9631526,31.3918335 C41.9631526,30.6830092 42.4701764,30.1028328 43.2017032,30.1028328 C43.9357525,30.1028328 44.4553888,30.6956217 44.4553888,31.404446 L44.4553888,31.414536 Z M43.2143157,29.2653607 C41.9404501,29.2653607 41.0121678,30.2289581 41.0121678,31.404446 L41.0121678,31.414536 C41.0121678,32.5900239 41.9278375,33.5410088 43.2017032,33.5410088 C44.4780913,33.5410088 45.4063736,32.5774114 45.4063736,31.404446 L45.4063736,31.3918335 C45.4063736,30.2163455 44.4907039,29.2653607 43.2143157,29.2653607 L43.2143157,29.2653607 Z" id="circus_circus-18" fill="#343840"></path>
</svg>