<svg xmlns="http://www.w3.org/2000/svg" xmlns:xlink="http://www.w3.org/1999/xlink" width="137px" height="32px" viewBox="0 0 137 32" version="1.1" class="injected-svg" data-src="/content/dam/empire/logos/logo-train/cromwell.svg">
	<title>The Cromwell</title>
  <path d="M67.781,9.563 L67.781,5.375 L72.781,5.375 L72.781,9.813 L74.125,9.563 L74.125,0 L72.781,0 L72.781,4.063 L67.781,4.063 L67.781,0 L66.406,0 L66.437,9.813 L67.781,9.563 Z M87.719,8.438 L82.688,8.438 L82.688,5.375 L86.688,5.375 L86.688,4.062 L82.688,4.062 L82.688,1.281 L87.188,1.281 L87.188,0 L81.375,0 L81.375,9.781 L87.031,9.781 L87.719,8.437 L87.719,8.438 Z M55.469,9.813 L56.813,9.563 L56.813,1.313 L59.969,1.313 L59.969,8.8817842e-16 L52.375,8.8817842e-16 L52.375,1.313 L55.469,1.313 L55.469,9.813 Z M28.031,20.531 C28.031,17.562 25.781,16.062 21.281,16.062 L20.218,16.062 L20.218,31.25 L22.031,31.25 L22.031,25.687 L27.344,31.437 L28.813,30.406 L23.75,25 C25.938,24.531 28.031,22.937 28.031,20.531 L28.031,20.531 Z M26.25,20.531 C26.25,22.437 24.781,23.437 21.812,23.656 L21.812,17.843 C22.75,17.843 26.406,17.968 26.406,20.437 L26.25,20.531 Z M8.844,17.5 C10.219,17.531 11.5,18.031 12.5,18.844 L12.906,19.125 L14.156,17.781 L13.625,17.406 C12.281,16.375 10.594,15.75 8.75,15.75 L8.687,15.75 C8.68,15.75 8.671,15.75 8.662,15.75 C4.33,15.75 0.818,19.262 0.818,23.594 C0.818,27.926 4.33,31.438 8.662,31.438 C10.523,31.438 12.232,30.79 13.577,29.708 L13.562,29.72 L14,29.376 L12.812,28.095 L12.437,28.345 C11.413,29.163 10.099,29.657 8.67,29.657 C5.322,29.657 2.607,26.943 2.607,23.594 C2.607,20.245 5.321,17.531 8.67,17.531 C8.676,17.531 8.682,17.531 8.688,17.531 L8.687,17.531 L8.844,17.5 Z M40.844,15.719 C36.512,15.719 33.001,19.231 33.001,23.563 C33.001,27.895 36.513,31.407 40.845,31.407 C45.144,31.407 48.635,27.948 48.688,23.662 L48.688,23.657 L48.688,23.563 C48.688,19.219 45.157,15.719 40.844,15.719 Z M46.875,23.656 C46.885,23.786 46.891,23.938 46.891,24.091 C46.891,27.439 44.177,30.154 40.828,30.154 C37.479,30.154 34.765,27.44 34.765,24.091 C34.765,23.938 34.771,23.786 34.782,23.636 L34.781,23.656 C35.015,20.5 37.633,18.028 40.828,18.028 C44.023,18.028 46.641,20.5 46.874,23.635 L46.875,23.655 L46.875,23.656 Z M94.531,24.531 L101.75,24.531 L101.75,22.718 L94.531,22.718 L94.531,17.874 L102.437,17.874 L102.437,16.061 L92.718,16.061 L92.718,31.561 L102.374,31.561 L103.312,29.748 L94.531,29.748 L94.531,24.529 L94.531,24.531 Z M111.938,16.063 L110.125,16.063 L110.125,31.563 L119.5,31.563 L120.406,29.75 L111.937,29.75 L111.937,16.062 L111.938,16.063 Z M128.563,29.75 L128.594,16.062 L126.75,16.062 L126.75,31.562 L136.094,31.562 L137.032,29.749 L128.563,29.749 L128.563,29.75 Z M81.094,27.844 L79.25,23.531 L82.313,16.062 L80.344,16.062 L78.344,21.218 L76.313,16.062 L74.282,16.062 L77.407,23.562 L75.563,27.906 L70.594,16.187 L70.531,16.062 L68.5,16.062 L75.375,31.468 L75.625,31.968 L78.313,25.749 L81.126,31.999 L87.564,16.343 L87.72,16.062 L85.751,16.062 L81.095,27.843 L81.094,27.844 Z M64.156,15.719 L61.406,21.938 L58.656,15.688 L52.156,31.282 L52.031,31.626 L54.031,31.626 L58.687,19.813 L60.468,24.157 L57.468,31.626 L59.437,31.626 L61.406,26.47 L63.437,31.626 L65.437,31.626 L62.374,24.126 L64.155,19.782 L69.124,31.501 L69.187,31.626 L71.218,31.626 L64.343,16.188 L64.155,15.719 L64.156,15.719 Z" id="cromwell-10" fill="#343840"></path>
</svg>