<svg xmlns="http://www.w3.org/2000/svg" xmlns:xlink="http://www.w3.org/1999/xlink" width="76px" height="30px" viewBox="0 0 76 30" version="1.1" class="injected-svg" data-src="/content/dam/empire/logos/logo-train/eldorado_gaming.svg">
	<title>Eldorado Gaming</title>
  <path d="M6.1,26.1 C5.8,25.7 5.6,25.4 5.6,25 C5.6,24.4 6.1,23.9 6.9,23.9 C7.6,23.9 7.9,24.1 7.9,24.3 C7.9,24.4 7.9,24.5 7.7,24.6 C7.6,24.5 7.3,24.4 7,24.4 C6.5,24.4 6.3,24.6 6.3,24.9 C6.3,25.2 6.4,25.4 6.6,25.7 L7.4,26.6 C7.8,27.1 7.9,27.4 7.9,27.8 C7.9,28.6 7.6,29.2 6.6,29.2 C5.9,29.2 5.6,29 5.6,28.8 C5.6,28.7 5.7,28.5 5.8,28.4 C6,28.5 6.2,28.7 6.6,28.7 C7.1,28.7 7.4,28.4 7.4,27.9 C7.4,27.5 7.3,27.3 7,26.9 L6.1,26.1 L6.1,26.1 Z M13.1,24.4 C13.1,24.5 13.1,24.7 13,24.8 C12.9,24.7 12.7,24.6 12.5,24.6 C12,24.6 11.5,24.9 11.5,26.9 C11.5,28.4 11.8,28.7 12.3,28.7 C12.6,28.7 12.9,28.6 13,28.5 C13,28.6 13.1,28.7 13.1,28.9 C13.1,29.2 12.7,29.4 12.2,29.4 C11.5,29.4 11,29.1 11,26.9 C11,24.3 11.8,24 12.5,24 C12.9,24 13.1,24.2 13.1,24.4 L13.1,24.4 Z M16.1,24.3 C16.1,24 16.1,24 16.7,24 L16.7,29.1 C16.7,29.2 16.7,29.2 16.1,29.2 L16.1,24.3 L16.1,24.3 Z M21.2,28.7 C21.8,28.7 21.9,28.1 21.9,26.6 C21.9,25.1 21.7,24.6 21.2,24.6 C20.7,24.6 20.4,25.2 20.4,26.8 C20.6,28.2 20.7,28.7 21.2,28.7 L21.2,28.7 Z M21.3,24 C22.3,24 22.6,24.6 22.6,26.6 C22.6,28.7 22.2,29.3 21.2,29.3 C20.2,29.3 19.9,28.7 19.9,26.6 C19.9,24.6 20.3,24 21.3,24 Z M28.1,24 L28.1,24.4 C28.1,24.5 28.1,24.5 28,24.5 L27.1,24.5 L27.1,29 C27.1,29.1 27.1,29.1 26.5,29.1 L26.5,24.4 L25.5,24.4 L25.5,23.9 C25.5,23.8 25.5,23.8 25.6,23.8 L28.1,24 L28.1,24 L28.1,24 Z M32.4,24 C33.4,24 33.7,24.6 33.7,26.6 C33.7,28.7 33.3,29.3 32.3,29.3 C31.3,29.3 31,28.7 31,26.6 C30.9,24.6 31.4,24 32.4,24 Z M32.3,28.7 C32.9,28.7 33,28.1 33,26.6 C33,25.1 32.8,24.6 32.3,24.6 C31.8,24.6 31.5,25.2 31.5,26.8 C31.6,28.2 31.8,28.7 32.3,28.7 L32.3,28.7 Z M41.6,24 C42.6,24 43,24.5 43,26.3 C43,28.5 42.5,29.2 41.6,29.2 L40.7,29.2 L40.7,24.1 C40.7,24 40.7,24 40.9,24 L41.6,24 Z M41.6,28.7 C42,28.7 42.4,28.4 42.4,26.3 C42.4,24.9 42.1,24.6 41.6,24.6 L41.3,24.6 L41.3,28.7 L41.6,28.7 L41.6,28.7 Z M47.4,28.7 C48,28.7 48.1,28.1 48.1,26.6 C48.1,25.1 47.9,24.6 47.4,24.6 C46.9,24.6 46.7,25.2 46.7,26.8 C46.7,28.2 46.9,28.7 47.4,28.7 L47.4,28.7 Z M47.5,24 C48.5,24 48.8,24.6 48.8,26.6 C48.8,28.7 48.4,29.3 47.4,29.3 C46.4,29.3 46,28.8 46,26.6 C46.1,24.6 46.5,24 47.5,24 Z M56.4,24 L55.4,29.3 C55.2,29.3 55.1,29.3 54.9,29.3 C54.7,29.3 54.6,29.1 54.6,28.9 L54.2,27.2 C54.1,26.8 54,26 54,25.5 C53.9,26 53.8,26.8 53.8,27.2 L53.4,29.3 C53.2,29.3 53.1,29.3 52.8,29.3 C52.6,29.3 52.5,29.1 52.5,28.8 C52.2,27.6 51.6,24.2 51.6,24.2 C51.6,24.2 51.6,24.1 51.6,24.1 C51.6,24 51.6,24 51.7,24 L52.2,24 L52.8,26.9 C52.9,27.6 53,28.1 53,28.6 L53,28.6 C53,28 53.1,27.5 53.2,26.9 L53.7,24.4 C53.7,24.3 53.7,24.2 53.9,24.2 L54.3,24.2 L54.8,26.9 C54.9,27.4 55,27.9 55,28.3 C55,28.4 55,28.5 55,28.6 L55,28.6 C55,28.1 55.1,27.5 55.2,26.9 L55.7,24.2 C55.7,24.1 55.7,24 55.9,24 L56.4,24 L56.4,24 L56.4,24 Z M61.5,24.2 C61.5,24.1 61.5,24.1 62.1,24.1 L62.1,29.2 C62.1,29.3 62.1,29.3 62,29.3 L61.5,29.3 L60.6,27.2 C60.5,26.9 60.1,25.7 59.9,25.1 C59.9,25.6 60,27 60,27.3 L60,29.1 C60,29.2 60,29.2 59.4,29.2 L59.4,24.1 C59.4,24 59.4,24 59.5,24 L60,24 L60.9,26 C61.1,26.4 61.4,27.5 61.6,28.1 L61.6,28.1 C61.5,27.7 61.5,26.2 61.5,25.9 L61.5,24.2 L61.5,24.2 Z M65.6,26.1 C65.3,25.7 65.1,25.4 65.1,25 C65.1,24.4 65.6,23.9 66.4,23.9 C67.1,23.9 67.4,24.1 67.4,24.3 C67.4,24.4 67.4,24.5 67.2,24.6 C67.1,24.5 66.8,24.4 66.5,24.4 C66,24.4 65.8,24.6 65.8,24.9 C65.8,25.2 65.9,25.4 66.1,25.7 L66.9,26.6 C67.3,27.1 67.4,27.4 67.4,27.8 C67.4,28.6 67.1,29.2 66.1,29.2 C65.4,29.2 65.1,29 65.1,28.8 C65.1,28.7 65.2,28.5 65.3,28.4 C65.5,28.5 65.7,28.7 66.1,28.7 C66.6,28.7 66.8,28.4 66.8,27.9 C66.8,27.5 66.7,27.3 66.4,26.9 L65.6,26.1 L65.6,26.1 Z M0.7,21.2 L75.6,21.2 L75.6,21.5 L0.7,21.5 C0.7,21.4 0.7,21.2 0.7,21.2 Z M5.8,15.5 C5.8,15.2 5.8,15 5.9,14.7 C6,14.4 6.1,14.2 6.2,14 C6.3,13.8 6.5,13.6 6.7,13.4 C6.9,13.2 7.1,13.1 7.3,12.9 C7.5,12.7 7.8,12.7 8,12.6 C8.3,12.5 8.5,12.5 8.8,12.5 C9,12.5 9.2,12.5 9.4,12.6 C9.6,12.7 9.8,12.7 10,12.7 C10.2,12.7 10.3,12.8 10.4,12.8 C10.5,12.8 10.6,12.9 10.6,12.9 L10.6,12.9 C10.6,12.9 10.6,12.9 10.7,12.9 L10.9,12.9 C10.9,12.9 10.9,12.9 10.9,12.9 L10.9,12.9 L10.9,14.3 C10.9,14.3 10.9,14.4 10.9,14.4 C10.9,14.4 10.9,14.4 10.8,14.4 L10.8,14.4 C10.8,14.4 10.8,14.4 10.7,14.4 C10.7,14.4 10.7,14.3 10.7,14.3 C10.7,14.3 10.7,14.2 10.7,14.2 C10.7,14.2 10.7,14.2 10.7,14.1 C10.4,13.2 9.8,12.8 9,12.8 C8.8,12.8 8.5,12.8 8.3,12.9 C8.1,13 7.9,13.1 7.7,13.2 C7.5,13.3 7.4,13.5 7.2,13.6 C7,13.7 7.1,14 7,14.2 C6.9,14.4 6.8,14.6 6.8,14.8 C6.8,15 6.7,15.2 6.7,15.5 C6.7,15.8 6.7,16 6.8,16.2 C6.8,16.4 6.9,16.7 7,16.9 C7.1,17.1 7.2,17.3 7.3,17.5 C7.4,17.7 7.6,17.8 7.8,18 C8,18.2 8.2,18.2 8.4,18.3 C8.6,18.4 8.9,18.4 9.1,18.4 C9.2,18.4 9.3,18.4 9.4,18.4 C9.5,18.4 9.6,18.4 9.7,18.3 C9.8,18.2 9.9,18.2 10,18.2 C10.1,18.2 10.2,18.1 10.2,18 L10.2,16.9 C10.2,16.8 10.2,16.7 10.2,16.6 C10.2,16.5 10.1,16.4 10,16.4 C9.9,16.3 9.8,16.3 9.7,16.3 C9.6,16.3 9.4,16.3 9.2,16.3 C9.2,16.3 9.2,16.3 9.2,16.3 C9.2,16.3 9.2,16.3 9.2,16.2 L9.2,16.2 C9.2,16.2 9.2,16.2 9.2,16.2 L11.7,16.2 C11.7,16.2 11.7,16.2 11.7,16.2 C11.7,16.2 11.7,16.2 11.7,16.2 L11.7,16.2 L11.7,16.2 C11.6,16.2 11.5,16.3 11.5,16.3 C11.4,16.3 11.3,16.4 11.3,16.4 C11.3,16.4 11.2,16.5 11.1,16.5 C11.1,16.6 11,16.6 11,16.8 L11,18 C11,18 11,18 11,18.1 C11,18.1 11,18.1 10.9,18.1 C10.7,18.2 10.6,18.2 10.4,18.3 C10.2,18.4 10,18.4 9.9,18.5 C9.7,18.5 9.5,18.6 9.3,18.6 C9.1,18.6 8.9,18.6 8.8,18.6 C8.4,18.6 8,18.5 7.6,18.4 C7.2,18.3 6.9,18.1 6.6,17.8 C6.3,17.5 6.1,17.2 5.9,16.8 C5.7,16.4 5.8,15.9 5.8,15.5 L5.8,15.5 Z M19,15.3 L19,15.3 L19,15.3 L20.2,15.4 C20.2,15.4 20.3,15.4 20.3,15.4 L20.3,15.3 L19.7,13.6 C19.7,13.5 19.7,13.5 19.6,13.5 C19.6,13.5 19.6,13.5 19.6,13.5 C19.6,13.5 19.6,13.5 19.6,13.6 L19,15.3 L19,15.3 Z M16.9,18.3 C16.9,18.2 16.9,18.2 16.9,18.3 C17,18.3 17,18.3 17.1,18.2 C17.2,18.2 17.2,18.2 17.3,18.1 C17.4,18 17.4,18 17.5,17.9 C17.6,17.8 17.6,17.7 17.7,17.6 L19.4,12.8 C19.4,12.8 19.4,12.8 19.4,12.7 C19.4,12.7 19.4,12.6 19.4,12.6 C19.4,12.6 19.4,12.6 19.4,12.6 L20.2,12.6 C20.2,12.6 20.2,12.6 20.2,12.6 C20.2,12.6 20.2,12.6 20.2,12.6 L21.9,17.5 C21.9,17.6 22,17.6 22,17.7 C22,17.8 22.1,17.8 22.1,17.9 C22.1,18 22.2,18 22.2,18 C22.2,18 22.3,18.1 22.4,18.1 C22.4,18.1 22.5,18.1 22.6,18.2 C22.7,18.3 22.7,18.2 22.8,18.2 L22.8,18.2 C22.8,18.2 22.8,18.2 22.8,18.2 L22.8,18.3 C22.8,18.3 22.8,18.3 22.8,18.3 C22.8,18.3 22.8,18.3 22.8,18.3 L20.3,18.3 C20.3,18.3 20.3,18.3 20.3,18.3 L20.3,18.2 C20.3,18.2 20.3,18.2 20.3,18.2 C20.3,18.2 20.3,18.2 20.3,18.2 L20.4,18.2 C20.4,18.2 20.5,18.2 20.5,18.2 C20.5,18.2 20.6,18.2 20.7,18.2 C20.8,18.2 20.8,18.2 20.9,18.2 C21,18.2 21,18.2 21.1,18.1 C21.2,18.1 21.2,18 21.2,18 C21.2,18 21.3,17.9 21.3,17.8 C21.3,17.8 21.3,17.8 21.3,17.7 L20.7,16 L20.7,16 C20.7,16 20.7,16 20.7,15.9 C20.7,15.8 20.7,15.9 20.6,15.8 C20.6,15.8 20.5,15.8 20.5,15.8 L19,15.8 C19,15.8 18.9,15.8 18.9,15.8 C18.9,15.8 18.9,15.8 18.8,15.9 C18.7,16 18.8,15.9 18.8,16 C18.8,16.1 18.8,16 18.8,16 L18.2,17.8 L18.2,18 C18.2,18.1 18.3,18.1 18.3,18.2 C18.3,18.3 18.4,18.3 18.5,18.3 C18.6,18.3 18.7,18.3 18.7,18.4 C18.8,18.4 18.9,18.4 18.9,18.4 L19,18.4 C19,18.4 19,18.4 19,18.4 L19,18.5 C19,18.5 19,18.5 19,18.5 C19,18.5 19,18.5 19,18.5 L17,18.5 C17,18.5 17,18.5 17,18.5 L16.9,18.3 L16.9,18.3 L16.9,18.3 Z M28.4,18.3 C28.4,18.2 28.4,18.2 28.4,18.3 C28.4,18.2 28.4,18.2 28.4,18.3 C28.6,18.3 28.8,18.2 28.9,18.2 C29,18.1 29.1,18.1 29.1,18 C29.1,17.9 29.2,17.8 29.2,17.7 C29.2,17.6 29.2,17.5 29.2,17.3 C29.2,16.9 29.2,16.6 29.3,16.3 C29.3,16 29.3,15.6 29.4,15.3 C29.5,15 29.4,14.6 29.5,14.3 C29.5,14 29.5,13.6 29.5,13.3 L29.5,13.1 C29.5,13 29.5,13 29.4,12.9 C29.3,12.8 29.3,12.8 29.3,12.8 C29.2,12.8 29.2,12.7 29.1,12.7 C29,12.7 29,12.7 29,12.7 C29,12.7 29,12.7 29,12.7 L29,12.6 C29,12.6 29,12.6 29,12.6 C29,12.6 29,12.6 29,12.6 L30.2,12.6 C30.2,12.6 30.3,12.6 30.3,12.6 C30.3,12.6 30.3,12.6 30.4,12.7 L32.3,17 C32.3,17 32.3,17 32.3,17 L32.3,17 C32.3,17 32.4,17 32.4,17 C32.4,17 32.4,17 32.4,16.9 L34.3,12.7 C34.3,12.6 34.4,12.6 34.4,12.6 C34.4,12.6 34.5,12.6 34.5,12.6 L35.7,12.6 C35.7,12.6 35.7,12.6 35.7,12.6 L35.7,12.8 C35.7,12.8 35.7,12.8 35.7,12.8 C35.7,12.8 35.7,12.8 35.7,12.8 C35.7,12.8 35.7,12.8 35.6,12.8 C35.5,12.8 35.5,12.8 35.4,12.9 C35.3,12.9 35.3,13 35.2,13 C35.1,13 35,13.1 35,13.2 L35.2,17.7 C35.2,17.8 35.2,17.8 35.3,17.9 C35.4,18 35.4,18 35.4,18 C35.5,18 35.5,18.1 35.6,18.1 C35.7,18.1 35.7,18.1 35.8,18.1 C35.9,18.1 35.9,18.1 35.9,18.1 C35.9,18.1 36,18.1 36,18.1 L36,18.1 C36,18.1 36,18.1 36,18.1 L36,18.2 C36,18.2 36,18.2 36,18.2 C36,18.2 36,18.2 36,18.2 L33.7,18.2 C33.7,18.2 33.7,18.2 33.7,18.2 L33.7,18.1 C33.7,18.1 33.7,18.1 33.7,18.1 C33.8,18.1 33.8,18.1 33.9,18.1 C34,18.1 34.1,18.1 34.1,18.1 C34.2,18.1 34.2,18 34.3,18 C34.4,18 34.4,17.9 34.4,17.8 L34.1,14 C34.1,14 34.1,14 34.1,14 C34.1,14 34.1,14 34.1,14 L32.1,18.4 C32.1,18.4 32.1,18.4 32,18.4 C32,18.4 32,18.4 31.9,18.4 C31.8,18.4 31.9,18.4 31.9,18.4 L29.9,14 C29.9,14 29.9,14 29.9,14 C29.9,14 29.9,14 29.9,14 C29.9,14 29.9,14 29.9,14.1 C29.9,14.1 29.9,14.3 29.9,14.5 C29.9,14.7 29.9,14.9 29.9,15.2 C29.9,15.4 29.9,15.7 29.9,16 C29.9,16.3 29.9,16.5 29.9,16.8 C29.9,17.1 29.9,17.3 29.9,17.5 C29.9,17.7 29.9,17.9 29.9,18 L29.9,18 C29.9,18.1 29.9,18.1 30,18.1 C30.1,18.1 30.1,18.2 30.2,18.2 C30.3,18.2 30.3,18.2 30.4,18.3 C30.5,18.3 30.6,18.3 30.7,18.3 L30.7,18.3 C30.7,18.3 30.7,18.3 30.7,18.3 L30.7,18.4 C30.7,18.4 30.7,18.4 30.7,18.4 L28.8,18.4 C28.8,18.4 28.8,18.4 28.8,18.4 L28.4,18.3 L28.4,18.3 Z M43.2,18 C43.2,18.1 43.3,18.1 43.3,18.2 C43.4,18.2 43.4,18.3 43.5,18.3 C43.6,18.3 43.7,18.3 43.8,18.3 C43.8,18.3 43.8,18.3 43.8,18.3 L43.8,18.4 C43.8,18.4 43.8,18.4 43.8,18.4 C43.8,18.4 43.8,18.4 43.8,18.4 L41.7,18.4 C41.7,18.4 41.7,18.4 41.7,18.4 L41.7,18.3 C41.7,18.3 41.7,18.3 41.7,18.3 C41.7,18.3 41.7,18.3 41.7,18.3 C41.8,18.3 41.9,18.3 42,18.3 C42.1,18.3 42.1,18.3 42.2,18.2 C42.3,18.1 42.3,18.1 42.3,18 C42.3,17.9 42.3,17.8 42.3,17.7 L42.3,13.3 C42.3,13.2 42.3,13.1 42.3,13.1 C42.3,13.1 42.2,13 42.2,12.9 C42.1,12.9 42.1,12.8 42,12.8 C41.9,12.8 41.8,12.8 41.7,12.8 C41.7,12.8 41.7,12.8 41.7,12.8 L41.7,12.7 C41.7,12.7 41.7,12.7 41.7,12.7 L43.8,12.7 C43.8,12.7 43.8,12.7 43.8,12.7 L43.8,12.8 C43.8,12.8 43.8,12.8 43.8,12.8 C43.8,12.8 43.8,12.8 43.8,12.8 C43.7,12.8 43.6,12.8 43.5,12.8 C43.4,12.8 43.4,12.8 43.3,12.9 C43.2,13 43.2,13 43.2,13.1 C43.2,13.2 43.2,13.3 43.2,13.4 L43.2,17.8 C43.2,17.9 43.2,17.9 43.2,18 Z M49.6,18.4 C49.6,18.4 49.6,18.4 49.6,18.4 L49.6,18.3 C49.6,18.3 49.6,18.3 49.6,18.3 C49.6,18.3 49.7,18.3 49.7,18.3 C49.7,18.3 49.8,18.3 49.8,18.3 C49.8,18.3 49.9,18.3 49.9,18.3 C49.9,18.3 50,18.3 50,18.3 C50.1,18.3 50.1,18.2 50.2,18.2 C50.3,18.2 50.3,18.1 50.3,18 C50.3,17.9 50.3,17.8 50.3,17.8 C50.3,17.7 50.3,17.6 50.3,17.5 L50.3,13.2 C50.3,13.1 50.3,13.1 50.2,13 C50.1,12.9 50.1,12.9 50,12.9 C49.9,12.9 49.8,12.9 49.8,12.9 C49.8,12.9 49.7,12.9 49.6,12.9 L49.6,12.9 C49.6,12.9 49.6,12.9 49.6,12.9 L49.6,12.8 C49.6,12.8 49.6,12.8 49.6,12.8 C49.6,12.8 49.6,12.8 49.6,12.8 L51.1,12.8 L55,17 C55,17 55,17 55,17 L55,17 L55,14.1 C55,13.8 55,13.6 55,13.4 C55,13.2 54.9,13.1 54.9,13 C54.8,12.9 54.8,12.8 54.7,12.8 C54.6,12.8 54.5,12.7 54.4,12.7 L54.2,12.7 C54.2,12.7 54.2,12.7 54.2,12.7 L54.2,12.6 C54.2,12.6 54.2,12.6 54.2,12.6 C54.2,12.6 54.2,12.6 54.2,12.6 L56.4,12.6 C56.4,12.6 56.4,12.6 56.4,12.6 L56.4,12.7 C56.4,12.7 56.4,12.7 56.4,12.7 C56.4,12.7 56.4,12.7 56.4,12.7 C56.3,12.7 56.3,12.7 56.2,12.7 C56.1,12.7 56,12.8 55.9,12.8 C55.8,12.8 55.7,12.9 55.7,13 C55.6,13.1 55.6,13.1 55.6,13.2 L55.6,18.2 C55.6,18.3 55.6,18.3 55.6,18.3 C55.6,18.3 55.5,18.3 55.5,18.3 C55.5,18.3 55.4,18.3 55.4,18.3 C55.4,18.3 55.3,18.2 55.3,18.2 L51.1,13.5 C51.1,13.5 51.1,13.5 51.1,13.5 L51.1,13.5 C51.1,13.5 51.1,13.5 51.1,13.5 L51.1,17.6 C51.1,17.7 51.1,17.7 51.2,17.8 C51.3,17.9 51.3,17.9 51.3,17.9 C51.4,17.9 51.4,18 51.5,18 C51.6,18 51.6,18 51.7,18.1 C51.8,18.1 51.8,18.1 51.9,18.1 C52,18.1 52,18.1 52,18.1 L52,18.1 L52,18.2 C52,18.2 52,18.2 52,18.2 C52,18.2 52,18.2 52,18.2 L49.6,18.4 C49.6,18.4 49.6,18.4 49.6,18.4 Z M61.9,15.5 C61.9,15.2 61.9,15 62,14.7 C62.1,14.4 62.2,14.2 62.3,14 C62.4,13.8 62.6,13.6 62.8,13.4 C63,13.2 63.2,13.1 63.4,12.9 C63.6,12.7 63.9,12.7 64.1,12.6 C64.4,12.5 64.6,12.5 64.9,12.5 C65.1,12.5 65.3,12.5 65.5,12.6 C65.7,12.7 65.9,12.7 66.1,12.7 C66.3,12.7 66.4,12.8 66.5,12.8 C66.6,12.8 66.7,12.9 66.7,12.9 L66.7,12.9 C66.7,12.9 66.7,12.9 66.8,12.9 L67,12.9 C67,12.9 67,12.9 67,12.9 L67,12.9 L67,14.3 C67,14.3 67,14.4 67,14.4 C67,14.4 67,14.4 66.9,14.4 L66.9,14.4 C66.9,14.4 66.9,14.4 66.8,14.4 C66.8,14.4 66.8,14.3 66.8,14.3 C66.8,14.3 66.8,14.2 66.8,14.2 C66.8,14.2 66.8,14.2 66.8,14.1 C66.5,13.2 65.9,12.8 65.1,12.8 C64.9,12.8 64.6,12.8 64.4,12.9 C64.2,13 64,13.1 63.8,13.2 C63.6,13.3 63.5,13.5 63.3,13.6 C63.1,13.7 63.1,14 63,14.2 C62.9,14.4 62.8,14.6 62.8,14.8 C62.8,15 62.7,15.2 62.7,15.5 C62.7,15.8 62.7,16 62.8,16.2 C62.8,16.4 62.9,16.7 63,16.9 C63.1,17.1 63.2,17.3 63.3,17.5 C63.4,17.7 63.6,17.8 63.8,18 C64,18.2 64.2,18.2 64.4,18.3 C64.6,18.4 64.9,18.4 65.1,18.4 C65.2,18.4 65.3,18.4 65.4,18.4 C65.5,18.4 65.6,18.4 65.7,18.3 C65.8,18.2 65.9,18.2 66,18.2 C66.1,18.2 66.2,18.1 66.2,18 L66.2,16.9 C66.2,16.8 66.2,16.7 66.2,16.6 C66.2,16.5 66.1,16.4 66,16.4 C65.9,16.3 65.8,16.3 65.7,16.3 C65.6,16.3 65.4,16.3 65.2,16.3 C65.2,16.3 65.2,16.3 65.2,16.3 C65.2,16.3 65.2,16.3 65.2,16.2 L65.2,16.2 C65.2,16.2 65.2,16.2 65.2,16.2 L67.7,16.2 C67.7,16.2 67.7,16.2 67.7,16.2 C67.7,16.2 67.7,16.2 67.7,16.2 L67.7,16.2 L67.7,16.2 C67.6,16.2 67.5,16.3 67.5,16.3 C67.4,16.3 67.3,16.4 67.3,16.4 C67.3,16.4 67.2,16.5 67.1,16.5 C67.1,16.6 67,16.6 67,16.8 L67,18 C67,18 67,18 67,18.1 C67,18.1 67,18.1 66.9,18.1 C66.7,18.2 66.6,18.2 66.4,18.3 C66.2,18.4 66,18.4 65.9,18.5 C65.7,18.5 65.5,18.6 65.3,18.6 C65.1,18.6 64.9,18.6 64.8,18.6 C64.4,18.6 64,18.5 63.6,18.4 C63.2,18.3 62.9,18.1 62.6,17.8 C62.3,17.5 62.1,17.2 61.9,16.8 C62,16.3 61.9,15.9 61.9,15.5 L61.9,15.5 Z M0.5,9.3 C0.5,9.3 0.5,9.3 0.5,9.3 C0.5,9.3 0.5,9.3 0.5,9.3 L0.7,9.3 C0.9,9.3 1,9.3 1.2,9.3 C1.4,9.3 1.5,9.3 1.7,9.2 C1.8,9.2 2,9.1 2.1,9 C2.2,8.9 2.2,8.7 2.2,8.5 L2.2,2.3 C2.2,2.1 2.2,2 2.1,1.9 C2,1.8 1.9,1.7 1.8,1.7 C1.7,1.7 1.6,1.6 1.4,1.6 C1.2,1.6 1.1,1.5 1,1.5 L1,1.5 C1,1.5 1,1.5 1,1.5 L1,1.1 L1,1.1 L7,1.1 C7.1,1.1 7.1,1.1 7.2,1.1 C7.3,1.1 7.3,1.2 7.3,1.3 L7.4,3.2 C7.4,3.2 7.4,3.2 7.3,3.2 C7.2,3.2 7.2,3.2 7.2,3.2 C7.2,3.2 7.1,3.2 7.1,3.2 C7.1,3.2 7,3.2 7,3.2 C7,3.2 7,3.1 6.9,3 C6.9,2.9 6.9,2.8 6.9,2.7 C6.9,2.6 6.9,2.5 6.8,2.4 C6.8,2.3 6.7,2.2 6.7,2.1 C6.7,2 6.5,2 6.4,2 C6.3,1.9 6.2,1.9 6,1.9 L3.8,1.9 C3.8,1.9 3.8,2 3.8,2 L3.8,4.9 C3.8,4.9 3.8,5 3.9,5 L5.6,5 C5.7,5 5.8,5 5.9,5 C6,5 6.1,4.9 6.2,4.9 C6.3,4.8 6.3,4.7 6.4,4.6 C6.4,4.5 6.5,4.3 6.5,4.1 C6.5,4.1 6.5,4.1 6.5,4.1 L6.7,4.1 C6.7,4.1 6.7,4.1 6.7,4.1 L6.7,6.9 C6.7,6.9 6.7,6.9 6.7,6.9 L6.4,6.9 C6.4,6.9 6.4,6.9 6.4,6.9 L6.4,6.9 C6.4,6.7 6.4,6.5 6.3,6.3 C6.3,6.2 6.2,6 6.1,6 C6,5.9 5.9,5.9 5.8,5.8 C5.7,5.7 5.6,5.8 5.5,5.8 L4,5.8 C4,5.8 3.9,5.8 3.9,5.9 L3.9,8.5 C3.9,8.6 3.9,8.7 4,8.8 C4,8.9 4.1,8.9 4.1,9 C4.2,9 4.2,9.1 4.3,9.1 C4.4,9.1 4.5,9.1 4.6,9.1 L6.2,9.1 C6.4,9.1 6.6,9 6.8,8.9 C7,8.8 7.1,8.7 7.2,8.5 C7.3,8.3 7.4,8.2 7.4,8 C7.4,7.8 7.5,7.7 7.5,7.6 C7.5,7.5 7.5,7.5 7.6,7.5 C7.7,7.5 7.7,7.5 7.8,7.5 C7.8,7.5 7.8,7.5 7.9,7.5 C7.9,7.5 7.9,7.5 7.9,7.6 L7.7,9.8 C7.7,9.8 7.7,9.8 7.7,9.9 C7.7,10 7.7,9.9 7.6,9.9 L0.6,9.9 C0.6,9.9 0.6,9.9 0.6,9.9 L0.5,9.3 L0.5,9.3 L0.5,9.3 Z M8.6,9.6 L8.6,9.6 L8.6,9.2 L8.6,9.2 L8.7,9.2 C8.7,9.2 8.8,9.2 8.8,9.2 C8.8,9.2 8.9,9.2 9,9.2 C9.1,9.2 9.2,9.2 9.3,9.1 C9.4,9 9.5,9 9.5,9 C9.5,9 9.7,8.8 9.8,8.7 C9.9,8.6 9.9,8.4 9.9,8.3 L9.9,2.3 C9.9,2.2 9.9,2 9.8,1.9 C9.7,1.8 9.6,1.7 9.5,1.7 C9.4,1.7 9.2,1.6 9.1,1.6 C9,1.6 8.9,1.6 8.8,1.6 L8.7,1.6 C8.7,1.6 8.7,1.6 8.7,1.6 L8.7,1.1 L8.7,1.1 L13.3,1.1 C13.3,1.1 13.3,1.1 13.3,1.1 L13.3,1.5 L13.3,1.5 L13,1.5 C12.8,1.5 12.6,1.5 12.4,1.6 C12.2,1.7 12.1,1.7 12,1.7 C11.9,1.7 11.8,1.8 11.8,1.9 C11.8,2 11.8,2.1 11.8,2.3 L11.8,8.6 C11.8,8.7 11.8,8.7 11.9,8.8 C12,8.9 12,8.9 12.1,8.9 L14.2,8.9 C14.3,8.9 14.5,8.9 14.6,8.8 C14.7,8.7 14.8,8.7 15,8.6 C15.1,8.5 15.2,8.4 15.3,8.3 C15.4,8.2 15.5,8.1 15.6,8 C15.7,7.9 15.7,7.8 15.8,7.7 C15.9,7.6 15.9,7.6 16,7.5 C16,7.5 16,7.5 16.1,7.5 C16.2,7.5 16.2,7.5 16.2,7.5 C16.3,7.5 16.3,7.5 16.3,7.6 C16.3,7.7 16.3,7.6 16.3,7.7 L15.3,9.7 C15.3,9.7 15.3,9.8 15.2,9.8 C15.2,9.8 15.2,9.8 15.1,9.8 L8.6,9.6 C8.6,9.6 8.6,9.6 8.6,9.6 L8.6,9.6 Z M16.2,9.6 C16.2,9.6 16.2,9.6 16.2,9.6 L16.2,9.6 L16.2,9.3 C16.2,9.3 16.2,9.3 16.2,9.3 L16.2,9.3 L16.3,9.3 C16.4,9.3 16.5,9.3 16.6,9.3 C16.7,9.3 16.8,9.3 17,9.2 C17.1,9.2 17.2,9.1 17.3,9 C17.4,8.9 17.4,8.8 17.4,8.6 L17.4,2.1 C17.4,2 17.4,1.9 17.3,1.8 C17.2,1.7 17.2,1.6 17.1,1.6 C17,1.5 16.9,1.5 16.8,1.5 C16.7,1.5 16.6,1.5 16.5,1.5 L16.1,1.5 C16.1,1.5 16.1,1.5 16.1,1.5 L16.1,1.1 C16.1,1.1 16.1,1.1 16.1,1.1 L16.1,1.1 L16.2,1.1 L18.7,1.1 C18.9,1.1 19.2,1.1 19.5,1.1 C19.8,1.1 20,1.1 20.3,1.1 C20.6,1.1 20.8,1.1 21,1.1 C21.2,1.1 21.4,1.1 21.6,1.1 C21.8,1.1 22,1.1 22.2,1.2 C22.4,1.3 22.6,1.3 22.8,1.3 C23.3,1.4 23.7,1.6 24,1.8 C24.3,2 24.7,2.4 25,2.7 C25.3,3 25.5,3.5 25.7,3.9 C25.9,4.3 25.9,4.8 25.9,5.2 C25.9,5.6 25.8,6.1 25.7,6.4 C25.6,6.7 25.4,7.2 25.2,7.5 C25,7.8 24.7,8.1 24.4,8.4 C24.1,8.7 23.8,8.9 23.4,9.1 C23,9.3 22.7,9.4 22.3,9.5 C21.9,9.6 21.5,9.7 21.1,9.7 L16.2,9.6 L16.2,9.6 L16.2,9.6 Z M19.1,8.7 C19.1,8.8 19.1,8.9 19.2,9 C19.3,9.1 19.4,9.1 19.5,9.1 C19.6,9.1 19.8,9.1 19.9,9.2 C20.1,9.2 20.2,9.2 20.4,9.2 C21.6,9.2 22.5,8.9 23.1,8.2 C23.7,7.5 24,6.6 24,5.3 C24,4.7 23.9,4.3 23.8,3.8 C23.7,3.3 23.5,2.9 23.2,2.6 C22.9,2.3 22.6,2 22.2,1.8 C21.8,1.6 21.3,1.5 20.7,1.5 L19.3,1.5 C19.2,1.5 19.2,1.5 19.2,1.5 C19.2,1.5 19.2,1.6 19.2,1.6 L19.1,8.7 L19.1,8.7 Z M31.3,9.8 C31.2,9.8 31,9.8 30.8,9.8 C30.6,9.8 30.4,9.7 30.1,9.7 C29.8,9.7 29.6,9.5 29.3,9.4 C29,9.3 28.8,9.2 28.5,9 C28.2,8.8 28,8.6 27.7,8.4 C27.4,8.2 27.2,7.9 27.1,7.6 C27,7.3 26.8,7 26.7,6.6 C26.6,6.2 26.5,5.8 26.5,5.3 C26.5,4.9 26.6,4.5 26.7,4.1 C26.8,3.7 27,3.4 27.2,3 C27.4,2.7 27.7,2.4 28,2.1 C28.3,1.8 28.7,1.6 29,1.4 C29.3,1.2 29.8,1.1 30.2,1 C30.6,0.9 31.1,0.8 31.6,0.8 C32,0.8 32.4,0.9 32.8,1 C33.2,1.1 33.6,1.3 33.9,1.4 C34.2,1.6 34.6,1.8 34.9,2.1 C35.2,2.4 35.4,2.7 35.6,3 C35.8,3.3 35.9,3.6 36,4 C36.1,4.4 36.2,4.8 36.2,5.1 C36.2,5.5 36.1,5.9 36,6.2 C35.9,6.5 35.8,7 35.6,7.4 C35.4,7.7 35.1,8.1 34.8,8.4 C34.5,8.7 34.2,8.9 33.8,9.2 C33.4,9.5 33,9.6 32.6,9.7 C32.2,9.7 31.8,9.8 31.3,9.8 L31.3,9.8 Z M28.3,5.1 C28.3,5.4 28.3,5.8 28.4,6.1 C28.5,6.4 28.6,6.7 28.7,7.1 C28.8,7.4 29,7.7 29.2,8 C29.4,8.3 29.6,8.5 29.9,8.7 C30.1,8.9 30.4,9.1 30.7,9.2 C31,9.3 31.3,9.4 31.7,9.4 C32.2,9.4 32.6,9.3 33,9.1 C33.4,8.9 33.7,8.6 33.9,8.3 C34.1,8 34.3,7.6 34.4,7.1 C34.5,6.6 34.6,6.2 34.6,5.7 C34.6,5.3 34.6,5 34.5,4.7 C34.4,4.4 34.3,4 34.2,3.7 C34.1,3.4 33.7,3 33.6,2.7 C33.4,2.4 33.2,2.2 32.9,2 C32.7,1.8 32.4,1.7 32.1,1.6 C31.8,1.5 31.5,1.4 31.1,1.4 C30.8,1.4 30.5,1.4 30.2,1.5 C29.9,1.6 29.8,1.8 29.6,2 C29.4,2.2 29.2,2.4 29,2.6 C28.8,2.8 28.7,3.1 28.6,3.4 C28.5,3.7 28.4,4 28.3,4.3 C28.2,4.6 28.3,4.8 28.3,5.1 L28.3,5.1 Z M36.2,9.3 L36.2,9.3 C36.2,9.3 36.3,9.3 36.2,9.3 C36.3,9.3 36.3,9.3 36.3,9.3 C36.4,9.3 36.4,9.3 36.5,9.3 C36.6,9.3 36.6,9.3 36.7,9.3 C36.7,9.3 36.8,9.3 36.8,9.3 C37,9.2 37.2,9.2 37.3,9 C37.4,8.8 37.4,8.7 37.4,8.6 L37.4,2.3 C37.4,2.1 37.4,1.9 37.3,1.8 C37.2,1.7 37.1,1.6 37,1.5 C36.9,1.4 36.8,1.4 36.7,1.4 C36.6,1.4 36.5,1.4 36.5,1.4 L36.3,1.4 C36.3,1.4 36.3,1.4 36.3,1.4 L36.3,1.1 L36.3,1.1 C36.3,1.1 36.3,1.1 36.3,1.1 C36.3,1.1 36.3,1.1 36.4,1.1 C36.4,1.1 36.5,1.1 36.6,1.1 C36.7,1.1 36.8,1.1 37,1.1 C37.2,1.1 37.5,1.1 37.7,1.1 C38,1.1 38.2,1.1 38.5,1.1 C38.8,1.1 39,1.1 39.3,1.1 C39.6,1.1 39.8,1.1 40,1.1 L40.6,1.1 C40.9,1.1 41.3,1.2 41.6,1.3 C41.9,1.4 42.2,1.6 42.5,1.8 C42.8,2 43,2.3 43.2,2.6 C43.4,2.9 43.5,3.3 43.5,3.7 C43.5,4 43.5,4.2 43.4,4.4 C43.3,4.6 43.2,4.8 43.1,5 C43,5.2 42.8,5.3 42.6,5.4 C42.4,5.5 42.2,5.6 42,5.7 L43.8,8.6 C44,8.9 44.1,9.1 44.4,9.3 C44.6,9.5 44.9,9.6 45.1,9.7 C45.1,9.7 45.2,9.7 45.2,9.7 C45.2,9.7 45.2,9.7 45.2,9.8 C45.2,9.9 45.2,9.9 45.2,9.9 C45.2,9.9 45.1,9.9 45,9.9 C44.8,9.9 44.6,9.9 44.4,9.9 C44.2,9.9 44,9.8 43.7,9.8 C43.5,9.7 43.3,9.7 43.1,9.6 C42.9,9.5 42.7,9.4 42.6,9.3 C42.5,9.2 42.3,9 42.2,8.9 C42.1,8.8 41.9,8.5 41.8,8.3 C41.7,8.1 41.5,7.9 41.4,7.7 C41.3,7.5 41.1,7.2 40.9,7 C40.7,6.8 40.7,6.6 40.5,6.4 C40.3,6.2 40.3,6.1 40.2,5.9 L39.2,5.8 L39.2,5.8 C39.2,5.8 39.2,5.8 39.1,5.8 C39.1,5.8 39.1,5.8 39.1,5.8 L39.1,8.4 C39.1,8.5 39.1,8.6 39.1,8.7 C39.1,8.8 39.2,8.9 39.2,8.9 C39.3,9 39.4,9 39.5,9 C39.6,9 39.7,9.1 39.9,9.1 C39.9,9.1 40,9.1 40,9.1 C40,9.1 40.1,9.1 40.2,9.1 C40.3,9.1 40.3,9.1 40.4,9.1 C40.5,9.1 40.5,9.1 40.5,9.1 C40.5,9.1 40.5,9.1 40.5,9.1 L40.5,9.4 L40.5,9.4 L36.3,9.4 C36.3,9.4 36.3,9.4 36.3,9.3 C36.3,9.2 36.3,9.2 36.3,9.1 L36.2,9.3 L36.2,9.3 L36.2,9.3 Z M39.2,5.2 C39.2,5.2 39.2,5.3 39.2,5.2 C39.2,5.3 39.3,5.3 39.3,5.3 C39.3,5.3 39.4,5.3 39.5,5.3 C39.6,5.3 39.7,5.3 39.8,5.3 C40.2,5.3 40.5,5.2 40.7,5.1 C40.9,5 41.1,4.8 41.3,4.7 C41.4,4.5 41.5,4.3 41.6,4.1 C41.7,3.9 41.7,3.6 41.7,3.3 C41.7,3 41.7,2.8 41.6,2.5 C41.5,2.2 41.2,2.2 41,2 C40.8,1.8 40.7,1.7 40.4,1.6 C40.2,1.5 40,1.4 39.7,1.4 C39.6,1.4 39.6,1.4 39.6,1.4 C39.6,1.4 39.5,1.4 39.5,1.4 C39.5,1.4 39.4,1.4 39.4,1.4 C39.4,1.4 39.3,1.4 39.2,1.4 C39.2,1.4 39.1,1.4 39.1,1.4 C39.1,1.4 39,1.4 39,1.5 L39,5 L39.2,5.2 L39.2,5.2 Z M45.1,9.3 C45.1,9.3 45.1,9.3 45.1,9.3 C45.2,9.3 45.3,9.3 45.4,9.2 C45.5,9.1 45.6,9.1 45.7,9.1 C45.8,9 45.9,9 46,8.8 C46.1,8.7 46.2,8.5 46.3,8.3 L48.7,1.3 C48.7,1.3 48.7,1.3 48.7,1.3 C48.7,1.3 48.7,1.2 48.7,1.2 C48.7,1.2 48.7,1.1 48.7,1.1 C48.7,1.1 48.7,1.1 48.7,1.1 L50.5,1.1 C50.5,1.1 50.5,1.1 50.5,1.1 L53.1,8.3 C53.1,8.4 53.2,8.5 53.2,8.6 C53.2,8.7 53.3,8.8 53.3,8.8 C53.3,8.8 53.4,8.9 53.5,9 C53.6,9.1 53.7,9.1 53.8,9.2 C53.9,9.2 53.9,9.3 54,9.3 C54.1,9.3 54.2,9.3 54.3,9.3 C54.3,9.3 54.3,9.3 54.3,9.3 L54.3,9.6 L54.3,9.6 L50,9.6 C50,9.6 50,9.6 50,9.6 L50,9.3 L50,9.3 C50,9.3 50,9.3 50,9.3 L50,9.3 C50,9.3 50.1,9.3 50.2,9.3 C50.3,9.3 50.4,9.3 50.5,9.3 C50.6,9.3 50.7,9.3 50.8,9.3 C50.9,9.3 51,9.2 51.1,9.2 C51.2,9.2 51.2,9.1 51.3,9 C51.4,8.9 51.4,8.8 51.4,8.7 C51.4,8.7 51.4,8.6 51.4,8.6 L50.6,6.4 C50.6,6.4 50.6,6.4 50.6,6.3 C50.6,6.3 50.6,6.2 50.6,6.2 C50.6,6.2 50.5,6.1 50.5,6.1 C50.5,6.1 50.4,6.1 50.4,6.1 L48.2,6.1 C48.1,6.1 48.1,6.1 48.1,6.1 C48.1,6.1 48,6.2 48,6.2 C48,6.2 48,6.3 47.9,6.3 C47.9,6.3 47.9,6.3 47.9,6.3 C47.8,6.7 47.7,7 47.6,7.3 C47.5,7.6 47.4,7.8 47.4,8 C47.3,8.2 47.3,8.3 47.3,8.4 C47.3,8.5 47,8.6 47,8.6 C47,8.6 47,8.7 47,8.7 L47,8.8 C47,8.9 47.1,9 47.2,9.1 C47.3,9.2 47.4,9.2 47.5,9.3 C47.6,9.4 47.7,9.4 47.9,9.4 C48.1,9.4 48.1,9.4 48.2,9.4 L48.4,9.4 C48.4,9.4 48.4,9.4 48.4,9.4 L48.4,9.7 L48.4,9.7 L45,9.7 C45,9.7 45,9.7 45,9.7 L45.1,9.3 L45.1,9.3 L45.1,9.3 Z M48.3,5.3 C48.3,5.3 48.3,5.3 48.3,5.3 C48.3,5.4 48.3,5.4 48.3,5.4 C48.3,5.4 48.3,5.4 48.3,5.5 C48.3,5.5 48.3,5.5 48.4,5.5 L50.2,5.5 C50.2,5.5 50.3,5.5 50.3,5.5 C50.3,5.5 50.3,5.5 50.3,5.4 C50.3,5.3 50.3,5.4 50.3,5.3 C50.3,5.3 50.3,5.3 50.3,5.2 L49.5,3 C49.4,3 49.4,3 49.3,3 C49.2,3 49.2,3 49.2,3 C49.2,3 49.1,3 49.1,3 C49.1,3 49.1,3 49,3.1 L48.3,5.3 L48.3,5.3 Z M54.7,9.6 C54.6,9.6 54.6,9.6 54.7,9.6 L54.7,9.3 C54.7,9.3 54.7,9.3 54.7,9.3 L54.7,9.3 L54.8,9.3 C54.9,9.3 55,9.3 55.1,9.3 C55.2,9.3 55.3,9.3 55.5,9.2 C55.6,9.2 55.7,9.1 55.8,9 C55.9,8.9 55.9,8.8 55.9,8.6 L55.9,2.1 C55.9,2 55.9,1.9 55.8,1.8 C55.7,1.7 55.7,1.6 55.6,1.6 C55.5,1.5 55.4,1.5 55.3,1.5 C55.2,1.5 55.1,1.5 55,1.5 L54.6,1.5 C54.6,1.5 54.6,1.5 54.6,1.5 L54.6,1.2 C54.6,1.2 54.6,1.2 54.6,1.2 L54.6,1.2 L54.7,1.2 L57.2,1.2 C57.4,1.2 57.7,1.2 58,1.2 C58.3,1.2 58.5,1.2 58.8,1.2 C59.1,1.2 59.3,1.2 59.5,1.2 C59.7,1.2 59.9,1.2 60.1,1.2 C60.3,1.2 60.5,1.2 60.7,1.3 C60.9,1.4 61.1,1.4 61.3,1.4 C61.8,1.5 62.2,1.7 62.5,1.9 C62.8,2.1 63.2,2.5 63.5,2.8 C63.8,3.1 64,3.6 64.2,4 C64.4,4.4 64.4,4.9 64.4,5.3 C64.4,5.7 64.3,6.2 64.2,6.5 C64.1,6.9 63.9,7.3 63.7,7.6 C63.5,7.9 63.2,8.2 62.9,8.5 C62.6,8.8 62.3,9 61.9,9.2 C61.5,9.4 61.2,9.5 60.8,9.6 C60.4,9.7 60,9.8 59.6,9.8 L54.7,9.6 L54.7,9.6 L54.7,9.6 Z M57.6,8.7 C57.6,8.8 57.6,8.9 57.7,9 C57.8,9.1 57.9,9.1 58,9.1 C58.1,9.1 58.3,9.1 58.4,9.2 C58.6,9.2 58.7,9.2 58.9,9.2 C60.1,9.2 61,8.9 61.6,8.2 C62.2,7.5 62.5,6.6 62.5,5.3 C62.5,4.7 62.4,4.3 62.3,3.8 C62.2,3.3 62,2.9 61.7,2.6 C61.4,2.3 61.1,2 60.6,1.8 C60.1,1.6 59.7,1.5 59.1,1.5 L57.7,1.5 C57.6,1.5 57.6,1.5 57.6,1.5 C57.6,1.5 57.6,1.6 57.6,1.6 L57.6,8.7 L57.6,8.7 L57.6,8.7 Z M70,9.8 C69.9,9.8 69.7,9.8 69.5,9.8 C69.3,9.8 69.1,9.7 68.8,9.7 C68.5,9.6 68.3,9.5 68,9.4 C67.7,9.3 67.5,9.2 67.2,9 C66.9,8.8 66.7,8.6 66.4,8.4 C66.1,8.2 66,7.9 65.8,7.6 C65.6,7.3 65.5,7 65.4,6.6 C65.3,6.2 65.2,5.8 65.2,5.3 C65.2,4.9 65.3,4.5 65.4,4.1 C65.5,3.7 65.7,3.4 65.9,3 C66.1,2.6 66.4,2.4 66.7,2.1 C67,1.8 67.4,1.6 67.7,1.4 C68,1.2 68.5,1.1 68.9,1 C69.3,0.9 69.8,0.8 70.3,0.8 C70.7,0.8 71.1,0.9 71.5,1 C71.9,1.1 72.3,1.3 72.6,1.4 C72.9,1.6 73.3,1.8 73.6,2.1 C73.9,2.4 74.1,2.7 74.3,3 C74.5,3.3 74.7,3.7 74.8,4.1 C74.9,4.5 75,4.9 75,5.2 C75,5.6 74.9,6 74.8,6.3 C74.7,6.6 74.5,7 74.3,7.4 C74.1,7.8 73.8,8.1 73.5,8.4 C73.2,8.7 72.9,8.9 72.5,9.2 C72.1,9.5 71.7,9.6 71.3,9.7 C71,9.7 70.5,9.8 70,9.8 L70,9.8 Z M67,5.1 C67,5.4 67,5.8 67.1,6.1 C67.2,6.4 67.3,6.7 67.4,7.1 C67.5,7.4 67.7,7.7 67.9,8 C68.1,8.3 68.3,8.5 68.6,8.7 C68.8,8.9 69.1,9.1 69.4,9.2 C69.7,9.3 70,9.4 70.4,9.4 C70.9,9.4 71.3,9.3 71.7,9.1 C72.1,8.9 72.4,8.6 72.6,8.3 C72.8,8 73,7.6 73.1,7.1 C73.2,6.6 73.3,6.2 73.3,5.7 C73.3,5.3 73.3,5 73.2,4.7 C73.1,4.4 73,4 72.9,3.7 C72.8,3.4 72.5,3 72.3,2.7 C72.1,2.4 71.9,2.2 71.6,2 C71.4,1.8 71.1,1.7 70.8,1.6 C70.5,1.5 70.2,1.4 69.8,1.4 C69.5,1.4 69.2,1.4 68.9,1.5 C68.6,1.6 68.5,1.8 68.3,2 C68.1,2.2 67.9,2.4 67.7,2.6 C67.5,2.8 67.4,3.1 67.3,3.4 C67.2,3.7 67.1,4 67,4.3 C67.1,4.5 67,4.8 67,5.1 L67,5.1 Z" id="eldorado_gaming-25" fill="#343840"></path>
</svg>