<svg xmlns="http://www.w3.org/2000/svg" xmlns:xlink="http://www.w3.org/1999/xlink" width="99px" height="17px" viewBox="0 0 99 17" version="1.1" class="injected-svg" data-src="/content/dam/empire/logos/logo-train/eldorado.svg">
	<title>Eldorado</title>
  <path d="M3.1,6.2 L10.8,6.2 L8.7,9 C8.7,9 8.5,8.5 7.7,8.5 C6.9,8.5 3,8.5 3,8.5 C3,8.5 2.8,11.4 6.2,12.3 C9.6,13.3 11.7,11.8 12.2,11.6 L11.1,14.4 L6,14.4 C6,14.4 2.1,14.5 0.5,10.3 C0.5,10.3 -0.7,8.4 1.1,3.7 L6.8,-2.22044605e-13 L11,2.7 L9.1,4.2 C9.1,4.2 7.8,2 5.5,2.7 C3.2,3.3 3.1,6.2 3.1,6.2 Z M15.3,0.1 L12.1,2.3 C12.1,2.3 12.5,2.5 12.5,3 C12.5,3.7 12.5,14.5 12.5,14.5 L14.2,13.5 L19.6,16.7 L21.3,14.8 L16.3,11.9 L15.4,12.4 C15.4,12.4 15.2,12.5 15.2,12.2 L15.3,0.1 L15.3,0.1 Z M54.4,8.6 C54.4,8.6 54.1,8.1 54.7,8.1 C55.3,8.1 56,8.6 57.4,7.4 C59.3,5.8 57.4,2.5 57.5,2.8 C57.3,2.5 55.9,0.4 54.3,0.2 C54.3,0.2 53.8,0.2 53.4,0.4 C53,0.6 51.2,1.6 51.2,1.6 L51.2,0.4 L48.1,2.4 C48.1,2.4 48.5,2.7 48.5,3.2 L48.5,14.7 L51.2,13.4 L51.2,9.3 L58,16.4 L60.1,14.7 L54.4,8.6 L54.4,8.6 Z M52.6,6.9 L51.3,8 L51.3,4.5 L51.3,2.8 C52.1,1.7 52.8,1.8 52.8,1.8 C54.4,2 55,3.3 55.3,4.1 C55.6,4.9 55.7,6.9 54.6,7.4 C53.6,7.9 52.6,6.9 52.6,6.9 L52.6,6.9 Z M21.6,14.5 L21.6,5.7 C21.6,5.7 21.6,5.3 21.4,5.3 L24.2,3.7 L24.3,11.1 C24.3,11.1 25.2,14.4 28.2,12.3 C31.3,10.3 30.7,3.6 27.6,1.8 C27.6,1.8 24,-0.5 22.1,3.3 L20.1,3.3 C20.1,3.3 21.5,-0.7 27.5,0.2 C33.5,1.2 34.3,9.5 30.7,12.8 C30.7,12.8 27.5,16.2 23.5,13.5 L21.6,14.5 L21.6,14.5 Z M71.9,14.5 L71.9,5.7 C71.9,5.7 71.9,5.3 71.7,5.3 L74.5,3.7 L74.5,11.1 C74.5,11.1 75.4,14.4 78.4,12.3 C81.5,10.3 80.9,3.6 77.8,1.8 C77.8,1.8 74.2,-0.5 72.3,3.3 L70.3,3.3 C70.3,3.3 71.7,-0.7 77.7,0.2 C83.7,1.2 84.5,9.5 80.9,12.8 C80.9,12.8 77.7,16.2 73.7,13.5 L71.9,14.5 L71.9,14.5 Z M48,6.6 C47.5,2.9 44.3,0.1 40.6,0.1 C36.4,0.1 33.1,3.8 33.4,8.1 C33.4,8.4 33.5,8.6 33.5,8.9 L33.5,8.9 C33.8,10.7 35,12 35,12 C35,12 35,12 35,12 C36.1,13.3 37.7,14.3 39.5,14.6 C44.3,15.5 48.6,11.4 48,6.6 L48,6.6 Z M40.1,12.4 C39,12 37.9,11.2 37.1,10.1 L37.1,10.1 C36.6,9.4 36.2,8.7 36,7.9 C35.4,6.1 35.5,3.8 37.3,2.7 C38.3,2 39.5,2 40.6,2.3 C43.6,3.2 45.4,6 45.3,9 C45.3,11.6 42.5,13.2 40.1,12.4 L40.1,12.4 Z M98.4,6.6 C97.9,2.9 94.7,0.1 91,0.1 C86.8,0.1 83.5,3.8 83.8,8.1 C83.8,8.4 83.9,8.6 83.9,8.9 L83.9,8.9 C84.3,10.8 85.4,12.1 85.4,12.1 C85.4,12.1 85.4,12.1 85.4,12.1 C86.5,13.4 88.1,14.4 89.9,14.7 C94.7,15.5 99.1,11.4 98.4,6.6 L98.4,6.6 Z M90.5,12.4 C89.4,12 88.4,11.2 87.5,10.1 L87.5,10.1 C87,9.4 86.6,8.7 86.4,7.9 C85.8,6.1 85.9,3.8 87.7,2.7 C88.8,2.1 89.9,2 91,2.3 C94,3.2 95.8,6 95.7,9 C95.6,11.6 92.9,13.2 90.5,12.4 L90.5,12.4 Z M69.7,10.2 L69.7,3.3 C69.7,3.3 66.5,-0.8 61.3,0.9 L60.3,3.1 C60.3,3.1 63.4,1.2 67,3.9 L67,6.9 C67,6.9 65.6,5 62.9,5.2 C60.6,5.4 58.3,7.4 58.5,10 C58.8,13.2 60.8,14.3 63,14.9 C63,14.9 63.4,15 63.9,14.9 L67,13.5 L67,15 L69.8,13.6 L69.7,10.2 L69.7,10.2 Z M63.3,12.8 C61.4,12.5 60.2,10.3 61.1,8.5 C61.8,7.1 63.5,6.4 65,7.1 C65.7,7.4 66.1,7.9 66.4,8.5 L66.4,8.5 C66.4,8.5 66.5,8.6 66.6,8.9 C66.6,9 66.6,9 66.7,9.1 C66.8,9.2 66.7,9.2 66.8,9.3 C66.8,9.4 66.9,9.6 66.9,9.7 C66.9,9.7 66.9,9.7 66.9,9.8 C66.9,9.9 66.9,10 66.9,10.2 C66.9,10.5 66.8,10.8 66.7,11.2 L66.7,11.2 C66.2,12.4 64.8,13 63.3,12.8 L63.3,12.8 Z" id="eldorado-5" fill="#343840"></path>
</svg>