<svg xmlns="http://www.w3.org/2000/svg" xmlns:xlink="http://www.w3.org/1999/xlink" viewBox="0 0 70 39" version="1.1" class="injected-svg" data-src="/content/dam/empire/logos/caesars_corporate_vertical_color.svg">
    <title>Caesars Corporate Logo</title>
    <defs>
        <linearGradient x1="21.0442071%" y1="74.0314829%" x2="90.585509%" y2="33.8803928%" id="linearGradient-1">
            <stop stop-color="#976B29" offset="0%"></stop>
            <stop stop-color="#EFB21E" offset="25.4141798%"></stop>
            <stop stop-color="#6E3918" offset="41.7713931%"></stop>
            <stop stop-color="#FFC808" offset="63.1860306%"></stop>
            <stop stop-color="#643212" offset="100%"></stop>
        </linearGradient>
        <style type="text/css"><![CDATA[
        #rings { fill: url(#linearGradient); }
      ]]></style>
    </defs>
    <path d="M28.4570499,30.4097614 L28.2034707,30.3535792 L27.3546638,32.1787419 L23.9214751,32.1787419 L23.9214751,24.8401302 L27.3546638,24.8401302 L28.2034707,26.6652928 L28.4570499,26.6091106 L28.4570499,24.4362256 L21.5496746,24.4362256 L21.5496746,24.8401302 L22.6049892,24.8401302 L22.6049892,32.1787419 L21.5496746,32.1787419 L21.5496746,32.5826464 L28.4570499,32.5826464 L28.4570499,30.4097614 L28.4570499,30.4097614 Z M26.1885033,30.2700651 L26.440564,30.210846 L26.440564,26.9993492 L26.1885033,26.9401302 L25.3609544,28.6043384 L26.1885033,30.2700651 L26.1885033,30.2700651 Z M14.9611714,24.4013015 L14.8700651,24.4362256 L14.8700651,24.4362256 L14.9596529,24.3921909 L14.8928416,24.2130152 L14.6741866,24.4043384 L14.1032538,24.7976139 L11.1331887,32.1787419 L10.0778742,32.1787419 L10.0778742,32.5826464 L12.6106291,32.5826464 L12.6106291,32.1787419 L11.5689805,32.1787419 L12.5726681,29.6763557 L15.5366594,29.6763557 L16.4826464,32.1787419 L15.5062907,32.1787419 L15.5062907,32.5826464 L18.9212581,32.5826464 L18.9212581,32.1787419 L17.9039046,32.1787419 L14.9611714,24.4013015 Z M12.735141,29.2709328 L14.1017354,25.875705 L15.3863341,29.2709328 L12.735141,29.2709328 Z M45.462039,32.5826464 L48.8770065,32.5826464 L48.8770065,32.1787419 L47.8581345,32.1787419 L44.9169197,24.4013015 L44.8258134,24.4362256 L44.8258134,24.4362256 L44.9154013,24.3906725 L44.84859,24.2145336 L44.6299349,24.4043384 L44.0590022,24.7976139 L41.0934924,32.1848156 L40.0381779,32.1848156 L40.0381779,32.5887202 L42.5709328,32.5887202 L42.5709328,32.1848156 L41.5292842,32.1848156 L42.5344902,29.6824295 L45.4969631,29.6824295 L46.4444685,32.1848156 L45.462039,32.1848156 L45.462039,32.5826464 Z M42.6908894,29.2709328 L44.0574837,25.875705 L45.3420824,29.2709328 L42.6908894,29.2709328 Z M55.9635575,28.8913232 L55.3941432,28.7394794 C55.9079886,28.6322134 56.4018864,28.4452085 56.8579176,28.1852495 C57.6065076,27.7479393 58.0180043,27.1724512 58.0180043,26.5650759 C58.0180043,25.0876356 56.5527115,24.2874187 55.1739696,24.2874187 L51.2503254,24.2874187 L51.2503254,24.6928416 L52.2995662,24.6928416 L52.2995662,32.1696312 L51.2503254,32.1696312 L51.2503254,32.5735358 L54.6637744,32.5735358 L54.6637744,32.1696312 L53.6160521,32.1696312 L53.6160521,28.8503254 L54.4663774,28.8503254 L57.216269,32.5872017 L59.1386117,32.5872017 L59.1386117,32.1832972 L58.4370933,32.1832972 L55.9635575,28.8913232 Z M53.6160521,24.7019523 L54.6637744,24.7019523 C56.4039046,24.7672451 56.5921909,26.1626898 56.5921909,26.7579176 C56.5921909,28.1913232 55.1785249,28.4281996 53.6130152,28.4281996 L53.6160521,24.7019523 Z M36.7598698,28.381128 C36.7507592,28.381128 35.8214751,27.8436009 35.5086768,27.6735358 L35.1229935,27.4655098 C34.7309377,27.2680904 34.350687,27.048052 33.9841649,26.8065076 C33.7294524,26.6304206 33.5742638,26.3431807 33.5665944,26.0336226 C33.5378874,25.7344368 33.6371891,25.4370833 33.8399132,25.2151844 C34.1436009,24.8492408 34.8420824,24.7247289 35.2232104,24.7292842 C35.9147892,24.728729 36.5620373,25.0696851 36.9527115,25.6403471 L37.467462,26.9112798 L37.7711497,26.9112798 L37.7711497,24.9175705 L37.7407809,24.881128 C37.5732206,24.7135001 37.3696552,24.5862717 37.1455531,24.5091106 C36.4540412,24.2603369 35.7115504,24.187288 34.9848156,24.2965293 C34.3526125,24.4022671 33.75342,24.6527534 33.2340564,25.0284165 C32.7874568,25.3368432 32.5074904,25.8335036 32.4748373,26.3752711 C32.4440069,26.6860962 32.5080638,26.9989692 32.6585683,27.2726681 C32.8074098,27.5692007 33.0403162,27.8153104 33.3281996,27.9802603 C33.6440347,28.1822126 34.0995662,28.4236443 34.7889371,28.7895879 L34.9878525,28.8943601 C35.4433839,29.1327549 35.7334056,29.289154 35.9778742,29.437961 C36.2136938,29.5721084 36.4239426,29.7468873 36.5989154,29.9542299 C36.7677274,30.1608282 36.8731929,30.4118361 36.902603,30.6770065 C36.9558536,31.0558722 36.8196309,31.436728 36.5381779,31.6958785 C36.2587852,31.9859002 35.7258134,32.1665944 35.1852495,32.15141 C34.416795,32.12412 33.6923483,31.7860083 33.1778742,31.2145336 L32.6874187,29.9481562 L32.3609544,29.9481562 L32.3609544,31.9494577 L32.4004338,31.9889371 C32.5703626,32.1404137 32.7650141,32.2616215 32.9759219,32.3472885 C33.4868926,32.5972703 34.0470351,32.7305635 34.6158351,32.7375322 C34.8252097,32.7378936 35.0341551,32.718575 35.2399132,32.6798265 C35.9271553,32.5520841 36.5759561,32.268461 37.1364425,31.8507592 C37.7054577,31.4402243 38.0314392,30.7723041 38.0049892,30.0711497 C37.997397,30.0301518 37.9852495,28.9793926 36.7598698,28.381128 Z M67.4763557,30.075705 C67.4763557,30.0301518 67.4642082,28.9793926 66.2403471,28.381128 C66.2312364,28.381128 65.3019523,27.8436009 64.989154,27.6735358 L64.6034707,27.4655098 C64.2111618,27.2676522 63.8304306,27.0476291 63.4631236,26.8065076 C63.2093639,26.6297534 63.0548803,26.3427747 63.0470716,26.0336226 C63.0179566,25.73466 63.1166967,25.4373363 63.318872,25.2151844 C63.6301518,24.8492408 64.3240781,24.7247289 64.7021692,24.7292842 C65.3942849,24.7282271 66.0422114,25.0692411 66.4331887,25.6403471 L66.9464208,26.9112798 L67.2501085,26.9112798 L67.2501085,24.9175705 L67.2212581,24.881128 C67.0534658,24.713792 66.8499717,24.5866082 66.6260304,24.5091106 C65.9340065,24.2602715 65.1910091,24.187224 64.4637744,24.2965293 C63.8310562,24.4020958 63.2313322,24.6525871 62.7114967,25.0284165 C62.2657542,25.3376248 61.9860431,25.8338323 61.9522777,26.3752711 C61.9229597,26.6860163 61.9869263,26.9984482 62.1360087,27.2726681 C62.2853672,27.5688377 62.5181474,27.814814 62.8056399,27.9802603 C63.1199566,28.1806941 63.5739696,28.4221258 64.2603037,28.7850325 L64.4713666,28.897397 C64.9177874,29.1327549 65.2123644,29.289154 65.456833,29.437961 C65.6926526,29.5721084 65.9029013,29.7468873 66.0778742,29.9542299 C66.2469873,30.160647 66.3524918,30.4117479 66.3815618,30.6770065 C66.4342779,31.0558173 66.2981417,31.4364314 66.0171367,31.6958785 C65.737744,31.9859002 65.2032538,32.1665944 64.6642082,32.15141 C63.8954282,32.1236622 63.1706797,31.7856654 62.6553145,31.2145336 L62.1663774,29.9481562 L61.8399132,29.9481562 L61.8399132,31.9494577 L61.8793926,31.9889371 C62.0491306,32.1399111 62.2431936,32.2610721 62.4533623,32.3472885 C62.9648635,32.5972973 63.5255051,32.7305858 64.0947939,32.7375309 C64.3041661,32.7378399 64.5131065,32.7185218 64.718872,32.6798265 C65.4061141,32.5520841 66.0549149,32.268461 66.6154013,31.8507592 C67.1808165,31.4399862 67.5038194,30.774042 67.4763557,30.075705 L67.4763557,30.075705 Z M7.54360087,31.9418655 L7.54360087,29.9420824 L7.28850325,29.8828633 L6.34099783,31.7824295 C5.85783965,32.1263111 5.28044529,32.3129436 4.68741866,32.3169197 C2.44468547,32.3169197 1.44099783,30.3960954 1.44099783,28.491974 C1.44099783,26.0624729 2.62386117,24.6670282 4.68741866,24.6670282 C5.32295946,24.6707857 5.93947435,24.8842973 6.44121475,25.2744035 L7.28850325,26.9720174 L7.54056399,26.9127983 L7.54056399,24.9388286 L7.44793926,24.8872017 C6.65419427,24.4623656 5.76686573,24.2426213 4.86659436,24.2479393 C2.04989154,24.2555315 3.18411963e-12,26.0396963 3.18411963e-12,28.4980477 C3.18411963e-12,31.2312364 1.73101952,32.740564 4.87570499,32.740564 C5.79408086,32.7215776 6.69103256,32.4596174 7.47527115,31.9813449 L7.54360087,31.9418655 Z M0.87462039,37.3793926 L2.33232104,37.3793926 L2.33232104,36.9527115 L0.87462039,36.9527115 L0.87462039,36.191974 L2.50390456,36.191974 L2.50390456,35.7652928 L0.420607375,35.7652928 L0.420607375,38.5895879 L2.52364425,38.5895879 L2.52364425,38.1629067 L0.87462039,38.1629067 L0.87462039,37.3793926 L0.87462039,37.3793926 Z M7.72733189,37.7635575 L6.15726681,35.7652928 L5.76095445,35.7652928 L5.76095445,38.5895879 L6.20737527,38.5895879 L6.20737527,36.5412148 L7.81995662,38.5895879 L8.17375271,38.5895879 L8.17375271,35.7652928 L7.72733189,35.7652928 L7.72733189,37.7635575 L7.72733189,37.7635575 Z M11.3700651,36.1950108 L12.2659436,36.1950108 L12.2659436,38.5895879 L12.7245119,38.5895879 L12.7245119,36.1950108 L13.6219089,36.1950108 L13.6219089,35.7652928 L11.3700651,35.7652928 L11.3700651,36.1950108 L11.3700651,36.1950108 Z M17.2707158,37.3793926 L18.7284165,37.3793926 L18.7284165,36.9527115 L17.2707158,36.9527115 L17.2707158,36.191974 L18.9015184,36.191974 L18.9015184,35.7652928 L16.8167028,35.7652928 L16.8167028,38.5895879 L18.9197397,38.5895879 L18.9197397,38.1629067 L17.2707158,38.1629067 L17.2707158,37.3793926 L17.2707158,37.3793926 Z M24.4255965,36.6353579 C24.4294634,36.4187417 24.3469654,36.2094919 24.1963124,36.0537961 C23.9741317,35.8543193 23.6821767,35.7506343 23.3839479,35.7652928 L22.1585683,35.7652928 L22.1585683,38.5895879 L22.6140998,38.5895879 L22.6140998,37.5509761 L23.2639913,37.5509761 L24.0383948,38.5895879 L24.4468547,38.5895879 L24.5075922,38.4681128 L23.7574837,37.4689805 C24.1520357,37.3885135 24.4329862,37.0379639 24.4255965,36.6353579 Z M23.9700651,36.6535792 C23.9700651,36.9420824 23.7301518,37.1273319 23.3626898,37.1273319 L22.6171367,37.1273319 L22.6171367,36.1950108 L23.3657267,36.1950108 C23.7468547,36.1950108 23.9670282,36.3605206 23.9670282,36.6535792 L23.9700651,36.6535792 Z M27.4867679,36.1950108 L28.3841649,36.1950108 L28.3841649,38.5895879 L28.8412148,38.5895879 L28.8412148,36.1950108 L29.7386117,36.1950108 L29.7386117,35.7652928 L27.4867679,35.7652928 L27.4867679,36.1950108 L27.4867679,36.1950108 Z M33.6045553,35.7455531 L32.3169197,38.5895879 L32.7982646,38.5895879 L33.1156182,37.8835141 L34.4685466,37.8835141 L34.7813449,38.5895879 L35.2733189,38.5895879 L33.9856833,35.7455531 L33.6045553,35.7455531 Z M34.2802603,37.456833 L33.2978308,37.456833 L33.7913232,36.3590022 L34.2802603,37.456833 Z M38.1158351,35.7652928 L38.5698482,35.7652928 L38.5698482,38.5895879 L38.1158351,38.5895879 L38.1158351,35.7652928 Z M43.6900217,37.7635575 L42.1184382,35.7652928 L41.7236443,35.7652928 L41.7236443,38.5895879 L42.1685466,38.5895879 L42.1685466,36.5412148 L43.7826464,38.5895879 L44.1349241,38.5895879 L44.1349241,35.7652928 L43.6900217,35.7652928 L43.6900217,37.7635575 L43.6900217,37.7635575 Z M49.0941432,37.162256 L48.1618221,35.7652928 L47.7396963,35.7652928 L47.7396963,38.5895879 L48.1845987,38.5895879 L48.1845987,36.5989154 L49.0425163,37.8561822 L49.1381779,37.8561822 L49.9960954,36.5958785 L49.9960954,38.5895879 L50.44859,38.5895879 L50.44859,35.7652928 L50.0264642,35.7652928 L49.0941432,37.162256 L49.0941432,37.162256 Z M54.3570499,37.3793926 L55.816269,37.3793926 L55.816269,36.9527115 L54.3570499,36.9527115 L54.3570499,36.191974 L55.9878525,36.191974 L55.9878525,35.7652928 L53.9045553,35.7652928 L53.9045553,38.5895879 L56.0075922,38.5895879 L56.0075922,38.1629067 L54.3570499,38.1629067 L54.3570499,37.3793926 L54.3570499,37.3793926 Z M61.2112798,37.7635575 L59.6396963,35.7652928 L59.2449024,35.7652928 L59.2449024,38.5895879 L59.6913232,38.5895879 L59.6913232,36.5412148 L61.3039046,38.5895879 L61.6577007,38.5895879 L61.6577007,35.7652928 L61.2112798,35.7652928 L61.2112798,37.7635575 L61.2112798,37.7635575 Z M64.8524946,36.1950108 L65.7498915,36.1950108 L65.7498915,38.5895879 L66.2069414,38.5895879 L66.2069414,36.1950108 L67.1043384,36.1950108 L67.1043384,35.7652928 L64.8524946,35.7652928 L64.8524946,36.1950108 L64.8524946,36.1950108 Z M69.2544469,37.2381779 C69.37083,37.2384312 69.4852459,37.2682107 69.5869848,37.3247289 C69.6917644,37.3819729 69.7781248,37.4678068 69.8360087,37.5722343 C69.9564833,37.7802742 69.9564833,38.0368624 69.8360087,38.2449024 C69.7782705,38.3489224 69.6925233,38.4346697 69.5885033,38.4924078 C69.3812351,38.6117136 69.1261402,38.6117136 68.918872,38.4924078 C68.8145005,38.4351369 68.7286375,38.3492739 68.6713666,38.2449024 C68.6123636,38.1434838 68.5814408,38.0281787 68.581776,37.910846 C68.5819642,37.7919438 68.6133814,37.6751764 68.672885,37.5722343 C68.7302891,37.467445 68.8167705,37.3814909 68.9219089,37.3247289 C69.0235474,37.2679603 69.1380293,37.2381637 69.2544469,37.2381779 L69.2544469,37.2381779 Z M69.2544469,37.370282 C69.1615444,37.3704274 69.0701689,37.393924 68.9887202,37.4386117 C68.9042674,37.4850824 68.834757,37.5545928 68.7882863,37.6390456 C68.692036,37.8063801 68.692036,38.012275 68.7882863,38.1796095 C68.8342376,38.2635481 68.9032632,38.3325737 68.9872017,38.3785249 C69.1531705,38.4758156 69.3587601,38.4758156 69.5247289,38.3785249 C69.6086674,38.3325737 69.677693,38.2635481 69.7236443,38.1796095 C69.7711263,38.0979795 69.7962649,38.0052808 69.7965325,37.910846 C69.7968652,37.815171 69.7711441,37.7212102 69.7221258,37.6390456 C69.6756551,37.5545928 69.6061448,37.4850824 69.521692,37.4386117 C69.4402432,37.393924 69.3488678,37.3704274 69.2559653,37.370282 L69.2544469,37.370282 Z M68.9507592,38.2691974 L68.9507592,37.5570499 L69.324295,37.5570499 C69.3632919,37.5591235 69.4014872,37.5689305 69.4366594,37.5859002 C69.464194,37.6023638 69.4867567,37.6259759 69.5019523,37.6542299 C69.5203283,37.6849479 69.529792,37.7201741 69.5292842,37.7559653 C69.5303625,37.804835 69.5123933,37.8522085 69.4791757,37.8880694 C69.4415261,37.9266354 69.3915668,37.9508093 69.337961,37.9563991 C69.3555944,37.9619729 69.3720614,37.9707209 69.386551,37.9822126 C69.4044105,37.998885 69.4206775,38.0171853 69.435141,38.0368764 C69.435141,38.0444685 69.4579176,38.0733189 69.4882863,38.1249458 L69.5718004,38.267679 L69.3926247,38.267679 L69.3318872,38.1522777 C69.3086739,38.0956275 69.2746325,38.0440497 69.2316703,38.0004338 C69.203329,37.9790912 69.1684089,37.9683466 69.1329718,37.9700651 L69.0950108,37.9700651 L69.0950108,38.2646421 L68.9507592,38.2691974 Z M69.102603,37.8637744 L69.1603037,37.8637744 C69.2110957,37.8658285 69.2619655,37.8627763 69.3121475,37.8546638 C69.3310937,37.8490265 69.3476436,37.8372815 69.3592191,37.8212581 C69.3710467,37.805488 69.3774404,37.786307 69.3774404,37.7665944 C69.3774582,37.747585 69.3716267,37.7290305 69.3607375,37.713449 C69.3485359,37.6973979 69.3315035,37.6856881 69.3121475,37.6800434 C69.2620426,37.6712103 69.2111505,37.6676479 69.1603037,37.6694143 L69.102603,37.6694143 L69.102603,37.8637744 Z" fill="#231F20" fill-rule="nonzero"></path>

    <path id="rings-2" d="M34.4636312,0.00022142068 L34.7438652,0.00921938186 C35.0244221,0.0264338143 35.3058294,0.0685043516 35.587024,0.137291216 L35.587024,0.137291216 L36.0893193,0.263020548 C36.591024,0.391966391 37.0903193,0.531807818 37.5814651,0.693759308 L37.5814651,0.693759308 L37.8258564,0.785840035 C38.3836577,1.02243784 38.8575181,1.40520257 39.314113,1.80745139 L39.314113,1.80745139 L39.675311,2.11860447 C40.0390286,2.42707647 40.4068919,2.73106622 40.7481805,3.06262269 L40.7481805,3.06262269 L41.0014758,3.32455962 C41.2477042,3.59397286 41.474852,3.88324619 41.7019998,4.16925971 L41.7019998,4.16925971 L42.0645564,4.63208957 C42.3039059,4.94261499 42.5378988,5.25737719 42.762653,5.57813059 L42.762653,5.57813059 L42.9359331,5.83287269 C43.3308926,6.43215344 43.6566932,7.0673158 43.8370383,7.77414492 L43.8370383,7.77414492 L43.9394657,8.14796449 C44.0827157,8.64507229 44.2447201,9.13834213 44.3298848,9.64499644 L44.3298848,9.64499644 L44.3782823,9.94484059 C44.5014258,10.7455287 44.569799,11.5548328 44.4048449,12.3676208 L44.4048449,12.3676208 L44.3417333,12.7151391 C44.2648774,13.1804548 44.2088401,13.6511888 44.0733829,14.098379 L44.0733829,14.098379 L43.9599437,14.4476396 C43.7592541,15.0258853 43.499991,15.5841836 43.1753742,16.1124735 L43.1753742,16.1124735 L43.0006511,16.3905489 C42.7045992,16.849857 42.3814696,17.2863016 41.9886118,17.6682408 L41.9886118,17.6682408 L41.7292176,17.9098981 C41.1135773,18.4589098 40.4247027,18.9024832 39.6516222,19.21015 L39.6516222,19.21015 L39.2928037,19.3549613 C38.8141963,19.5492617 38.333686,19.7429333 37.8372111,19.8699244 L37.8372111,19.8699244 L37.5114817,19.9484369 C36.5327451,20.169694 35.5397425,20.2580663 34.5234733,20.0958124 L34.5234733,20.0958124 L34.1022899,20.0194943 C32.8484917,19.7652059 31.6813411,19.285803 30.5706223,18.6593512 L30.5706223,18.6593512 L30.2498853,18.4678411 C29.5146896,18.0039311 28.8707773,17.422164 28.2961204,16.7543582 L28.2961204,16.7543582 L28.1071404,16.5569354 C27.8423337,16.3049205 27.5329389,16.0917366 27.259908,15.845011 L27.259908,15.845011 L27.0779197,15.6705576 C26.6677787,15.2531652 26.3603874,14.7633344 26.1822471,14.1990396 L26.1822471,14.1990396 L25.9986708,13.5924955 C25.8809371,13.1865961 25.7724235,12.7778224 25.6726448,12.3673689 L25.6726448,12.3673689 L25.6305428,12.1452289 C25.5980863,11.9207267 25.5899368,11.6902718 25.5644252,11.4640688 L25.5644252,11.4640688 L25.575382,11.2075955 C25.6211452,10.6156247 25.8046595,10.0669144 26.0497127,9.51926514 L26.0497127,9.51926514 L26.2583882,9.01717064 C26.3240728,8.84804992 26.3864345,8.6774292 26.4471269,8.50607621 L26.8044785,7.47531261 L26.9653268,7.00493241 C27.1746929,6.37566514 27.3703197,5.74085058 27.6320625,5.13441752 L27.6320625,5.13441752 L27.7586926,4.85988933 C28.0254877,4.31707407 28.3728622,3.81256508 28.7894708,3.36183295 L28.7894708,3.36183295 L29.1216848,2.99361141 C29.4511979,2.62264187 29.7767072,2.24766842 30.1350981,1.90685219 L30.1350981,1.90685219 L30.3909407,1.67348193 C31.0848517,1.06697463 31.8719454,0.589109207 32.7491249,0.291116785 L32.7491249,0.291116785 L33.0255765,0.204775086 C33.4881218,0.0728892692 33.9592992,0.00169122547 34.4341511,0.00022142068 L34.4341511,0.00022142068 L34.4636312,0.00022142068 Z M34.6078251,0.71586931 C33.2939499,0.531536658 32.1267125,0.945340019 31.046839,1.71623951 L31.046839,1.71623951 L30.7647562,1.92912956 C30.2133749,2.36785325 29.7353532,2.88095481 29.2704749,3.40932864 L29.2704749,3.40932864 L29.0450013,3.67816395 C28.2454786,4.67834934 27.7395788,5.83448554 27.3382696,7.0454577 L27.3382696,7.0454577 L27.1141407,7.73774976 C26.9668709,8.19999636 26.8216542,8.66291488 26.665015,9.12191392 L26.665015,9.12191392 L26.4633858,9.70566439 C26.3324192,10.0955126 26.2180264,10.4895043 26.1782156,10.9043252 C26.1032556,11.6829018 26.2933643,12.3972269 26.7293924,13.0564973 L26.7293924,13.0564973 L26.7341378,12.654788 C26.7387012,12.3868823 26.7425367,12.1190139 26.7244791,11.8526012 L26.7244791,11.8526012 L26.7089442,11.5467282 C26.688795,10.9361861 26.7366635,10.3330091 26.8974541,9.73973586 L26.8974541,9.73973586 L26.9741878,9.45981876 C27.0526891,9.17995283 27.1389325,8.90166367 27.2548686,8.63776022 L27.2548686,8.63776022 L27.4623395,8.17200205 C27.6731173,7.70741316 27.895588,7.24766085 28.1456963,6.80470368 L28.1456963,6.80470368 L28.3318798,6.49268794 C28.7182569,5.87830243 29.1863901,5.32060279 29.6947866,4.79816818 L29.6947866,4.79816818 L29.881838,4.60741007 C30.3209589,4.16467903 30.7833135,3.74568821 31.3646948,3.50041454 L31.3646948,3.50041454 L31.7358966,3.35514008 C32.1112716,3.21874745 32.4979143,3.1077247 32.8845569,3.0105916 L32.8845569,3.0105916 L33.1790412,2.9437282 C34.3560475,2.70457079 35.5217162,2.80379491 36.6701022,3.19918855 L36.6701022,3.19918855 L37.7425347,3.56428806 L37.7425347,3.56428806 L38.8149673,3.92938757 L39.1466486,4.04296848 C39.3676699,4.11914636 39.5878326,4.19773193 39.80318,4.28768398 L39.80318,4.28768398 L40.0631303,4.4088004 C40.6544982,4.71329286 41.1441774,5.16397634 41.6285516,5.6134059 L41.6285516,5.6134059 L41.7384292,5.7252095 C41.8800142,5.88276317 41.9997487,6.07185901 42.0715088,6.26385751 L42.0715088,6.26385751 L42.2684299,6.83736134 C42.3914643,7.22275815 42.5024975,7.61263437 42.6284808,7.9971353 L42.6284808,7.9971353 L42.7113013,8.28437642 C42.8797288,8.95698607 42.8788883,9.64518542 42.8027156,10.3264399 L42.8027156,10.3264399 L42.7501233,10.707343 C42.6051896,11.5906486 42.3067825,12.4355888 41.8980298,13.2403069 L41.8980298,13.2403069 L41.7322139,13.5513326 C41.047481,14.7765678 40.1062473,15.7763501 38.9491395,16.5851627 L38.9491395,16.5851627 L38.6177893,16.8073856 C37.7252789,17.3808683 36.761286,17.8002153 35.7209442,18.035608 L35.7209442,18.035608 L35.3575217,18.1096763 C34.3869743,18.2859368 33.4053998,18.2934398 32.4209385,18.1629771 L32.4209385,18.1629771 L32.0539178,18.1203475 L32.0539178,18.1203475 L31.6863301,18.0819699 L31.6814167,18.1184263 L31.6814167,18.1184263 L31.6765034,18.1547882 L31.8862142,18.2227912 C32.025785,18.269489 32.1654864,18.3156268 32.3089394,18.3414954 L32.3089394,18.3414954 L33.4116079,18.529116 L33.4116079,18.529116 L34.5150324,18.7131461 L34.8575423,18.7619491 C35.7693529,18.8642606 36.6688423,18.7487293 37.5577803,18.5304703 L37.5577803,18.5304703 L37.9173273,18.4372001 C38.6329857,18.2408733 39.3267473,17.9824791 39.9755251,17.6017217 L39.9755251,17.6017217 L40.2298456,17.4473958 C40.8996093,17.0265101 41.4990408,16.5276163 41.9576199,15.8737352 L41.9576199,15.8737352 L42.1436897,15.5922011 C42.616979,14.8316327 42.9104173,13.9938968 43.1038157,13.1106701 L43.1038157,13.1106701 L43.1683147,12.7781954 C43.2998909,12.0022418 43.3014204,11.2248896 43.2233738,10.4431004 L43.2233738,10.4431004 L43.1677561,9.99003509 C43.1045322,9.53756421 43.0264619,9.08638664 43.0052967,8.63209097 L43.0052967,8.63209097 L42.9861973,8.35035333 C42.911065,7.51113469 42.6724238,6.72712318 42.1891771,6.03230027 L42.1891771,6.03230027 L42.0043124,5.76296255 C41.3306414,4.77109927 40.6908371,3.74266986 39.6900471,3.02885917 L39.6900471,3.02885917 L39.1482147,2.64852947 C38.6029689,2.27248713 38.0470048,1.91088365 37.4760171,1.57790988 L37.4760171,1.57790988 L37.206054,1.43321576 C36.4761253,1.07399236 35.669571,0.919129375 34.8725729,0.760782406 L34.8725729,0.760782406 Z M34.8627976,3.64522979 C34.4378046,3.60864425 34.0061356,3.61261524 33.5801106,3.63005132 L33.5801106,3.63005132 L33.2162925,3.65236808 C32.852321,3.68206666 32.488686,3.73389303 32.1325628,3.80768773 L32.1325628,3.80768773 L31.9156619,3.85895012 C31.4139464,3.99257605 30.9451705,4.22511754 30.5562602,4.57379198 L30.5562602,4.57379198 L30.2487213,4.85877495 C29.3426293,5.72682738 28.5870661,6.7141721 28.0307996,7.85754584 L28.0307996,7.85754584 L27.8844443,8.1705994 C27.4150871,9.21796523 27.1341652,10.3043471 27.146649,11.4440375 L27.146649,11.4440375 L27.1510771,11.78679 C27.1755012,12.5814991 27.3017344,13.341062 27.5962833,14.0692768 L27.5962833,14.0692768 L27.6587306,14.2128217 C27.8128741,14.5411905 28.0296657,14.8204993 28.3850645,14.986183 L28.3850645,14.986183 L28.5585482,15.086741 C28.6702907,15.1620417 28.7766205,15.2490261 28.8920212,15.3186529 L28.8920212,15.3186529 L29.1958939,15.5085873 C29.5991048,15.7669921 29.9979779,16.0373622 30.4341824,16.2156538 C31.272727,16.5580763 32.1489406,16.8328458 33.0702563,16.8328458 L33.0702563,16.8328458 L33.0844924,16.8328458 L33.509443,16.8290875 C34.0765249,16.8201618 34.6447196,16.7931107 35.2042868,16.718327 L35.2042868,16.718327 L35.4713431,16.6669077 C35.8250316,16.5796547 36.170125,16.4259954 36.5180404,16.3063617 L36.5180404,16.3063617 L36.8377074,16.1902471 C37.6825177,15.8661871 38.4641739,15.4242689 39.132949,14.8047671 L39.132949,14.8047671 L39.3705409,14.5778252 C40.6907341,13.2769541 41.5616125,11.7218306 41.7493695,9.83497921 L41.7493695,9.83497921 L41.7681934,9.6395656 C41.834172,8.920842 41.855248,8.18078741 41.4539388,7.51663512 L41.4539388,7.51663512 L41.2697792,7.231479 C41.1415563,7.04451983 41.0035906,6.86349587 40.8628253,6.68627941 L40.8628253,6.68627941 L40.6946407,6.48716 C40.2333118,5.97283305 39.6704497,5.59026697 39.0339262,5.30336108 L39.0339262,5.30336108 L38.122232,4.88609517 C37.5154219,4.60572174 36.9094704,4.32346323 36.2976956,4.05436297 L36.2976956,4.05436297 L36.080308,3.9599884 C35.7880429,3.83582735 35.4864894,3.72322855 35.1800981,3.6806966 L35.1800981,3.6806966 Z M33.471261,5.47583217 L33.5065235,5.54974411 C33.5747878,5.67468626 33.6887501,5.80229681 33.8218724,5.84093168 L33.8218724,5.84093168 L33.8411025,5.81481989 C33.8637795,5.77628715 33.8787161,5.73077191 33.9352574,5.77290072 L33.9352574,5.77290072 L34.0407885,5.81941689 C34.3197241,5.9078879 34.5804877,5.72940849 34.8632501,5.70701147 L34.8632501,5.70701147 L34.9623883,5.70391808 C35.1760434,5.70459465 35.466602,5.7444105 35.5574179,5.78663289 L35.5574179,5.78663289 L35.5710101,5.79013107 C35.6772854,5.81790358 36.3768906,6.00847974 36.6061027,6.26990471 L36.6061027,6.26990471 L36.6168983,6.27661049 C36.7015488,6.32964389 37.2632314,6.6898457 37.5610558,7.09244946 L37.5610558,7.09244946 L37.6436205,7.21609461 C37.8512532,7.56684071 37.7219491,7.74452626 37.8932737,7.98252125 L37.8932737,7.98252125 L38.0482331,8.21773201 L38.0688344,8.34675374 C38.1189664,8.73786148 38.0589291,9.15711364 37.7504087,9.38206936 L37.7504087,9.38206936 L37.9271632,9.28191267 L37.933165,9.40513942 C37.9369748,9.5807097 37.9211916,9.79353072 37.8519512,9.94974997 L37.8519512,9.94974997 L37.9101741,9.95192434 C37.9450668,9.94555052 37.9756668,9.92799686 38.0232884,9.92606511 L38.0232884,9.92606511 L38.0387844,9.92606511 L37.9919825,9.99453037 C37.8993722,10.1869485 38.0383084,10.4487697 37.7845501,10.5556035 L37.7845501,10.5556035 L37.7347513,10.5566291 C37.6837635,10.5554067 37.631323,10.5449894 37.5964571,10.5033204 L37.5964571,10.5033204 L37.5446689,10.4011633 C37.4395475,10.092009 37.7502449,9.76102703 37.4947886,9.47076158 L37.4947886,9.47076158 L37.4620842,9.52100529 C37.4387339,9.57675288 37.4378127,9.64575234 37.4086161,9.69866532 L37.4086161,9.69866532 L37.3820663,9.75078973 C37.3649699,9.78667163 37.3467163,9.82208692 37.3131208,9.84064846 L37.3131208,9.84064846 L37.2916523,9.83992989 C37.2785593,9.83619705 37.2685647,9.82662232 37.2656251,9.81519984 L37.2656251,9.81519984 L37.3033654,9.67851095 C37.3710947,9.35825656 37.2978295,9.03216659 37.1114215,8.77079855 L37.1114215,8.77079855 L37.0955772,8.71780093 C37.08728,8.66135059 37.0944138,8.59804399 37.0520834,8.55939863 L37.0520834,8.55939863 L36.9799067,8.64150297 C36.8776911,8.78677743 36.8606308,8.97155289 36.8501322,9.15580342 L36.8501322,9.15580342 L36.8241639,9.16607105 L36.8241639,9.16607105 L36.7946996,9.16651199 L36.7791159,9.05190101 C36.7425528,8.8242386 36.6695082,8.60797418 36.4860406,8.43984051 L36.4860406,8.43984051 L36.4145192,8.37968478 C36.2651816,8.26107025 36.0893193,8.14736135 36.0893193,7.94359242 L36.0893193,7.94359242 L36.0847186,7.88629336 C36.0885354,7.84826508 36.0994819,7.811226 36.0777288,7.77905827 L36.0777288,7.77905827 L36.0242037,7.80929622 C35.9763989,7.84884513 35.9446275,7.91222258 35.9187379,7.96248991 L35.9187379,7.96248991 L35.8907031,8.04347598 C35.8637085,8.15697784 35.8770123,8.28868578 35.9157143,8.39209285 L35.9157143,8.39209285 L35.8457609,8.31943246 C35.7204403,8.16208854 35.6798377,7.93675332 35.6735745,7.71808237 L35.6735745,7.71808237 L35.6356515,7.58873585 C35.5747079,7.41942643 35.471321,7.26451741 35.3143962,7.14548842 L35.3143962,7.14548842 L35.2802668,7.16765946 C35.2486078,7.20879249 35.2646328,7.28996603 35.2359086,7.33622708 L35.2359086,7.33622708 L35.2093915,7.43529018 C35.1813019,7.60310164 35.2313102,7.78084303 35.3229631,7.91449028 L35.3229631,7.91449028 C35.3226831,7.93138604 35.323467,7.939225 35.3143962,7.94359242 L35.3143962,7.94359242 L35.2954987,7.94359242 L35.2228851,7.84720705 C35.116683,7.67897856 35.0834899,7.4753756 35.1069018,7.27474725 L35.1069018,7.27474725 L35.032413,7.19452857 C34.9785668,7.14646829 34.9175909,7.10811338 34.856951,7.07267009 L34.856951,7.07267009 L34.8555959,6.95568382 C34.8244862,6.65279585 34.5821255,6.42143458 34.3377739,6.23576324 L34.3377739,6.23576324 L34.2650303,6.14387011 C34.2223173,6.07968397 34.1881898,6.01109308 34.1447676,5.94675763 L34.1447676,5.94675763 L34.1066226,5.96587909 C34.0852615,5.98505654 34.0710673,6.01403269 34.0582171,6.03444198 L34.0582171,6.03444198 L34.0385853,6.08249279 C34.024052,6.13300814 34.0199181,6.18766913 33.9821232,6.2172437 L33.9821232,6.2172437 L33.9426827,6.11669326 C33.8385999,5.9370492 33.5982701,5.87253549 33.4910404,5.6781613 L33.4910404,5.6781613 L33.4595426,5.68416322 C33.4371904,5.70072805 33.4374975,5.7436726 33.4174662,5.76521574 L33.4174662,5.76521574 L33.3960642,5.87319623 C33.380707,6.05059934 33.4607414,6.21485002 33.5435754,6.36099061 L33.5435754,6.36099061 L33.5233901,6.37342096 C33.5067883,6.37756441 33.486379,6.37342096 33.4770562,6.36099061 L33.4770562,6.36099061 L33.457206,6.33979393 C33.4395368,6.31662088 33.4256236,6.29132186 33.3903798,6.29812496 L33.3903798,6.29812496 L33.3800245,6.38228876 C33.3787662,6.54788807 33.4896366,6.69513423 33.6301259,6.78832585 L33.6301259,6.78832585 L33.7167618,6.83490866 C33.9266275,6.93511605 34.1806098,6.9875054 34.2710028,7.23531449 L34.2710028,7.23531449 L34.2508455,7.24665298 L34.1757927,7.16815841 C34.0449013,7.04740694 33.88562,6.97757372 33.7073537,6.96697013 L33.7073537,6.96697013 L33.6873223,6.98586762 L33.756859,7.08434723 C33.8293206,7.22414229 33.8361337,7.39160933 33.9617139,7.51134383 L33.9617139,7.51134383 L34.070876,7.58621902 C34.2970222,7.7182392 34.5679274,7.74714851 34.8444786,7.73181454 L34.8444786,7.73181454 L34.856762,7.75817654 L34.856762,7.75817654 L34.856951,7.78548342 L34.8330141,7.81445957 L34.7435975,7.82181384 L34.7435975,7.82181384 L34.6528581,7.81735718 L34.5835253,7.81335838 C34.5379473,7.81191191 34.4939932,7.81412361 34.4536785,7.82730986 L34.4536785,7.82730986 L34.5222796,7.92030694 C34.7152867,8.15542317 34.9873856,8.28440515 35.3031837,8.23222008 L35.3031837,8.23222008 L35.3559057,8.21792295 C35.4101592,8.20522029 35.4676549,8.2004723 35.5162214,8.23222008 L35.5162214,8.23222008 L35.5244053,8.25496762 C35.5247278,8.28197843 35.4865901,8.2953629 35.4567573,8.29092828 L35.3590777,8.29085483 C35.1652037,8.29655382 34.9827543,8.34088965 34.856951,8.48796611 L34.856951,8.48796611 L34.8577722,8.5043626 C34.8618223,8.51349872 34.8712291,8.51979789 34.8761004,8.52777683 L34.8761004,8.52777683 L34.9906673,8.5176427 C35.2126352,8.51789614 35.3933877,8.63527655 35.5649769,8.76172776 L35.5649769,8.76172776 L35.6664129,8.80886887 C35.9121258,8.88666576 36.2131923,8.76459387 36.4047814,8.97867094 L36.4047814,8.97867094 L36.3062302,8.95218825 C36.1672374,8.92118226 36.0024916,8.91023683 35.8673368,8.95347429 L35.8673368,8.95347429 L35.8598384,8.96132725 C35.85786,8.96824233 35.8606597,8.97795704 35.8606597,8.98711182 L35.8606597,8.98711182 L35.9127818,9.06014102 C36.0315087,9.23756656 36.136563,9.4540688 36.3658526,9.497722 L36.3658526,9.497722 L36.4651263,9.50291583 C36.7335588,9.51928225 37.0227293,9.56454913 37.1194845,9.84921532 L37.1194845,9.84921532 L37.1194845,9.86886871 L37.0815399,9.85505976 C37.0502409,9.83163278 37.0346032,9.78512133 36.9961469,9.76745218 L36.9961469,9.76745218 L36.9241005,9.7094777 C36.8215441,9.64407928 36.6948957,9.62509109 36.5667959,9.63819335 L36.5667959,9.63819335 L36.5472685,9.66074435 L36.624984,9.7037355 C36.7758047,9.80241896 36.8937405,9.97366879 36.8847776,10.1519531 L36.8847776,10.1519531 L36.8939781,10.2460351 C36.9286481,10.4334254 37.0585086,10.6112161 37.2399245,10.6901536 L37.2399245,10.6901536 L37.2977296,10.7096427 C37.3772261,10.7375687 37.4649306,10.7665751 37.5430402,10.7164841 L37.5430402,10.7164841 L37.529658,10.684713 C37.5151559,10.6656009 37.492143,10.6504269 37.476521,10.6379966 L37.476521,10.6379966 L37.5465777,10.6548579 C37.6674837,10.676033 37.8050854,10.6596027 37.8989429,10.5610208 L37.8989429,10.5610208 L37.8766298,10.6291042 C37.8333561,10.714156 37.7408339,10.7756963 37.6571811,10.8064362 L37.6571811,10.8064362 L37.6608923,10.8940366 C37.6608661,11.0396347 37.6265881,11.1808585 37.5101586,11.282275 L37.5101586,11.282275 L37.431419,11.3292667 L37.4125373,11.342747 L37.4125373,11.342747 L37.3918603,11.3528256 L37.3875769,11.3555972 L37.3751698,11.3584015 C37.3609944,11.3616025 37.3397452,11.3663898 37.3398292,11.3663058 L37.3398292,11.3663058 L37.3251265,11.3687508 C37.3182861,11.3719051 37.3141706,11.3770564 37.2935933,11.3778963 L37.2935933,11.3778963 L37.2506569,11.4126802 C37.1374745,11.4763325 36.9463677,11.432762 36.9515488,11.6042882 L36.9515488,11.6042882 L36.977548,11.6244782 C36.9970427,11.6345382 37.0195797,11.6375058 37.0374694,11.6316266 L37.0374694,11.6316266 L37.0016216,11.7039359 C36.9447255,11.7825092 36.8550456,11.7999654 36.7759281,11.8791837 L36.7759281,11.8791837 L36.7482753,11.9084935 C36.7131532,11.9490742 36.684691,12.0009591 36.6588896,12.1277487 L36.6588896,12.1277487 L36.637848,12.2915791 C36.6069659,12.912579 37.1847147,13.1436875 37.2629794,13.7757358 L37.2629794,13.7757358 L37.258381,13.8286193 C37.2446331,13.8783728 37.205657,13.9182229 37.1614369,13.9435455 L37.1614369,13.9435455 L37.0574867,13.957567 C36.9879999,13.9610572 36.9182892,13.9545061 36.8492504,13.9479549 L36.8492504,13.9479549 L36.7456606,13.9392936 L36.7456606,13.9392936 L36.6437717,13.9383802 L36.3625409,13.9579622 C35.6277664,14.0264363 35.0093347,14.2275118 34.3860255,14.6225953 L34.3860255,14.6225953 L34.2012413,14.7215459 C33.889389,14.8718392 33.5573706,14.9505088 33.1935939,14.9800099 L33.1935939,14.9800099 L33.1526773,14.9743686 C33.1270607,14.9647379 33.1055316,14.9441886 33.0926813,14.9176482 L33.0926813,14.9176482 L33.119064,14.7920252 C33.1772418,14.5459281 33.2584933,14.3257608 33.1935939,14.0421904 L33.1935939,14.0421904 L33.153655,13.8948906 C33.0863204,13.6298189 33.0889738,13.5196118 33.0667287,13.1628272 L33.0667287,13.1628272 L33.0476278,13.0800775 C32.993062,12.9166533 32.8449982,12.7694535 32.6877711,12.7063898 L32.6877711,12.7063898 L32.5314581,12.6565136 C32.3186451,12.601214 32.0895773,12.5866805 31.860187,12.5644067 L31.860187,12.5644067 L31.8026378,12.5364737 C31.7239638,12.4971669 31.641984,12.4472171 31.6102362,12.3579201 L31.6102362,12.3579201 L31.5880319,12.2325678 C31.5725873,12.0628472 31.6098582,11.8854829 31.6526925,11.7327912 L31.6526925,11.7327912 L31.6323876,11.681886 C31.6007638,11.6358234 31.5448509,11.6000363 31.551654,11.5362573 L31.551654,11.5362573 L31.5541305,11.4787984 C31.5798987,11.3888428 31.6959258,11.3245214 31.6330392,11.2346533 L31.6330392,11.2346533 L31.4564106,11.0523555 L31.4747256,10.9930769 C31.5053526,10.9153865 31.5520571,10.8413084 31.5098275,10.7494917 L31.5098275,10.7494917 L31.4552868,10.7144472 C31.3776408,10.6782407 31.2817726,10.6808813 31.1854206,10.6836025 L31.1854206,10.6836025 L31.1047638,10.6849273 C31.0247211,10.6845552 30.9476902,10.6765474 30.8841946,10.6379966 L30.8841946,10.6379966 L30.8677054,10.56862 C30.8587495,10.4550864 30.9346719,10.3516576 30.979186,10.2528657 L30.979186,10.2528657 L31.0786518,10.1484194 C31.2757112,9.89032917 31.2490894,9.54030435 31.4504894,9.28191267 L31.4504894,9.28191267 L31.5246502,9.18947327 C31.661933,8.99973586 31.7311981,8.7802473 31.7003142,8.52021783 L31.7003142,8.52021783 L31.7429197,8.38976569 C31.8189854,8.22367338 31.956539,8.08235039 31.9690365,7.886522 L31.9690365,7.886522 L31.9894721,7.72214358 C32.0401716,7.45470035 32.1693919,7.21809677 32.3069237,6.98586762 L32.3069237,6.98586762 L32.2997487,6.88931606 C32.29556,6.76108323 32.3166244,6.6373979 32.4078363,6.54870568 L32.4078363,6.54870568 L32.5771578,6.41251777 L32.5616931,6.46535414 C32.5383952,6.54347989 32.5116465,6.64634271 32.5685909,6.70227928 L32.5685909,6.70227928 L32.5959433,6.70739327 C32.612909,6.70933435 32.627803,6.70580681 32.643425,6.68161803 L32.643425,6.68161803 L32.6717584,6.58826209 C32.7270219,6.42693935 32.8176598,6.24718573 32.8712027,6.20225169 L32.8712027,6.20225169 L32.8750911,6.24684473 C32.8783686,6.31068297 32.8791145,6.38822819 32.9384778,6.43368296 L32.9384778,6.43368296 L32.9812707,6.46972008 C33.0271857,6.50174542 33.0819412,6.51922559 33.1408069,6.4995722 L33.1408069,6.4995722 L33.1543032,6.46523421 C33.1511023,6.42409311 33.0752704,6.39843284 33.07265,6.35116392 L33.07265,6.35116392 L33.0467085,6.28533111 C33.0242976,6.19190595 33.0493934,6.08067784 33.1075473,6.00911934 L33.1075473,6.00911934 L33.1291371,5.98525251 C33.1451323,5.97724558 33.1637778,5.98278884 33.1817515,5.98833211 L33.1817515,5.98833211 L33.2025052,5.9940171 C33.2225543,5.99803282 33.2398927,5.99453678 33.2491525,5.96099374 L33.2491525,5.96099374 L33.2550939,5.84965376 C33.2744852,5.70506125 33.3398353,5.57682036 33.4521116,5.47583217 L33.4521116,5.47583217 L33.471261,5.47583217 Z" fill="url(#linearGradient-1)"></path>
</svg>