<svg xmlns="http://www.w3.org/2000/svg" xmlns:xlink="http://www.w3.org/1999/xlink" width="77px" height="32px" viewBox="0 0 77 32" version="1.1" class="injected-svg" data-src="/content/dam/empire/logos/logo-train/flamingo.svg">
	<title>Flamingo</title>
  <path d="M0.531,5.469 C3.5,3.531 6.969,1.938 10.656,0.875 C14.25,-0.156 18.187,-0.594 20.125,1.531 C22.063,3.656 22.281,7 19.406,11.062 C19.562,12.031 19.406,12.062 18.687,12.187 C15.062,17.226 10.806,21.522 5.971,25.076 L5.812,25.187 C5.393,25.459 4.88,25.621 4.329,25.621 C4.191,25.621 4.055,25.611 3.922,25.591 L3.937,25.593 C3.374,25.593 2.562,25.155 3.374,24.499 C7.28,21.311 10.687,17.686 13.562,13.655 C14.031,12.905 13.843,12.717 13.437,12.811 C11.999,13.03 10.249,13.186 8.499,13.249 C7.311,13.249 7.061,13.093 6.499,12.53 C5.937,11.967 5.718,11.592 6.499,11.405 C7.28,11.218 13.78,9.967 14.687,9.78 C15.594,9.593 16.156,9.53 16.656,8.467 C17.156,7.404 18.031,6.029 17.062,4.498 C16.093,2.967 13.906,3.373 12.312,3.623 C8.812,4.561 5.781,5.717 2.906,7.154 C2.562,7.373 2.187,7.31 1.031,6.779 C-0.125,6.248 -0.313,6.091 0.531,5.466 L0.531,5.469 Z M27.75,18 C27.75,17.437 27.375,16.937 26.875,17.281 C25.812,18.219 24.906,19.375 24.187,20.625 C23.874,21.219 24.156,21.469 24.562,21.156 C25.75,20.187 26.812,19.156 27.75,18.031 L27.75,18 Z M62.844,21.125 C62.594,21.469 62.406,21.906 62.375,22.406 C62.375,22.875 62.813,23.031 63.219,22.625 C63.625,22.219 63.563,21.656 63.625,21.437 C63.687,21.218 63.281,20.718 62.875,21.156 L62.844,21.125 Z M26.5,4.75 C27.313,4.125 28.094,4.031 28.531,5.125 C28.645,5.412 28.712,5.745 28.712,6.094 C28.712,6.443 28.646,6.775 28.525,7.081 L28.531,7.063 C28.468,7.751 28.218,8.376 27.781,8.844 C27.25,9.657 20.468,17.063 19.437,18.5 C18.749,19.469 18.124,20.563 17.656,21.75 C17.437,22.313 17.437,22.906 18.344,22.313 C19.344,21.532 20.219,20.719 21.063,19.813 C22.063,18.375 23.219,17.157 24.563,16.125 C26.094,15.125 27.938,14.187 29.344,15.469 C30.157,16.282 29.344,17.75 28.563,18.188 C29.251,19.376 29.157,20.063 28.563,20.376 C28.282,20.97 28.563,21.126 28.907,20.72 C30.095,19.814 31.126,18.814 32.063,17.72 C32.501,17.251 33.188,16.939 33.532,18.033 C33.72,18.596 33.532,19.064 34.282,18.564 C35.032,18.064 35.126,17.314 35.938,17.876 C36.157,18.189 36.282,18.595 36.282,19.032 L36.282,19.063 C36.282,19.251 36.282,19.469 36.751,19.063 C37.22,18.657 37.657,18.407 37.939,18.313 C38.221,18.219 38.595,17.75 39.064,18.563 C39.533,19.376 39.439,19.469 39.064,19.813 C38.689,20.094 38.408,20.438 38.158,20.813 C37.939,21.126 37.658,21.782 38.377,21.407 C40.158,20.094 41.752,18.688 43.19,17.188 C43.565,16.688 43.971,16.688 44.346,17.157 C44.721,17.626 44.784,18.47 44.346,18.813 C43.877,19.282 43.44,19.844 43.096,20.438 C42.783,20.907 42.815,21.126 43.471,20.813 C44.846,19.844 46.034,18.969 47.159,18 C47.784,17.437 48.097,17.375 48.409,17.844 C48.597,18.157 48.722,18.563 48.784,18.938 C48.784,19.657 49.065,19.344 49.347,19.157 L50.597,18.251 C51.097,17.907 51.472,17.907 51.691,18.251 C51.91,18.595 52.129,19.064 51.691,19.47 C51.285,19.814 50.941,20.22 50.691,20.658 C50.441,21.096 50.378,21.627 50.91,21.221 C51.442,20.815 52.348,20.158 52.785,19.908 C53.441,18.72 54.379,17.752 55.473,17.033 C57.098,16.095 58.848,15.533 59.661,16.658 C59.798,16.912 59.879,17.214 59.879,17.535 C59.879,17.959 59.739,18.349 59.502,18.663 L59.505,18.658 C59.161,19.033 58.505,19.877 57.692,18.127 C56.723,18.596 55.942,19.283 55.411,20.158 C55.067,20.627 55.067,21.033 55.849,20.814 C56.63,20.501 57.318,20.126 57.88,19.626 C58.442,19.126 58.943,19.438 59.005,19.939 C59.067,20.44 59.005,21.252 59.005,21.252 C59.443,20.939 59.943,20.689 60.505,20.564 C60.943,20.158 61.693,19.376 62.661,18.564 C63.13,18.168 63.742,17.927 64.41,17.927 C64.678,17.927 64.936,17.966 65.18,18.038 L65.161,18.033 C65.44,18.183 65.627,18.473 65.627,18.806 C65.627,18.97 65.582,19.124 65.503,19.255 L65.505,19.251 C67.474,19.376 72.536,19.126 73.786,19.126 L74.13,19.095 C74.88,19.095 75.568,19.501 75.943,20.126 C76.537,21.001 76.568,21.876 75.068,21.595 C73.699,21.349 72.124,21.208 70.516,21.208 C68.61,21.208 66.75,21.406 64.955,21.782 L65.13,21.751 C64.817,23.064 63.974,24.189 62.88,25.001 C61.942,25.626 59.505,25.876 59.599,22.907 C59.599,22.376 59.193,22.907 58.911,22.907 C56.38,25.282 54.192,28.032 52.505,31.095 C52.13,32.126 51.911,32.095 51.599,31.626 C51.224,31.188 50.911,30.657 50.693,30.095 L50.63,29.532 C50.63,28.969 50.818,28.438 51.161,28.032 C51.661,27.282 54.067,24.188 54.442,23.782 C54.817,23.376 54.442,23.094 54.129,23.219 L53.785,23.282 C52.972,23.282 52.316,22.657 52.222,21.876 C51.503,22.501 50.691,23.095 49.816,23.595 C49.598,23.754 49.325,23.849 49.029,23.849 C48.329,23.849 47.755,23.314 47.691,22.631 L47.691,22.626 C47.566,22.063 47.566,21.907 46.91,22.626 C46.785,22.845 45.847,23.595 45.441,24.032 C45.035,24.469 45.128,24.407 44.722,24.032 C44.377,23.604 44.15,23.067 44.098,22.481 L44.097,22.47 C43.566,23.001 42.909,23.408 42.159,23.658 C41.19,23.877 40.471,23.658 40.19,22.064 C39.377,22.658 38.034,23.752 37.471,24.127 C36.908,24.502 35.533,24.408 35.533,22.721 L35.314,22.471 C34.751,22.471 34.251,23.471 33.751,24.034 C33.251,24.597 33.001,24.909 32.345,24.034 C32.125,23.686 31.994,23.263 31.994,22.809 C31.994,22.745 31.997,22.682 32.002,22.619 L32.001,22.627 C31.345,22.815 31.032,23.502 30.563,24.221 C30.094,24.94 29.407,24.44 29.25,22.94 L29.031,23.003 L28.781,22.94 C28.25,23.503 27.687,24.003 27.062,24.44 C26.343,24.878 25.218,24.471 25.093,22.815 C24.53,23.253 23.905,23.659 23.218,24.003 C22.963,24.149 22.657,24.235 22.33,24.235 C21.548,24.235 20.882,23.74 20.628,23.047 L20.624,23.034 C19.718,23.909 18.718,24.753 17.655,25.503 C17.03,26.003 14.217,25.378 14.874,21.253 C15.687,18.69 16.874,16.44 18.437,14.503 C20.843,10.878 23.468,7.722 26.437,4.847 L26.5,4.75 Z M45.656,12.781 C45.007,13.206 44.541,13.866 44.378,14.637 L44.375,14.656 C44.375,15.562 44.75,15.562 45.25,15.844 C45.441,15.998 45.686,16.091 45.953,16.091 C46.22,16.091 46.465,15.998 46.658,15.843 L46.656,15.845 C47.226,15.479 47.598,14.848 47.598,14.131 C47.598,14.085 47.596,14.04 47.594,13.995 L47.594,14.001 C47.438,13.188 46.906,12.626 46.594,12.626 L46.5,12.626 C46.187,12.626 45.875,12.72 45.625,12.845 L45.656,12.781 Z M66.656,25.5 C66.656,24.792 67.23,24.219 67.937,24.219 C68.644,24.219 69.218,24.793 69.218,25.5 C69.218,26.208 68.644,26.781 67.937,26.781 L67.937,26.781 L67.906,26.781 C67.218,26.781 66.656,26.218 66.656,25.531 L66.656,25.5 Z M69.031,25.5 L69.031,25.469 C69.031,24.865 68.541,24.375 67.937,24.375 C67.333,24.375 66.843,24.865 66.843,25.469 C66.843,26.073 67.333,26.563 67.937,26.563 L67.937,26.563 C68.531,26.563 69,26.094 69.031,25.5 L69.031,25.5 Z M68.563,26.188 L68.313,26.188 L67.907,25.532 L67.657,25.532 L67.657,26.188 L67.469,26.188 L67.469,24.813 L68.063,24.813 C68.313,24.813 68.563,24.813 68.563,25.188 C68.563,25.563 68.375,25.594 68.125,25.594 L68.563,26.188 Z M67.906,25.344 C68.062,25.344 68.375,25.344 68.375,25.156 C68.375,24.968 68.187,24.968 68.031,24.968 L67.656,24.968 L67.656,25.343 L67.906,25.344 Z" id="flamingo-9" fill="#343840"></path>
</svg>