<svg xmlns="http://www.w3.org/2000/svg" xmlns:xlink="http://www.w3.org/1999/xlink" viewBox="0 0 189 119" version="1.1" class="injected-svg" data-src="/content/dam/empire/logos/logo-train/four-seasons-st-louis.svg">
    <title>Four Seasons Hotel St. Louis</title>
    <g id="ðŸ“Symbols" stroke="none" stroke-width="1" fill="none" fill-rule="evenodd">
        <path d="M67.4841823,116.882821 C67.5718897,116.987349 67.6607985,117.084668 67.8794661,117.230046 C68.5018277,117.658971 69.2623583,117.78873 70.0132773,117.78873 C71.2664108,117.78873 71.9548532,117.327365 71.9548532,116.631714 C71.9548532,115.839945 71.0573549,115.766655 69.9255699,115.669336 C68.4934174,115.549189 68.0008146,115.508339 67.5646808,115.111854 C67.2162545,114.788658 67.1597854,114.424613 67.1597854,114.159088 C67.1597854,112.533499 69.3104172,112.492649 69.8366611,112.492649 C70.6368403,112.492649 71.4454298,112.621206 72.1086414,113.06575 C72.3909869,113.260388 72.5195443,113.414176 72.6817427,113.641254 L71.9464429,113.94042 C71.8250944,113.81787 71.7518048,113.737372 71.6148371,113.641254 C71.1054137,113.277209 70.4746418,113.163069 69.8522802,113.163069 C69.3909157,113.163069 68.8178143,113.227948 68.4777983,113.398557 C68.0825145,113.591994 67.9683749,113.88275 67.9683749,114.117036 C67.9683749,114.287645 68.0332543,114.441433 68.1377822,114.554372 C68.3324204,114.780248 68.6315864,114.829508 69.1650393,114.885977 C69.6828729,114.942447 70.1910949,114.974886 70.7089286,115.031355 C70.9516255,115.056586 71.2027328,115.087824 71.4454298,115.144294 C72.0593811,115.289671 72.7550324,115.686157 72.7550324,116.623303 C72.7550324,116.858792 72.7141824,117.221636 72.4630752,117.577271 C72.0185312,118.209244 71.1378534,118.483179 69.9580096,118.483179 C69.4882348,118.483179 68.8899026,118.4183 68.4862085,118.313772 C67.3135736,118.021815 66.9014693,117.423483 66.7392708,117.190397 L67.4841823,116.882821 M74.2628776,112.638027 L79.7355747,112.638027 L79.7355747,113.316857 L77.398715,113.316857 L77.398715,118.346212 L76.591327,118.346212 L76.591327,113.316857 L74.2628776,113.316857 L74.2628776,112.638027 M80.9538656,118.346212 L81.8429536,118.346212 L81.8429536,117.464333 L80.9538656,117.464333 L80.9538656,118.346212 Z M88.7838474,112.638027 L89.5924368,112.638027 L89.5924368,117.650561 L93.3758667,117.650561 L93.3758667,118.346212 L88.7838474,118.346212 L88.7838474,112.638027 M95.5156853,115.515548 C95.5156853,115.961293 95.6286235,116.534395 96.0166984,116.97173 C96.5501512,117.594091 97.3827701,117.795938 98.2081802,117.795938 C100.317962,117.795938 100.826184,116.462306 100.826184,115.49272 C100.826184,113.988479 99.6223107,113.15586 98.0628023,113.19671 C96.8733467,113.227948 95.5156853,113.826281 95.5156853,115.515548 Z M101.643184,115.573218 C101.643184,117.520802 100.042825,118.5 98.2081802,118.5 C97.3743598,118.5 96.5333306,118.346212 95.8629102,117.868027 C95.3042265,117.481153 94.7058943,116.768681 94.7058943,115.564808 C94.7058943,113.455026 96.4444218,112.501059 98.1505096,112.501059 C100.147353,112.508268 101.643184,113.680903 101.643184,115.573218 L101.643184,115.573218 Z M104.557951,112.638027 L104.557951,116.024971 C104.565159,116.688183 104.630039,117.076258 105.123843,117.392244 C105.332899,117.529212 105.785853,117.780319 106.691762,117.780319 C107.240834,117.780319 107.727429,117.67459 108.041013,117.529212 C108.777514,117.198808 108.777514,116.608886 108.777514,116.130701 L108.777514,112.638027 L109.593312,112.638027 L109.593312,116.065821 C109.593312,116.640124 109.593312,117.423483 108.721045,117.990577 C108.325761,118.248893 107.685378,118.483179 106.683351,118.483179 C105.939641,118.483179 105.187521,118.363032 104.57357,117.934108 C103.76498,117.375424 103.740951,116.640124 103.740951,115.993733 L103.740951,112.638027 L104.557951,112.638027 M112.136825,118.346212 L112.968242,118.346212 L112.968242,112.638027 L112.136825,112.638027 L112.136825,118.346212 Z M115.909442,116.882821 C115.997149,116.987349 116.087259,117.084668 116.304725,117.230046 C116.928289,117.658971 117.688819,117.78873 118.439738,117.78873 C119.692872,117.78873 120.380113,117.327365 120.380113,116.631714 C120.380113,115.839945 119.482614,115.766655 118.350829,115.669336 C116.919878,115.549189 116.427275,115.508339 115.991142,115.111854 C115.641514,114.788658 115.586246,114.424613 115.586246,114.159088 C115.586246,112.533499 117.736878,112.492649 118.261921,112.492649 C119.0621,112.492649 119.870689,112.621206 120.533901,113.06575 C120.816246,113.260388 120.946005,113.414176 121.107002,113.641254 L120.371702,113.94042 C120.250354,113.81787 120.178266,113.737372 120.041298,113.641254 C119.531875,113.277209 118.899901,113.163069 118.278741,113.163069 C117.817377,113.163069 117.243074,113.227948 116.903058,113.398557 C116.507774,113.591994 116.393634,113.88275 116.393634,114.117036 C116.393634,114.287645 116.458514,114.441433 116.564243,114.554372 C116.75768,114.780248 117.056846,114.829508 117.5915,114.885977 C118.108132,114.942447 118.617556,114.974886 119.135389,115.031355 C119.378086,115.056586 119.627992,115.087824 119.870689,115.144294 C120.485842,115.289671 121.180292,115.686157 121.180292,116.623303 C121.180292,116.858792 121.140643,117.221636 120.889536,117.577271 C120.444992,118.209244 119.563113,118.483179 118.383269,118.483179 C117.913494,118.483179 117.316363,118.4183 116.911468,118.313772 C115.740034,118.021815 115.326729,117.423483 115.165732,117.190397 L115.909442,116.882821 M77.3074033,99.0902477 L73.2932911,99.0902477 L73.2932911,96.7521866 L72.1158502,96.7521866 L72.1158502,102.830425 L73.2932911,102.830425 L73.2932911,100.12952 L77.3074033,100.12952 L77.3074033,102.830425 L78.4836427,102.830425 L78.4836427,96.7521866 L77.3074033,96.7521866 L77.3074033,99.0902477 M88.0990093,99.7955108 C88.0990093,100.434693 87.8611182,101.917307 85.6588232,101.917307 C84.7288852,101.917307 84.0380398,101.661394 83.6031075,101.154374 C83.2066223,100.708628 83.1477503,100.127117 83.1477503,99.8195402 C83.1477503,98.2900685 84.3720485,97.7109599 85.5182511,97.6797216 C85.5530938,97.6785202 85.586735,97.6773187 85.6203761,97.6773187 C86.4085406,97.6773187 87.0801625,97.9128069 87.5247065,98.3453362 C87.8995652,98.7117846 88.0990093,99.2127977 88.0990093,99.7955108 Z M85.6023541,96.6236293 C83.926303,96.6236293 81.9775183,97.6280584 81.9775183,99.8688005 C81.9775183,101.186813 82.6491401,101.928121 83.2102268,102.317397 C83.8277825,102.758336 84.6519911,102.983011 85.6588232,102.983011 C87.4598271,102.983011 89.2752487,102.021835 89.2752487,99.8760093 C89.2752487,97.969276 87.7650006,96.6236293 85.6023541,96.6236293 L85.6023541,96.6236293 Z M91.9028642,97.8010701 L94.2313136,97.8010701 L94.2313136,102.830425 L95.3991427,102.830425 L95.3991427,97.8010701 L97.7372038,97.8010701 L97.7372038,96.7593954 L91.9028642,96.7593954 L91.9028642,97.8010701 M102.324417,100.201608 L106.665329,100.201608 L106.665329,99.1695448 L102.324417,99.1695448 L102.324417,97.8250995 L106.786678,97.8250995 L106.786678,96.7593954 L101.152984,96.7593954 L101.152984,102.830425 L106.988525,102.830425 L106.988525,101.764721 L102.324417,101.764721 L102.324417,100.201608 M112.020282,101.771929 L112.020282,96.7593954 L110.85005,96.7593954 L110.85005,102.830425 L115.803712,102.830425 L115.803712,101.771929 L112.020282,101.771929 M5.56521031,86.5529054 L-1.12709841e-12,86.5529054 L-1.12709841e-12,85.7286968 L1.60396282,85.7286968 L1.60396282,71.8276857 L0.12975879,71.8276857 L0.12975879,71.0034771 L9.98782239,71.0034771 C12.0795821,71.0034771 14.9066417,71.0467301 14.9342755,71.0455286 L14.9414843,71.0611477 L15.4989665,75.898267 L14.7624653,75.898267 L14.7035932,75.6940171 C13.8169081,72.6903414 13.1921436,71.8276857 9.98782239,71.8276857 L4.19313126,71.8276857 L4.19313126,78.6147913 L7.59809801,78.6147913 C10.4816267,78.6147913 11.3190514,78.3516693 11.3190514,76.4953978 L11.3190514,76.1974331 L12.0531498,76.1974331 L12.0531498,81.7626434 L11.3190514,81.7626434 L11.3190514,81.4682832 C11.3190514,80.1466659 10.5032531,79.4389999 7.59809801,79.4389999 L4.19313126,79.4389999 L4.19313126,85.7286968 L5.56521031,85.7286968 L5.56521031,86.5529054 M24.797145,74.2522528 C20.9428283,74.2522528 18.7333245,76.4221081 18.7333245,80.2079409 C18.7333245,84.0009826 20.8863592,86.0903394 24.797145,86.0903394 C28.718744,86.0903394 30.8765846,84.0009826 30.8765846,80.2079409 C30.8765846,76.4221081 28.6622749,74.2522528 24.797145,74.2522528 M24.797145,86.8340495 C19.1622494,86.8340495 16.1201267,83.4206724 16.1201267,80.2079409 C16.1201267,76.0124067 20.5319255,73.5061397 24.797145,73.5061397 C30.4320406,73.5061397 33.4729618,76.9591653 33.4729618,80.2079409 C33.4729618,84.5116074 29.0046939,86.8340495 24.797145,86.8340495 M42.5224359,86.8340495 C39.3529573,86.8340495 35.5743333,85.7082718 35.5743333,80.3401026 L35.5743333,74.5345983 L34.2719396,74.5345983 L34.2719396,73.7884852 L39.4070235,73.7884852 L39.4070235,74.5345983 L37.9844827,74.5345983 L37.9844827,80.3401026 C37.9844827,85.3430249 40.8283628,86.0903394 42.5224359,86.0903394 C45.1776852,86.0903394 48.015558,84.5800912 48.015558,80.3401026 L48.015558,74.5345983 L46.7299848,74.5345983 L46.7299848,73.7884852 L49.8634193,73.7884852 L49.8634193,74.5345983 L48.6799711,74.5345983 L48.6799711,80.3401026 C48.6799711,85.133969 45.3651146,86.8340495 42.5224359,86.8340495 M59.4823903,80.8819657 L54.744993,80.8819657 L54.744993,85.8067924 L55.9236354,85.8067924 L55.9236354,86.5529054 L50.9615631,86.5529054 L50.9615631,85.8067924 L52.4345657,85.8067924 L52.4345657,74.5345983 L50.9615631,74.5345983 L50.9615631,73.7884852 L59.3658477,73.7884852 C60.8064106,73.7884852 65.1881726,73.7884852 65.1881726,77.3448372 C65.1881726,78.9596133 64.284667,80.0697718 62.567766,80.568382 C62.567766,80.568382 61.5981795,80.8819657 59.4823903,80.8819657 L59.4823903,80.8819657 Z M54.744993,80.1370542 L59.3490271,80.1370542 C61.5489192,80.1370542 62.5749748,79.2491676 62.5749748,77.3448372 C62.5749748,75.4272907 61.5549265,74.5345983 59.3658477,74.5345983 L54.744993,74.5345983 L54.744993,80.1370542 Z M90.2844837,72.4728753 L90.6269028,76.2647155 L89.9348559,76.2454919 L89.7330089,75.6087127 C88.7658253,72.7552208 86.7665788,71.5357285 83.6127193,71.5357285 C80.4937025,71.5357285 78.632625,72.4200106 78.632625,73.8990205 C78.632625,75.5113936 81.2145846,76.163792 83.9479295,76.8534359 C87.3228595,77.7028754 91.1447364,78.667656 91.1447364,81.8659699 C91.1447364,85.2096617 88.5735901,86.9061377 83.5009826,86.9061377 C83.5009826,86.9061377 79.7668129,86.773976 76.8736725,85.6818395 L76.0326433,81.1727215 L76.6706241,81.1727215 L76.9241343,81.8551566 C77.9598017,84.4226986 80.5417613,86.0819291 83.5009826,86.0819291 C85.6876585,86.0819291 89.3545457,85.6854439 89.3545457,83.031396 C89.3545457,81.1318715 86.6199994,80.4698614 83.7256575,79.7682028 C80.3411157,78.9475986 76.8412328,78.0981591 76.8412328,75.0656481 C76.8412328,72.2974606 79.3090528,70.7127213 83.6127193,70.7127213 C84.9235234,70.7127213 85.7056805,70.8689125 86.958814,71.2197418 C86.958814,71.2197418 89.1142517,71.8493122 90.2844837,72.4728753 M106.459878,86.6586348 L106.397402,86.6562319 C106.375775,86.6550304 104.183092,86.5529054 102.973211,86.5529054 L93.42753,86.5529054 L93.42753,85.8067924 L94.8500708,85.8067924 L94.8500708,74.5345983 L93.42753,74.5345983 L93.42753,73.7884852 L102.670441,73.7884852 C103.834665,73.7884852 105.037337,73.7884852 105.308869,73.6923676 L106.008125,73.6082647 L106.425035,77.1898476 L105.863949,77.2198843 L105.805077,77.0372609 C105.042143,74.6703644 103.876717,74.5345983 102.670441,74.5345983 L97.1580952,74.5345983 L97.1580952,79.5351176 L100.253083,79.5351176 C102.458982,79.5351176 103.194282,79.2455632 103.194282,77.6632269 L103.194282,77.3856872 L103.858695,77.3856872 L103.858695,82.2912904 L103.194282,82.2912904 L103.194282,82.0149522 C103.194282,80.8278996 102.478206,80.2800291 100.253083,80.2800291 L97.1580952,80.2800291 L97.1580952,85.8067924 L102.973211,85.8067924 C105.095008,85.8067924 105.590014,85.1411778 106.312097,83.457918 L106.373372,83.2813019 L107.065419,83.2813019 L106.459878,86.6586348 M120.643235,86.5529054 L120.643235,85.8067924 L121.96365,85.8067924 L120.040097,82.3513639 L111.986641,82.3513639 L110.04867,85.8067924 L111.373891,85.8067924 L111.373891,86.5529054 L108.135929,86.5529054 L108.135929,85.8067924 L109.261707,85.8067924 L115.555008,74.5345983 L114.436439,74.5345983 L114.436439,73.7884852 L117.864234,73.7884852 L117.938725,73.9194455 L124.51317,85.8067924 L125.762699,85.8067924 L125.762699,86.5480995 L120.643235,86.5529054 L120.643235,86.5529054 Z M112.414365,81.6064523 L119.630395,81.6064523 L116.029589,75.1028937 L112.414365,81.6064523 Z M149.855783,73.5061397 C145.590563,73.5061397 141.178765,76.0124067 141.178765,80.2079409 C141.178765,83.4206724 144.220887,86.8340495 149.855783,86.8340495 C154.06213,86.8340495 158.532801,84.5116074 158.532801,80.2079409 C158.532801,76.9591653 155.490678,73.5061397 149.855783,73.5061397 M149.855783,86.0903394 C145.946199,86.0903394 143.790761,84.0009826 143.790761,80.2079409 C143.790761,76.4221081 146.001466,74.2522528 149.855783,74.2522528 C153.719711,74.2522528 155.936424,76.4221081 155.936424,80.2079409 C155.936424,84.0009826 153.77618,86.0903394 149.855783,86.0903394 M159.61052,73.7872838 L159.61052,74.5345983 L160.610143,74.5345983 L161.174834,75.0632452 L161.174834,85.8067924 L159.662183,85.8067924 L159.662183,86.5529054 L163.196909,86.5529054 L163.196909,85.8067924 L161.838046,85.8067924 L161.838046,75.6808009 L173.904412,87.0419038 L174.044984,87.1728641 L174.044984,74.5345983 L175.187582,74.5345983 L175.187582,73.7884852 L171.985664,73.7884852 L171.985664,74.5345983 L173.380571,74.5345983 L173.380571,83.3954415 L163.23055,73.8101117 L163.205319,73.7872838 L159.61052,73.7872838 M66.6828017,86.1155702 C64.7388228,86.0446835 64.527364,85.3165925 64.0431715,84.3482075 L62.2758087,80.5191217 L59.6638123,80.5191217 L62.9270056,86.8520715 L66.6900105,86.8520715 L66.6828017,86.1155702 M138.62564,75.111304 L138.905583,78.2098958 L138.33969,78.1942767 L138.175089,77.6740401 C137.385723,75.3419863 135.751723,74.3459674 133.173368,74.3459674 C130.62505,74.3459674 129.103988,75.0680511 129.103988,76.2767302 C129.103988,77.5947431 131.214972,78.1269944 133.448505,78.6904839 C136.205879,79.3861352 139.3285,80.1730983 139.3285,82.7874976 C139.3285,85.5208425 137.22833,86.9061377 133.083258,86.9061377 C133.083258,86.9061377 130.031523,86.7980054 127.66703,85.9053129 L126.979789,82.2204036 L127.501227,82.2204036 L127.70788,82.7790873 C128.554916,84.8768544 130.664698,86.2321129 133.083258,86.2321129 C134.868643,86.2321129 137.866311,85.9077159 137.866311,83.739062 C137.866311,82.1879639 135.631576,81.6461008 133.265881,81.0729995 C130.500097,80.4025791 127.640597,79.7093307 127.640597,77.2306976 C127.640597,74.9695305 129.656665,73.6731441 133.173368,73.6731441 C134.24508,73.6731441 134.88306,73.8004999 135.907914,74.0876513 C135.907914,74.0876513 137.66927,74.6018806 138.62564,75.111304 M188.191095,75.111304 L188.471037,78.2098958 L187.905145,78.1942767 L187.740544,77.6740401 C186.951178,75.3419863 185.317178,74.3459674 182.738823,74.3459674 C180.190504,74.3459674 178.669443,75.0680511 178.669443,76.2767302 C178.669443,77.5947431 180.779225,78.1269944 183.012758,78.6904839 C185.771334,79.3861352 188.895156,80.1730983 188.895156,82.7874976 C188.895156,85.5208425 186.792583,86.9061377 182.647511,86.9061377 C182.647511,86.9061377 179.596978,86.7980054 177.232484,85.9053129 L176.545244,82.2204036 L177.066682,82.2204036 L177.273334,82.7790873 C178.120371,84.8768544 180.230153,86.2321129 182.647511,86.2321129 C184.434097,86.2321129 187.431766,85.9077159 187.431766,83.739062 C187.431766,82.1879639 185.197031,81.6461008 182.831336,81.0729995 C180.065551,80.4025791 177.206052,79.7093307 177.206052,77.2306976 C177.206052,74.9695305 179.222119,73.6731441 182.738823,73.6731441 C183.810534,73.6731441 184.449716,73.8004999 185.473369,74.0876513 C185.473369,74.0876513 187.234725,74.6018806 188.191095,75.111304 M114.733202,36.8540875 C113.643469,37.3010345 112.952623,38.0964078 113.21935,39.4516663 C114.528952,39.0131296 114.87858,38.0219167 114.733202,36.8540875 M110.345433,37.6494609 C110.556892,38.8064767 111.186462,39.6499089 112.568153,39.6727368 C112.416768,38.3006578 111.519269,37.7503844 110.345433,37.6494609 M112.562146,43.2122682 C112.504475,41.8485995 111.592559,41.2983261 110.352642,41.1913952 C110.490811,42.3460082 111.101158,43.1846344 112.562146,43.2122682 M108.56966,25.0436348 C107.395823,25.1469612 106.499527,25.6972346 106.348141,27.0669107 C107.726228,27.0464857 108.360604,26.2030536 108.56966,25.0436348 M103.256758,24.0319968 C103.467016,25.1914156 104.10019,26.0336463 105.479478,26.0552727 C105.328093,24.6879996 104.429393,24.1353232 103.256758,24.0319968 M102.944376,19.8088288 C104.323664,19.7860008 104.953234,18.9449716 105.165895,17.7855528 C103.992058,17.8864763 103.095761,18.4391527 102.944376,19.8088288 M104.023296,14.7242066 C102.941973,15.1891756 102.261941,15.9941607 102.550294,17.3434118 C103.849083,16.8868531 104.185495,15.8884313 104.023296,14.7242066 M100.14495,15.7082107 C100.1858,16.8796442 100.690418,17.7999705 102.044475,18.0162351 C102.091332,16.6477605 101.283944,15.9749371 100.14495,15.7082107 M99.6403327,12.4077719 C101.014815,12.3873469 101.64799,11.5451162 101.859448,10.3905033 C100.686813,10.4914268 99.7941209,11.0417002 99.6403327,12.4077719 M100.794946,7.61030108 C99.7748974,8.18220093 99.1849755,9.04966247 99.6114975,10.3556607 C100.850213,9.7717461 101.079694,8.74689196 100.794946,7.61030108 M99.2486534,11.3372619 C99.2943093,9.96878723 98.4881228,9.29596387 97.3479275,9.02923747 C97.3887775,10.200671 97.893395,11.1209972 99.2486534,11.3372619 M98.4977345,13.3256952 C98.3487522,11.9620264 97.4548583,11.414156 96.2870292,11.3108295 C96.498488,12.4654425 97.1256555,13.3028672 98.4977345,13.3256952 M94.8284443,16.0181901 C95.2249295,15.7670828 99.4805372,13.2800393 99.4805372,13.2800393 C99.4913504,13.274032 99.5069695,13.2620172 99.5057681,13.2283761 L99.3099284,11.7229338 L99.2438476,11.7229338 C99.2438476,11.7229338 99.3015181,12.3561087 99.2846975,12.6096189 C99.265474,12.8991732 99.227027,13.0000967 99.0071579,13.1430717 L94.2901856,15.5712431 C94.2985959,15.9364901 94.3034018,16.3053415 94.3118121,16.6789987 C94.37549,16.465137 94.5172635,16.2152312 94.8284443,16.0181901 M93.7831652,2.59416269 C93.6317799,1.22929246 92.737886,0.681422011 91.5712584,0.580498508 C91.7815157,1.7327085 92.4098846,2.57133475 93.7831652,2.59416269 M93.7507255,4.82649446 C93.6005417,3.46402717 92.7054463,2.91495525 91.5376172,2.81403175 C91.749076,3.96624174 92.3774449,4.80486799 93.7507255,4.82649446 M93.7158828,7.04561005 C93.565699,5.68194129 92.6718052,5.13407085 91.5051775,5.03194587 C91.7154348,6.1829544 92.3438038,7.02518506 93.7158828,7.04561005 M93.6834431,9.27433741 C93.5320579,7.91307159 92.638164,7.36520114 91.4703349,7.2618747 C91.6817937,8.41528616 92.3101626,9.25391241 93.6834431,9.27433741 M93.6486005,11.5090721 C93.4984167,10.1454034 92.6045228,9.59753291 91.4390967,9.49420647 C91.6481525,10.6488194 92.2777229,11.4850427 93.6486005,11.5090721 M93.6161608,13.7305907 C93.4647755,12.3669219 92.5708817,11.81785 91.4030525,11.7145235 C91.6133098,12.8691365 92.2428803,13.7077627 93.6161608,13.7305907 M90.6509322,8.65197581 C89.5323633,9.01481983 88.7850488,9.75252258 88.9460458,11.1173928 C90.2796778,10.785787 90.7074013,9.82461079 90.6509322,8.65197581 M88.9892988,12.7549968 C90.3613778,12.7321689 90.9897468,11.8947441 91.2000041,10.7401311 C90.0333764,10.8434576 89.1394826,11.391328 88.9892988,12.7549968 M88.4498386,11.3757089 C88.6444768,10.0156446 87.9139829,9.2587183 86.8062273,8.86944193 C86.7209229,10.0420769 87.1234154,11.0128649 88.4498386,11.3757089 M88.1638887,12.9147923 C88.0137049,11.5487206 87.1186096,10.9972458 85.9483775,10.8951208 C86.1598363,12.0521367 86.7882052,12.8907629 88.1638887,12.9147923 M91.4342908,19.1708481 C90.2628573,19.272973 89.3641575,19.8232464 89.2127722,21.1953255 C90.5920601,21.1724975 91.2252349,20.3290654 91.4342908,19.1708481 M87.5835785,20.3542963 C88.9628664,20.3338713 89.5936383,19.4904391 89.8050971,18.3310203 C88.6336636,18.4343468 87.7361653,18.9846202 87.5835785,20.3542963 M93.0670889,20.0106758 C91.8932524,20.1115993 90.9957541,20.6642756 90.8443689,22.0351532 C92.2224553,22.0123253 92.8556301,21.1700946 93.0670889,20.0106758 M90.1511205,17.719472 C91.5256025,17.699047 92.1563744,16.8568163 92.3678332,15.7022034 C91.1976011,15.8043283 90.3013043,16.3509973 90.1511205,17.719472 M88.5904106,16.8135634 C89.9660941,16.7919369 90.596866,15.9509077 90.8083248,14.7962948 C89.6368912,14.8972183 88.7417959,15.4474917 88.5904106,16.8135634 M87.0044699,15.8992445 C88.3801533,15.8752151 89.0097238,15.0365888 89.2199811,13.8783715 C88.0509505,13.9816979 87.1546537,14.5319713 87.0044699,15.8992445 M88.1674931,17.45635 C86.9948581,17.556072 86.0961583,18.1087483 85.9459746,19.4784244 C87.324061,19.454395 87.9572358,18.6145673 88.1674931,17.45635 M85.5374747,17.3289941 C85.706882,15.9605195 84.9607689,15.2180109 83.8434016,14.8455551 C83.7797237,16.0193915 84.2002383,16.9865751 85.5374747,17.3289941 M85.1109527,19.4039333 C84.9595675,18.0342572 84.0608677,17.4839838 82.8882327,17.3806573 C83.09849,18.5400762 83.7316649,19.3835083 85.1109527,19.4039333 M86.2811848,26.3772668 C85.1073483,26.4781903 84.2110515,27.0284636 84.0596662,28.3981398 C85.4377526,28.3753118 86.0709275,27.5342826 86.2811848,26.3772668 M82.4761284,27.4982385 C83.8566178,27.4766121 84.4885911,26.6343814 84.6988484,25.4749626 C83.5262134,25.578289 82.6287151,26.1285624 82.4761284,27.4982385 M87.9067741,27.2194974 C86.7329376,27.3228239 85.8366408,27.8742987 85.6852555,29.2439748 C87.0633419,29.2199454 87.6965168,28.3801177 87.9067741,27.2194974 M89.5383707,28.0605266 C88.3669372,28.1638531 87.4682374,28.7141264 87.3168521,30.0838026 C88.6949386,30.0597731 89.3269119,29.2199454 89.5383707,28.0605266 M91.1663629,28.9003543 C89.9937279,29.0036808 89.0962296,29.5539542 88.9448444,30.9236303 C90.3241322,30.8996009 90.9561056,30.0573702 91.1663629,28.9003543 M92.8039669,29.7317718 C91.6313319,29.8350982 90.7326321,30.388976 90.5824484,31.7562492 C91.9605348,31.7346227 92.5925081,30.8935935 92.8039669,29.7317718 M90.4683087,26.4217212 C91.8475966,26.3976918 92.4807714,25.557864 92.6910287,24.3972437 C91.5183937,24.5005702 90.6208954,25.0508436 90.4683087,26.4217212 M88.8871738,25.4977905 C90.2664617,25.4749626 90.8972336,24.6339334 91.1086923,23.4745146 C89.9360573,23.577841 89.0385591,24.1281144 88.8871738,25.4977905 M87.324061,24.5762628 C88.7021474,24.5534349 89.3353222,23.7124057 89.546781,22.5553898 C88.3729445,22.6563133 87.4742448,23.2065867 87.324061,24.5762628 M85.7633511,23.6559366 C87.1414375,23.6343101 87.7734109,22.7920795 87.9848696,21.6326606 C86.8122346,21.7359871 85.9135349,22.2862605 85.7633511,23.6559366 M84.191828,22.7344089 C85.5699144,22.7103795 86.2018877,21.8705518 86.4133465,20.7111329 C85.2407115,20.8120564 84.3444147,21.3623298 84.191828,22.7344089 M84.6519911,23.4144411 C83.4781546,23.516566 82.5818578,24.0680409 82.4280696,25.437717 C83.8073575,25.4148891 84.4393308,24.5738599 84.6519911,23.4144411 M82.1601417,24.3035291 C82.4965534,22.9674941 81.846558,22.1372782 80.7832568,21.6314592 C80.5778054,22.7920795 80.87577,23.8037174 82.1601417,24.3035291 M81.7900889,26.0756977 C81.6387036,24.7072231 80.7412053,24.1557482 79.5685704,24.0524218 C79.7800291,25.2118406 80.4120025,26.0540713 81.7900889,26.0756977 M81.4861169,28.0989737 C81.3359331,26.7268946 80.4372334,26.1766212 79.2645984,26.0756977 C79.4748557,27.2327136 80.106829,28.0749443 81.4861169,28.0989737 M85.3200086,33.7326678 C86.698095,33.7086384 87.3312698,32.8688106 87.5415271,31.7093918 C86.3700936,31.8103153 85.4713938,32.3629917 85.3200086,33.7326678 M85.3200086,36.8985419 C86.698095,36.8745125 87.3312698,36.0346848 87.5415271,34.875266 C86.3700936,34.9761895 85.4725953,35.5288658 85.3200086,36.8985419 M83.7641045,32.8195504 C85.1433924,32.7967224 85.7765673,31.9532903 85.9868246,30.7938715 C84.8141896,30.8971979 83.9166913,31.4498743 83.7641045,32.8195504 M82.2142079,31.9016271 C83.5934958,31.8775977 84.2242677,31.035367 84.4369279,29.8783511 C83.26189,29.9792746 82.3655931,30.529548 82.2142079,31.9016271 M80.6522965,30.9933155 C82.0327859,30.9704876 82.6647592,30.1270555 82.8750165,28.9688381 C81.7023816,29.0697616 80.8036818,29.620035 80.6522965,30.9933155 M112.864916,39.6210736 C112.864916,39.6210736 113.07277,41.8906509 113.012697,42.8013654 C112.944213,43.8358313 112.806044,44.1986753 112.019081,44.7105017 L94.9678149,53.4860405 L94.9666134,53.4848391 C94.9377781,51.8135939 94.9041369,49.9020547 94.8668913,47.8211082 L94.8692943,47.2708348 C94.8500708,46.1282366 95.1612516,45.5154867 96.5129056,44.6600399 C97.6843391,43.9175313 110.272143,36.5621303 110.272143,36.5621303 C110.300978,36.5453097 110.347836,36.5116685 110.345433,36.410745 L109.763921,31.9568947 L109.570485,31.9568947 C109.570485,31.9568947 109.742295,33.8311883 109.691833,34.5821073 C109.636565,35.4363526 109.522426,35.7367202 108.87243,36.1584363 L94.7887958,43.4069064 C94.7503487,41.2502673 94.7107002,38.9818914 94.6686488,36.6630538 L94.6578355,36.0334833 C94.6806635,35.3126012 94.9377781,34.8824748 95.849694,34.3045676 C96.7255659,33.7494884 106.128272,28.2563663 106.128272,28.2563663 C106.149899,28.2443516 106.185943,28.2179192 106.182338,28.1434281 L105.748608,24.8165569 L105.604431,24.8165569 C105.604431,24.8165569 105.732989,26.2162697 105.695743,26.7773564 C105.653691,27.4153371 105.568387,27.640012 105.082993,27.9547972 L94.6097767,33.3445929 C94.5629194,30.7374024 94.516062,28.1025781 94.4692047,25.517014 C94.5424944,25.1493641 94.7539531,24.6723804 95.3282559,24.3083349 C95.9542219,23.9118498 102.68606,19.9794375 102.68606,19.9794375 C102.701679,19.9710273 102.72691,19.9518037 102.724507,19.898939 L102.414528,17.5164235 L102.311201,17.5164235 C102.311201,17.5164235 102.402513,18.5196512 102.376081,18.9209422 C102.346044,19.3775009 102.28597,19.5372965 101.937544,19.7631729 L94.4355635,23.6246984 C94.3911091,21.2241608 94.3502591,18.8873011 94.3118121,16.6789987 L94.3118121,16.6777972 C94.3034018,16.3053415 94.2985959,15.9352886 94.2901856,15.5700416 C94.135196,6.96511154 94.0198548,0.573289687 94.0198548,0.573289687 C94.0198548,0.532439697 93.989818,0.5 93.9477666,0.5 C93.9081181,0.5 93.8780813,0.532439697 93.8780813,0.573289687 C93.8780813,0.573289687 93.7663446,6.95790272 93.6173623,15.555624 C93.6149593,15.7274343 93.6113549,15.9040504 93.6077505,16.0770621 C93.6113549,15.9040504 93.6137579,15.7274343 93.6173623,15.555624 L88.9280238,13.1430717 C88.7081547,13.0000967 88.6697077,12.8991732 88.6504842,12.6096189 C88.6336636,12.3561087 88.6913341,11.7229338 88.6913341,11.7229338 L88.6264547,11.7229338 L88.4306151,13.2283761 C88.4294136,13.2620172 88.4450327,13.274032 88.4546445,13.2800393 C88.4546445,13.2800393 92.7114537,15.7658813 93.1067374,16.0181901 C93.3818741,16.1912018 93.5248491,16.4074664 93.5981387,16.6021046 L93.5981387,16.6033061 C93.5596917,18.830832 93.5188417,21.1893181 93.4755888,23.6114822 L85.9976378,19.7631729 C85.6492114,19.5372965 85.5891379,19.3775009 85.5591011,18.9197408 C85.5326688,18.5184497 85.6239805,17.5164235 85.6239805,17.5164235 L85.5206541,17.5164235 L85.2094733,19.8977376 C85.2082718,19.9518037 85.2335027,19.9698258 85.2491218,19.9794375 C85.2491218,19.9794375 91.9809598,23.9130512 92.6069258,24.3095364 C93.1331697,24.6411422 93.3542403,25.0700671 93.445552,25.4220979 L93.445552,25.4232994 L93.445552,25.4245008 C93.3998961,28.0389001 93.3530388,30.7061642 93.3073829,33.3445929 L82.8341666,27.9547972 C82.3487726,27.6388105 82.2634682,27.4153371 82.2214167,26.7773564 C82.1853726,26.2162697 82.3127285,24.8165569 82.3127285,24.8165569 L82.1673506,24.8165569 L81.7336198,28.1434281 C81.7300154,28.2179192 81.767261,28.2431501 81.7876859,28.2563663 C81.7876859,28.2563663 91.1903923,33.7506898 92.0662641,34.3057691 C93.0058139,34.8992954 93.2497124,35.3390335 93.2593241,36.1019672 L93.2473094,36.773589 L93.2473094,36.7723876 C93.2076609,39.0515767 93.1692139,41.2791026 93.1319683,43.3996976 L79.0627514,36.1596377 C78.4127559,35.7379217 78.2986163,35.4375541 78.2421472,34.5833087 C78.1928869,33.8323898 78.3646971,31.9568947 78.3646971,31.9568947 L78.170059,31.9568947 L77.5897488,36.4119465 C77.5861444,36.5116685 77.6330017,36.5465112 77.661837,36.5633317 C77.661837,36.5633317 90.2508426,43.9175313 91.4222761,44.6612414 C92.7739301,45.5154867 93.0839095,46.1294381 93.0658874,47.2720363 L93.0658874,47.2816481 C93.0262389,49.5716504 92.9901948,51.6670146 92.9589566,53.4812347 L75.9161007,44.7105017 C75.1291377,44.1986753 74.9909686,43.8358313 74.9236863,42.8013654 C74.8636128,41.8918524 75.0714671,39.6198721 75.0714671,39.6198721 L74.8359789,39.6198721 L74.1331188,45.0156751 C74.1271115,45.1370236 74.1847821,45.1790751 74.2208262,45.1995001 C74.2208262,45.1995001 89.4662825,54.1059992 90.8852189,55.0059004 C92.5420464,56.054784 92.8760551,56.1280737 92.8760551,58.0468217 C92.8760551,58.1357305 92.8424139,60.357249 92.8424139,60.438949 C92.8424139,62.1113956 91.5171922,62.15585 91.5171922,62.15585 L91.5207966,62.4850529 L96.4071762,62.4850529 L96.4107807,62.15585 C96.4107807,62.15585 95.0855589,62.1113956 95.0855589,60.438949 C95.0855589,60.357249 95.0591266,58.2150275 95.0591266,58.0468217 C95.0591266,56.1280737 95.3931353,56.0535825 97.0499628,55.0059004 C98.4701007,54.1059992 113.715557,45.1995001 113.715557,45.1995001 C113.7504,45.1790751 113.806869,45.1370236 113.802351,45.0156751 L113.099203,39.6210736 L112.864916,39.6210736 M88.5315386,35.6454084 C89.9108265,35.6225805 90.5440013,34.7815513 90.7542586,33.6221325 C89.5804221,33.723056 88.6817224,34.2757323 88.5315386,35.6454084 M92.3065582,34.6337705 C91.1327217,34.734694 90.2352234,35.2873703 90.0850397,36.6570464 C91.4631261,36.6342185 92.0950994,35.7931893 92.3065582,34.6337705 M100.603912,30.0537658 C101.682832,29.195916 101.670818,28.1422266 101.130156,27.095746 C100.262694,27.8935222 99.8890371,28.8763249 100.603912,30.0537658 M98.3703787,28.5567338 C97.5041186,29.3545101 97.1292599,30.3373128 97.8453362,31.5147536 C98.9242565,30.6569039 98.9122418,29.6032144 98.3703787,28.5567338 M95.4411941,24.4861525 C95.6526529,25.6455714 96.2834248,26.4853991 97.6627127,26.5094285 C97.510126,25.1397524 96.6138291,24.589479 95.4411941,24.4861525 M103.361286,33.5584546 C103.208699,32.187577 102.312403,31.6373036 101.140969,31.5339772 C101.351226,32.693396 101.981998,33.5344252 103.361286,33.5584546 M100.57748,35.059091 C100.424893,33.6894148 99.528596,33.1391415 98.3571625,33.035815 C98.5686213,34.1952338 99.1993932,35.0350615 100.57748,35.059091 M108.381029,46.1871086 C108.229644,44.8150296 107.328541,44.2623533 106.155906,44.1590268 C106.366163,45.3208486 106.998137,46.1654822 108.381029,46.1871086 M105.187521,47.6601112 C105.036136,46.2880321 104.135033,45.7353558 102.962398,45.6320294 C103.171454,46.7938511 103.804629,47.6384847 105.187521,47.6601112 M101.480985,42.2006303 C101.692444,43.3612505 102.324417,44.2022797 103.703705,44.2239062 C103.551118,42.856633 102.65362,42.3039567 101.480985,42.2006303 M99.3820166,50.6157281 C99.2306314,49.243649 98.3295287,48.6909727 97.1568937,48.5876462 C97.367151,49.749468 97.9991244,50.5953031 99.3820166,50.6157281 M111.671856,47.1735157 C111.450786,48.5215654 112.231741,49.2460519 113.421197,49.6028886 C113.520919,48.4434698 113.098001,47.4979127 111.671856,47.1735157 M108.61051,49.3890269 C108.670583,50.7635089 109.589708,51.3173867 110.834431,51.4243176 C110.698665,50.2624958 110.084714,49.4166607 108.61051,49.3890269 M103.935589,53.9029507 C105.219961,53.3706994 105.4975,52.3470467 105.26802,51.1864264 C104.208323,51.7150734 103.571543,52.5621099 103.935589,53.9029507 M109.404682,33.0550385 C109.253296,31.6853624 108.355798,31.1338876 107.183163,31.0305611 C107.394622,32.1911814 108.026595,33.0334121 109.404682,33.0550385 M109.314571,35.0783145 C109.164388,33.7062354 108.265688,33.155962 107.093053,33.0550385 C107.30331,34.2120544 107.935284,35.0542851 109.314571,35.0783145 M110.52325,36.4335729 C111.902538,36.410745 112.53331,35.5685144 112.74597,34.4090955 C111.570933,34.510019 110.673434,35.0602924 110.52325,36.4335729 M112.41076,31.0305611 C111.235722,31.1314846 110.338224,31.681758 110.18804,33.0550385 C111.564925,33.0310091 112.1981,32.1899799 112.41076,31.0305611" id="Combined-Shape-21" fill="#343840" fill-rule="nonzero"></path>
    </g>
</svg>