<svg xmlns="http://www.w3.org/2000/svg" xmlns:xlink="http://www.w3.org/1999/xlink" viewBox="0 0 419 145" version="1.1" class="injected-svg" data-src="/content/dam/empire/logos/logo-train/grand_victoria.svg">
  <path fill="#343840" d="M194.632969,143.970859 L184.730123,116.032209 C183.42975,112.434049 182.929606,112.222393 180.328859,112.222393 L180.328859,110.634969 C182.429462,110.740798 184.530066,110.740798 186.730698,110.740798 C188.93133,110.740798 190.931905,110.634969 193.132538,110.634969 L193.132538,112.222393 C191.732135,112.434049 189.331445,112.222393 189.331445,113.915644 C189.331445,114.656442 189.431474,115.397239 189.73156,116.138037 L197.533802,139.208589 L205.135987,116.138037 C205.336044,115.503067 205.436073,114.76227 205.336044,114.127301 C205.236015,112.539877 202.835326,112.539877 201.835038,112.328221 L201.835038,110.740798 C203.435498,110.846626 205.135987,110.846626 206.736447,110.846626 C208.336906,110.846626 210.037395,110.740798 211.737884,110.740798 L211.737884,112.328221 C209.037108,112.96319 208.737021,113.386503 207.836763,116.138037 L197.633831,144.076687 L194.632969,143.970859 Z M218.039694,115.608896 C218.039694,112.539877 217.239464,112.328221 213.63843,112.328221 L213.63843,110.634969 C215.739033,110.740798 217.939666,110.740798 220.040269,110.740798 C222.140873,110.740798 224.341505,110.634969 226.442109,110.634969 L226.442109,112.328221 C223.041132,112.328221 222.040844,112.434049 222.040844,115.608896 L222.040844,139.208589 C222.040844,142.277607 222.841074,142.489264 226.442109,142.489264 L226.442109,144.182515 C224.341505,144.182515 222.140873,144.182515 220.040269,144.076687 C217.939666,143.970859 215.739033,144.076687 213.63843,144.182515 L213.63843,142.489264 C217.139436,142.489264 218.039694,142.383436 218.039694,139.208589 L218.039694,115.608896 Z M256.350703,134.023006 L256.350703,142.489264 C254.350128,143.653374 246.2478,144.394172 244.247225,144.394172 C233.144035,144.394172 229.543,138.256135 229.543,127.038344 C229.543,115.503067 234.244351,110 245.247512,110 C249.048605,110 252.749668,110.634969 256.350703,111.904908 L256.350703,119.630368 L253.950013,119.630368 L253.849984,118.254601 C253.249812,112.857362 250.949151,111.79908 245.247512,111.79908 C236.845098,111.79908 234.344379,118.254601 234.344379,126.297546 C234.344379,135.081288 235.844811,142.806748 245.547599,142.806748 C252.549611,142.806748 253.249812,140.690184 253.849984,134.023006 L256.350703,134.023006 Z M286.959498,119.312883 L284.658837,119.312883 C283.558521,112.010736 283.458492,112.645706 275.356164,112.645706 L275.356164,139.208589 C275.356164,142.383436 276.256423,142.489264 279.957486,142.489264 L279.957486,144.182515 C277.556796,144.182515 275.456193,144.182515 273.355589,144.076687 C271.254985,143.970859 269.054353,144.076687 266.753692,144.182515 L266.753692,142.489264 C270.454756,142.489264 271.355014,142.383436 271.355014,139.208589 L271.355014,112.645706 C263.352715,112.645706 263.052629,111.904908 262.052341,119.312883 L259.75168,119.312883 L259.75168,110.846626 L287.059527,110.846626 L287.059527,119.312883 L286.959498,119.312883 Z M290.260447,127.25 C290.260447,115.079755 293.96151,110.105828 305.764902,110.105828 C317.568293,110.105828 321.369385,115.079755 321.369385,127.25 C321.369385,139.420245 318.168466,144.5 305.764902,144.5 C294.061539,144.5 290.260447,139.420245 290.260447,127.25 L290.260447,127.25 Z M294.961797,127.25 C294.961797,135.292945 296.762315,142.806748 305.86493,142.806748 C314.967546,142.806748 316.768063,135.398773 316.768063,127.25 C316.768063,119.101227 314.967546,111.79908 305.86493,111.79908 C296.762315,111.79908 294.961797,119.207055 294.961797,127.25 L294.961797,127.25 Z M333.072748,139.208589 C333.072748,141.748466 333.072748,142.489264 337.474013,142.489264 L337.474013,144.182515 C335.373409,144.182515 333.172777,144.182515 331.072173,144.076687 C328.97157,143.970859 326.770938,144.076687 324.670334,144.182515 L324.670334,142.489264 C329.071599,142.489264 329.071599,141.854294 329.071599,139.208589 L329.071599,115.608896 C329.071599,112.96319 329.071599,112.328221 324.670334,112.328221 L324.670334,110.634969 C326.770938,110.740798 328.97157,110.740798 331.072173,110.740798 C332.072461,110.740798 337.474013,110.634969 339.674645,110.634969 C345.376284,110.634969 349.477462,111.058282 349.477462,118.148773 C349.477462,123.757669 346.376571,126.08589 341.475163,126.615031 C342.875565,128.943252 348.177088,137.409509 349.477462,139.208589 C350.677807,140.90184 351.478037,142.171779 353.878727,142.383436 L353.878727,144.076687 C352.778411,144.076687 351.678094,144.076687 350.577778,143.970859 C349.477462,143.865031 348.377146,143.970859 347.27683,144.076687 C344.175939,138.785276 337.774099,128.202454 336.373697,127.673313 C335.273381,127.355828 334.173064,127.25 333.072748,127.355828 L333.072748,139.208589 L333.072748,139.208589 Z M333.072748,125.768405 C333.77295,125.874233 334.573179,125.874233 335.273381,125.874233 C340.274818,125.874233 344.87614,125.662577 344.87614,118.995399 C344.87614,113.809816 342.875565,112.434049 338.274243,112.434049 C336.573754,112.434049 334.873266,112.539877 333.172777,112.539877 L333.072748,125.768405 Z M360.280566,115.608896 C360.280566,112.539877 359.480336,112.328221 355.879302,112.328221 L355.879302,110.634969 C357.979905,110.740798 360.180538,110.740798 362.281141,110.740798 C364.381745,110.740798 366.582377,110.634969 368.682981,110.634969 L368.682981,112.328221 C365.282003,112.328221 364.281716,112.434049 364.281716,115.608896 L364.281716,139.208589 C364.281716,142.277607 365.081946,142.489264 368.682981,142.489264 L368.682981,144.182515 C366.582377,144.182515 364.381745,144.182515 362.281141,144.076687 C360.180538,143.970859 357.979905,144.076687 355.879302,144.182515 L355.879302,142.489264 C359.380308,142.489264 360.280566,142.383436 360.280566,139.208589 L360.280566,115.608896 Z M389.288902,110.846626 L398.791632,137.303681 C399.291776,138.679448 400.492121,142.806748 404.093156,142.489264 L404.093156,144.182515 C401.992552,144.182515 399.991977,144.182515 397.891373,144.076687 C395.79077,143.970859 393.690166,144.076687 391.589563,144.182515 L391.589563,142.383436 C391.589563,142.383436 395.590712,142.489264 395.590712,140.478528 C395.490684,139.526074 395.290626,138.679448 394.890511,137.832822 L391.889649,129.789877 L380.886487,129.789877 L378.085682,138.150307 C377.885625,138.785276 377.685567,139.526074 377.685567,140.266871 C377.685567,142.383436 379.986229,142.383436 381.48666,142.383436 L381.48666,144.076687 C379.686142,144.076687 377.885625,144.076687 376.085108,143.970859 C374.28459,143.865031 372.484073,143.970859 370.683556,144.076687 L370.683556,142.383436 C372.183987,142.171779 373.084245,142.383436 374.184561,141.007669 C375.08482,139.420245 375.785021,137.726994 376.485223,135.927914 L386.288039,110.846626 L389.288902,110.846626 L389.288902,110.846626 Z M391.089419,127.567485 L386.588126,115.185583 L381.586688,127.990798 L391.289476,127.990798 L391.089419,127.567485 Z M23.7838765,135.927914 C23.7838765,132.858896 23.7838765,132.647239 18.2822956,132.647239 L18.2822956,130.953988 C21.5832441,130.953988 23.6838477,130.953988 25.7844513,131.059816 C27.8850549,131.165644 30.0856872,131.059816 31.2860322,130.953988 L31.2860322,132.541411 C27.7850262,132.753067 27.7850262,133.388037 27.7850262,135.927914 L27.7850262,140.372699 C27.7850262,141.007669 27.7850262,141.642638 27.9850837,142.277607 C23.983934,143.653374 19.7827268,144.394172 15.5815196,144.394172 C4.5783579,144.5 0.777265687,138.57362 0.777265687,127.461656 C0.777265687,116.138037 5.2785591,110.317485 16.6818357,110 C20.482928,110 24.2840202,110.634969 27.8850549,111.904908 L27.8850549,119.630368 L25.1842789,119.630368 C24.6841351,112.96319 23.0836753,111.79908 16.6818357,111.79908 C7.47919144,111.481595 5.47861658,119.418712 5.47861658,127.673313 C5.47861658,136.562883 7.67924892,142.70092 16.8818932,142.70092 C19.2825831,142.70092 21.6832729,142.065951 23.7838765,140.796012 L23.7838765,135.927914 Z M41.5889926,139.208589 C41.5889926,141.748466 41.5889926,142.489264 45.9902573,142.489264 L45.9902573,144.182515 C43.789625,144.182515 41.6890214,144.182515 39.5884178,144.076687 C37.4878142,143.970859 35.2871819,144.076687 33.1865783,144.182515 L33.1865783,142.489264 C37.5878429,142.489264 37.5878429,141.854294 37.5878429,139.208589 L37.5878429,115.608896 C37.5878429,112.96319 37.5878429,112.328221 33.1865783,112.328221 L33.1865783,110.634969 C35.2871819,110.740798 37.4878142,110.740798 39.5884178,110.740798 C40.5887052,110.740798 45.9902573,110.634969 48.1908896,110.634969 C53.892528,110.634969 57.9937064,111.058282 57.9937064,118.148773 C57.9937064,123.757669 54.8928154,126.08589 49.991407,126.615031 C51.3918094,128.943252 56.7933615,137.409509 57.9937064,139.314417 C59.1940513,141.007669 59.9942813,142.277607 62.3949711,142.489264 L62.3949711,144.182515 C61.2946549,144.182515 60.1943387,144.182515 59.0940226,144.076687 C57.9937064,143.970859 56.8933902,144.076687 55.7930741,144.182515 C52.6921831,138.891104 46.3903723,128.308282 44.8899411,127.779141 C43.789625,127.461656 42.6893088,127.355828 41.5889926,127.461656 L41.5889926,139.208589 L41.5889926,139.208589 Z M41.6890214,125.768405 C42.3892226,125.874233 43.1894525,125.874233 43.8896537,125.874233 C48.8910908,125.874233 53.492413,125.662577 53.492413,118.995399 C53.492413,113.809816 51.5918669,112.434049 46.890516,112.434049 C45.1900274,112.434049 43.4895387,112.539877 41.7890501,112.539877 L41.7890501,125.768405 L41.6890214,125.768405 Z M82.0006046,110.846626 L91.5033351,137.303681 C92.0034789,138.679448 93.2038238,142.806748 96.8048585,142.489264 L96.8048585,144.182515 C94.7042549,144.182515 92.7036801,144.182515 90.6030765,144.076687 C88.5024729,143.970859 86.4018693,144.076687 84.3012657,144.182515 L84.3012657,142.383436 C84.3012657,142.383436 88.3024154,142.489264 88.3024154,140.478528 C88.2023866,139.526074 88.0023292,138.679448 87.6022142,137.832822 L84.6013519,129.789877 L73.698219,129.789877 L70.8974142,138.150307 C70.6973567,138.785276 70.4972992,139.526074 70.4972992,140.266871 C70.4972992,142.383436 72.7979603,142.383436 74.2983914,142.383436 L74.2983914,144.076687 C72.4978741,144.076687 70.6973567,144.076687 68.8968393,143.970859 C67.096322,143.865031 65.2958046,143.970859 63.4952872,144.076687 L63.4952872,142.383436 C65.0957471,142.171779 65.8959771,142.383436 66.8962645,141.007669 C67.7965232,139.420245 68.4967244,137.726994 69.1969256,135.927914 L78.9997423,110.846626 L82.0006046,110.846626 L82.0006046,110.846626 Z M83.9011507,127.461656 L79.2998286,115.079755 L74.2983914,127.884969 L84.0011795,127.884969 L83.9011507,127.461656 Z M103.106669,115.608896 C103.106669,112.539877 102.106382,112.328221 98.9054621,112.328221 L98.9054621,110.634969 C100.205836,110.740798 101.506209,110.740798 102.806583,110.740798 C104.106957,110.740798 105.40733,110.634969 106.707704,110.634969 L126.213309,138.150307 L126.213309,115.608896 C126.213309,112.539877 125.413079,112.328221 122.012102,112.328221 L122.012102,110.634969 C123.71259,110.740798 125.513108,110.740798 127.213596,110.740798 C128.914085,110.846626 130.714602,110.634969 132.415091,110.634969 L132.415091,112.328221 C129.114142,112.328221 128.51397,112.539877 128.51397,115.608896 L128.51397,143.970859 L125.613136,143.970859 L105.507359,115.820552 L105.507359,139.102761 C105.507359,142.171779 106.307589,142.383436 109.708566,142.383436 L109.708566,144.076687 C107.908049,144.076687 106.20756,144.076687 104.407043,143.970859 C102.606526,143.865031 100.906037,143.970859 99.1055196,144.076687 L99.1055196,142.383436 C102.506497,142.383436 103.306727,142.171779 103.306727,139.102761 L103.306727,115.608896 L103.106669,115.608896 Z M134.415666,142.489264 C138.81693,142.489264 138.81693,141.854294 138.81693,139.208589 L138.81693,115.608896 C138.81693,112.96319 138.81693,112.328221 134.415666,112.328221 L134.415666,110.634969 C136.516269,110.740798 138.716902,110.740798 140.817505,110.740798 C143.718339,110.740798 148.919833,110.634969 150.720351,110.634969 C153.92127,110.634969 157.522305,110.952454 160.023024,113.174847 C163.724087,116.455521 164.124202,122.064417 164.124202,126.720859 C164.124202,138.467791 161.423426,143.441718 150.220207,144.076687 C147.019287,144.076687 143.918396,144.076687 140.717476,143.970859 C138.616873,143.970859 136.416241,143.970859 134.315637,144.076687 L134.315637,142.489264 L134.415666,142.489264 Z M142.918109,141.960123 C144.718626,142.065951 146.119029,142.171779 147.519431,142.171779 C157.12219,142.171779 159.52288,138.679448 159.52288,128.41411 C159.52288,119.312883 159.122765,112.645706 149.019862,112.645706 C147.019287,112.645706 144.918684,112.751534 142.918109,113.069018 L142.918109,141.960123 Z M418.397266,138.361963 C418.397266,141.53681 415.996576,144.182515 412.895685,144.182515 C409.794794,144.182515 407.394104,141.642638 407.394104,138.361963 C407.494133,135.081288 409.894823,132.541411 412.895685,132.541411 C415.896547,132.541411 418.397266,135.081288 418.397266,138.361963 Z M412.795656,133.599693 C410.294938,133.705521 408.294363,135.822086 408.394391,138.467791 C408.394391,141.113497 410.394966,143.124233 412.895685,143.124233 C415.396403,143.124233 417.396978,140.90184 417.396978,138.256135 C417.396978,135.610429 415.296375,133.493865 412.795656,133.599693 Z M410.795081,134.97546 L413.2958,134.97546 C414.696202,134.97546 415.496432,135.610429 415.496432,136.986196 C415.496432,137.93865 414.796231,138.785276 413.895972,138.891104 C413.895972,138.891104 413.795944,138.891104 413.795944,138.891104 L415.596461,141.854294 L414.596173,141.854294 L412.795656,138.996933 L411.795369,138.996933 L411.795369,141.854294 L410.795081,141.854294 L410.795081,134.97546 Z M412.795656,137.93865 C413.695915,137.93865 414.496145,137.93865 414.496145,136.880368 C414.496145,135.822086 413.795944,135.927914 413.095742,135.927914 L411.795369,135.927914 L411.795369,137.93865 L412.795656,137.93865 Z M232.477266,85.2 L172.277266,85.2 C170.777266,85.2 169.577266,86.4 169.577266,87.9 C169.577266,87.9 169.577266,87.9 169.577266,87.9 C169.577266,89.4 170.777266,90.6 172.277266,90.6 L232.477266,90.6 C233.977266,90.6 235.177266,89.4 235.177266,87.9 C235.177266,86.4 233.977266,85.2 232.477266,85.2 C232.477266,85.2 232.477266,85.2 232.477266,85.2 Z M198.777266,17.6 L198.777266,17.6 L198.777266,17.6 C200.077266,18.8 201.277266,20.2 202.277266,21.7 C203.277266,20.2 204.477266,18.9 205.777266,17.6 L205.777266,17.6 L205.777266,17.6 L205.777266,17.6 C207.477266,16.2 209.377266,15.2 211.377266,14.5 C210.977266,13.8 202.677266,0.8 202.177266,0 L199.277266,4.5 C199.277266,4.5 193.377266,13.8 192.977266,14.5 C195.077266,15.2 197.077266,16.2 198.777266,17.6 L198.777266,17.6 Z M254.777266,38.4 C251.877266,33.5 242.877266,35 242.777266,35 C239.677266,35.5 236.677266,36.2 233.777266,37.2 C234.577266,34.9 234.977266,32.6 235.077266,30.2 C235.177266,28.4 234.677266,26.7 233.577266,25.3 C228.677266,19.5 212.977266,26.3 210.477266,27.5 L210.477266,29.2 C213.077266,29.1 214.877266,29.4 215.777266,30.3 C216.477266,31.1 216.777266,32.1 216.577266,33.2 L216.577266,33.4 C216.277266,40.1 208.877266,56.7 205.077266,64.5 C203.977266,66.7 203.177266,69 202.677266,71.3 C202.677266,71.5 202.577266,71.6 202.577266,71.8 L202.077266,71.8 C202.077266,71.6 201.977266,71.3 201.977266,71.3 C201.477266,68.9 200.677266,66.6 199.577266,64.5 C195.677266,56.6 188.377266,40 188.077266,33.4 L188.077266,33.2 C187.877266,32.2 188.177266,31.1 188.877266,30.3 C189.777266,29.4 191.577266,29 194.177266,29.2 L194.177266,27.5 C191.677266,26.3 175.977266,19.5 171.077266,25.3 C169.977266,26.7 169.477266,28.5 169.577266,30.2 C169.677266,32.6 170.077266,34.9 170.877266,37.2 C167.977266,36.2 164.977266,35.5 161.877266,35 C161.777266,35 152.777266,33.4 149.877266,38.4 C149.177266,39.6 148.877266,41 148.877266,42.3 C148.877266,47.5 152.577266,56.8 165.577266,73.1 C167.377266,75.4 169.077266,77.3 171.077266,79.6 L183.777266,79.6 C169.477266,60.7 163.277266,50.2 163.277266,44.6 C163.277266,43.8 163.377266,43 163.777266,42.2 C164.877266,39.7 167.877266,39 171.377266,38.6 C174.677266,48.2 182.677266,61.9 195.277266,79.5 L209.377266,79.5 C221.977266,61.9 229.977266,48.2 233.277266,38.6 C236.777266,39 239.777266,39.7 240.877266,42.2 C241.177266,42.9 241.377266,43.7 241.377266,44.6 C241.377266,50.2 235.277266,60.7 220.877266,79.6 L233.577266,79.6 C235.577266,77.3 237.277266,75.4 239.077266,73.1 C252.077266,56.8 255.677266,47.5 255.677266,42.3 C255.777266,40.9 255.477266,39.6 254.777266,38.4 Z" id="grand_victoria-20"></path>
</svg>