<svg xmlns="http://www.w3.org/2000/svg" xmlns:xlink="http://www.w3.org/1999/xlink" viewBox="0 0 28 27" version="1.1" class="injected-svg" data-src="/content/dam/empire/icon-library/fontawesome-icons/hair-dryer.svg">
    <title>Hair Dryer</title>
    <path fill="currentColor" transform="translate(-173.000000, -86.000000)" d="M192.123722,86.003196 C197.036742,86.003196 201.019531,89.9859857 201.019531,94.8990057 C201.019531,97.7409932 199.686824,100.27171 197.612271,101.900297 L197.611293,108.156747 C197.611293,110.716869 195.535903,112.792259 192.975781,112.792259 L192.975781,112.792259 L191.668192,112.792259 C190.350455,112.791079 189.095495,112.229128 188.217059,111.246895 C187.338622,110.264662 186.919738,108.954988 187.065129,107.645295 L187.060455,107.69 L187.320405,103.418233 C183.804483,102.931106 179.796183,102.011088 175.808425,100.893946 L175.808425,100.893946 L175.120504,100.699233 C173.863046,100.338911 172.998197,99.1868551 173.003162,97.8834866 L173.003162,97.8834866 L173.003162,91.9187895 C172.998647,90.6111844 173.862653,89.4594516 175.121932,89.0972338 C181.345068,87.322155 187.61881,86.003196 192.123722,86.003196 Z M192.123722,103.794815 C191.803423,103.794815 191.474027,103.788117 191.136223,103.775037 C190.703849,103.762039 190.263447,103.74188 189.842431,103.716033 L189.842431,103.716033 L189.760864,103.710364 L189.509935,107.85493 L189.495363,108.024824 C189.460218,108.604273 189.657676,109.175687 190.046661,109.610634 C190.459957,110.072766 191.050404,110.337159 191.66929,110.337713 L191.66929,110.337713 L192.975781,110.337713 C194.180295,110.337713 195.156747,109.361261 195.156747,108.156747 L195.156747,108.156747 L195.15707,103.264251 C194.880492,103.364563 194.597526,103.451548 194.308948,103.524433 C194.293152,103.527897 194.277814,103.531731 194.262466,103.535524 C193.931025,103.617855 193.591822,103.681149 193.246454,103.724643 C193.229457,103.726731 193.211762,103.728915 193.194058,103.731046 C193.089369,103.743629 192.984887,103.754291 192.879885,103.763129 C192.847667,103.76593 192.815686,103.768456 192.783681,103.77081 C192.704178,103.776538 192.62417,103.781335 192.543884,103.785068 C192.401378,103.791816 192.258491,103.795024 192.115306,103.794786 L192.436047,103.789435 C192.332379,103.793012 192.228261,103.794815 192.123722,103.794815 Z M191.748909,88.461043 C188.494317,88.5174592 184.181794,89.2921133 179.685036,90.4152105 L179.684886,99.3829268 C183.94031,100.446084 188.052495,101.200022 191.241745,101.32268 C191.261706,101.323782 191.281282,101.324369 191.300836,101.324942 L191.241745,101.32268 C191.303546,101.325057 191.365001,101.327197 191.426103,101.329097 L191.300836,101.324942 C191.583866,101.33323 191.862065,101.338459 192.125746,101.340272 L191.748141,101.335196 Z M194.20313,88.800766 L194.203019,100.997551 C194.250533,100.981347 194.297861,100.964582 194.344993,100.94726 C194.391154,100.930057 194.437307,100.912492 194.483202,100.894416 L194.344993,100.94726 C194.43995,100.912362 194.534112,100.875201 194.627396,100.835804 L194.483202,100.894416 C194.555539,100.865925 194.627236,100.836163 194.698266,100.805157 L194.627396,100.835804 C194.713121,100.799598 194.798104,100.761504 194.882283,100.72154 L194.698266,100.805157 C194.79986,100.760809 194.900089,100.713917 194.998872,100.66456 C195.061384,100.633483 195.123017,100.601409 195.184161,100.568311 L194.998872,100.66456 C195.075049,100.626499 195.150366,100.586972 195.224786,100.546017 L195.184161,100.568311 C195.2673,100.523308 195.349534,100.476414 195.430797,100.427647 L195.224786,100.546017 C195.30513,100.501802 195.384427,100.455923 195.462634,100.408425 L195.700775,100.256323 C195.701764,100.25566 195.702754,100.254998 195.703745,100.254338 C197.429053,99.0990285 198.564986,97.1316727 198.564986,94.8990057 C198.564986,92.0692123 196.740191,89.6656227 194.20313,88.800766 Z M177.229566,91.0573249 C176.752269,91.1875367 176.274684,91.3208668 175.797829,91.4568839 C175.595859,91.5149791 175.456991,91.7000916 175.457716,91.9145247 L175.457716,91.9145247 L175.457716,97.8881734 C175.45692,98.0975606 175.595359,98.2819732 175.795959,98.3394551 C176.273082,98.4758767 176.751367,98.6096577 177.229729,98.7403489 Z" id="Combined-Shape-31"></path>
</svg>