<svg xmlns="http://www.w3.org/2000/svg" xmlns:xlink="http://www.w3.org/1999/xlink" width="124px" height="32px" viewBox="0 0 124 32" version="1.1" class="injected-svg" data-src="/content/dam/empire/logos/logo-train/harrahs.svg">
	<title>Harrah's</title>
  <path d="M95.5,13.125 L100.656,11 C99.91,10.318 98.995,9.809 97.982,9.541 L97.937,9.531 L95.5,13.125 Z M95.188,14.125 C96.188,14.844 96.188,16.25 96.188,17.375 L96.188,33 L102.376,33 L102.376,18.375 L102.439,17.125 C102.439,15.25 102.001,13.469 101.251,11.875 L101.282,11.719 L95.188,14.125 Z M94.188,13.75 C93.875,13.625 93.5,13.562 93.094,13.562 C92,13.562 91,14.031 90.281,14.75 L90.281,32.938 L83.625,32.938 L83.625,1 L90.25,1 L90.25,9.75 C91.612,9.409 93.176,9.214 94.785,9.214 C95.576,9.214 96.357,9.261 97.124,9.353 L97.031,9.344 L94.188,13.75 Z M34.438,9.094 L35.126,9.031 C37.876,9.031 40.126,11.281 40.126,14.031 L40.126,32.906 L29.688,32.906 L29.25,32.937 C29.24,32.937 29.229,32.937 29.217,32.937 C24.902,32.937 21.404,29.439 21.404,25.124 C21.404,24.871 21.416,24.621 21.44,24.374 L21.438,24.405 C21.438,17.592 27.782,17.092 30.938,16.936 C34.094,16.78 33.969,15.967 33.969,15.155 C33.969,14.343 33.438,13.655 30.938,13.655 L24.313,13.655 L24.313,9.124 L34.438,9.124 L34.438,9.094 Z M27.969,25.5 L27.969,25.813 C27.969,27.282 28.969,28.469 30.313,28.813 C30.813,28.813 33.126,29.313 33.501,27.5 L33.501,20.844 C27.313,20.844 27.97,23 27.97,25.5 L27.969,25.5 Z M76.281,9.094 L77.062,9.031 C79.812,9.031 82.062,11.281 82.062,14.031 L82.062,32.937 L71.093,32.937 C71.092,32.937 71.092,32.937 71.091,32.937 C66.776,32.937 63.278,29.439 63.278,25.124 C63.278,24.871 63.29,24.621 63.314,24.374 L63.312,24.405 C63.312,17.592 69.625,17.092 72.781,16.936 C75.937,16.78 75.812,15.967 75.812,15.155 C75.812,14.343 75.281,13.655 72.781,13.655 L66.156,13.655 L66.156,9.124 L76.281,9.124 L76.281,9.094 Z M69.813,25.531 L69.813,25.844 C69.813,27.313 70.813,28.532 72.157,28.844 C72.688,28.844 74.97,29.375 75.345,27.531 L75.345,20.843 C69.157,20.843 69.814,22.999 69.814,25.499 L69.813,25.531 Z M13.219,1.188 L13.219,9.094 L6.656,9.094 L6.656,1.188 L0,1.188 L0,32.938 L6.656,32.938 L6.656,14.407 L13.219,14.407 L13.219,32.938 L19.844,32.938 L19.844,1.188 L13.219,1.188 Z M47.969,15.063 C47.969,14.25 48.5,13.594 51,13.594 L52.406,13.594 L52.406,9.125 L47.5,9.125 L46.812,9.062 C44.062,9.062 41.812,11.312 41.812,14.062 L41.812,32.906 L47.968,32.906 L47.968,15.062 L47.969,15.063 Z M60.125,15.063 C60.125,14.25 60.625,13.594 63.156,13.594 L64.562,13.594 L64.562,9.125 L59.656,9.125 L58.968,9.062 C56.187,9.062 53.968,11.312 53.968,14.062 L53.968,32.906 L60.124,32.906 L60.124,15.062 L60.125,15.063 Z M104.063,25.875 C105.844,27 108.001,27.75 110.282,28 C112.126,28 112.845,27.125 112.751,26 C112.657,24.875 112.063,24.281 109.845,23.531 C106.439,22.878 103.901,19.922 103.901,16.374 C103.901,12.353 107.161,9.093 111.182,9.093 C111.228,9.093 111.275,9.093 111.321,9.094 L111.314,9.094 L112.064,9.063 C113.752,9.063 115.377,9.438 116.814,10.126 L116.001,15.032 C114.824,14.363 113.416,13.968 111.915,13.968 C111.857,13.968 111.799,13.969 111.742,13.97 L111.751,13.97 C110.313,13.97 109.532,14.783 109.563,15.939 C109.594,17.095 110.407,17.564 112.813,18.377 C115.945,19.097 118.264,21.811 118.375,25.084 L118.375,25.096 C118.656,29.377 116.031,32.659 110.562,32.94 L109.624,32.971 C107.561,32.971 105.624,32.471 103.905,31.627 L104.063,25.875 Z M105.219,11 L104.906,9.406 L108.812,7.812 L104.281,5.968 L103.343,0.999 L100.937,4.624 L94.937,2.249 L98.843,7.749 L94.937,13.468 L101.093,10.937 L103.593,13.343 C103.968,12.437 104.531,11.655 105.218,10.999 L105.219,11 Z M121.719,28.531 C122.738,28.531 123.563,29.3454104 123.563,30.3513307 C123.563,31.3562638 122.738,32.1716614 121.719,32.1716614 L121.656,32.1716614 C120.687,32.1716614 119.875,31.3690969 119.875,30.3819328 L119.875,30.3513307 C119.875,29.3463976 120.7,28.531 121.719,28.531 Z M123.281,30.344 C123.281,29.481 122.581,28.781 121.718,28.781 C120.855,28.781 120.155,29.481 120.155,30.344 C120.155,31.207 120.855,31.907 121.718,31.907 C122.531,31.876 123.281,31.2143379 123.281,30.3713379 L123.281,30.344 Z M122.594,31.344 L122.25,31.344 L121.694275,30.406 L121.402832,30.406 L121.402832,31.344 L121.125,31.344 L121.125,29.406 L121.969,29.406 C122.344,29.406 122.688,29.5541453 122.688,29.937 C122.688,30.3198547 122.319233,30.406 122.02594,30.406 L122.594,31.344 Z M121.656,30.156 C121.906,30.156 122.382568,30.213049 122.382568,29.9120846 C122.382568,29.6111203 122.063,29.656 121.875,29.656 L121.390411,29.656 L121.390411,30.156 L121.656,30.156 Z" id="harrahs-6" fill="#343840"></path>
</svg>