<svg xmlns="http://www.w3.org/2000/svg" xmlns:xlink="http://www.w3.org/1999/xlink" viewBox="0 0 76 11" version="1.1" class="injected-svg" data-src="/content/dam/empire/logos/brand-logos/harveys.svg">
    <!-- Generator: Sketch 57.1 (83088) - https://sketch.com -->
    <title>Harveys</title>
    <desc>Created with Sketch.</desc>
    <defs>
        <path d="M19.482878,0.596588235 L15.4857724,0.596588235 L15.1768293,0.576205882 C13.9796748,0.576205882 12.9660325,1.44585294 12.6858211,2.60829412 L9.98256911,10.6256765 L12.9756098,10.6256765 L14.1437236,7.39038235 L16.9918699,7.39038235 L15.9878049,10.5043529 L19.2703252,10.5043529 L21.5487805,3.65976471 C21.6593821,3.40191176 21.7236423,3.10102941 21.7236423,2.78429412 C21.7236423,1.57817647 20.7900163,0.600470588 19.6382764,0.600470588 C19.5835935,0.600470588 19.5292195,0.602735294 19.4754634,0.606941176 L19.4825691,0.606617647 L19.482878,0.596588235 Z M18.2662602,3.60929412 L17.7642276,5.08555882 L14.9160813,5.08555882 L15.3890732,3.68014706 C15.4567317,3.30614706 15.6788618,3.00267647 15.9878049,2.83088235 C16.2562764,2.75032353 16.5642927,2.70405882 16.883122,2.70405882 C17.2143089,2.70405882 17.534065,2.75420588 17.8365203,2.84738235 L17.8127317,2.84123529 C18.0864553,2.88814706 18.2928293,3.13402941 18.2928293,3.43038235 C18.2928293,3.49444118 18.283252,3.55623529 18.2653333,3.61382353 L18.2665691,3.60961765 L18.2662602,3.60929412 Z M6.29471545,0.596588235 L5.09756098,4.35761765 L8.23518699,4.35761765 L9.43234146,0.596588235 L12.6184715,0.596588235 L9.22009756,10.626 L6.00523577,10.626 L7.39547967,6.66276471 L4.30604878,6.66276471 L2.99304065,10.5755294 L0,10.5755294 L3.2343252,0.596588235 L6.29471545,0.596588235 Z M29.2723577,0.596588235 L23.4796748,0.596588235 L20.2067317,10.626 L23.2383902,10.626 L24.5127805,6.54144118 L26.714,6.54144118 C27.1001789,6.54144118 27.2932683,6.69317647 27.2932683,7.1885 C27.2932683,7.68382353 26.8103902,8.96791176 26.8103902,9.57452941 C26.8094634,9.59167647 26.8091545,9.61173529 26.8091545,9.63211765 C26.8091545,10.0174412 26.9738211,10.3626471 27.2336423,10.5942941 L27.235187,10.5959118 L30.5949431,10.6059412 C30.5949431,10.6059412 29.6390732,9.97894118 29.6390732,9.30179412 C29.6390732,8.62464706 30.2087642,7.96723529 30.2087642,7.04711765 L30.2087642,6.95620588 C30.2087642,6.42044118 29.9189756,5.95520588 29.4941789,5.71255882 C32.2168943,5.03508824 32.5545691,0.596588235 29.2720488,0.596588235 L29.2723577,0.596588235 Z M27.3800813,4.33723529 L25.275252,4.33723529 L25.709626,2.83088235 L27.7949919,2.83088235 C29.0403415,2.83088235 28.7218211,4.33723529 27.3797724,4.33723529 L27.3800813,4.33723529 Z M43.0879837,0.444852941 L37.5365854,9.52405882 C37.1890244,10.1407059 36.5711382,10.5655 35.866439,10.626 C35.4465854,10.6955588 34.9621626,10.7353529 34.4690894,10.7353529 C33.9534634,10.7353529 33.4477236,10.692 32.9549593,10.6082059 L33.0090244,10.6156471 C32.4940163,10.5606471 32.0954797,10.1086765 32.0954797,9.55932353 C32.0954797,9.51823529 32.0976423,9.47779412 32.1019675,9.438 L32.1016585,9.44285294 L32.1016585,0.444529412 L35.1138537,0.444529412 L35.1138537,7.84526471 L39.7866179,0.323205882 L43.0879837,0.444852941 Z M56.131252,0.576205882 L55.0595285,3.68014706 C54.5093008,5.28776471 57.4538374,5.35861765 58.0717236,3.68014706 L59.2012195,0.576205882 L62.232878,0.576205882 L59.4137724,8.86664706 C59.0275935,10.0494706 58.0235285,10.5247353 56.4015772,10.5247353 L49.6724878,10.5247353 L50.5316585,8.16911765 L55.6582602,8.16911765 C55.6582602,8.16911765 56.9712683,8.16911765 56.9712683,7.13770588 C56.4652195,7.18429412 55.876374,7.21082353 55.2816585,7.21082353 C54.6869431,7.21082353 54.0980976,7.18429412 53.5163577,7.13220588 L53.5920488,7.13770588 C52.5382439,7.02964706 51.7217073,6.10661765 51.7217073,4.98397059 C51.7217073,4.62226471 51.8063577,4.28126471 51.9561951,3.98167647 L51.9506341,3.99364706 L53.0705528,0.576205882 L56.131252,0.576205882 Z M59.5778211,10.3529412 L66.760748,10.3529412 C66.7833008,10.3535882 66.809561,10.3539118 66.8361301,10.3539118 C68.4911382,10.3539118 69.8470894,9.01191176 69.9654146,7.31047059 L69.9660325,7.29979412 C69.9660325,6.01570588 69.7534797,4.18582353 67.1178862,4.18582353 C65.3510407,4.18582353 64.8684715,4.18582353 64.8684715,3.66008824 C64.8684715,3.13435294 65.061561,2.78041176 66.326374,2.78041176 L71.3562764,2.78041176 L72.167252,0.273058824 L65.3705041,0.273058824 C63.4609268,0.318352941 61.928878,1.94764706 61.923935,3.95255882 L61.923935,3.98329412 C61.923935,5.25735294 62.4259675,6.49064706 64.9457073,6.49064706 C66.326374,6.49064706 66.760748,6.49064706 66.760748,7.11764706 C66.760748,7.74464706 66.3745691,7.76470588 64.9457073,7.76470588 L60.398374,7.76470588 L59.5778211,10.3529412 Z M52.0664878,0.576205882 L51.245935,3.08355882 L46.6309431,3.08355882 C44.7868618,3.08355882 44.6710081,4.50902941 44.6710081,4.50902941 L50.7726341,4.50902941 L49.9616585,7.01638235 L43.8504553,7.01638235 C43.8504553,7.01638235 43.3484228,8.29044118 44.5746179,8.29044118 L49.6721789,8.29044118 L48.9093984,10.6564118 L42.489252,10.6564118 C40.790065,10.6564118 40.2589919,8.89705882 40.8092195,7.01670588 L42.2285041,2.70955882 C42.6993333,1.44358824 43.8538537,0.562617647 45.2051707,0.562617647 C45.3061951,0.562617647 45.4059837,0.567470588 45.5045366,0.577176471 L45.4918699,0.576205882 L52.0664878,0.576205882 Z M73.6347317,1.47626471 C73.6347317,0.839558824 74.1274959,0.323529412 74.7354959,0.323529412 C75.3434959,0.323529412 75.8362602,0.839558824 75.8362602,1.47626471 L75.8362602,1.47626471 C75.8362602,2.11297059 75.3434959,2.629 74.7354959,2.629 C74.1274959,2.629 73.6347317,2.11297059 73.6347317,1.47626471 L73.6347317,1.47626471 Z M75.6910569,1.47626471 C75.6910569,0.929176471 75.2674959,0.485294118 74.7447642,0.485294118 C74.2220325,0.485294118 73.7984715,0.928852941 73.7984715,1.47626471 L73.7984715,1.47626471 C73.7984715,2.02335294 74.2220325,2.46723529 74.7447642,2.46723529 C75.2674959,2.46723529 75.6910569,2.02367647 75.6910569,1.47626471 L75.6910569,1.47626471 Z M75.2857236,2.10294118 L75.0635935,2.10294118 L74.7064553,1.52673529 L74.4939024,1.52673529 L74.4939024,2.10294118 L74.2041138,2.10294118 L74.2041138,0.849264706 L74.735187,0.849264706 C74.9477398,0.849264706 75.1599837,0.849264706 75.1599837,1.17279412 C75.1599837,1.49632353 74.995935,1.52673529 74.7833821,1.52673529 L75.2857236,2.10294118 Z M74.7064553,1.35494118 C74.8513496,1.35494118 75.1120976,1.35494118 75.1120976,1.17279412 C75.1120976,0.990647059 74.9480488,1.02105882 74.8321951,1.02105882 L74.5136748,1.02105882 L74.5136748,1.35461765 L74.7064553,1.35494118 Z" id="path-1-17"></path>
    </defs>
    <g id="ðŸ“Symbols" stroke="none" stroke-width="1" fill="none" fill-rule="evenodd">
        <g id="Atom/Logo/Harveys">
            <mask id="mask-2-16" fill="white">
                <use xlink:href="#path-1-17"></use>
            </mask>
            <use id="Shape" fill="#BEC0C5" fill-rule="evenodd" xlink:href="#path-1-17"></use>
        </g>
    </g>
</svg>