<svg xmlns="http://www.w3.org/2000/svg" xmlns:xlink="http://www.w3.org/1999/xlink" width="286px" height="33px" viewBox="0 0 286 33" version="1.1" class="injected-svg" data-src="/content/dam/empire/logos/logo-train/horseshoe.svg">
	<title>Horseshoe</title>
  <path d="M25.781,14.406 L25.812,14.25 L25.781,14.094 L25.781,4.719 C25.781,3.469 25.531,2.719 24.187,2.406 C23.952,2.377 23.681,2.36 23.406,2.36 C23.131,2.36 22.859,2.377 22.593,2.409 L22.625,2.406 C22.219,2.406 21.937,2.406 21.937,2.031 C21.937,1.656 21.937,1.625 22.781,1.625 L33.687,1.625 C34.218,1.625 34.531,1.625 34.531,2.031 C34.531,2.437 34.531,2.406 33.812,2.406 L32.937,2.406 C31.843,2.406 31.468,3.25 31.468,4.719 L31.468,28.844 C31.468,30.625 31.843,30.813 33.062,31.032 C33.375,31.058 33.74,31.073 34.109,31.073 C34.478,31.073 34.842,31.058 35.203,31.029 L35.156,31.032 C35.562,31.032 35.812,31.032 35.812,31.407 C35.812,31.782 35.437,31.782 34.968,31.782 L23.53,31.782 C22.967,31.782 22.717,31.782 22.717,31.407 C22.717,31.032 22.717,31.032 23.342,31.032 C23.567,31.063 23.828,31.081 24.092,31.081 C24.356,31.081 24.617,31.063 24.872,31.029 L24.842,31.032 C25.592,31.032 25.842,30.001 25.967,28.844 C26.092,27.687 25.967,23.938 25.967,20.156 L25.967,16.843 L10.311,16.843 L10.311,20.156 C10.244,21.399 10.206,22.855 10.206,24.319 C10.206,25.988 10.255,27.645 10.353,29.289 L10.342,29.062 C10.311,30 10.717,30.812 11.842,31.031 L13.967,31.031 C14.405,31.031 14.53,31.031 14.53,31.406 C14.53,31.781 14.217,31.781 13.78,31.781 L2.28,31.781 C1.749,31.781 1.499,31.781 1.499,31.406 C1.499,31.031 1.499,31.031 2.155,31.031 C2.371,31.061 2.62,31.078 2.874,31.078 C3.128,31.078 3.377,31.061 3.621,31.027 L3.593,31.03 C4.374,31.03 4.562,29.999 4.781,28.842 C5,27.685 4.781,23.936 4.781,20.154 L4.781,4.685 C4.781,3.404 4.562,2.716 3.312,2.404 C2.901,2.322 2.428,2.274 1.945,2.274 C1.854,2.274 1.764,2.276 1.674,2.279 L1.687,2.279 C0.999,2.279 0.999,2.216 0.999,1.904 C0.999,1.592 0.999,1.498 1.905,1.498 L12.811,1.498 C13.311,1.498 13.78,1.623 13.78,1.904 C13.78,2.185 13.78,2.279 13.061,2.279 L11.842,2.279 C10.779,2.279 10.436,3.092 10.373,4.56 C10.31,6.028 10.373,6.998 10.373,13.123 L10.373,14.279 L25.781,14.406 Z M66.781,17.531 C66.781,8.593 61.625,2.906 54.968,2.906 C50.374,2.906 45.062,5.469 45.062,15.687 C45.062,24.125 49.75,30.75 57.468,30.75 C60.281,30.75 66.781,29.437 66.781,18 L66.781,17.531 Z M39.313,16.844 L39.313,16.469 C39.313,16.469 39.313,16.468 39.313,16.468 C39.313,7.89 46.267,0.937 54.844,0.937 C55.339,0.937 55.829,0.96 56.312,1.005 L56.25,1 C56.751,0.939 57.331,0.905 57.918,0.905 C65.995,0.905 72.543,7.453 72.543,15.53 C72.543,15.927 72.527,16.319 72.496,16.708 L72.499,16.657 C72.499,16.662 72.499,16.668 72.499,16.675 C72.499,25.494 65.35,32.644 56.53,32.644 C56.266,32.644 56.004,32.638 55.743,32.625 L55.78,32.626 L54.655,32.657 C54.653,32.657 54.65,32.657 54.647,32.657 C46.173,32.657 39.303,25.787 39.303,17.313 C39.303,17.137 39.306,16.962 39.312,16.788 L39.311,16.813 L39.313,16.844 Z M85.688,16.469 C85.688,16.907 85.688,17.094 86.001,17.157 C86.858,17.436 87.845,17.597 88.869,17.597 C88.948,17.597 89.028,17.596 89.107,17.594 L89.095,17.594 L89.626,17.657 C90.501,17.657 91.314,17.376 91.97,16.907 C93.467,15.589 94.406,13.668 94.406,11.528 C94.406,11.298 94.395,11.071 94.374,10.847 L94.376,10.876 C94.426,10.575 94.455,10.229 94.455,9.876 C94.455,6.355 91.601,3.501 88.08,3.501 C88.074,3.501 88.068,3.501 88.063,3.501 L88.001,3.501 C87.677,3.451 87.303,3.422 86.923,3.422 C86.543,3.422 86.169,3.451 85.804,3.506 L85.845,3.501 C85.501,3.564 85.564,3.501 85.564,4.001 L85.688,16.469 Z M80.906,13.25 L80.906,4.719 C80.906,3.469 80.531,2.781 79.125,2.469 C78.687,2.375 78.187,2.281 77.656,2.281 C77.25,2.281 76.937,2.281 76.937,1.906 C76.937,1.531 76.937,1.5 77.843,1.5 L89.093,1.5 L89.906,1.469 C92.344,1.469 94.594,2.125 96.562,3.282 C98.125,4.532 99.187,6.501 99.25,8.72 C99.031,12.564 97,15.845 93.969,17.783 C97.5,22.346 100.313,25.908 102.688,28.408 C103.813,29.752 105.376,30.752 107.157,31.127 L108.313,31.158 C108.626,31.158 108.813,31.158 108.813,31.533 C108.813,31.908 108.813,31.908 108.063,31.908 L104.282,31.908 C104.027,31.936 103.73,31.952 103.43,31.952 C102.115,31.952 100.87,31.648 99.764,31.105 L99.813,31.127 C97.64,29.557 95.844,27.612 94.487,25.37 L94.438,25.283 C92.594,23.158 90.407,20.158 90.407,19.783 C90.306,19.739 90.187,19.713 90.063,19.713 C89.939,19.713 89.821,19.739 89.714,19.786 L89.72,19.784 L85.939,19.784 L85.939,28.847 C85.939,30.628 86.345,30.816 87.47,31.035 C87.723,31.052 88.019,31.062 88.317,31.062 C88.756,31.062 89.19,31.041 89.618,31 L89.564,31.004 C89.939,31.004 89.97,31.035 89.97,31.41 C89.97,31.785 89.97,31.785 89.157,31.785 L78.344,31.785 C77.781,31.785 77.531,31.785 77.531,31.41 C77.531,31.035 77.531,31.035 78.219,31.035 C78.399,31.056 78.608,31.068 78.82,31.068 C79.115,31.068 79.405,31.045 79.688,31 L79.657,31.004 C80.47,31.035 80.657,30.004 80.782,28.848 C80.907,27.692 80.782,23.942 80.782,20.223 L80.906,13.25 Z M110.469,31.594 C109.844,31.594 109.719,31.094 109.719,30.188 L109.719,24.875 C109.719,24.219 109.719,23.875 110.219,23.875 C110.719,23.875 110.657,24.188 110.657,24.563 C110.688,25.313 110.782,26.001 111.001,26.657 C111.706,29.015 113.856,30.703 116.4,30.703 C116.546,30.703 116.69,30.697 116.833,30.687 L116.814,30.688 L117.439,30.751 C120.064,30.751 122.22,28.688 122.345,26.126 C122.345,24.126 121.72,22.282 118.407,19.72 L116.532,18.251 C112.063,14.813 110.594,11.876 110.594,8.72 C110.594,4.251 114.313,1.064 119.938,1.064 L120.188,1.064 C122.001,1.064 123.782,1.314 125.438,1.814 C125.688,1.783 125.876,1.783 125.876,2.22 L125.876,7.001 C125.876,7.907 125.876,8.22 125.438,8.22 C125,8.22 124.969,8.22 124.969,7.439 C124.844,6.439 124.375,5.533 123.688,4.845 C122.763,3.582 121.285,2.771 119.618,2.771 C119.5,2.771 119.382,2.775 119.266,2.783 L119.282,2.782 L118.782,2.751 C116.438,2.751 114.563,4.626 114.501,6.939 C114.501,8.845 115.407,10.252 118.782,12.752 L119.876,13.658 C124.782,17.283 126.251,20.033 126.251,23.939 L126.251,24.064 C126.251,26.939 124.782,29.47 122.532,30.939 C120.806,32.025 118.707,32.669 116.457,32.669 C116.109,32.669 115.765,32.654 115.425,32.623 L115.469,32.626 C113.563,32.626 111.781,32.251 110.125,31.563 L110.469,31.594 Z M136.156,13.25 L136.156,4.719 C136.156,3.406 135.781,2.719 134.5,2.406 C134.256,2.38 133.974,2.366 133.687,2.366 C133.4,2.366 133.118,2.381 132.84,2.409 L132.875,2.406 C132.437,2.406 132.187,2.406 132.187,2.031 C132.187,1.656 132.187,1.625 133.093,1.625 L151.343,1.625 L151.343,6.875 C151.343,7.313 151.343,7.313 150.968,7.313 C150.593,7.313 150.593,7.313 150.593,6.75 C150.641,6.525 150.669,6.266 150.669,6 C150.669,5.734 150.641,5.475 150.589,5.226 L150.593,5.25 C150.28,4.562 149.874,4.062 147.843,3.812 L142.093,3.812 L142.093,14.875 L148.468,14.875 C149.281,14.875 149.999,14.875 150.406,14.281 C150.813,13.687 150.906,13.718 151.094,13.718 C151.282,13.718 151.094,14.593 151.094,16.718 L151.094,19.406 C151.094,19.687 151.094,20.156 150.781,20.156 C150.781,20.475 150.522,20.734 150.203,20.734 C149.884,20.734 149.625,20.475 149.625,20.156 L149.625,20.156 C149.652,19.931 149.667,19.67 149.667,19.406 C149.667,19.142 149.652,18.881 149.622,18.625 L149.625,18.656 C149.625,17.875 148.937,17.281 147.406,17.093 L141.656,17.093 L141.656,26.562 C141.656,29.343 142.406,30 146.5,30 C146.698,30.015 146.929,30.023 147.162,30.023 C148.303,30.023 149.397,29.82 150.409,29.447 L150.344,29.468 C151.282,28.968 151.813,28.155 152.063,26.562 C152.063,26.093 152.063,25.906 152.501,25.906 C152.939,25.906 152.501,26.219 152.501,26.625 C152.438,28.25 152.282,29.813 151.97,31.313 C152.001,32.219 151.345,32.219 149.814,32.219 L133.595,32.219 C133.095,32.219 132.782,32.219 132.782,31.844 C132.782,31.469 132.782,31.469 133.407,31.469 C133.632,31.501 133.893,31.52 134.157,31.52 C134.421,31.52 134.682,31.502 134.936,31.466 L134.907,31.469 C135.657,31.469 135.907,30.438 136.032,29.281 C136.157,28.124 136.032,24.375 136.032,20.687 L136.156,13.25 Z M159.406,31.594 C158.75,31.594 158.625,31.094 158.625,30.188 L158.625,24.875 C158.625,24.219 158.625,23.875 159.156,23.875 C159.687,23.875 159.531,24.188 159.531,24.563 C159.562,25.313 159.719,26.001 159.937,26.657 C160.642,29.015 162.792,30.703 165.336,30.703 C165.482,30.703 165.626,30.697 165.769,30.687 L165.75,30.688 L166.188,30.719 C168.782,30.719 170.938,28.688 171.094,26.125 C171.094,24.125 170.438,22.281 167.125,19.719 L165.281,18.25 C160.812,14.812 159.281,11.875 159.281,8.719 C159.281,4.25 162.969,1.063 168.594,1.063 L168.907,1.063 C170.72,1.063 172.438,1.313 174.095,1.813 C174.345,1.782 174.533,1.782 174.533,2.219 L174.533,7 C174.533,7.906 174.533,8.219 174.033,8.219 C173.533,8.219 173.47,8.031 173.47,7.375 C173.439,6.437 173.157,5.562 172.689,4.812 C171.76,3.603 170.314,2.832 168.688,2.832 C168.567,2.832 168.448,2.836 168.329,2.845 L168.345,2.844 L167.782,2.813 C165.438,2.813 163.532,4.688 163.501,7.001 C163.501,8.907 164.376,10.314 167.782,12.814 L168.845,13.72 C173.783,17.345 175.251,20.095 175.251,24.001 L175.251,24.095 C175.251,27.001 173.72,29.564 171.438,31.001 C169.736,32.066 167.668,32.697 165.453,32.697 C165.294,32.697 165.136,32.694 164.978,32.687 L165.001,32.688 L164.407,32.688 C162.501,32.688 160.688,32.313 159.063,31.625 L159.406,31.594 Z M205.844,14.406 L205.875,14.25 L205.844,14.094 L205.844,4.719 C205.844,3.469 205.406,2.719 204.25,2.406 C204.006,2.377 203.724,2.361 203.437,2.361 C203.15,2.361 202.868,2.378 202.591,2.41 L202.625,2.407 C202.187,2.407 202,2.407 202,2.032 C202,1.657 202,1.626 202.844,1.626 L213.75,1.626 C214.344,1.626 214.594,1.626 214.594,2.032 C214.594,2.438 214.594,2.407 213.813,2.407 L212.688,2.407 C211.594,2.407 211.282,3.251 211.188,4.72 C211.094,6.189 211.188,7.126 211.188,13.251 L211.188,28.845 C211.188,30.626 211.594,30.814 212.813,31.033 L214.907,31.033 C215.345,31.033 215.563,31.033 215.563,31.408 C215.563,31.783 215.219,31.783 214.782,31.783 L203.344,31.783 C202.781,31.783 202.531,31.783 202.531,31.408 C202.531,31.033 202.531,31.033 203.156,31.033 C203.381,31.062 203.642,31.079 203.906,31.079 C204.17,31.079 204.431,31.062 204.686,31.03 L204.656,31.033 C205.469,31.033 205.594,30.002 205.781,28.845 C205.968,27.688 205.781,23.939 205.781,20.157 L205.781,16.844 L190.375,16.844 L190.375,20.157 C190.303,21.406 190.262,22.868 190.262,24.339 C190.262,26.001 190.314,27.651 190.418,29.287 L190.407,29.063 C190.376,30.001 190.376,30.813 191.907,31.032 L193.97,31.032 C194.408,31.032 194.595,31.032 194.595,31.407 C194.595,31.782 194.595,31.782 193.782,31.782 L182.344,31.782 C181.75,31.782 181.5,31.782 181.5,31.407 C181.5,31.032 181.5,31.032 182.219,31.032 C182.435,31.06 182.684,31.076 182.938,31.076 C183.192,31.076 183.441,31.06 183.686,31.029 L183.657,31.032 C184.438,31.032 184.563,30.001 184.751,28.844 C184.939,27.687 184.751,23.938 184.751,20.156 L184.751,4.687 C184.751,3.406 184.438,2.781 183.032,2.406 C182.798,2.377 182.526,2.36 182.251,2.36 C181.976,2.36 181.704,2.377 181.438,2.409 L181.47,2.406 C181.064,2.406 180.814,2.406 180.814,2.031 C180.814,1.656 180.814,1.625 181.627,1.625 L192.565,1.625 C193.128,1.625 193.378,1.625 193.378,2.031 C193.378,2.437 193.378,2.406 192.69,2.406 L191.534,2.406 C190.44,2.406 190.065,3.219 190.003,4.687 C189.941,6.155 190.003,7.125 190.003,13.25 L190.003,14.094 L189.972,14.25 L190.003,14.406 L205.844,14.406 Z M246.844,17.531 C246.844,8.593 241.656,2.906 235.094,2.906 C230.438,2.906 225.188,5.469 225.188,15.687 C225.188,24.125 229.844,30.75 237.594,30.75 C240.407,30.75 246.844,29.437 246.844,18 L246.844,17.531 Z M219.563,17.219 L219.563,16.469 C219.575,7.901 226.524,0.959 235.094,0.959 C235.49,0.959 235.882,0.974 236.271,1.003 L236.219,1 C236.72,0.939 237.3,0.905 237.887,0.905 C245.964,0.905 252.512,7.453 252.512,15.53 C252.512,15.927 252.496,16.319 252.465,16.708 L252.468,16.657 C252.468,16.663 252.468,16.67 252.468,16.678 C252.468,25.497 245.319,32.647 236.499,32.647 C236.213,32.647 235.929,32.639 235.647,32.625 L235.686,32.627 L234.842,32.658 C234.84,32.658 234.837,32.658 234.834,32.658 C226.36,32.658 219.49,25.788 219.49,17.314 C219.49,17.138 219.493,16.963 219.499,16.789 L219.498,16.814 L219.563,17.219 Z M260.969,13.25 L260.969,4.719 C260.969,3.406 260.563,2.719 259.25,2.406 C259.002,2.377 258.714,2.361 258.422,2.361 C258.13,2.361 257.842,2.378 257.559,2.41 L257.594,2.407 C257.188,2.407 257,2.407 257,2.032 C257,1.657 257,1.626 257.844,1.626 L276.157,1.626 C275.969,2.314 275.813,3.22 275.657,4.126 L275.657,6.876 C275.657,7.314 275.657,7.376 275.282,7.376 C274.907,7.376 274.938,7.376 274.938,6.813 C274.978,6.588 275.001,6.328 275.001,6.063 C275.001,5.798 274.978,5.538 274.935,5.286 L274.939,5.313 C274.939,4.625 274.251,4.125 272.189,3.875 L266.533,3.875 L266.533,14.938 L272.908,14.938 C273.814,14.938 274.439,14.938 274.814,14.344 C275.189,13.75 275.283,13.781 275.47,13.781 C275.657,13.781 275.47,14.656 275.47,16.781 L275.47,19.469 C275.47,19.75 275.47,20.219 275.126,20.219 C274.782,20.219 274.751,20.219 274.751,19.844 C274.778,19.619 274.793,19.358 274.793,19.094 C274.793,18.83 274.778,18.569 274.748,18.313 L274.751,18.344 C274.751,17.531 274.063,16.969 272.532,16.781 L266.844,16.781 L266.844,26.531 C266.844,29.344 267.532,30 271.625,30 C271.844,30.018 272.099,30.029 272.356,30.029 C273.495,30.029 274.587,29.824 275.595,29.448 L275.531,29.469 C276.129,28.812 276.495,27.934 276.495,26.971 C276.495,26.816 276.486,26.663 276.467,26.513 L276.469,26.531 C276.469,26.093 276.469,25.906 276.938,25.906 C277.407,25.906 277.251,26.219 277.251,26.625 C277.157,28.281 277.001,29.844 276.688,31.344 C276.751,32.219 276.094,32.219 274.563,32.219 L258.344,32.219 C257.844,32.219 257.563,32.219 257.563,31.844 C257.563,31.469 257.563,31.469 258.219,31.469 C258.444,31.502 258.704,31.521 258.969,31.521 C259.234,31.521 259.494,31.502 259.748,31.465 L259.719,31.468 C260.5,31.468 260.625,30.437 260.844,29.28 C261.063,28.123 260.844,24.374 260.844,20.655 L260.969,13.25 Z M280.563,30 C280.563,28.343 281.906,27 283.563,27 C285.22,27 286.563,28.343 286.563,30 C286.563,31.657 285.22,33 283.563,33 L283.563,33 L283.5,33 C283.5,33 283.5,33 283.499,33 C281.877,33 280.561,31.685 280.561,30.062 C280.561,30.04 280.561,30.018 280.562,29.996 L280.562,29.999 L280.563,30 Z M286.125,30 L286.125,29.937 C286.125,28.522 284.978,27.374 283.562,27.374 C282.146,27.374 280.999,28.521 280.999,29.937 C280.999,31.352 282.146,32.5 283.562,32.5 L283.562,32.5 C284.968,32.5 286.093,31.375 286.125,30 Z M285.031,31.594 L284.468,31.594 L283.499,30.063 L282.936,30.063 L282.936,31.594 L282.498,31.594 L282.498,28.344 L283.873,28.344 C284.467,28.344 285.029,28.344 285.029,29.219 C285.029,30.094 284.591,30.125 284.029,30.125 L285.031,31.594 Z M283.5,29.625 C283.875,29.625 284.594,29.625 284.594,29.156 C284.594,28.687 284.156,28.781 283.813,28.781 L282.938,28.781 L282.938,29.625 L283.5,29.625 Z" id="horseshoe-7" fill="#343840"></path>
</svg>