<svg xmlns="http://www.w3.org/2000/svg" viewBox="0 0 92 63">
<path d="M68.8944062,54.38 C73.1930729,54.38 77.0930729,53.392 80.5944062,51.416 C84.0957396,49.44 86.8517396,46.7013333 88.8624062,43.2 C90.8730729,39.6986667 91.8784062,35.7986667 91.8784062,31.5 C91.8784062,27.2013333 90.8730729,23.3013333 88.8624062,19.8 C86.8517396,16.2986667 84.0957396,13.56 80.5944062,11.584 C77.0930729,9.608 73.1930729,8.62 68.8944062,8.62 C63.6944062,8.62 59.3090729,9.62533333 55.7384063,11.636 C52.1677396,13.6466667 48.9610729,16.42 46.1184063,19.956 C43.4144063,16.42 40.2770729,13.6466667 36.7064062,11.636 C33.1357396,9.62533333 28.7504063,8.62 23.5504062,8.62 C19.1824062,8.62 15.2130729,9.608 11.6424063,11.584 C8.07173958,13.56 5.28107292,16.2813333 3.27040625,19.748 C1.25973958,23.2146667 0.25440625,27.132 0.25440625,31.5 C0.25440625,35.7986667 1.25973958,39.6986667 3.27040625,43.2 C5.28107292,46.7013333 8.07173958,49.44 11.6424063,51.416 C15.2130729,53.392 19.1824062,54.38 23.5504062,54.38 C28.7504063,54.38 33.1357396,53.3746667 36.7064062,51.364 C40.2770729,49.3533333 43.4144063,46.58 46.1184063,43.044 C48.9610729,46.58 52.1677396,49.3533333 55.7384063,51.364 C59.3090729,53.3746667 63.6944062,54.38 68.8944062,54.38 Z M24.9024062,40.652 C22.3370729,40.652 20.1877396,39.7853333 18.4544062,38.052 C16.7210729,36.3186667 15.8544063,34.1346667 15.8544063,31.5 C15.8544063,28.8653333 16.7210729,26.6813333 18.4544062,24.948 C20.1877396,23.2146667 22.3370729,22.348 24.9024062,22.348 C27.6757396,22.348 30.0677396,23.128 32.0784063,24.688 C34.0890729,26.248 36.1344062,28.5186667 38.2144063,31.5 C36.1344062,34.4813333 34.0890729,36.752 32.0784063,38.312 C30.0677396,39.872 27.6757396,40.652 24.9024062,40.652 Z M67.2304062,40.652 C64.4570729,40.652 62.0477396,39.872 60.0024063,38.312 C57.9570729,36.752 55.9637396,34.4813333 54.0224063,31.5 C55.9637396,28.5186667 57.9570729,26.248 60.0024063,24.688 C62.0477396,23.128 64.4570729,22.348 67.2304062,22.348 C69.7957396,22.348 71.9277396,23.2146667 73.6264062,24.948 C75.3250729,26.6813333 76.1744063,28.8653333 76.1744063,31.5 C76.1744063,34.1346667 75.3250729,36.3186667 73.6264062,38.052 C71.9277396,39.7853333 69.7957396,40.652 67.2304062,40.652 Z" fill="#343840" fill-rule="nonzero"></path>
</svg>
