<svg xmlns="http://www.w3.org/2000/svg" xmlns:xlink="http://www.w3.org/1999/xlink" viewBox="0 0 66 70" version="1.1" class="injected-svg" data-src="/content/dam/empire/logos/logo-train/isle.svg">
  <path fill="#343840" d="M66.3157895,35 C66.3157895,54.3277778 51.4684211,70 33.1578947,70 C14.8473684,70 0,54.3277778 0,35 C0,15.6722222 14.8473684,0 33.1578947,0 C51.4684211,0 66.3157895,15.6722222 66.3157895,35 Z M60.0526316,36.4777778 C59.5,36.4777778 59.0578947,36.9444444 59.0578947,37.5277778 C59.0578947,38.1111111 59.5,38.5777778 60.0526316,38.5777778 C60.0526316,38.5777778 60.0526316,38.5777778 60.0526316,38.5777778 C60.6052632,38.5777778 61.0473684,38.1111111 61.0473684,37.5277778 C61.0473684,36.9444444 60.6052632,36.4777778 60.0526316,36.4777778 C60.0526316,36.4777778 60.0526316,36.4777778 60.0526316,36.4777778 Z M60.0526316,36.7111111 C60.4947368,36.7111111 60.8263158,37.1 60.8263158,37.5277778 C60.8263158,37.5277778 60.8263158,37.5277778 60.8263158,37.5666667 C60.8263158,38.0333333 60.5315789,38.3833333 60.0894737,38.4222222 C60.0894737,38.4222222 60.0526316,38.4222222 60.0526316,38.4222222 C59.6105263,38.3833333 59.2789474,37.9944444 59.3157895,37.5277778 C59.3526316,37.0611111 59.6473684,36.7111111 60.0526316,36.7111111 L60.0526316,36.7111111 Z M59.9052632,37.6833333 L60.0157895,37.6833333 C60.1631579,37.6833333 60.2,37.7222222 60.2368421,37.8388889 C60.2368421,37.9166667 60.2736842,37.9944444 60.3105263,38.1111111 L60.5684211,38.1111111 C60.5315789,38.0333333 60.4947368,37.9555556 60.4947368,37.8388889 C60.4578947,37.6833333 60.4210526,37.6055556 60.3105263,37.5666667 C60.4210526,37.5277778 60.5315789,37.45 60.5315789,37.2944444 C60.5315789,37.2166667 60.4947368,37.1388889 60.4210526,37.0611111 C60.3105263,36.9833333 60.1631579,36.9444444 60.0526316,36.9833333 C59.9052632,36.9833333 59.7947368,36.9833333 59.6473684,37.0222222 L59.6473684,38.1111111 L59.8684211,38.1111111 L59.9052632,37.6833333 Z M59.9052632,37.1777778 C59.9421053,37.1777778 59.9789474,37.1777778 60.0526316,37.1777778 C60.2,37.1777778 60.2736842,37.2555556 60.2736842,37.3333333 C60.2736842,37.4111111 60.1631579,37.4888889 60.0526316,37.4888889 L59.9421053,37.4888889 L59.9421053,37.1777778 L59.9052632,37.1777778 Z M14.0736842,24.1111111 C13.4842105,24.1111111 12.9315789,24.3444444 12.5263158,24.7722222 C12.1210526,25.2 11.9,25.7444444 11.9,26.3277778 C11.8631579,27.5333333 12.7842105,28.5444444 13.9631579,28.5833333 C14,28.5833333 14,28.5833333 14.0368421,28.5833333 C14.5894737,28.5833333 15.1052632,28.35 15.5105263,27.9222222 C15.9157895,27.4944444 16.1368421,26.9111111 16.1,26.3277778 C16.1368421,25.1222222 15.2157895,24.1111111 14.0736842,24.1111111 C14.0736842,24.1111111 14.0736842,24.1111111 14.0736842,24.1111111 Z M12.0842105,54.0555556 L15.9894737,54.0555556 L15.9894737,31.6555556 L12.0842105,31.6555556 L12.0842105,54.0555556 Z M30.8,54.0555556 L34.7052632,54.0555556 L34.7052632,7.23333333 L30.8,7.23333333 L30.8,54.0555556 Z M27.7052632,7.23333333 L22.8421053,7.23333333 C19.6368421,12.3666667 18.3105263,16.6444444 18.3105263,22.4777778 C18.3105263,31.8111111 23.5789474,35.8166667 23.5789474,42.6222222 C23.5789474,47.4055556 21.7736842,50.9833333 19.3789474,54.0555556 L24.2421053,54.0555556 C26.6368421,50.9833333 28,47.3666667 28,42.6222222 C28,34.9222222 22.7315789,30.9166667 22.7315789,22.4777778 C22.7315789,16.6444444 24.5,12.3666667 27.7052632,7.23333333 L27.7052632,7.23333333 Z M54.8578947,44.9555556 C53.8263158,48.4944444 52.4631579,49.9722222 49.8473684,50.7111111 C49.2947368,50.8666667 48.7052632,50.9444444 48.1157895,50.9444444 C45.3157895,50.9444444 42.9578947,49.0777778 41.7421053,45.6166667 L57.8421053,41.4166667 L57.6210526,40.6 C56.2210526,34.9222222 52.4263158,31.3833333 47.7473684,31.3833333 C46.8631579,31.3833333 46.0157895,31.5 45.1684211,31.7333333 C40.4894737,32.9388889 37.5052632,37.3722222 37.5052632,42.4277778 C37.5052632,43.4777778 37.6157895,44.4888889 37.8736842,45.5 C39.1263158,50.9444444 43.1789474,54.5222222 47.8947368,54.5222222 C48.7421053,54.5222222 49.5526316,54.4055556 50.4,54.2111111 C54.3789474,53.2 57.0315789,50.4 58.1368421,46.0055556 L54.8578947,44.9555556 Z M46.0157895,35.1166667 C46.4578947,35 46.9368421,34.9222222 47.4157895,34.9222222 C49.6631579,34.9222222 51.8,36.3222222 53.2,38.8888889 L41.1894737,42 C41.2263158,38.6555556 43.1421053,35.8555556 46.0157895,35.1166667 L46.0157895,35.1166667 Z" id="isle-24"></path>
</svg>