<svg xmlns="http://www.w3.org/2000/svg" xmlns:xlink="http://www.w3.org/1999/xlink" viewBox="0 0 66 70" version="1.1" class="injected-svg" data-src="/content/dam/empire/logos/logo-train/isle_capri.svg">
  <path fill="#343840" d="M53.4922943,32.6022099 C52.3931375,32.6022099 51.9534748,33.7624309 51.9534748,34.9226519 C51.9534748,36.0828729 52.3931375,37.2430939 53.4922943,37.2430939 C54.591451,37.2430939 55.0311137,36.0828729 55.0311137,34.9226519 C55.0311137,33.7624309 54.591451,32.6022099 53.4922943,32.6022099 Z M54.1884269,36.3922652 C54.0418726,36.7790055 53.6388485,37.0110497 53.2358244,36.8563536 C53.015993,36.7790055 52.8694388,36.6243094 52.7961617,36.3922652 C52.6496074,35.9281768 52.5763303,35.4254144 52.6129689,34.9226519 C52.5763303,34.4198895 52.6496074,33.9171271 52.7961617,33.4530387 C52.9427159,33.0662983 53.34574,32.8342541 53.7487642,32.9889503 C53.9685955,33.0662983 54.1151498,33.2209945 54.1884269,33.4530387 C54.3349811,33.9171271 54.4082582,34.4198895 54.3716197,34.9226519 C54.3716197,35.4254144 54.2983425,35.9281768 54.1884269,36.3922652 L54.1884269,36.3922652 Z M66.2058738,34.961326 C66.2058738,54.2596685 51.3672579,69.9226519 33.0846176,69.9226519 C14.8386159,69.8839779 0,54.2596685 0,34.961326 C0,15.6629834 14.8019773,0 33.0846176,0 C51.3672579,0 66.2058738,15.6629834 66.2058738,34.961326 L66.2058738,34.961326 L66.2058738,34.961326 Z M55.2143065,39.0220994 C55.2143065,39.3314917 55.4707764,39.6022099 55.7638849,39.6022099 C56.0569933,39.6022099 56.3134632,39.3314917 56.3134632,39.0220994 C56.3134632,38.7127072 56.0569933,38.441989 55.7638849,38.441989 C55.4341378,38.441989 55.2143065,38.6740331 55.2143065,39.0220994 C55.1776679,38.9834254 55.1776679,38.9834254 55.2143065,39.0220994 L55.2143065,39.0220994 Z M56.166909,39.0220994 C56.166909,39.2541436 55.9837162,39.4475138 55.7272463,39.4475138 C55.5074149,39.4475138 55.3242222,39.2541436 55.3242222,38.9834254 C55.3242222,38.7513812 55.5074149,38.558011 55.7272463,38.558011 C55.9837162,38.558011 56.166909,38.7513812 56.166909,39.0220994 C56.1302704,39.0220994 56.1302704,39.0220994 56.166909,39.0220994 L56.166909,39.0220994 Z M55.8738005,39.3314917 L55.9837162,39.3314917 L55.8005234,39.0607735 C55.9104391,39.0607735 55.9837162,38.9834254 55.9837162,38.8674033 C55.9837162,38.7513812 55.9104391,38.6740331 55.7638849,38.6740331 L55.5440535,38.6740331 L55.5440535,39.3314917 L55.6539692,39.3314917 L55.6539692,39.0607735 L55.7638849,39.0607735 L55.8738005,39.3314917 Z M55.6173306,38.9447514 L55.6173306,38.7513812 L55.7272463,38.7513812 C55.8005234,38.7513812 55.8738005,38.7513812 55.8738005,38.8287293 C55.8738005,38.9060773 55.8005234,38.9447514 55.7272463,38.9447514 L55.6173306,38.9447514 Z M14.5088689,18.7569061 L9.63594068,18.7569061 L9.63594068,19.5690608 L11.2846758,19.5690608 L11.2846758,36.3922652 L9.63594068,36.3922652 L9.63594068,37.2044199 L16.157604,37.2044199 L16.157604,36.3922652 L14.5088689,36.3922652 L14.5088689,18.7569061 Z M17.7697005,29.7790055 L17.7697005,36.160221 C19.5283513,37.1657459 21.4701948,37.7458564 23.4853155,37.7458564 C27.6254725,37.7458564 30.6298343,35.2707182 30.6298343,31.558011 C30.6298343,25.2154696 19.968014,26.7624309 19.968014,22.198895 C19.968014,20.1878453 22.0197732,18.9116022 24.1814481,18.9116022 C26.6362315,18.9116022 27.002617,19.839779 28.4681593,25.2154696 L29.4207618,25.2154696 L29.4207618,19.4143646 C27.8819424,18.6022099 26.1965688,18.1767956 24.4745566,18.1767956 C20.5175923,18.1767956 17.7330619,20.3425414 17.7330619,23.9779006 C17.7330619,30.1270718 28.3948822,29.3535912 28.3948822,32.8729282 C28.3948822,35.5027624 26.4164001,36.9723757 23.7051468,36.9723757 C20.5908694,36.9723757 19.9313754,35.8895028 18.6856644,29.7790055 L17.7697005,29.7790055 Z M35.9790637,12.0662983 L31.0694969,12.0662983 L31.0694969,12.878453 L32.718232,12.878453 L32.718232,36.3922652 L31.0694969,36.3922652 L31.0694969,37.2044199 L37.5911602,37.2044199 L37.5911602,36.3922652 L35.9424251,36.3922652 L35.9790637,12.0662983 Z M51.9168363,26.2209945 C51.9168363,21.0773481 49.3887758,18.1767956 45.4684501,18.1767956 C41.4382088,18.1767956 38.1041,22.160221 38.1041,27.961326 C38.1041,33.7624309 41.2183774,37.7458564 45.6150044,37.7458564 C49.1323059,37.7458564 51.9168363,35.2707182 52.0633905,30.281768 L51.2939808,30.281768 C50.9275952,34.7679558 48.8391974,36.7403315 45.9081128,36.7403315 C43.3067752,36.7403315 41.6580401,34.3038674 41.6580401,27.3038674 C41.6580401,26.9558011 41.6580401,26.5690608 41.6946787,26.2209945 L51.9168363,26.2209945 Z M41.7313172,25.4088398 C42.0244257,21.1933702 43.2701367,18.9502762 45.395173,18.9502762 C47.1904623,18.9502762 48.3262576,20.3812155 48.3262576,23.9779006 L48.3262576,25.4088398 L41.7313172,25.4088398 Z M56.9729573,31.2099448 C56.7897645,31.1325967 56.5699331,31.0552486 56.3501018,31.0552486 C56.0569933,31.0552486 55.8005234,31.1325967 55.6173306,31.3646409 C55.4341378,31.6353591 55.3242222,31.9447514 55.3608607,32.2541436 L55.3608607,32.718232 L55.0311137,32.718232 L55.0311137,33.0276243 L55.3608607,33.0276243 L55.3608607,36.7403315 L55.0311137,36.7403315 L55.0311137,37.1270718 L56.5699331,37.1270718 L56.5699331,36.8176796 L56.0203548,36.8176796 L56.0203548,33.1049724 L56.826403,33.1049724 L56.826403,32.7955801 L56.0203548,32.7955801 L56.0203548,31.8674033 C56.0203548,31.558011 56.1302704,31.480663 56.2768247,31.441989 C56.4233789,31.4033149 56.4233789,31.441989 56.496656,31.5966851 C56.5699331,31.7513812 56.6432102,31.9834254 56.7897645,32.4088398 L56.7897645,32.4475138 L57.0462344,32.4475138 L56.9729573,31.2099448 L56.9729573,31.2099448 Z M22.4960744,38.7900552 C21.5434719,38.441989 20.5542309,38.0939227 19.6016284,38.0939227 C16.4507124,38.0939227 14.5088689,40.5303867 14.5088689,44.0883978 C14.5088689,47.6464088 16.3041582,50.0828729 19.1253271,50.0828729 C21.1038092,50.0828729 22.6059901,48.6906077 22.6059901,45.558011 L22.1296889,45.558011 C22.0564117,48.2265193 21.0305321,49.4640884 19.381797,49.4640884 C17.6597848,49.4640884 16.6339052,47.9558011 16.6339052,43.8950276 C16.6339052,39.9889503 17.9895318,38.6353591 19.2718814,38.6353591 C20.3710381,38.6353591 20.8107008,38.9834254 21.8365804,42.8895028 L22.4227973,42.8895028 L22.4960744,38.7900552 Z M25.4271591,42.4640884 C26.4530387,39.3701657 26.8194243,38.558011 28.2849666,38.558011 C29.3841233,38.558011 30.1168944,39.1381215 30.1168944,40.5303867 L30.1168944,42.8508287 C28.0284967,44.2044199 23.7051468,43.0828729 23.7051468,46.9502762 C23.7051468,48.8839779 25.0241349,50.0441989 26.8927014,50.0441989 C28.3216051,50.0441989 29.6039546,49.1160221 30.0802559,47.7237569 L30.1168944,47.7237569 L30.1168944,49.6574586 L32.9747019,49.6574586 L32.9747019,49.1546961 L31.9488223,49.1546961 L31.9488223,40.878453 C31.9488223,39.4861878 30.7763885,38.0552486 28.1384123,38.0552486 C27.0392556,38.0939227 25.9400989,38.3646409 24.9142192,38.8674033 L24.9142192,42.4640884 L25.4271591,42.4640884 Z M30.153533,45.1325967 C30.153533,47.5690608 29.0910148,49.2320442 27.5155568,49.2707182 C26.4164001,49.2707182 25.8301832,48.6519337 25.8301832,46.9889503 C25.8301832,43.8176796 27.7720268,44.6298343 30.153533,43.4696133 L30.153533,45.1325967 Z M37.4812445,54.9558011 L37.4812445,54.4530387 L36.3088107,54.4530387 L36.3088107,48.4585635 L36.3454493,48.4585635 C36.7484734,49.4640884 37.7010759,50.0828729 38.7269555,50.0441989 C40.8519919,50.0441989 42.830474,47.9558011 42.830474,44.0497238 C42.830474,40.7237569 41.3282931,38.0552486 38.7635941,38.0552486 C37.6644373,37.9779006 36.6751963,38.6740331 36.2721721,39.718232 L36.2355336,39.718232 L36.2355336,38.4033149 L33.3410875,38.4033149 L33.3410875,38.9060773 L34.3669671,38.9060773 L34.3669671,54.4143646 L33.3410875,54.4143646 L33.3410875,54.9171271 L37.4812445,54.9171271 L37.4812445,54.9558011 Z M40.6687991,44.0883978 C40.6687991,48.3038674 39.8993894,49.4640884 38.5071242,49.4640884 C37.114859,49.4640884 36.3088107,47.9558011 36.3088107,44.0883978 C36.3088107,39.718232 37.1514975,38.7127072 38.3972085,38.7127072 C39.8627508,38.7127072 40.6687991,40.3756906 40.6687991,44.0883978 Z M44.4425705,49.2320442 L43.3067752,49.2320442 L43.3067752,49.7348066 L47.8133178,49.7348066 L47.8133178,49.2320442 L46.4210526,49.2320442 L46.4210526,42.5414365 C46.4210526,40.5303867 47.2637395,38.9060773 48.1064263,38.9060773 C48.6193661,38.9060773 48.8025589,39.4088398 49.205583,40.5690608 L49.9383542,42.8508287 L50.4146554,42.8508287 L50.4146554,38.480663 C49.9383542,38.2486188 49.4620529,38.1325967 48.9491131,38.0939227 C47.5934865,38.0939227 46.8607153,38.7900552 46.4210526,40.1049724 L46.3844141,40.1049724 L46.3844141,38.441989 L43.3434138,38.441989 L43.3434138,38.9447514 L44.4792091,38.9447514 L44.4425705,49.2320442 Z M54.4815353,38.441989 L51.5138122,38.441989 L51.5138122,38.9447514 L52.5396918,38.9447514 L52.5396918,49.2320442 L51.5138122,49.2320442 L51.5138122,49.7348066 L55.5074149,49.7348066 L55.5074149,49.2320442 L54.4815353,49.2320442 L54.4815353,38.441989 Z M10.9549288,14.6187845 C10.9549288,15.7790055 11.8342541,16.7071823 12.8967723,16.7071823 C13.995929,16.7071823 14.8752544,15.7790055 14.8752544,14.6574586 C14.8752544,13.5359116 13.995929,12.5690608 12.9334109,12.5690608 L12.9334109,12.5690608 C11.8708927,12.5303867 10.9915673,13.3812155 10.9549288,14.5027624 C10.9549288,14.5414365 10.9549288,14.5801105 10.9549288,14.6187845 Z" id="isle_capri-22"></path>
</svg>