<svg xmlns="http://www.w3.org/2000/svg" xmlns:xlink="http://www.w3.org/1999/xlink" viewBox="0 0 86 63" version="1.1" class="injected-svg" data-src="/content/dam/empire/logos/logo-train/lady_luck.svg">
  <path fill="#343840" d="M83.6953096,34.8685714 C83.4011257,34.8685714 83.1804878,35.1257143 83.1804878,35.4342857 C83.1804878,35.7428571 83.425641,35.9742857 83.7198249,35.9742857 C84.0140088,35.9742857 84.2346467,35.7428571 84.2346467,35.4342857 C84.2346467,35.4342857 84.2346467,35.4342857 84.2346467,35.4085714 C84.259162,35.1 84.0385241,34.8428571 83.7443402,34.8428571 C83.7198249,34.8685714 83.6953096,34.8685714 83.6953096,34.8685714 Z M84.0875547,35.6914286 C84.0630394,35.6914286 84.0385241,35.7171429 84.0140088,35.7171429 C83.9159475,35.7171429 83.8424015,35.6657143 83.7933709,35.5885714 L83.7198249,35.4857143 C83.6953096,35.46 83.6953096,35.46 83.6462789,35.46 L83.6462789,35.64 L83.7198249,35.6657143 L83.7198249,35.7171429 L83.3766104,35.7171429 L83.3766104,35.6657143 L83.4501563,35.64 L83.4501563,35.1771429 L83.3766104,35.1514286 L83.3766104,35.1 L83.7198249,35.1 C83.8914321,35.1 83.9894934,35.1771429 83.9894934,35.28 C83.9894934,35.3828571 83.9159475,35.4085714 83.8424015,35.4342857 L83.9159475,35.5371429 C83.9894934,35.64 84.0385241,35.6657143 84.0875547,35.6657143 L84.0875547,35.6914286 Z M83.6953096,35.1771429 C83.6707942,35.1771429 83.6462789,35.1771429 83.6462789,35.1771429 L83.6462789,35.4085714 C83.6707942,35.4085714 83.6953096,35.4085714 83.6953096,35.4085714 C83.7443402,35.4085714 83.7933709,35.3571429 83.7933709,35.3057143 C83.7933709,35.2285714 83.7688555,35.1771429 83.6953096,35.1771429 L83.6953096,35.1771429 L83.6953096,35.1771429 Z M84.3327079,34.38 C83.9894934,34.1485714 83.572733,34.0971429 83.2050031,34.2771429 L83.0824265,34.3285714 L82.7621951,34.6084403 L82.5185741,34.9971429 L82.4940588,35.28 C82.4450281,36 82.9353346,36.6171429 83.5972483,36.6685714 C84.0385241,36.72 84.4552846,36.4885714 84.7004378,36.1285714 C85.0681676,35.5628571 84.8965604,34.7914286 84.3572233,34.4057143 C84.3572233,34.4057143 84.3572233,34.38 84.3327079,34.38 Z M83.6953096,36.0771429 C83.3520951,36.0771429 83.0579112,35.7942857 83.0579112,35.4085714 C83.0579112,35.0228571 83.3275797,34.74 83.6953096,34.74 C84.0385241,34.7142857 84.3327079,34.9971429 84.3572233,35.3571429 C84.3817386,35.7171429 84.11207,36.0257143 83.7688555,36.0514286 C83.7443402,36.0771429 83.7198249,36.0771429 83.6953096,36.0771429 Z M23.7798624,41.4514286 L22.7257036,40.0885714 L21.2547842,42.0171429 C22.0883052,41.8114286 22.9463415,41.6314286 23.7798624,41.4514286 Z M23.9514697,30.7542857 C23.7308318,30.8314286 23.5347092,30.96 23.3876173,31.14 C22.5050657,32.0657143 20.8135084,32.9142857 18.3864916,33.4285714 C15.0033771,34.1485714 10.4925578,34.1228571 9.36485303,34.1228571 C9.90419012,33.0171429 10.3209506,31.86 10.6151345,30.6771429 C11.7918699,26.2542857 12.3802376,24.0428571 13.5814884,19.6457143 C17.7490932,17.4857143 23.0934334,13.2171429 23.3385866,8.28 C23.4121326,6.76285714 22.3334584,5.63142857 20.4948093,5.96571429 C19.8819262,6.06857143 19.2935585,6.27428571 18.7297061,6.58285714 C13.9737336,9.20571429 12.6008755,13.6285714 11.7428393,16.74 C11.5467167,17.46 11.4486554,17.82 11.2525328,18.54 C9.97773609,18.9 8.9971232,18.8228571 8.94809256,17.4342857 C8.92357724,16.7142857 9.36485303,15.7885714 9.34033771,15.2742857 C9.34033771,14.9657143 9.16873046,14.7857143 8.85003127,14.8885714 C7.89393371,15.1714286 5.95722326,17.64 6.05528455,19.8 C6.12883052,21.6771429 7.52620388,21.9085714 9.19324578,21.42 C9.6590369,21.2914286 10.124828,21.1371429 10.5661038,20.9828571 C9.38936836,25.4314286 8.23714822,29.88 7.1094434,34.3285714 C6.22689181,34.4571429 5.34434021,34.6628571 4.48630394,34.9714286 C2.08380238,35.82 0.147091932,37.5428571 0.245153221,39.7028571 C0.294183865,40.8857143 1.56898061,41.2971429 3.16247655,40.68 C4.51081926,40.1657143 6.52107567,38.7514286 8.2126329,36.2057143 C11.0073796,36.4628571 14.7091932,37.08 17.7490932,36.4114286 C21.3773609,35.6142857 23.4121326,33.8657143 24.1966229,31.4742857 C24.2456535,31.3714286 24.2701689,31.2428571 24.2701689,31.1142857 C24.2701689,30.8571429 24.1230769,30.7285714 23.9514697,30.7542857 L23.9514697,30.7542857 Z M14.8072545,15.5057143 C16.0085053,11.3914286 17.0381488,8.43428571 19.2200125,7.99714286 C20.0535335,7.81714286 20.7644778,8.20285714 20.7889931,9.54 C20.8135084,11.4171429 19.6122577,15.0685714 14.2434021,17.46 C14.46404,16.6885714 14.5621013,16.2771429 14.8072545,15.5057143 Z M4.02051282,38.5714286 C3.43214509,38.7771429 3.06441526,38.7 3.03989994,38.1085714 C3.01538462,37.5942857 3.35859912,36.8742857 4.41275797,36.4885714 C5.07467167,36.2828571 5.78561601,36.1542857 6.49656035,36.1542857 C5.76110069,37.44 4.75597248,38.2885714 4.02051282,38.5714286 L4.02051282,38.5714286 Z M80.7534709,32.2971429 C80.7534709,32.2971429 84.9946216,31.3714286 85.2642902,28.3885714 C85.3133208,27.8228571 84.8965604,26.9485714 83.9404628,26.5114286 C82.739212,25.9714286 80.7044403,26.2285714 77.7626016,28.8 L78.0077548,28.0542857 C81.9302064,24.9942857 85.1907442,20.6228571 85.7791119,15.5828571 C85.9262039,14.4 85.63202,13.6542857 85.1417136,13.4485714 C83.6462789,12.8057143 79.5277048,16.9457143 77.2968105,22.9114286 C76.193621,25.8428571 75.6542839,27.3342857 74.6001251,30.2914286 C73.0556598,31.2942857 71.4621639,31.4742857 70.2118824,31.0885714 C68.7164478,30.6514286 67.7113196,29.4171429 67.8338962,27.6942857 C67.9809881,25.3285714 69.7460913,22.7057143 71.5357098,23.2457143 C72.2466542,23.4514286 72.4182614,24.12 72.3692308,24.66 C72.2956848,25.74 71.6582864,25.6371429 71.4866792,25.56 L71.3150719,25.5085714 C71.0699187,25.4314286 70.8247655,25.56 70.7267042,25.8171429 C70.7021889,25.8685714 70.7021889,25.8942857 70.7021889,25.9457143 C70.6776735,26.4342857 71.1189493,27.1285714 71.9524703,27.4114286 C73.1292058,27.7714286 74.3549719,27.0771429 74.6981864,25.8428571 C74.747217,25.6628571 74.7717323,25.4828571 74.7717323,25.3285714 C74.8697936,23.9914286 73.7911194,22.6028571 72.2466542,22.1142857 C68.5203252,20.9571429 65.4313946,23.9657143 65.2107567,27.5657143 C65.2107567,27.7714286 65.2107567,27.9771429 65.2107567,28.1571429 C64.0340213,29.0057143 63.175985,29.3657143 62.7837398,29.2885714 C62.5385866,29.2371429 62.4405253,28.98 62.4650407,28.6971429 C62.5140713,27.6171429 64.8920575,23.1685714 65.7010632,21.6257143 C65.7991245,21.42 65.8726704,21.2142857 65.9217011,20.9828571 C65.9462164,20.5714286 65.6765478,20.3142857 65.2843027,20.2114286 C64.5733583,20.0314286 63.3721076,20.4942857 62.7101939,21.6771429 C60.7244528,25.2257143 58.1993746,28.26 57.2187617,28.08 C56.9245779,28.0285714 56.7774859,27.6942857 56.8020013,27.0257143 C56.9000625,24.8657143 58.763227,22.4228571 59.9399625,20.2885714 C60.0380238,20.1342857 60.1115697,19.9542857 60.1115697,19.7485714 C60.1360851,19.2857143 59.7438399,19.0028571 59.2780488,18.9 C57.5129456,18.5914286 55.6497811,19.7485714 55.6252658,20.4171429 C55.6252658,20.6742857 55.870419,20.8285714 56.1155722,20.88 C56.2136335,20.9057143 56.3607255,20.88 56.4342714,20.88 C56.5323327,20.88 56.6058787,20.9571429 56.6058787,21.06 C56.556848,21.2142857 56.5078174,21.3942857 56.4097561,21.5228571 C55.5026892,23.1171429 54.424015,25.3285714 54.350469,27.0514286 C54.2769231,28.6457143 54.9633521,29.5714286 55.9929956,29.7257143 C57.1697311,29.9057143 58.763227,29.1085714 60.356723,27.2057143 C60.209631,27.6428571 60.1115697,28.1314286 60.0625391,28.5942857 C60.0135084,29.6742857 60.4547842,30.4971429 61.656035,30.7285714 C62.5876173,30.9342857 63.9849906,30.4971429 65.5294559,29.4428571 C66.142339,30.9857143 67.441651,32.1171429 68.9861163,32.5285714 C70.6286429,32.9657143 72.3692308,32.8114286 73.9136961,32.0914286 L73.6685428,32.7857143 C73.5949969,32.94 73.5704816,33.0942857 73.5704816,33.2485714 C73.4969356,33.66 73.7666041,34.0457143 74.134334,34.1228571 C74.820763,34.3542857 75.9974984,34.02 76.3652283,32.94 L76.8310194,31.68 C77.2722952,30.42 79.6257661,28.1314286 81.4889306,27.9 C81.6115072,27.8742857 81.7585991,27.9 81.8811757,27.9514286 C82.1018136,28.0542857 82.2243902,28.2857143 82.1753596,28.5428571 C82.1018136,29.3914286 80.7289556,30.3942857 79.233521,30.9342857 C78.7186992,31.1142857 78.473546,31.4742857 78.4245153,32.0914286 C78.4245153,32.3485714 78.4490306,32.58 78.473546,32.8371429 C78.7186992,35.3314286 79.3560976,38.1085714 82.1753596,41.4257143 C82.2734209,41.5285714 82.3714822,41.6057143 82.4940588,41.6571429 C82.665666,41.7342857 82.9353346,41.7085714 82.9598499,41.4257143 C82.9598499,41.22 82.8863039,41.04 82.812758,40.86 C82.1998749,39.6 80.4347717,35.7942857 80.7534709,32.2971429 L80.7534709,32.2971429 Z M79.3560976,23.6571429 C80.7044403,19.3371429 82.2489056,16.3028571 82.7882427,16.5342857 C82.9353346,16.5857143 83.0088806,16.9457143 82.9353346,17.6142857 C82.7146967,20.1085714 81.0231395,22.9628571 78.7922452,25.38 L79.3560976,23.6571429 Z M64.6714196,32.4514286 C64.4752971,32.4257143 64.2546592,32.5028571 64.0830519,32.6057143 C63.1514697,33.1714286 61.4599124,33.3514286 59.0328956,32.9142857 C55.8459037,32.3228571 51.6292683,30.6514286 50.2073796,30.1114286 C50.5751094,29.4685714 50.8692933,28.8 51.0899312,28.08 C51.2370231,27.7714286 51.3595997,27.4371429 51.5066917,27.1028571 C52.977611,23.1685714 53.737586,21.2142857 55.2330206,17.3314286 C59.3025641,16.8942857 65.1372108,14.5028571 65.6520325,9.9 C65.8236398,8.38285714 64.8675422,6.89142857 63.0288931,6.50571429 C62.4405253,6.37714286 61.8521576,6.35142857 61.2392745,6.40285714 C56.3362101,7.09714286 54.6446529,10.9285714 53.5904941,13.68 C53.3453408,14.3228571 53.2227642,14.6314286 52.977611,15.2742857 C51.6537836,15.12 50.6976861,14.6571429 50.7467167,13.2428571 C50.771232,12.5228571 51.2615385,11.7771429 51.2860538,11.2371429 C51.3105691,10.9542857 51.1389619,10.6971429 50.8692933,10.6714286 C50.8692933,10.6714286 50.844778,10.6714286 50.844778,10.6714286 C49.8396498,10.5685714 47.7313321,12.24 47.6823014,14.4257143 C47.6332708,16.3028571 49.0306442,17.1257143 50.7467167,17.3057143 C51.2125078,17.3571429 51.7028143,17.4085714 52.1686054,17.4085714 C50.3789869,22.1142857 49.4964353,24.48 47.7803627,29.2628571 C46.8978111,29.0314286 45.9907442,28.9028571 45.0836773,28.8257143 C44.7159475,28.8 44.3237023,28.8257143 43.9559725,28.8514286 C44.1030644,28.3114286 44.2011257,28.0285714 44.3482176,27.4885714 C45.2552846,24.4542857 46.4075047,21.4971429 47.8293934,18.6685714 C47.9274547,18.5142857 47.9764853,18.3342857 48.0010006,18.1542857 C48.0010006,17.7428571 47.6823014,17.4857143 47.265541,17.46 C46.505566,17.4085714 45.7701063,17.82 45.0346467,18.8485714 C44.7159475,19.3371429 44.4462789,19.8514286 44.2011257,20.3914286 C42.4850532,23.7857143 40.3522201,26.6914286 39.4206379,26.7171429 C39.1019387,26.7171429 38.9303315,26.4085714 38.9303315,25.7142857 C38.9548468,23.5542857 40.7444653,20.7771429 41.8721701,18.4628571 C41.9457161,18.3085714 41.9702314,18.1285714 41.9947467,17.9485714 C41.9947467,17.46 41.6515322,17.2285714 41.1367104,17.2285714 C39.8619137,17.2285714 38.9303315,17.8457143 38.2684178,18.3342857 C37.753596,18.72 37.5329581,19.1057143 37.5329581,19.3628571 C37.5574734,19.62 37.753596,19.8 37.9987492,19.7742857 C37.9987492,19.7742857 37.9987492,19.7742857 37.9987492,19.7742857 C38.1213258,19.7485714 38.2439024,19.7228571 38.366479,19.6971429 C38.440025,19.6971429 38.4890557,19.7485714 38.513571,19.8257143 C38.513571,19.8257143 38.513571,19.8514286 38.513571,19.8514286 C38.4645403,20.0314286 38.4155097,20.1857143 38.3174484,20.34 C37.7290807,21.7028571 36.8955597,23.4771429 36.5523452,25.02 C35.620763,26.0228571 34.8117573,26.6914286 34.2233896,26.7428571 C33.6840525,26.7685714 33.2672921,26.0228571 33.1692308,23.7857143 C36.5278299,18.5914286 39.5186992,11.9057143 39.7883677,5.76 C39.8373984,4.55142857 39.3716073,3.90857143 39.0038774,3.98571429 C35.1304565,4.93714286 32.8750469,13.2428571 31.4531582,17.7171429 C31.134459,17.6914286 30.8157598,17.6914286 30.4970607,17.7171429 C27.2855535,18.0257143 23.7798624,22.2942857 23.8288931,26.0228571 C23.8288931,26.2028571 23.8534084,26.3571429 23.8779237,26.5371429 C22.8237649,27.7457143 22.0147592,28.3885714 21.6470294,28.4657143 C21.4263915,28.5171429 21.3528455,28.3628571 21.3528455,28.1828571 C21.3528455,27.8485714 22.0637899,25.4314286 22.1863665,24.9428571 C22.2353971,24.7628571 22.2844278,24.5571429 22.2844278,24.3514286 C22.2844278,23.94 22.0147592,23.7857143 21.6225141,23.8628571 C20.8625391,23.9914286 19.7838649,24.9685714 19.3916198,26.1771429 C18.8277674,27.9514286 17.6265166,29.34 16.8910569,29.4942857 C15.98399,29.7 15.5672295,28.7485714 15.5181989,27.6942857 C15.4691682,25.3542857 17.2342714,21.1371429 19.8083802,20.6485714 C20.5193246,20.52 21.2547842,20.6485714 21.2547842,21.3942857 C21.2792996,22.6028571 20.1515947,22.5 20.1761101,23.04 C20.2006254,23.58 20.9606004,23.5285714 21.4754221,23.4514286 C22.0392745,23.3485714 23.6327705,22.7057143 23.6082552,20.8285714 C23.5837398,19.3114286 22.1618512,18.7714286 20.3722326,19.1314286 C16.1065666,19.9285714 12.9440901,25.2771429 13.0421513,28.6971429 C13.091182,30.6514286 14.5130707,31.7571429 16.1310819,31.3714286 C17.1116948,31.14 18.0923077,30.3942857 18.876798,29.2628571 C18.9993746,30.1371429 19.5387117,30.6257143 20.5928705,30.4457143 C21.4999375,30.2657143 22.7747342,29.3657143 24.1721076,27.8485714 C24.662414,28.98 25.8146341,29.6485714 27.0158849,29.4685714 C28.2906817,29.3142857 29.688055,28.4142857 30.9138211,26.9742857 C31.3060663,28.1828571 32.0170106,28.9542857 33.0956848,28.8771429 C33.9537211,28.8257143 35.0323952,28.2342857 36.4052533,26.8714286 C36.5523452,28.08 37.1897436,28.6714286 38.0968105,28.6457143 C39.273546,28.62 40.8670419,27.5657143 42.4115072,25.3542857 C42.019262,26.7171429 41.6270169,28.1828571 41.2838024,29.5714286 C40.8425266,29.9057143 40.6218887,30.06 40.2051282,30.3942857 C36.7729831,33.0428571 35.6943089,35.3314286 35.5227017,36.5914286 C35.2040025,38.6228571 36.0375235,40.1142857 38.3909944,40.0628571 C40.3767355,40.0371429 41.8721701,37.9542857 42.6076298,34.2 C42.926329,32.6571429 43.0243902,32.2457143 43.2205128,31.4228571 L43.2450281,31.4228571 C43.3676048,30.9085714 43.7108193,30.3428571 44.8140088,30.3942857 C45.5004378,30.4457143 46.1868668,30.6 46.8487805,30.8571429 C46.2604128,31.7314286 45.3043152,32.2714286 44.2746717,32.2971429 L44.1030644,32.2971429 C43.7598499,32.2714286 43.5882427,32.4 43.5146967,32.7085714 C43.3921201,33.1714286 43.9804878,33.7628571 44.8385241,33.8142857 C46.358474,33.8914286 47.8293934,33.12 49.0306442,31.8342857 C51.8008755,33.1971429 55.2820513,35.1514286 58.1993746,35.6914286 C61.8521576,36.3342857 63.93596,35.3828571 64.8675422,33.3257143 C64.9165729,33.2228571 64.9410882,33.12 64.9656035,33.0171429 C65.0146341,32.7342857 64.8675422,32.5028571 64.6714196,32.4514286 L64.6714196,32.4514286 Z M56.70394,13.68 C58.1748593,10.08 59.4251407,7.53428571 61.5824891,7.97142857 C62.41601,8.15142857 63.102439,8.76857143 63.0288931,10.1314286 C62.9308318,12.0085714 61.5089431,15.1457143 56.0175109,15.4028571 L56.70394,13.68 Z M33.3653533,18.8228571 C34.100813,14.04 36.0375235,8.15142857 36.7484678,8.12571429 C36.8955597,8.12571429 37.0181363,8.43428571 36.9691057,8.97428571 C36.6504065,13.0885714 35.0569106,17.7171429 33.0956848,21.7028571 C33.1447154,20.7514286 33.2182614,19.7742857 33.3653533,18.8228571 Z M30.595122,22.2428571 C30.5706066,22.8857143 30.521576,23.6057143 30.521576,24.2485714 C30.521576,24.7371429 30.5460913,25.2 30.595122,25.6371429 C29.6145091,26.8714286 28.6584115,27.5657143 27.9229518,27.6428571 C26.9668543,27.7457143 26.3539712,26.82 26.3294559,25.2 C26.3049406,22.5514286 27.8248906,19.62 29.9577236,19.4142857 C30.3499687,19.3628571 30.8647905,19.5685714 30.8647905,20.16 C30.8647905,21.3685714 29.7125704,21.2142857 29.7125704,21.6771429 C29.688055,22.0628571 30.1783615,22.2171429 30.595122,22.2428571 L30.595122,22.2428571 Z M39.9109443,35.6657143 C39.5677298,37.3628571 39.0529081,38.2628571 38.4645403,38.2628571 C38.0477799,38.2628571 37.4594121,38.1085714 37.4839275,36.9 C37.4839275,36.0257143 37.9497186,34.6885714 39.3961226,33.1971429 C39.8128831,32.7342857 40.2541588,32.2971429 40.71995,31.9114286 C40.1560976,34.4571429 40.2541588,34.02 39.9109443,35.6657143 Z M30.6196373,16.6371429 L30.7667292,16.1742857 C30.9628518,15.5057143 31.1834897,14.8371429 31.4041276,14.1171429 L29.001626,16.9457143 C29.4183865,16.7914286 29.8596623,16.6885714 30.3254534,16.6371429 L30.6196373,16.6371429 Z M41.0631645,16.1742857 C41.8231395,16.2 42.4115072,16.5342857 42.7056911,17.0742857 C42.8282677,17.3057143 43.3676048,18.2057143 43.5146967,18.4114286 C43.612758,18.5657143 43.6863039,18.72 43.7353346,18.8742857 C43.8579112,18.6428571 43.9804878,18.4371429 44.1275797,18.2314286 C44.9611007,17.0485714 45.9417136,16.4314286 47.0449031,16.4314286 C46.7262039,15.8142857 46.5545966,15.1457143 46.6036273,14.4514286 C46.6771732,11.7514286 49.1777361,9.61714286 50.771232,9.64285714 L50.918324,9.64285714 C51.3841151,9.66857143 51.7763602,9.92571429 52.0460288,10.3114286 C52.217636,10.5685714 52.8550344,11.6485714 52.8550344,11.6485714 C52.9530957,11.7771429 53.051157,11.9571429 53.1001876,12.1114286 C53.1737336,11.9571429 53.2227642,11.8028571 53.2963102,11.6485714 L43.3921201,0 L40.2541588,3.70285714 C40.5483427,4.14 41.1121951,5.09142857 41.1612258,5.19428571 C41.5044403,5.81142857 41.6760475,6.55714286 41.6025016,7.27714286 C41.4554096,10.44 40.6709193,13.5514286 39.6167605,16.38 C40.1070669,16.2257143 40.572858,16.1742857 41.0631645,16.1742857 L41.0631645,16.1742857 Z M60.9450907,38.34 C60.2586617,38.3142857 59.5722326,38.2628571 58.9103189,38.1342857 C56.3116948,37.6714286 53.4188868,36.2057143 50.8692933,34.92 L50.084803,34.5085714 C48.7854909,35.6914286 47.2900563,36.3085714 45.7701063,36.2828571 L45.6475297,36.2828571 C45.2307692,36.2571429 44.8140088,36.1542857 44.4462789,35.9485714 C44.225641,37.1571429 43.8333959,38.3142857 43.3185741,39.42 L43.4166354,39.42 C49.5944966,39.42 55.7478424,40.0371429 61.803127,41.1942857 L65.6030019,36.72 C64.695935,37.6714286 63.249531,38.4171429 60.9450907,38.34 L60.9450907,38.34 Z M66.681676,35.1514286 L66.681676,35.1514286 C66.5345841,35.5114286 66.3384615,35.8457143 66.1178236,36.1542857 L67.7358349,34.2514286 C67.0494059,33.7885714 66.4855535,33.1971429 66.0197624,32.5028571 L65.9707317,32.5285714 C66.1668543,32.8371429 66.3874922,33.1457143 66.6326454,33.4542857 C66.828768,33.7628571 66.9268293,34.1228571 66.9023139,34.4828571 C66.8532833,34.6885714 66.8042527,34.92 66.681676,35.1514286 L66.681676,35.1514286 Z M43.3921201,50.5542857 L43.3921201,50.5542857 C40.033521,50.5542857 36.6749218,50.7342857 33.3653533,51.0942857 L43.3921201,62.9228571 L53.4434021,51.0685714 C50.1093183,50.7085714 46.7752345,50.5285714 43.4411507,50.5542857 L43.3921201,50.5542857 Z M34.8853033,39.3428571 C34.4440275,38.5457143 34.3214509,37.5428571 34.4930582,36.3857143 C34.6156348,35.5371429 35.2285178,33.4542857 37.9006879,30.9342857 C37.4839275,30.7542857 37.1161976,30.4457143 36.8465291,30.06 C35.8168856,30.8571429 34.8853033,31.2942857 34.027267,31.3457143 L33.7575985,31.3457143 C32.8750469,31.32 32.041526,30.8828571 31.5267042,30.1371429 C30.3989994,31.1657143 29.1732333,31.7828571 28.0210131,31.9114286 C27.8248906,31.9371429 27.6042527,31.9371429 27.4081301,31.9371429 C26.868793,31.9371429 26.3294559,31.8085714 25.8391495,31.5514286 C26.0843027,31.8342857 26.2068793,32.1685714 26.2068793,32.5542857 C26.2068793,32.7857143 26.1578487,33.0171429 26.0843027,33.2485714 C25.422389,35.2542857 24.0740463,36.7714286 22.0883052,37.8 L24.9811132,41.22 C28.3397123,40.5771429 31.7473421,40.0885714 35.1549719,39.78 C35.0078799,39.5742857 34.9098186,39.3942857 34.8853033,39.3428571 L34.8853033,39.3428571 Z M10.4190119,41.0657143 L13.2382739,44.5885714 L11.9389619,48.8057143 C15.2485303,47.7257143 17.3323327,47.1342857 20.0780488,46.5171429 L19.636773,42.3771429 L21.9166979,39.3942857 L21.9902439,39.2914286 L21.1076923,38.2371429 C17.7490932,39.0342857 14.2188868,39.96 10.4190119,41.0657143 L10.4190119,41.0657143 Z M76.4632896,41.0657143 C72.6388993,39.9342857 69.0841776,39.0085714 65.7010632,38.2371429 L64.7939962,39.3171429 L64.8675422,39.42 L67.1229518,42.3771429 L67.1719825,42.4028571 L66.7307067,46.5171429 C69.5254534,47.1342857 71.5847405,47.7257143 74.9188243,48.8057143 C74.4040025,47.1085714 73.6195122,44.5885714 73.6195122,44.5885714 L76.4632896,41.0657143 Z M42.7056911,40.5 C42.2153846,41.2457143 41.5534709,41.8371429 40.7689806,42.1971429 C40.3710386,42.4073281 39.9379345,42.5444709 39.4696685,42.6085714 C39.4031482,42.6085714 39.2805716,42.6085714 39.1019387,42.6085714 C37.4839275,42.5828571 36.6013759,41.8885714 36.1355847,41.3228571 C36.0620388,41.2457143 35.9639775,41.0657143 35.8414009,40.8857143 C30.7667292,41.2971429 25.7165729,42.0942857 20.7644778,43.3028571 C20.7644778,44.0742857 21.7941213,52.0457143 21.7941213,52.0457143 C28.9280801,50.3742857 36.1846154,49.5514286 43.4901814,49.5514286 L43.539212,49.5514286 C50.844778,49.5514286 58.1013133,50.4 65.235272,52.0457143 C65.235272,52.0457143 66.2649156,44.0742857 66.2649156,43.3028571 C58.7141964,41.4514286 51.0899312,40.5 43.4411507,40.5 L42.7056911,40.5 Z M63.1514697,41.4514286 L64.2056285,40.0885714 L65.6765478,42.0171429 C64.8430269,41.8114286 64.0095059,41.6314286 63.1514697,41.4514286 Z" id="lady_luck-23"></path>
</svg>