<svg xmlns="http://www.w3.org/2000/svg" xmlns:xlink="http://www.w3.org/1999/xlink" viewBox="0 0 50 18" version="1.1" class="injected-svg" data-src="/content/dam/empire/logos/brand-logos/linq.svg">
    <!-- Generator: Sketch 57.1 (83088) - https://sketch.com -->
    <title>The Linq</title>
    <desc>Created with Sketch.</desc>
    <defs>
        <path d="M15.0866667,17.0454545 L13.8194444,17.0454545 L13.8194444,7.12472727 L15.0694444,7.12472727 L15.0866667,17.0454545 Z M21.9616667,6.648 L29.5483333,14.4550909 L29.5483333,7.12527273 L30.7983333,7.12527273 L30.7983333,17.4550909 L23.2288889,9.71618182 L23.2288889,17.1141818 L21.9788889,17.1141818 L21.9616667,6.648 Z M46.8055556,17.0454545 L45.9372222,16.1929091 C45.0822222,16.8114545 44.0088889,17.1823636 42.8466667,17.1823636 C39.975,17.1823636 37.6427778,14.916 37.6038889,12.1052727 L37.6038889,12.1014545 C37.6188889,9.24109091 39.9838889,6.92781818 42.8988889,6.92781818 C45.8233333,6.92781818 48.1938889,9.25527273 48.1938889,12.1265455 C48.1938889,12.1352727 48.1938889,12.1445455 48.1938889,12.1532727 L48.1938889,12.1516364 C48.1938889,13.4814545 47.6555556,14.6912727 46.7877778,15.5776364 L48.4372222,17.0438182 L46.8055556,17.0454545 Z M45.8505556,14.7616364 C46.525,14.0541818 46.9388889,13.1001818 46.9388889,12.0512727 C46.9388889,9.858 45.1277778,8.07981818 42.8938889,8.07981818 C40.66,8.07981818 38.8488889,9.858 38.8488889,12.0512727 C38.8488889,12.1232727 38.8511111,12.1947273 38.8544444,12.2656364 L38.8538889,12.2558182 C38.9388889,14.3929091 40.7238889,16.0936364 42.9133333,16.0936364 C42.9633333,16.0936364 43.0127778,16.0925455 43.0622222,16.0909091 L43.055,16.0909091 C43.8016667,16.0396364 44.4788889,15.8012727 45.0688889,15.426 L42.8811111,13.5 L42.8811111,12.102 L45.8505556,14.7616364 Z M0,7.12527273 L1.31944444,7.12527273 L1.31944444,15.9207273 L7.01388889,15.9207273 L7.01388889,17.046 L0,17.046 L0,7.12527273 Z M1.11111111,0.340909091 L0,0.340909091 L0,0 L2.56944444,0 L2.56944444,0.340909091 L1.47555556,0.340909091 L1.47555556,3.23890909 L1.11111111,3.23890909 L1.11111111,0.340909091 Z M4.67,0 L5.03444444,0 L5.03444444,1.43181818 L6.94444444,1.43181818 L6.94444444,0 L7.30888889,0 L7.30888889,3.23890909 L6.94444444,3.23890909 L6.94444444,1.77272727 L5.05222222,1.77272727 L5.05222222,3.23890909 L4.67,3.23890909 L4.67,0 Z M9.63555556,0 L12.0138889,0 L12.0138889,0.324 L10.0172222,0.324 L10.0172222,1.43181818 L11.7883333,1.43181818 L11.7883333,1.75581818 L10.0172222,1.75581818 L10.0172222,2.88109091 L12.0311111,2.88109091 L12.0311111,3.23890909 L9.635,3.23890909 L9.63555556,0 Z M48.2988889,7.56818182 C48.2988889,7.56327273 48.2988889,7.55727273 48.2988889,7.55127273 C48.2988889,7.12745455 48.6488889,6.78436364 49.08,6.78436364 C49.5111111,6.78436364 49.8611111,7.128 49.8611111,7.55127273 C49.8611111,7.97509091 49.5116667,8.31818182 49.08,8.31818182 L49.0627778,8.31818182 C48.6461111,8.31818182 48.2988889,7.99418182 48.2988889,7.58509091 L48.2988889,7.56818182 Z M49.7394444,7.56818182 L49.7394444,7.55127273 C49.7394444,7.19345455 49.4438889,6.90327273 49.0794444,6.90327273 C48.715,6.90327273 48.4194444,7.19345455 48.4194444,7.55127273 C48.4194444,7.90909091 48.715,8.19927273 49.0794444,8.19927273 L49.0794444,8.19927273 C49.4438889,8.19927273 49.7216667,7.90963636 49.7394444,7.56872727 L49.7394444,7.56818182 Z M49.4794444,7.96036364 L49.3233333,7.96036364 L49.08,7.58509091 L48.9238889,7.58509091 L48.9238889,7.96036364 L48.8194444,7.96036364 L48.8194444,7.14218182 L49.1838889,7.14218182 C49.3227778,7.14218182 49.4788889,7.14218182 49.4788889,7.36363636 C49.4788889,7.58509091 49.3572222,7.60254545 49.2183333,7.60254545 L49.4794444,7.96036364 Z M49.08,7.46618182 C49.1844444,7.46618182 49.3577778,7.46618182 49.3577778,7.34672727 C49.3577778,7.22727273 49.2361111,7.26163636 49.1666667,7.26163636 L48.9233333,7.26163636 L48.9233333,7.46618182 L49.08,7.46618182 Z" id="path-1-12"></path>
    </defs>
    <g id="ðŸ“Symbols" stroke="none" stroke-width="1" fill="none" fill-rule="evenodd">
        <g id="Atom/Logo/Linq">
            <mask id="mask-2-11" fill="white">
                <use xlink:href="#path-1-12"></use>
            </mask>
            <use id="Shape" fill="#BEC0C5" fill-rule="evenodd" xlink:href="#path-1-12"></use>
        </g>
    </g>
</svg>