<svg xmlns="http://www.w3.org/2000/svg" viewBox="0 0 496 512" class="injected-svg" data-src="/content/dam/empire/icon-library/fontawesome-light/map-marker-alt.svg" xmlns:xlink="http://www.w3.org/1999/xlink"><path fill="currentColor" d="M288.408805,487.100106 C414.761256,284.506366 438.499092,262.547488 438.499092,192.000606 C438.499092,86.7330572 353.157605,1.50105977 247.999546,1.50105977 C142.731997,1.50105977 57.5,86.8425464 57.5,192.000606 C57.5,262.562022 81.3037228,284.61198 207.589318,487.100106 C226.226702,516.98387 269.792737,516.94802 288.408805,487.100106 Z M247.999546,461.874962 C121.571518,259.157199 105.124886,246.36053 105.124886,192.000606 C105.124886,113.092819 169.09176,49.1259462 247.999546,49.1259462 C326.907332,49.1259462 390.874205,113.092819 390.874205,192.000606 C390.874205,246.127018 375.82671,256.914124 247.999546,461.874962 Z M247.999546,271.375416 C291.836882,271.375416 327.374357,235.837942 327.374357,192.000606 C327.374357,148.16327 291.836882,112.625795 247.999546,112.625795 C204.16221,112.625795 168.624735,148.16327 168.624735,192.000606 C168.624735,235.837942 204.16221,271.375416 247.999546,271.375416 Z"></path></svg>