<svg xmlns="http://www.w3.org/2000/svg" xmlns:xlink="http://www.w3.org/1999/xlink" viewBox="0 0 135 57" version="1.1">
    <title>Caesars Palace Las Vegas Logo</title>
    <path d="M74,12.2631579 L74,12.2631579 L67.9473684,6.26315789 L71.0526316,3.21052632 L67.8421053,0 L64.7894737,3.05263158 L64.7894737,3.05263158 L61.4210526,6.42105263 L67.4210526,12.4736842 L63.4736842,16.4736842 L66.7368421,19.7368421 L74.1052632,12.3684211 L74,12.2631579 Z M134.526316,12.2631579 L134.526316,12.2631579 L128.526316,6.26315789 L131.578947,3.21052632 L128.368421,0 L125.315789,3.05263158 L125.315789,3.05263158 L121.947368,6.42105263 L128,12.4736842 L124,16.4736842 L127.263158,19.7368421 L134.631579,12.3684211 L134.526316,12.2631579 Z M12.8947368,16.4736842 L6.31578947,9.89473684 L12.8947368,3.31578947 L9.73684211,0.157894737 L0,9.89473684 L3.15789474,13.0526316 L3.15789474,13.0526316 L9.73684211,19.6315789 L12.8947368,16.4736842 Z M54.1578947,16.4736842 L49.3157895,11.6842105 L53.8421053,11.6842105 L53.8421053,8.10526316 L49.3157895,8.10526316 L54.1052632,3.31578947 L50.9473684,0.157894737 L41.2105263,9.89473684 L44.3684211,13.0526316 L44.3684211,13.0526316 L51,19.6315789 L54.1578947,16.4736842 Z M26.6842105,12.7368421 L28.3157895,8.42105263 L30,12.7368421 L26.6842105,12.7368421 Z M32.7368421,19.5263158 L37.0526316,17.7894737 L30.7368421,1.42105263 L26,1.42105263 L19.6842105,17.7894737 L24.1052632,19.5263158 L25.2631579,16.4736842 L31.5263158,16.4736842 L32.7368421,19.5263158 Z M85.8421053,12.7368421 L87.4736842,8.42105263 L89.1578947,12.7368421 L85.8421053,12.7368421 Z M91.8421053,19.5263158 L96.1578947,17.7894737 L89.8421053,1.42105263 L85.1578947,1.42105263 L78.8421053,17.7894737 L83.2631579,19.5263158 L84.4210526,16.4736842 L90.6842105,16.4736842 L91.8421053,19.5263158 Z M107.368421,10.5263158 L110.105263,8.05263158 L107.368421,5.57894737 L107.368421,10.5263158 Z M115.578947,16.2631579 L111.789474,19.5789474 L107.368421,14.8947368 L107.368421,17.6842105 L102.631579,19.5789474 L102.631579,1.42105263 L109.736842,1.42105263 L114.736842,6.05263158 L114.736842,9.73684211 L112.052632,12.4210526 L115.578947,16.2631579 Z M123.368421,40.8421053 L123.631579,40.8421053 L123.631579,40.2631579 L123.842105,40.2631579 C123.947368,40.2631579 124.052632,40.2631579 124.157895,40.3157895 C124.263158,40.3684211 124.315789,40.4736842 124.315789,40.6842105 L124.315789,40.7894737 L124.315789,40.8421053 L124.315789,40.8421053 L124.315789,40.8421053 L124.578947,40.8421053 L124.578947,40.8421053 C124.578947,40.8421053 124.578947,40.7894737 124.578947,40.7894737 L124.578947,40.5789474 C124.578947,40.4736842 124.526316,40.4210526 124.473684,40.3684211 C124.421053,40.2631579 124.315789,40.2105263 124.210526,40.2105263 C124.263158,40.2105263 124.368421,40.1578947 124.421053,40.1578947 C124.526316,40.1052632 124.578947,40 124.578947,39.8421053 C124.578947,39.6842105 124.473684,39.5263158 124.368421,39.4736842 C124.263158,39.4210526 124.105263,39.4210526 123.947368,39.4210526 L123.421053,39.4210526 L123.368421,40.8421053 Z M124.105263,40.0526316 C124,40.1052632 123.947368,40.1052632 123.842105,40.1052632 L123.631579,40.1052632 L123.631579,39.5789474 L123.842105,39.5789474 C123.947368,39.5789474 124.052632,39.5789474 124.157895,39.6315789 C124.210526,39.6842105 124.263158,39.7894737 124.263158,39.8421053 C124.263158,39.9473684 124.210526,40 124.105263,40.0526316 M124.842105,39.1578947 C124.315789,38.6315789 123.473684,38.6315789 122.947368,39.1578947 C122.421053,39.6842105 122.421053,40.5263158 122.947368,41.0526316 C123.210526,41.3157895 123.526316,41.4736842 123.894737,41.4736842 C124.631579,41.4736842 125.263158,40.8421053 125.263158,40.1052632 C125.263158,39.7368421 125.105263,39.4210526 124.842105,39.1578947 M124.736842,39.3157895 C125.210526,39.7894737 125.210526,40.5263158 124.736842,40.9473684 C124.736842,40.9473684 124.736842,40.9473684 124.736842,40.9473684 C124.526316,41.1578947 124.210526,41.3157895 123.894737,41.2631579 C123.578947,41.2631579 123.263158,41.1578947 123.052632,40.9473684 C122.842105,40.7368421 122.736842,40.4210526 122.736842,40.1052632 C122.736842,39.4736842 123.263158,38.9473684 123.894737,38.9473684 C124.210526,38.9473684 124.473684,39.0526316 124.736842,39.3157895 M17.2631579,32.7368421 L20,30.3157895 L17.2631579,27.8421053 L17.2631579,32.7368421 Z M17.2631579,35.1578947 L17.2631579,40 L12.5263158,41.7368421 L12.5263158,23.6315789 L20.0526316,23.6315789 L25,28.3157895 L25,32.0526316 L19.4210526,37.2105263 L17.2631579,35.1578947 Z M65.4210526,36.8421053 L57.5789474,36.8421053 L57.5789474,23.6842105 L52.8421053,23.6842105 L52.8421053,36.8421053 L52.8421053,40.8947368 L52.8421053,40.9473684 L57.5789474,40.9473684 L57.5789474,40.8947368 L65.4210526,40.8947368 L65.4210526,36.8421053 Z M36.0526316,35 L37.6842105,30.6315789 L39.3684211,35 L36.0526316,35 Z M42.1052632,41.7894737 L46.4210526,40.0526316 L40.1052632,23.6842105 L35.3684211,23.6842105 L29.0526316,40.0526316 L33.4736842,41.7894737 L34.6315789,38.7368421 L40.8947368,38.7368421 L42.1052632,41.7894737 Z M122,38.7368421 L117.157895,33.8947368 L121.684211,33.8947368 L121.684211,30.3684211 L117.157895,30.3684211 L121.947368,25.5789474 L118.789474,22.4210526 L109.052632,32.1578947 L112.210526,35.3157895 L112.210526,35.3157895 L118.842105,41.8947368 L122,38.7368421 Z M104.578947,38.7368421 L98,32.1578947 L104.578947,25.5789474 L101.421053,22.4210526 L91.6842105,32.1578947 L94.8421053,35.3157895 L94.8421053,35.3157895 L101.421053,41.8947368 L104.578947,38.7368421 Z M17.2631579,32.7368421 L20,30.3157895 L17.2631579,27.8421053 L17.2631579,32.7368421 Z M17.2631579,35.1578947 L17.2631579,40 L12.5263158,41.7368421 L12.5263158,23.6315789 L20.0526316,23.6315789 L25,28.3157895 L25,32.0526316 L19.4210526,37.2105263 L17.2631579,35.1578947 Z M77.4736842,35 L79.1052632,30.6842105 L80.7894737,35 L77.4736842,35 Z M83.5263158,41.7894737 L87.8421053,40.0526316 L81.5263158,23.6842105 L76.7894737,23.6842105 L70.4736842,40.0526316 L74.8947368,41.7894737 L76.0526316,38.7368421 L82.3157895,38.7368421 L83.5263158,41.7894737 Z M25.4210526,56.6842105 L25.4210526,56.3684211 C25.5789474,56.3157895 25.7368421,56.2105263 25.8947368,56.1052632 C25.9473684,56.0526316 26,56.0526316 26.0526316,56 C26.0526316,56 26.1052632,55.9473684 26.0526316,55.9473684 C26.1052632,55.5789474 26.1052632,55.2105263 26.1052632,54.8421053 C26.1052632,54.2105263 26.1052632,53.4210526 26.1052632,52.5263158 C26.1052632,51.2105263 26.1052632,50.4210526 26.1052632,50.1052632 C26.1052632,49.6315789 26.1052632,49.2105263 26,48.7368421 C26,48.6842105 25.9473684,48.6315789 25.8947368,48.6315789 C25.5789474,48.5263158 25.2631579,48.4736842 24.9473684,48.5263158 L24.9473684,48 C25.4736842,48.0526316 26.1052632,48.0526316 26.7368421,48.0526316 C27.4736842,48.0526316 28.2105263,48.0526316 28.8947368,48 L28.8947368,48.5263158 C28.5789474,48.5263158 28.3157895,48.5789474 28.0526316,48.6315789 C28,48.6842105 27.9473684,48.6842105 27.9473684,48.7368421 C27.8947368,49 27.8947368,49.2631579 27.8947368,49.5263158 C27.8947368,50 27.8421053,50.5789474 27.8421053,51.2631579 C27.8421053,51.3157895 27.8421053,51.9473684 27.8421053,53.0526316 C27.8421053,53.6315789 27.8421053,54.2105263 27.8421053,54.8421053 C27.8421053,55.4736842 27.8421053,55.7894737 27.8421053,55.8947368 C28.4210526,55.9473684 28.7894737,55.9473684 29,55.9473684 C29.5263158,55.9473684 30.1052632,55.8947368 30.6315789,55.8421053 C30.7368421,55.8421053 30.8421053,55.7894737 30.9473684,55.7894737 C31,55.7368421 31.0526316,55.6315789 31.0526316,55.5789474 C31.1578947,55.2631579 31.2105263,54.8947368 31.3157895,54.4736842 L31.8421053,54.4736842 C31.8421053,54.5789474 31.8421053,54.6842105 31.8421053,54.6842105 L31.6842105,55.9473684 C31.6315789,56.3684211 31.6315789,56.5789474 31.6315789,56.6842105 C31.5263158,56.7368421 31.3684211,56.7368421 31.2631579,56.7368421 C31,56.7894737 30.6315789,56.7894737 30.1052632,56.7894737 L28.6842105,56.7894737 C28,56.7894737 27.5263158,56.7894737 27.2631579,56.7894737 C26.8947368,56.6315789 26.2631579,56.6315789 25.4210526,56.6842105 Z M34.1052632,56.6842105 L34.1052632,56.1578947 C34.3157895,56.1578947 34.5263158,56.1052632 34.7368421,56.1052632 C34.7894737,56.1052632 34.8421053,56.0526316 34.8947368,56 C34.9473684,55.9473684 35,55.8947368 35.0526316,55.7894737 C35.1052632,55.6842105 35.2631579,55.3684211 35.4736842,54.8421053 C35.5789474,54.5789474 35.7894737,54.1052632 36.1052632,53.3157895 L37.7368421,49.3157895 L38.2631579,47.8947368 L39.1578947,47.8947368 L41.9473684,54.4210526 L42.3157895,55.2631579 L42.5789474,55.8421053 C42.6315789,55.8947368 42.6315789,55.9473684 42.6842105,56 C42.7368421,56.0526316 42.7368421,56.0526316 42.7894737,56.0526316 C42.8947368,56.1052632 43.0526316,56.1052632 43.1578947,56.1052632 L43.4210526,56.1578947 L43.4210526,56.6842105 L41.6842105,56.6315789 L39.4736842,56.6315789 L39.4736842,56.1052632 C39.7368421,56.1052632 40.0526316,56.1052632 40.3157895,56 C40.3684211,55.9473684 40.4210526,55.8947368 40.4210526,55.8421053 C40.4210526,55.6842105 40.3684211,55.4736842 40.2631579,55.3157895 L39.7368421,53.9473684 L36.5263158,53.9473684 L36.2631579,54.6842105 C36.1052632,55 36,55.3684211 35.9473684,55.7368421 C35.9473684,55.8421053 36,55.8947368 36.0526316,55.9473684 C36.3684211,56.0526316 36.6315789,56.0526316 36.9473684,56.0526316 L36.9473684,56.5789474 L35.5263158,56.5789474 L34.1052632,56.6842105 Z M36.8421053,53.2631579 C37.2105263,53.2631579 37.6842105,53.3157895 38.1578947,53.3157895 C38.6315789,53.3157895 39.1052632,53.3157895 39.4736842,53.2631579 L38.1578947,50.0526316 L36.8421053,53.2631579 Z M51.5789474,50.2105263 L51.0526316,50.2105263 C51.0526316,49.8947368 51.0526316,49.5263158 51,49.2105263 C50.8421053,49 50.5789474,48.8421053 50.3157895,48.7368421 C50,48.5789474 49.6315789,48.5263158 49.2631579,48.5263158 C48.7894737,48.4736842 48.3157895,48.6315789 47.9473684,48.9473684 C47.6315789,49.2105263 47.4736842,49.5789474 47.4736842,49.9473684 C47.4736842,50.1578947 47.5263158,50.4210526 47.6315789,50.6315789 C47.7368421,50.7894737 47.8421053,50.9473684 48,51.0526316 C48.2105263,51.1578947 48.4736842,51.2631579 48.7368421,51.3157895 C49,51.3684211 49.3157895,51.4210526 49.7368421,51.5263158 C50.1578947,51.5789474 50.4210526,51.6315789 50.5789474,51.6842105 C50.8421053,51.7368421 51.1578947,51.8421053 51.4210526,52 C51.6315789,52.1052632 51.7894737,52.2631579 51.9473684,52.4210526 C52.1052632,52.5789474 52.1578947,52.7894737 52.2631579,53 C52.3684211,53.2631579 52.3684211,53.5263158 52.3684211,53.8421053 C52.3684211,54.3157895 52.2631579,54.7894737 52.0526316,55.2631579 C51.8947368,55.5789474 51.6315789,55.8421053 51.3684211,56.1052632 C51.1052632,56.3157895 50.7894737,56.5263158 50.4736842,56.6842105 C49.8947368,56.8947368 49.2631579,57 48.6842105,57 C48.2105263,57 47.7894737,56.9473684 47.3157895,56.8421053 C46.8421053,56.7368421 46.4210526,56.5789474 46,56.3684211 C46.1578947,55.6315789 46.2105263,54.9473684 46.2105263,54.2105263 L46.7368421,54.2105263 C46.7368421,54.5789474 46.7368421,54.9473684 46.7894737,55.3157895 C47,55.6315789 47.2631579,55.8421053 47.5789474,56 C47.9473684,56.2105263 48.4210526,56.3157895 48.8421053,56.3157895 C49.2105263,56.3157895 49.5789474,56.2631579 49.8947368,56.1052632 C50.1578947,56 50.4210526,55.7894737 50.5789474,55.5263158 C50.7368421,55.2631579 50.7894737,55 50.7894737,54.6842105 C50.7894737,54.4736842 50.7368421,54.2105263 50.6315789,54 C50.5263158,53.7894737 50.3684211,53.6315789 50.1578947,53.5263158 C49.7894737,53.3684211 49.4210526,53.2631579 49.0526316,53.1578947 C48.3157895,53 47.7894737,52.8947368 47.5789474,52.7894737 C47.2631579,52.6842105 46.9473684,52.5263158 46.7368421,52.3157895 C46.5263158,52.1052632 46.3684211,51.8421053 46.2631579,51.5789474 C46.1578947,51.2631579 46.1052632,50.9473684 46.1052632,50.6315789 C46.1052632,50.2105263 46.2105263,49.7368421 46.4210526,49.3684211 C46.5789474,49 46.8421053,48.6842105 47.2105263,48.4736842 C47.5263158,48.2631579 47.8947368,48.1052632 48.3157895,48 C48.7368421,47.8947368 49.1578947,47.8421053 49.5789474,47.8421053 C50,47.8421053 50.4210526,47.8947368 50.8421053,47.9473684 C51.2105263,48 51.5789474,48.1052632 51.8947368,48.2631579 L51.9473684,48.4210526 C51.8947368,48.6842105 51.8421053,48.9473684 51.8421053,49.2105263 C51.5789474,49.4210526 51.5789474,49.7894737 51.5789474,50.2105263 Z M63.5789474,56.6842105 C63.2105263,55.7894737 62.8947368,55 62.5789474,54.2105263 L61.6842105,52.1052632 C61,50.4210526 60.5789474,49.4736842 60.4210526,49.1578947 C60.3157895,48.9473684 60.2105263,48.7894737 60.0526316,48.6315789 C59.7894737,48.5263158 59.5263158,48.5263158 59.2631579,48.5263158 L59.2631579,48 C60.2631579,48.0526316 60.8421053,48.0526316 61.1052632,48.0526316 L63.3684211,48 L63.3684211,48.5263158 C63.1052632,48.5263158 62.8421053,48.5263158 62.6315789,48.5789474 C62.5789474,48.5789474 62.4736842,48.6315789 62.4210526,48.6842105 C62.3684211,48.7368421 62.3684211,48.7894737 62.3684211,48.8421053 C62.4736842,49.2631579 62.5789474,49.6315789 62.7894737,50 C62.9473684,50.3684211 63.0526316,50.5789474 63.0526316,50.6315789 C63.0526316,50.6842105 63.0526316,50.6842105 63.1052632,50.7368421 L64.6842105,54.5789474 L66.0526316,51.1578947 C66.1052632,51.1052632 66.2105263,50.6842105 66.4736842,50 C66.6315789,49.5263158 66.7894737,49.1578947 66.8421053,49 C66.8421053,48.9473684 66.8421053,48.8947368 66.8421053,48.8421053 C66.8421053,48.7894737 66.8421053,48.7368421 66.7894737,48.6842105 C66.7894737,48.6315789 66.7368421,48.6315789 66.6842105,48.6315789 C66.6315789,48.6315789 66.5263158,48.5789474 66.4736842,48.5789474 C66.2105263,48.5789474 65.9473684,48.5263158 65.7894737,48.5263158 L65.7894737,48 L67.3684211,48.0526316 L68.7368421,48 L68.7368421,48.5263158 C68.4736842,48.5263158 68.2631579,48.5789474 68.0526316,48.6315789 C67.7368421,49.0526316 67.5263158,49.5263158 67.3684211,50.0526316 L66.9473684,51.1052632 L66.1052632,53.1052632 C65.4210526,54.8421053 64.8947368,56.0526316 64.6315789,56.7368421 L63.5789474,56.6842105 Z M71.2631579,56.6842105 L71.2631579,56.3684211 C71.4736842,56.2631579 71.6842105,56.1578947 71.8421053,56 C71.8947368,55.8421053 71.8947368,55.5263158 71.8947368,55.1578947 C71.9473684,54.4210526 71.9473684,53.8947368 71.9473684,53.5789474 L71.9473684,50.7894737 C71.9473684,50.6842105 71.9473684,50.2631579 71.9473684,49.5789474 C71.9473684,49.2631579 71.9473684,49 71.8421053,48.7368421 C71.8421053,48.6842105 71.7894737,48.6842105 71.7368421,48.6315789 C71.4210526,48.5263158 71.1578947,48.5263158 70.8421053,48.5263158 L70.8421053,48.0526316 L73.1052632,48.0526316 C73.6842105,48.0526316 74.3157895,48.0526316 75,48.0526316 L76.2631579,48 L77.1578947,48.0526316 C77.2105263,48.0526316 77.3157895,48.0526316 77.3684211,48.1052632 L77.4210526,48.2105263 L77.3157895,49.1052632 C77.3157895,49.1578947 77.3157895,49.4736842 77.2631579,50 L76.8421053,50 C76.8421053,49.6842105 76.8421053,49.4210526 76.7894737,49.1052632 C76.7894737,49.0526316 76.7368421,49 76.7368421,49 C76.5789474,48.9473684 76.4210526,48.8947368 76.2631579,48.8947368 C75.8421053,48.8421053 75.4736842,48.8421053 75.0526316,48.8421053 C74.6842105,48.8421053 74.3157895,48.8421053 73.8947368,48.8947368 C73.8421053,49.4736842 73.7894737,50.1052632 73.7894737,50.6842105 L73.7894737,51.9473684 C74.1052632,52 74.3684211,52 74.6842105,52 L75.7368421,51.9473684 C75.8947368,51.9473684 76,51.9473684 76.1578947,51.8947368 C76.2105263,51.8421053 76.2105263,51.7894737 76.2631579,51.7894737 C76.3157895,51.5263158 76.3684211,51.2631579 76.3684211,51 L76.8947368,51 L76.8421053,52.3684211 L76.8947368,53.7368421 L76.3684211,53.7368421 C76.4210526,53.4210526 76.3684211,53.1052632 76.2631579,52.8421053 C76.2105263,52.7368421 76.1052632,52.6842105 76,52.6842105 C75.6315789,52.6315789 75.2631579,52.6315789 74.8947368,52.6315789 C74.5789474,52.6315789 74.2105263,52.6315789 73.8947368,52.6842105 L73.8947368,55.3157895 C73.8947368,55.6315789 73.8947368,55.8421053 73.9473684,56.0526316 C74.2631579,56.1052632 74.6842105,56.1052632 75.1578947,56.1052632 C75.6315789,56.1052632 76,56.1052632 76.4210526,56.0526316 C76.6842105,56.0526316 76.8947368,56 77.1052632,55.9473684 C77.1578947,55.8947368 77.1578947,55.8947368 77.2105263,55.8421053 C77.3157895,55.4736842 77.4210526,55.1052632 77.4210526,54.6842105 L77.9473684,54.6842105 C77.8421053,55.3684211 77.8421053,56.0526316 77.7894737,56.7368421 L77.6842105,56.8421053 C77.3157895,56.8947368 76.9473684,56.8947368 76.5263158,56.8947368 L75.5263158,56.8421053 C74.5263158,56.8421053 73.8421053,56.8421053 73.4736842,56.8421053 C73.2631579,56.6315789 72.5263158,56.6315789 71.2631579,56.6842105 Z M88.6842105,50.4736842 L88.2105263,50.4736842 C88.2105263,50.3684211 88.2105263,50.1578947 88.1578947,49.8947368 C88.1578947,49.7368421 88.1052632,49.5789474 88.1052632,49.4210526 C88,49.3157895 87.8947368,49.2105263 87.7894737,49.1052632 C87.5263158,48.8947368 87.2105263,48.7894737 86.8421053,48.6842105 C86.4736842,48.5789474 86.0526316,48.5263158 85.6315789,48.5263158 C84.6842105,48.4736842 83.7894737,48.8421053 83.1578947,49.4736842 C82.5263158,50.2105263 82.1578947,51.1578947 82.2105263,52.1578947 C82.1578947,53.2105263 82.5263158,54.2631579 83.2105263,55.1052632 C83.8421053,55.7894737 84.6842105,56.2105263 85.6315789,56.2105263 C85.8947368,56.2105263 86.1578947,56.1578947 86.4736842,56.1052632 C86.7368421,56.0526316 87,55.9473684 87.2631579,55.8421053 C87.2631579,55.7368421 87.2631579,55.5263158 87.2631579,55.2105263 C87.2631579,54.8947368 87.2631579,54.6842105 87.2631579,54.6315789 C87.2631579,54.3684211 87.2631579,54.1578947 87.2105263,53.8947368 C87.1578947,53.8421053 87.1052632,53.7894737 87.0526316,53.7894737 C86.6842105,53.7368421 86.2631579,53.6842105 85.8947368,53.6842105 L85.8947368,53.2105263 L87.7894737,53.2105263 L89.6842105,53.2105263 L89.6842105,53.6315789 C89.5263158,53.6315789 89.3157895,53.7368421 89.2105263,53.8421053 C89.1578947,53.9473684 89.1052632,54.0526316 89.1578947,54.1578947 C89.1578947,54.6315789 89.1052632,55 89.1052632,55.1578947 C89.1052632,55.4736842 89.1052632,55.7894737 89.1578947,56.1578947 C88.4736842,56.4210526 87.8421053,56.6315789 87.1052632,56.7368421 C86.5263158,56.8421053 85.9473684,56.8947368 85.3684211,56.8947368 C84.5263158,56.8947368 83.6842105,56.7368421 82.8947368,56.4210526 C82.4210526,56.2105263 82,55.8947368 81.6315789,55.5789474 C81.3157895,55.2631579 81,54.8421053 80.7894737,54.4210526 C80.4736842,53.7368421 80.3157895,53.0526316 80.3157895,52.3157895 C80.3157895,51.7368421 80.4210526,51.1578947 80.6315789,50.6315789 C80.8421053,50.1578947 81.1052632,49.7368421 81.4210526,49.3684211 C81.7368421,49 82.1578947,48.6842105 82.5789474,48.4736842 C83,48.2631579 83.4736842,48.1052632 83.9473684,48 C84.4736842,47.8947368 85,47.8421053 85.5263158,47.8421053 C86.2105263,47.8421053 86.8421053,47.8947368 87.5263158,48.0526316 C88,48.1578947 88.4736842,48.3157895 88.9473684,48.4736842 L89,48.5789474 C88.8421053,49.1578947 88.7368421,49.7894737 88.6842105,50.4736842 Z M91.8421053,56.6842105 L91.8421053,56.1578947 C92.0526316,56.1578947 92.2631579,56.1052632 92.4210526,56.1052632 C92.4736842,56.1052632 92.5263158,56.0526316 92.5789474,56 C92.6315789,55.9473684 92.6842105,55.8947368 92.7368421,55.7894737 C92.7894737,55.6842105 92.9473684,55.3684211 93.1578947,54.8421053 C93.2631579,54.5789474 93.4736842,54.1052632 93.7894737,53.3157895 L95.4210526,49.3157895 L96,47.8947368 L96.8947368,47.8947368 L99.6842105,54.4210526 L100.052632,55.2631579 L100.315789,55.8421053 C100.368421,55.8947368 100.368421,55.9473684 100.421053,56 C100.473684,56.0526316 100.473684,56.0526316 100.526316,56.0526316 C100.631579,56.1052632 100.789474,56.1052632 100.894737,56.1052632 L101.157895,56.1578947 L101.157895,56.6842105 L99.4210526,56.6315789 L97.2105263,56.6842105 L97.2105263,56.1578947 C97.4736842,56.1578947 97.7894737,56.1578947 98.0526316,56.0526316 C98.1052632,56 98.1578947,55.9473684 98.1578947,55.8947368 C98.1578947,55.7368421 98.1052632,55.5263158 98,55.3684211 L97.4736842,54 L94.2631579,54 L94,54.7368421 C93.8421053,55.0526316 93.7368421,55.4210526 93.6842105,55.7894737 C93.6842105,55.8947368 93.7368421,55.9473684 93.7894737,56 C94.0526316,56.1052632 94.3684211,56.1052632 94.6842105,56.1052632 L94.6842105,56.6315789 L93.2631579,56.5789474 L91.8421053,56.6842105 Z M94.5789474,53.2631579 C94.9473684,53.2631579 95.4210526,53.3157895 95.8947368,53.3157895 C96.3684211,53.3157895 96.7894737,53.3157895 97.1578947,53.2631579 L95.8421053,50.0526316 L94.5789474,53.2631579 Z M109.315789,50.2105263 L108.789474,50.2105263 C108.789474,49.8947368 108.789474,49.5263158 108.736842,49.2105263 C108.578947,49 108.315789,48.8421053 108.052632,48.7368421 C107.736842,48.5789474 107.368421,48.5263158 107,48.5263158 C106.526316,48.4736842 106.052632,48.6315789 105.684211,48.9473684 C105.368421,49.2105263 105.210526,49.5789474 105.210526,49.9473684 C105.210526,50.1578947 105.263158,50.4210526 105.368421,50.6315789 C105.473684,50.7894737 105.578947,50.9473684 105.736842,51.0526316 C105.947368,51.1578947 106.210526,51.2631579 106.473684,51.3157895 C106.736842,51.3684211 107.052632,51.4210526 107.473684,51.5263158 C107.894737,51.6315789 108.210526,51.6315789 108.315789,51.6842105 C108.578947,51.7368421 108.894737,51.8421053 109.157895,52 C109.368421,52.1052632 109.526316,52.2631579 109.631579,52.4210526 C109.789474,52.5789474 109.894737,52.7894737 109.947368,53 C110.052632,53.2631579 110.052632,53.5263158 110.052632,53.8421053 C110.052632,54.3157895 109.947368,54.7894737 109.736842,55.2631579 C109.578947,55.5789474 109.315789,55.8421053 109.052632,56.1052632 C108.789474,56.3157895 108.473684,56.5263158 108.157895,56.6842105 C107.578947,56.8947368 107,57 106.368421,57 C105.894737,57 105.473684,56.9473684 105,56.8421053 C104.526316,56.7368421 104.105263,56.5789474 103.684211,56.3684211 C103.842105,55.6315789 103.894737,54.9473684 103.894737,54.2105263 L104.421053,54.2105263 C104.421053,54.5789474 104.421053,54.9473684 104.473684,55.3157895 C104.684211,55.6315789 104.947368,55.8421053 105.315789,56 C105.684211,56.2105263 106.157895,56.3157895 106.578947,56.3157895 C106.947368,56.3157895 107.315789,56.2631579 107.631579,56.1052632 C107.894737,56 108.157895,55.7894737 108.315789,55.5263158 C108.473684,55.2631579 108.526316,54.9473684 108.526316,54.6842105 C108.526316,54.4736842 108.473684,54.2105263 108.368421,54 C108.263158,53.7894737 108.105263,53.6315789 107.894737,53.5263158 C107.526316,53.3684211 107.157895,53.2631579 106.789474,53.1578947 C106.052632,53 105.526316,52.8947368 105.315789,52.7894737 C105,52.6842105 104.684211,52.5263158 104.473684,52.3157895 C104.263158,52.1052632 104.105263,51.8421053 104,51.5789474 C103.894737,51.2631579 103.842105,50.9473684 103.842105,50.6315789 C103.842105,50.2105263 103.947368,49.7368421 104.157895,49.3684211 C104.315789,49 104.578947,48.6842105 104.947368,48.4736842 C105.263158,48.2631579 105.631579,48.1052632 106.052632,48 C106.473684,47.8947368 106.894737,47.8421053 107.315789,47.8421053 C107.736842,47.8421053 108.157895,47.8947368 108.578947,47.9473684 C108.947368,48 109.315789,48.1052632 109.631579,48.2631579 L109.684211,48.4210526 C109.631579,48.6842105 109.578947,48.9473684 109.578947,49.2105263 C109.315789,49.4210526 109.315789,49.7894737 109.315789,50.2105263 Z" id="caesarspalace-stacked-lv-logo-30" fill="#FFFFFF"></path>
</svg>