<svg xmlns="http://www.w3.org/2000/svg" xmlns:xlink="http://www.w3.org/1999/xlink" viewBox="0 0 298 33" version="1.1" class="injected-svg" data-src="/content/dam/empire/logos/logo-train/nobu.svg">
    <title>Nobu Logo</title>
    <path fill="#343840" d="M162.081435,3.21318552 L174.190461,3.21318552 L173.814404,4.19093293 C171.633275,4.34135561 170.429894,4.7174123 169.602569,7.27459782 L167.271018,14.7957317 L180.733847,14.7957317 L182.463708,9.07966996 C182.839765,8.17713389 183.065399,7.19938648 183.14061,6.22163908 C183.215822,4.79262364 182.162863,4.34135561 180.056945,4.19093293 L180.357791,3.21318552 L191.714703,3.21318552 L191.413858,4.19093293 C189.533574,4.34135561 188.631038,4.86783498 188.029347,6.74811845 L183.14061,22.9185563 C182.764554,23.8210924 182.53892,24.7988398 182.463708,25.7765872 C182.388497,27.4312366 183.817512,27.732082 185.472162,27.8072933 L185.246528,28.7850407 L173.062291,28.7850407 L173.363136,27.8072933 C175.995533,27.6568707 176.97328,27.1303913 177.574971,25.1748965 L180.282579,16.2999585 L166.894961,16.2999585 C165.390734,21.2639069 164.337775,24.6484171 164.262564,25.7765872 C164.187353,27.4312366 165.69158,27.732082 167.346229,27.8072933 L167.045384,28.7850407 L155.61326,28.7850407 L155.914106,27.8072933 C157.794389,27.6568707 158.772136,27.1303913 159.373827,25.1748965 L164.262564,9.00445862 C164.638621,8.10192255 164.864255,7.12417515 164.939466,6.14642774 C165.014678,4.41656695 163.510451,4.19093293 161.855801,4.11572159 L162.081435,3.21318552 Z M218.414728,12.6146029 C218.264305,20.8878502 211.871342,29.3115201 200.740064,29.3115201 C195.625692,29.3115201 189.30794,27.2056026 189.533574,19.2332007 C189.683997,10.9599534 196.377806,2.46107213 207.208239,2.46107213 C212.247398,2.61149481 218.565151,4.7174123 218.414728,12.6146029 M194.647945,22.0160202 C194.572734,25.2501078 196.60344,27.8825047 200.664852,27.8825047 C208.035563,27.8825047 212.999512,17.9546079 213.149934,9.83178335 C213.225146,6.59769577 211.19444,3.96529891 207.133027,3.96529891 C199.762316,4.04051025 194.798368,13.968407 194.647945,22.0160202 M221.34797,27.8072933 C223.453888,27.5816593 225.108537,26.9799686 226.161496,23.5954584 L232.103192,4.7174123 L229.019527,4.7174123 C225.935862,4.7174123 223.303465,5.69515971 221.648816,9.83178335 L220.370223,9.83178335 L222.701774,3.21318552 L247.521516,3.21318552 L246.01729,9.83178335 L244.889119,9.83178335 C244.964331,5.92079372 243.384893,4.7174123 240.376439,4.7174123 L236.991929,4.7174123 C233.607419,16.6760152 230.89981,23.745881 230.749388,25.7765872 C230.674176,27.4312366 232.178403,27.732082 234.284321,27.8072933 L233.983475,28.7850407 L221.047125,28.7850407 L221.34797,27.8072933 Z M270.837031,9.75657201 C270.76182,5.54473703 268.655903,4.64220096 263.46632,4.64220096 C259.404908,4.64220096 258.652794,6.0712164 258.126315,7.65065452 L255.794764,14.7957317 L259.856176,14.7957317 C263.090263,14.7957317 263.541532,13.5923503 264.669702,11.1855874 L265.873083,11.1855874 L263.015052,20.5870048 L261.962093,20.5870048 C262.488573,17.3529172 262.789418,16.2247472 258.728006,16.2247472 L255.493918,16.2247472 C254.741805,18.7067213 253.764057,21.9408089 253.162367,24.0467264 C252.560676,26.1526439 253.312789,27.2056026 256.546877,27.2056026 C263.616743,27.2056026 265.948294,25.9270099 268.580691,22.1664429 L269.859284,22.1664429 L267.37731,28.7098294 L244.287429,28.7098294 L244.588274,27.732082 C246.318135,27.5816593 247.295882,27.05518 247.897573,25.0996851 L252.78631,8.92924728 C253.162367,8.02671121 253.388001,7.04896381 253.463212,6.0712164 C253.538423,4.34135561 252.034197,4.11572159 250.379547,4.04051025 L250.680393,3.06276284 L273.619851,3.06276284 L272.115624,9.68136067 L270.837031,9.75657201 Z M290.166345,3.21318552 L289.8655,4.19093293 C287.157892,4.34135561 286.405779,4.7174123 285.653665,7.27459782 C282.57,17.7289739 281.216196,21.7903862 280.614505,24.0467264 C280.012815,26.0022212 280.915351,27.280814 283.547748,27.280814 C290.617614,27.280814 293.325222,26.0022212 295.957619,22.2416543 L297.161,22.2416543 L294.754237,28.7850407 L271.513933,28.7850407 L271.814779,27.8072933 C273.619851,27.6568707 274.597598,27.1303913 275.199289,25.1748965 L280.088026,9.00445862 C280.464083,8.10192255 280.689717,7.12417515 280.764928,6.14642774 C280.840139,4.41656695 279.335913,4.19093293 277.831686,4.11572159 L278.132531,3.13797418 L290.166345,3.21318552 Z M111.614627,3.21318552 L125.979993,3.21318552 L125.603936,4.49177828 L123.57323,4.49177828 C122.44506,4.49177828 121.467312,5.31910301 121.166467,6.4472731 C121.166467,6.4472731 118.233225,16.0743245 117.706745,17.6537626 C117.255477,19.308412 116.804209,20.9630615 116.503364,22.6929223 C116.27773,23.9715151 116.352941,27.957716 123.949287,27.957716 C130.793518,27.957716 134.328451,23.520247 135.832678,18.857144 C137.261693,14.4948864 138.76592,8.02671121 139.2924,6.4472731 C139.593245,5.77037105 139.217188,4.94304632 138.540286,4.64220096 C138.389864,4.56698962 138.239441,4.56698962 138.013807,4.56698962 L135.230987,4.56698962 L135.607044,3.28839686 L147.866492,3.28839686 L147.490436,4.56698962 L145.459729,4.56698962 C144.406771,4.56698962 143.504235,5.16868033 143.128178,6.14642774 C142.526487,8.02671121 139.89409,14.7957317 138.314652,19.5340461 C136.50958,25.0244738 131.094364,29.6123655 122.44506,29.6123655 C119.887874,29.6123655 116.27773,29.0858861 114.02139,27.957716 C111.915472,26.7543346 110.63688,24.4979944 110.787302,22.0160202 C110.862514,21.1134842 111.088148,20.2109481 111.313782,19.3836234 C111.689838,18.1050306 115.14956,6.97375247 115.375194,6.22163908 C115.525617,5.46952569 115.074349,4.7174123 114.322235,4.56698962 C114.247024,4.56698962 114.096601,4.56698962 114.02139,4.56698962 L111.163359,4.56698962 L111.614627,3.21318552 Z M0.377056695,27.506448 L2.25734017,27.506448 C3.46072159,27.6568707 4.66410301,26.9047573 5.11537105,25.7765872 C5.56663908,24.4979944 12.7869276,6.37206176 12.7869276,6.37206176 C9.62805138,4.79262364 5.86748443,4.56698962 2.18212883,4.41656695 L2.7086082,3.13797418 L9.70326272,3.13797418 C13.8398864,3.13797418 16.6979172,3.73966489 18.5782007,4.56698962 C21.4362316,5.99600506 23.9934171,7.87628853 26.0993346,10.20784 C29.5590562,13.968407 32.3418757,18.3306646 34.2221592,23.1441903 L38.7348395,6.37206176 C38.9604736,5.46952569 38.6596282,4.41656695 37.4562468,4.41656695 L34.5982159,4.41656695 L34.9742726,3.13797418 L47.1585095,3.13797418 L46.7824528,4.41656695 L44.9773807,4.41656695 C43.7739992,4.34135561 42.6458292,5.093469 42.3449838,6.29685042 C41.9689271,7.34980916 34.6734272,28.7850407 34.6734272,28.7850407 L29.1077882,28.7850407 C29.1077882,28.7850407 27.8291954,23.2194017 22.9404584,15.8486905 C20.8345409,12.4641802 17.97651,9.60614933 14.7424224,7.34980916 C14.7424224,7.34980916 9.40241736,24.6484171 9.10157201,25.7013759 C8.87593799,26.3782779 9.25199468,27.2056026 9.92889674,27.4312366 C10.0793194,27.506448 10.2297421,27.506448 10.3801648,27.506448 L13.1629843,27.506448 L12.7869276,28.7850407 L0.001,28.7850407 L0.377056695,27.506448 Z M79.7250192,25.7765872 C79.4241739,26.8295459 78.4464265,27.5816593 77.3182564,27.506448 L74.9867049,27.506448 L74.6106482,28.7850407 L92.6613695,28.7850407 C100.182503,28.7850407 105.672931,27.05518 106.951524,22.5424996 C108.154905,18.4810873 104.619972,16.2247472 100.332926,15.6982678 C106.349833,14.9461544 108.98223,12.6146029 109.659132,10.0574174 C110.561668,6.59769577 107.553215,3.21318552 100.032081,3.21318552 L81.9813594,3.21318552 L81.6053027,4.49177828 L84.3881222,4.49177828 C85.1402356,4.41656695 85.8171377,5.01825766 85.8171377,5.77037105 C85.8171377,5.99600506 85.8171377,6.14642774 85.7419263,6.29685042 C85.2906583,7.57544318 80.0258646,24.7236284 79.7250192,25.7765872 Z M92.0596788,4.7174123 L96.6475705,4.7174123 C102.137998,4.7174123 104.394338,6.89854113 103.567014,9.90699468 C102.589266,13.8179843 98.6030653,14.8709431 94.541653,14.8709431 L88.9760139,14.8709431 L92.0596788,4.7174123 Z M90.9315087,27.280814 L87.0205191,27.280814 C86.2684057,27.280814 85.666715,26.6791233 85.666715,25.9270099 C85.666715,25.7765872 85.666715,25.7013759 85.7419263,25.6261645 C85.892349,25.0996851 88.5999572,16.3751698 88.5999572,16.3751698 L94.316019,16.3751698 C100.182503,16.3751698 101.912364,19.1579894 101.235462,21.9408089 C100.708983,23.9715151 98.4526426,27.280814 90.9315087,27.280814 L90.9315087,27.280814 Z M77.3934677,20.2861595 C77.3934677,20.2861595 77.3934677,20.2861595 77.3934677,20.2861595 C77.3934677,20.1357368 77.3934677,19.9853141 77.4686791,19.9101028 C77.5438904,19.7596801 77.6191017,19.6092574 77.6191017,19.4588347 C77.6191017,19.308412 77.6943131,19.2332007 77.7695244,19.082778 L77.8447358,19.082778 C77.7695244,19.3836234 77.6943131,19.7596801 77.6191017,19.8348914 C77.5438904,19.9853141 77.4686791,20.1357368 77.3934677,20.2861595 L77.3934677,20.2861595 M77.3182564,20.8878502 L77.3182564,20.8878502 C77.2430451,20.8126388 77.2430451,20.7374275 77.2430451,20.7374275 C77.2430451,20.6622161 77.3182564,20.5870048 77.3182564,20.5117935 L77.3182564,20.5117935 L77.3182564,20.5870048 C77.3182564,20.7374275 77.3182564,20.8126388 77.2430451,20.9630615 M76.566143,21.4895409 L76.566143,21.4895409 C76.4909317,21.4143295 76.566143,21.3391182 76.566143,21.3391182 L76.6413543,21.3391182 L76.566143,21.4895409 M75.2123389,24.0467264 L75.2123389,24.0467264 L75.2123389,23.8963037 L75.3627616,23.745881 L75.4379729,23.745881 L75.2123389,24.0467264 M75.1371276,24.3475718 L75.1371276,24.3475718 L75.1371276,24.2723604 L75.2123389,24.2723604 L75.1371276,24.3475718 M75.5131843,24.4979944 C75.4379729,24.4979944 75.4379729,24.4227831 75.5131843,24.4227831 C75.6636069,24.2723604 75.7388183,24.1219377 75.8140296,23.9715151 L75.889241,23.9715151 C75.889241,24.0467264 75.889241,24.1219377 75.8140296,24.1971491 C75.7388183,24.2723604 75.6636069,24.4227831 75.5883956,24.4979944 C75.5883956,24.4227831 75.5883956,24.4227831 75.5131843,24.4979944 M74.9114935,24.6484171 L74.9114935,24.6484171 L74.9867049,24.5732058 L74.9867049,24.5732058 L74.9114935,24.6484171 M75.3627616,24.7236284 L75.2875502,24.6484171 L75.3627616,24.4979944 L75.3627616,24.5732058 L75.3627616,24.7236284 L75.3627616,24.7236284 M74.7610709,25.2501078 C74.6858595,25.2501078 74.6858595,25.2501078 74.7610709,25.2501078 C74.7610709,25.0996851 74.7610709,25.0996851 74.9114935,25.0244738 C74.9867049,25.0244738 75.0619162,25.0244738 75.1371276,24.9492625 C75.2123389,24.8740511 75.2875502,24.7988398 75.2875502,24.7988398 L75.3627616,24.8740511 L75.2123389,25.0244738 C75.1371276,25.0996851 75.0619162,25.0996851 75.0619162,25.0996851 C74.9114935,25.0996851 74.8362822,25.1748965 74.7610709,25.2501078 L74.7610709,25.2501078 M74.2345915,25.7765872 L74.2345915,25.7765872 L74.3850142,25.5509532 L74.4602255,25.6261645 L74.3850142,25.7765872 L74.2345915,25.7765872 M65.4348648,31.5678603 L65.4348648,31.5678603 C65.2844422,31.5678603 65.4348648,31.4174376 65.5852875,31.3422263 C65.7357102,31.2670149 65.8861329,31.1918036 66.1117669,31.1918036 C66.2621896,31.1918036 66.9390916,31.1918036 67.014303,31.1165923 L67.014303,31.1165923 C67.0895143,31.1165923 67.0895143,31.1165923 67.014303,31.1918036 C66.9390916,31.2670149 66.1869782,31.4174376 65.9613442,31.4926489 C65.7357102,31.4926489 65.5852875,31.4926489 65.4348648,31.5678603 M62.9528907,32.0191283 C62.8776793,32.0191283 62.802468,32.0191283 62.802468,32.0191283 C62.7272566,31.943917 62.7272566,31.8687056 62.802468,31.7934943 C62.802468,31.7934943 62.9528907,31.718283 63.028102,31.718283 L63.1785247,31.718283 L63.4041587,31.7934943 L63.6297927,31.718283 L63.705004,31.6430716 C63.7802154,31.5678603 64.0810607,31.6430716 64.2314834,31.5678603 C64.3819061,31.4926489 64.5323288,31.4926489 64.7579628,31.4174376 C64.9083855,31.4174376 64.9835968,31.4174376 65.1340195,31.4926489 L65.1340195,31.5678603 C64.9835968,31.6430716 64.9083855,31.6430716 64.7579628,31.718283 C64.6827515,31.718283 64.6075401,31.718283 64.6075401,31.718283 L64.5323288,31.718283 C64.4571174,31.718283 64.3819061,31.718283 64.3066948,31.718283 C64.1562721,31.718283 64.0810607,31.7934943 63.9306381,31.8687056 L63.6297927,31.8687056 L63.1785247,31.943917 C63.1785247,32.0191283 63.028102,32.0191283 62.9528907,32.0191283 M59.6435917,31.0413809 L59.5683804,31.0413809 L59.5683804,31.1165923 L59.6435917,31.0413809 L59.6435917,31.0413809 L59.6435917,31.0413809 M61.3734525,31.1165923 L61.3734525,31.1165923 C61.3734525,31.1165923 61.3734525,31.1918036 61.3734525,31.1165923 L61.5238752,31.1918036 C61.5990866,31.1918036 61.4486639,31.1165923 61.3734525,31.1165923 M60.3957051,31.0413809 C60.3957051,31.1165923 60.3957051,31.1918036 60.3957051,31.1918036 L60.5461278,31.1918036 C60.6213392,31.1165923 60.6213392,31.0413809 60.6213392,30.9661696 C60.6213392,30.9661696 60.6213392,30.9661696 60.6213392,30.9661696 L60.3957051,31.0413809 M61.8247206,31.0413809 C61.7495092,31.0413809 61.6742979,31.1165923 61.6742979,31.1918036 C61.6742979,31.2670149 61.6742979,31.2670149 61.6742979,31.3422263 C61.6742979,31.4174376 61.6742979,31.4174376 61.7495092,31.4174376 C61.8247206,31.4174376 61.9751433,31.3422263 61.9751433,31.2670149 C61.9751433,31.1918036 61.8999319,31.1918036 61.8247206,31.1918036 M56.7855609,31.2670149 L56.7855609,31.2670149 L57.0111949,31.3422263 L57.0864062,31.2670149 L56.7855609,31.2670149 M58.364999,31.1918036 C58.364999,31.1918036 58.2897876,31.1918036 58.2897876,31.1918036 L58.139365,31.2670149 L57.9889423,31.2670149 L57.8385196,31.2670149 L57.7633083,31.2670149 L57.7633083,31.4174376 L57.8385196,31.4174376 L57.913731,31.2670149 L58.0641536,31.2670149 L58.139365,31.4174376 C58.2145763,31.4174376 58.2145763,31.4174376 58.2897876,31.4174376 C58.364999,31.4174376 58.364999,31.4174376 58.4402103,31.4174376 C58.590633,31.3422263 58.590633,31.1918036 58.5154217,31.1918036 C58.364999,31.1165923 58.364999,31.1165923 58.364999,31.1918036 M59.6435917,32.2447623 L59.6435917,32.2447623 C59.4931691,32.2447623 59.3427464,32.2447623 59.1923237,32.169551 C59.041901,32.0943397 58.8914784,32.169551 58.816267,32.0943397 C58.7410557,32.0191283 58.6658443,32.0943397 58.590633,32.0191283 C58.5154217,31.943917 58.364999,31.8687056 58.2897876,31.7934943 L58.2897876,31.7934943 C58.2145763,31.7934943 58.139365,31.7934943 57.9889423,31.8687056 L57.8385196,31.8687056 C57.6128856,31.8687056 57.4624629,31.7934943 57.2368289,31.718283 C57.0864062,31.6430716 57.0864062,31.5678603 57.0864062,31.5678603 C56.9359835,31.4926489 56.7855609,31.4926489 56.6351382,31.4174376 C56.4847155,31.3422263 56.1838702,31.3422263 55.9582361,31.1918036 C55.8830248,31.1165923 55.8078135,31.1165923 55.7326021,31.1165923 L55.5821794,31.1165923 C55.5821794,31.1165923 55.5069681,31.1165923 55.4317568,31.1165923 C54.9052774,30.8909582 54.378798,30.7405356 53.7771073,30.5901129 C53.1754166,30.3644789 52.5737259,30.0636335 52.0472465,29.7627882 C50.8438651,29.1610974 49.715695,28.4841954 48.6627363,27.6568707 C48.1362569,27.280814 47.6849889,26.7543346 47.2337208,26.3030666 L46.4816074,25.4005305 C46.1807621,25.0244738 46.0303394,24.6484171 45.7294941,24.2723604 C45.278226,23.745881 44.9021693,23.068979 44.601324,22.4672883 C44.37569,21.7903862 44.2252673,21.1134842 44.1500559,20.3613708 C44.0748446,19.7596801 43.9244219,19.082778 43.8492106,18.4810873 C43.6987879,17.8041853 43.6235766,17.2024946 43.6235766,16.5255925 C43.6987879,15.9239018 43.6235766,15.2469997 43.6235766,14.645309 C43.6235766,14.0436183 43.6235766,13.4419276 43.6987879,12.8402369 C43.7739992,12.2385462 44.0748446,11.7872782 44.2252673,11.2607988 C44.37569,10.7343194 44.601324,10.2830514 44.826958,9.75657201 C45.50386,7.87628853 47.8354115,6.14642774 50.0917517,4.86783498 L50.0917517,4.94304632 C49.7909064,5.16868033 49.5652723,5.54473703 49.4148497,5.84558238 L49.4148497,5.84558238 C49.490061,5.77037105 50.0165404,5.31910301 50.0165404,5.24389167 L50.0165404,5.24389167 C49.8661177,5.46952569 49.7909064,5.69515971 49.715695,5.99600506 C49.715695,6.14642774 49.5652723,6.14642774 49.5652723,6.22163908 C49.5652723,6.29685042 49.4148497,6.4472731 49.3396383,6.52248443 C49.1140043,6.59769577 48.9635816,6.74811845 48.8131589,6.97375247 C48.7379476,7.12417515 48.5875249,7.19938648 48.5123136,7.34980916 C48.0610456,8.02671121 47.6849889,8.7788246 47.3841435,9.53093799 C47.2337208,9.75657201 47.0832982,10.0574174 47.0080868,10.2830514 C46.9328755,10.4334741 47.0080868,10.4334741 46.9328755,10.5086854 C46.8576641,10.5838967 46.8576641,10.7343194 46.8576641,10.8095308 C46.8576641,10.8847421 46.8576641,10.8095308 46.8576641,10.8095308 L46.8576641,10.8095308 C46.9328755,10.7343194 46.9328755,10.6591081 47.0080868,10.5838967 C47.0080868,10.5086854 47.1585095,10.20784 47.2337208,10.0574174 C47.3841435,9.83178335 47.5345662,9.53093799 47.7602002,9.30530397 C47.7602002,9.30530397 47.8354115,9.30530397 47.8354115,9.30530397 C47.8354115,9.30530397 47.8354115,9.30530397 47.8354115,9.38051531 C47.6849889,9.68136067 47.6097775,10.0574174 47.5345662,10.4334741 C47.4593548,10.6591081 47.2337208,11.2607988 47.2337208,11.3360101 C47.2337208,11.4112215 47.3089322,11.4864328 47.3089322,11.5616441 C47.3089322,11.6368555 47.3089322,11.7120668 47.3089322,11.7872782 L47.3089322,11.7872782 C48.2866796,9.90699468 49.4148497,8.10192255 50.6934424,6.37206176 C50.8438651,6.22163908 50.9190764,5.99600506 50.9190764,5.77037105 C50.9942878,5.61994837 51.2199218,5.54473703 51.2951331,5.46952569 L51.4455558,5.31910301 L51.6711898,5.24389167 C51.7464012,5.24389167 51.8216125,5.16868033 51.8968238,5.093469 C53.1002053,3.96529891 54.378798,2.98755151 55.7326021,2.23543812 C57.913731,1.18247937 60.2452825,0.656 62.6520453,0.656 C71.0757153,0.656 77.8447358,7.19938648 77.8447358,15.2469997 C77.8447358,17.1272832 77.4686791,19.0075667 76.7165657,20.7374275 C76.7165657,20.8126388 76.6413543,20.8878502 76.6413543,20.9630615 C76.6413543,21.0382728 76.566143,21.4895409 76.4157203,21.6399636 C76.114875,22.0160202 75.889241,22.4672883 75.6636069,22.9185563 C75.5883956,23.294613 75.2123389,23.520247 75.2875502,23.745881 C75.3627616,23.9715151 75.0619162,24.1971491 74.8362822,24.4979944 C74.7610709,24.6484171 74.6858595,24.7236284 74.5354369,24.7988398 C74.4602255,24.5732058 74.4602255,24.6484171 74.4602255,24.7988398 C74.4602255,24.9492625 74.3850142,25.0244738 74.3850142,25.1748965 C74.3850142,25.3253192 74.5354369,25.3253192 74.4602255,25.4005305 C74.3098028,25.5509532 74.0089575,25.6261645 73.8585348,25.9270099 C73.8585348,25.9270099 73.8585348,26.0022212 73.9337461,26.0022212 C74.0089575,26.0022212 74.0089575,26.0022212 74.0841688,25.9270099 L74.0841688,25.9270099 C74.0841688,25.9270099 74.0841688,26.0022212 74.0841688,26.0774325 C74.0089575,26.1526439 73.9337461,26.2278552 73.8585348,26.2278552 C73.7081121,26.3030666 73.7081121,26.3782779 73.6329008,26.4534892 C73.0312101,27.1303913 72.2790967,27.8072933 71.5269833,28.2585614 C71.1509266,28.4841954 70.8500812,28.7098294 70.4740246,28.9354634 C70.2483905,29.1610974 70.0227565,29.2363088 69.7219112,29.3115201 C69.4210658,29.3867315 69.1202205,29.6123655 68.8945864,29.6875768 C68.4433184,29.9132108 67.916839,30.1388448 67.465571,30.2892675 C67.239937,30.2892675 67.014303,30.3644789 66.7134576,30.3644789 C66.4126123,30.3644789 66.3374009,30.5149015 66.1117669,30.5149015 C65.8861329,30.5149015 65.8861329,30.7405356 65.7357102,30.7405356 L65.6604989,30.7405356 L65.5852875,30.7405356 C65.3596535,30.7405356 65.1340195,30.8909582 64.9083855,30.8909582 C64.6827515,30.8909582 64.3819061,30.8909582 64.0810607,30.9661696 C63.8554267,31.0413809 63.705004,31.0413809 63.47937,31.1165923 C63.47937,31.1165923 63.4041587,31.1165923 63.4041587,31.1165923 L63.3289474,31.1165923 C63.253736,31.1165923 63.1785247,31.1165923 63.1033133,31.1165923 C63.028102,31.1165923 62.9528907,31.1918036 62.8776793,31.1918036 C62.802468,31.1918036 62.802468,31.1918036 62.7272566,31.1165923 C62.6520453,31.0413809 62.576834,31.0413809 62.4264113,31.0413809 C62.3511999,31.0413809 62.2007773,31.0413809 62.1255659,31.1165923 C62.0503546,31.1165923 62.0503546,31.1918036 62.1255659,31.2670149 C62.1255659,31.2670149 62.2007773,31.2670149 62.2007773,31.2670149 C62.2759886,31.2670149 62.3511999,31.1918036 62.5016226,31.1918036 L62.5016226,31.1918036 C62.576834,31.1918036 62.6520453,31.2670149 62.576834,31.2670149 C62.4264113,31.3422263 62.3511999,31.3422263 62.2007773,31.3422263 C61.9751433,31.3422263 61.7495092,31.4174376 61.5990866,31.4174376 C61.2982412,31.4174376 60.9221845,31.4926489 60.6213392,31.5678603 C60.5461278,31.5678603 60.5461278,31.6430716 60.5461278,31.6430716 C60.5461278,31.6430716 61.1478185,31.7934943 61.2982412,31.7934943 L61.3734525,31.7934943 C61.5238752,31.7934943 61.5238752,31.8687056 61.8247206,31.8687056 C62.1255659,31.8687056 62.4264113,31.943917 62.576834,31.943917 L62.576834,32.0191283 C62.3511999,32.0943397 62.0503546,32.169551 61.8247206,32.169551 L61.5990866,32.169551 C61.4486639,32.169551 61.2982412,32.169551 61.0726072,32.0943397 L60.3204938,32.0943397 C60.2452825,32.0943397 59.9444371,32.2447623 59.8692258,32.2447623 M62.6520453,3.3636082 C59.4179577,3.3636082 56.4095042,4.64220096 54.0779527,6.82332979 C49.5652723,11.1103761 49.3396383,18.2554533 53.6266846,22.7681336 C53.7771073,22.9185563 53.92753,23.068979 54.0779527,23.2194017 C58.8914784,27.732082 66.4126123,27.732082 71.2261379,23.2194017 C75.7388183,18.9323554 75.9644523,11.7872782 71.677406,7.27459782 C71.5269833,7.12417515 71.3765606,6.97375247 71.2261379,6.82332979 C68.8945864,4.64220096 65.8109215,3.3636082 62.6520453,3.3636082"></path>
</svg>