<svg xmlns="http://www.w3.org/2000/svg" xmlns:xlink="http://www.w3.org/1999/xlink" width="100px" height="32px" viewBox="0 0 100 32" version="1.1" class="injected-svg" data-src="/content/dam/empire/logos/logo-train/caesars_palace.svg">
	<title>Caesars Palace</title>
  <path d="M54.9502232,9.11141882 L54.9514169,9.10903144 L50.4834436,4.64105808 L52.7550314,2.36827655 L50.3879485,0.00119368778 L48.1139733,2.27397522 L48.1139733,2.27278153 L45.6143911,4.77355743 L50.0931076,9.25108029 L47.1291809,12.2162007 L49.5619166,14.6513238 L55.0278129,9.18542746 L54.9502232,9.11141882 L54.9502232,9.11141882 Z M99.923604,9.10903144 L99.9247977,9.10903144 L95.4556306,4.6398644 L97.7284122,2.36708287 L95.3601356,0 L93.0873541,2.27278153 L93.0861604,2.27158784 L90.5865782,4.77236374 L95.0664884,9.25108029 L92.1001743,12.2162007 L94.5341037,14.6501301 L100,9.18542746 L99.923604,9.10903144 L99.923604,9.10903144 Z M9.58889393,12.2388808 L4.68761191,7.33879247 L9.56860124,2.45780314 L7.23016688,0.119368778 L0,7.35072934 L2.33843436,9.6891637 L2.34917755,9.67722682 L7.24926588,14.5785088 L9.58889393,12.2388808 L9.58889393,12.2388808 Z M40.2069855,12.2388808 L36.6163726,8.64946165 L39.9801848,8.64946165 L39.9801848,6.02096116 L36.6247284,6.02096116 L40.1878865,2.45780314 L37.8494521,0.119368778 L30.6180915,7.35072934 L32.9565259,9.6891637 L32.9672691,9.67722682 L37.8685511,14.5785088 L40.2069855,12.2388808 L40.2069855,12.2388808 Z M24.3082579,14.4818201 L27.5121159,13.2045742 L22.8113735,1.04208943 L19.3138683,1.04208943 L14.6107384,13.2045742 L17.9100914,14.4818201 L18.7659656,12.2329124 L23.4213479,12.2329124 L24.3082579,14.4818201 Z M19.8331224,9.43490821 L21.0614272,6.2119512 L22.3279299,9.43490821 L19.8331224,9.43490821 Z M68.2144818,14.4818201 L71.4171461,13.2045742 L66.71521,1.04208943 L63.2177048,1.04208943 L58.5145749,13.2045742 L61.8151216,14.4818201 L62.6721895,12.2329124 L67.3275718,12.2329124 L68.2144818,14.4818201 Z M63.736959,9.43490821 L64.9664574,6.2119512 L66.2329601,9.43490821 L63.736959,9.43490821 Z M85.8380882,12.0526655 L83.0245661,14.5247929 L79.7168573,11.0380309 L79.7168573,13.1401151 L76.2336763,14.528374 L76.2336763,1.03970206 L81.5026142,1.03970206 L85.2030463,4.48707236 L85.2030463,7.23255425 L83.2286867,9.21407597 L85.8380882,12.0526655 Z M79.7335689,7.80313701 L81.7532886,5.97679471 L79.7335689,4.15045241 L79.7335689,7.80313701 Z M92.7280541,29.0818154 C92.3889818,28.7435148 91.8581424,28.6918738 91.4602239,28.9584785 C91.0623054,29.2250833 90.908155,29.7356662 91.092059,30.1779292 C91.275963,30.6201922 91.7466915,30.870935 92.2163234,30.7767906 C92.6859552,30.6826463 93.023666,30.2698405 93.0228949,29.7908659 C93.0272835,29.5238384 92.9204841,29.2670008 92.7280541,29.0818154 L92.7280541,29.0818154 Z M92.628978,29.1808914 C92.7926317,29.3412485 92.8832578,29.5617722 92.8796524,29.7908659 C92.8833575,30.0217309 92.792842,30.2441406 92.628978,30.4068088 C92.4700507,30.5721197 92.2494788,30.6638084 92.0201972,30.6598706 C91.7899246,30.6635102 91.5683596,30.5719473 91.4078354,30.4068088 C91.2442915,30.2440188 91.1541959,30.0215819 91.1583546,29.7908659 C91.157213,29.4418922 91.3669159,29.1267728 91.6892634,28.9930718 C92.011611,28.8593708 92.3827874,28.9335574 92.628978,29.1808914 L92.628978,29.1808914 Z M91.6191181,30.3399623 L91.8065271,30.3399623 L91.8065271,29.9054599 L91.9581254,29.9054599 C92.0318533,29.9001187 92.1058144,29.9119688 92.1741829,29.9400769 C92.2547941,29.9992426 92.2968634,30.0975566 92.2840022,30.1967197 L92.2840022,30.2814716 L92.292358,30.3184759 L92.292358,30.3304128 C92.292358,30.3304128 92.292358,30.3304128 92.292358,30.341156 L92.4726049,30.341156 L92.4726049,30.3268317 C92.4651561,30.3095019 92.4614934,30.2907813 92.4618617,30.2719221 C92.4618617,30.2420799 92.4618617,30.2134314 92.4618617,30.1883639 L92.4618617,30.1059995 C92.4591006,30.0440942 92.4374378,29.9845213 92.3997899,29.9353021 C92.3559927,29.8736232 92.2866842,29.8350211 92.2111872,29.8302576 C92.2677856,29.8234598 92.3223011,29.8047455 92.3711414,29.775348 C92.4433901,29.7280572 92.4844712,29.6454386 92.4785733,29.5592905 C92.4902852,29.4385454 92.4206683,29.3246267 92.307876,29.2799675 C92.2114468,29.2477102 92.1097961,29.2339408 92.0082603,29.2393821 L91.6250865,29.2393821 L91.6191181,30.3399623 Z M92.1694082,29.7431184 C92.1099144,29.7632702 92.0470976,29.7717808 91.9843866,29.7681858 L91.8065271,29.7681858 L91.8065271,29.3706878 L91.9700623,29.3706878 C92.0517486,29.3647938 92.1336501,29.3787171 92.2087999,29.4112732 C92.2604851,29.4476567 92.2876333,29.5097755 92.2792274,29.572421 C92.2854346,29.648329 92.2391667,29.7187152 92.1670208,29.7431184 L92.1694082,29.7431184 Z M12.8023014,26.1131139 L12.8023014,29.7311815 L9.30479624,31.0323012 L9.30479624,17.5710841 L14.8996109,17.5710841 L18.5928808,21.0602335 L18.5928808,23.857044 L14.4340726,27.703106 L12.8023014,26.1131139 Z M12.8023014,24.3225822 L14.8232148,22.4974336 L12.8023014,20.6710913 L12.8023014,24.3225822 Z M48.6033853,27.3688734 L42.7674457,27.3688734 L42.7674457,17.5710841 L39.2293552,17.5710841 L39.2293552,27.3688734 L39.2293552,30.3745792 L39.2293552,30.3889035 L42.7674457,30.3889035 L42.7674457,30.3745792 L48.6033853,30.3745792 L48.6033853,27.3688734 L48.6033853,27.3688734 Z M31.2555208,31.0096211 L34.4569914,29.7347626 L29.756249,17.5710841 L26.2575501,17.5710841 L21.5556139,29.7347626 L24.8549669,31.0096211 L25.7132284,28.7642944 L30.3686108,28.7642944 L31.2555208,31.0096211 Z M26.7779979,25.9662903 L28.0063027,22.7433333 L29.2728054,25.9662903 L26.7779979,25.9662903 Z M90.5937403,28.7690692 L87.0043211,25.1784563 L90.3681333,25.1784563 L90.3681333,22.5511495 L87.0114833,22.5511495 L90.575835,18.9867978 L88.2374006,16.6483635 L81.0048464,23.879724 L83.3432807,26.2181584 L83.3552176,26.2062215 L88.2553059,31.1075035 L90.5937403,28.7690692 L90.5937403,28.7690692 Z M77.6804259,28.7702629 L72.7803376,23.8701745 L77.6613269,18.9867978 L75.3228925,16.6483635 L68.091532,23.8809177 L70.43116,26.2193521 L70.4407095,26.2086089 L75.3407979,31.1098909 L77.6804259,28.7702629 L77.6804259,28.7702629 Z M12.8023014,26.1143075 L12.8023014,29.7323752 L9.30479624,31.0323012 L9.30479624,17.5710841 L14.9008045,17.5710841 L18.5916872,21.0602335 L18.5916872,23.8582376 L14.4340726,27.7042997 L12.8023014,26.1143075 Z M12.8023014,24.3237759 L14.8232148,22.4986273 L12.8023014,20.6710913 L12.8023014,24.3237759 Z M62.0311791,30.5084055 L65.2338434,29.2798369 L60.5319073,17.5710841 L57.0344021,17.5710841 L52.3324659,29.2832847 L55.6377874,30.5118533 L56.4876931,28.3477797 L61.1430754,28.3477797 L62.0311791,30.5084055 Z M57.55485,25.9949388 L58.7843484,22.7719818 L60.0496574,25.9949388 L57.55485,25.9949388 Z" id="caesars_palace-3" fill="#343840"></path>
</svg>