<svg xmlns="http://www.w3.org/2000/svg" xmlns:xlink="http://www.w3.org/1999/xlink" width="47px" height="32px" viewBox="0 0 47 32" version="1.1" class="injected-svg" data-src="/content/dam/empire/logos/logo-train/paris.svg">
	<title>Paris</title>
  <path d="M34.094,4.375 C34.25,5.719 35.032,7.25 34.094,8.531 C33.313,9.094 32.656,10.219 31.656,10.031 L31.406,10.031 L31.156,9.843 C31,9.843 31,9.562 30.937,9.437 C30.937,7.156 33.593,6.218 33.375,3.937 C33.75,3.937 33.813,4.156 33.969,4.406 L34.094,4.375 Z M42.125,13.5 C42.625,15.125 41.219,16.188 40.281,17.281 C40.011,17.465 39.678,17.575 39.319,17.575 C38.941,17.575 38.591,17.453 38.307,17.246 L38.312,17.249 C38.156,17.28 37.937,16.718 38.062,16.53 C38.156,16.186 38.406,15.905 38.718,15.749 C39.124,15.718 39.499,15.968 39.968,15.718 C40.406,15.437 40.718,14.937 40.781,14.374 C39.906,13.905 38.593,14.968 37.781,15.749 C36.562,17.03 35.031,18.499 35.781,20.343 C36.531,22.187 38.531,23.718 37.906,25.218 C36.582,27.175 34.926,28.801 33.003,30.053 L32.937,30.093 C32.249,30.499 31.499,30.718 30.687,30.718 L30.562,30.718 C29.874,30.687 29.281,30.312 28.999,29.718 C29.03,28.249 29.499,26.905 30.343,25.812 L30.843,25.749 C31.031,25.749 31.218,25.78 31.374,25.843 C31.562,25.999 31.874,26.093 31.874,26.343 C31.593,26.656 31.405,27.062 31.374,27.499 C31.218,28.093 31.186,28.999 31.53,29.062 C33.124,28.499 34.374,27.374 35.061,25.906 C35.127,25.578 35.165,25.201 35.165,24.815 C35.165,23.348 34.616,22.01 33.712,20.994 L33.717,21 C33.488,20.561 33.353,20.042 33.353,19.491 C33.353,18.698 33.632,17.97 34.096,17.4 L34.091,17.406 C34.935,16.25 35.904,15.281 36.997,14.406 C38.091,13.562 39.341,12.906 40.716,12.531 C41.435,12.531 41.966,12.937 42.216,13.469 L42.125,13.5 Z M25.25,15.813 C25.813,15.938 25.906,16.563 26.156,16.969 C26,18.625 25.781,20.063 25.437,21.5 C25.593,21.563 25.781,21.781 26.062,21.906 C26.75,22.031 27.218,21.906 27.656,22.312 C28.094,22.718 27.406,22.781 27.312,22.968 C26.281,23.249 25.124,23.624 24.249,22.968 C24.019,22.373 23.886,21.684 23.886,20.964 C23.886,20.8 23.893,20.638 23.906,20.478 L23.905,20.499 L24.155,17.718 C24.155,17.374 23.811,17.374 23.592,17.28 C22.686,16.811 22.342,17.843 21.811,18.343 C20.748,19.812 20.061,22.406 19.248,23.218 L15.06,26.687 C14.654,26.812 14.372,27 13.935,26.687 C13.654,25.906 13.404,24.906 13.216,23.906 C13.028,22.906 13.06,23.781 13.06,23.969 C12.694,25.496 12.212,26.829 11.602,28.088 L11.654,27.969 C11.31,28.375 10.904,29.094 10.31,29.157 C10.31,29.282 9.966,29.313 9.716,29.438 C9.466,29.563 9.216,29.438 8.966,29.094 C8.497,28.179 8.222,27.098 8.222,25.953 C8.222,25.639 8.243,25.33 8.283,25.027 L8.279,25.063 L8.279,24.75 C8.279,22.156 9.31,19.781 10.967,18.031 C11.53,17.468 12.28,17.031 13.092,16.781 C13.655,16.969 14.03,17.344 14.28,17.844 C14.28,18.469 13.436,18.844 12.999,19.032 L12.655,19.032 C12.03,19.032 11.467,19.376 11.186,19.876 C10.544,21.141 10.168,22.634 10.168,24.214 C10.168,24.734 10.209,25.245 10.287,25.743 L10.28,25.688 C10.53,25.657 10.561,26.094 10.78,26.376 C11.78,24.845 11.28,22.688 12.655,21.345 C13.03,21.095 13.436,20.907 13.905,20.814 L13.936,20.814 C14.249,20.814 14.499,21.002 14.624,21.252 C14.624,22.283 14.812,23.283 15.124,24.19 C17.968,22.034 20.249,19.221 21.655,15.971 C22.374,15.221 23.343,15.627 24.343,15.627 L25.25,15.813 Z M32.063,17.313 C32.063,18.157 31.063,18.594 30.907,19.438 C30.688,21.001 30.313,22.407 29.782,23.719 C29.032,23.594 29.313,22.719 29.032,22.281 C29.032,20.468 29.97,19 29.595,17.218 C29.595,16.718 30.126,16.468 30.501,16.28 C31.157,16.436 31.689,16.811 32.064,17.311 L32.063,17.313 Z M11.313,1 C9.75,1.375 8.407,2.125 7.313,3.125 L6.875,3.438 C5.091,5.216 3.554,7.24 2.32,9.457 L2.25,9.595 C1.437,11.189 0.812,12.876 0.469,14.658 C0.178,16.354 0.007,18.311 0,20.307 L0,20.314 C0,21.064 0.063,21.783 0.156,22.502 L0.406,24.283 C0.781,26.877 1.406,29.189 2.281,31.408 L2.187,31.189 C2.281,31.314 2.375,31.502 2.406,31.689 C2.531,32.189 2.812,33.033 3.656,32.908 L3.781,32.908 L4,32.783 C4.281,32.595 4.5,32.377 4.656,32.095 C4.781,31.97 4.844,31.814 4.875,31.626 C4.875,31.376 4.781,31.157 4.687,30.97 L4.687,30.751 C4.437,29.876 4.156,29.095 3.812,28.376 C3.593,27.907 3.312,27.157 3.062,26.407 C2.812,25.657 2.718,24.501 2.718,24.501 C2.34,23.071 2.123,21.43 2.123,19.738 C2.123,19.677 2.123,19.615 2.124,19.554 L2.124,19.563 C2.124,16.563 2.687,13.688 3.718,11.063 C4.656,9.157 5.718,7.407 6.968,5.813 C7.937,4.657 9.187,3.688 10.656,3.063 L11.156,2.907 C11.844,2.751 12.156,2.657 12.375,2.907 C12.531,3.157 12.656,3.47 12.656,3.813 C12.593,4.532 12.437,5.157 12.156,5.751 C11.343,7.751 10.468,9.47 9.5,11.095 L9.594,10.907 L9.25,11.438 C9.25,11.688 8.969,11.938 8.844,12.219 C8.719,12.5 8,13.407 8,13.407 C7.312,14.407 6.625,15.345 6,16.345 L5.5,17.126 C5,17.907 4.5,18.595 3.969,19.22 L4,19.189 L3.562,19.845 C3.031,20.376 2.687,21.033 2.593,21.814 C2.669,22.191 2.997,22.47 3.39,22.47 C3.395,22.47 3.401,22.47 3.406,22.47 L3.561,22.47 L3.686,22.314 C4.686,21.814 5.498,21.095 6.123,20.22 L6.123,20.47 C6.998,18.407 7.998,16.626 9.186,15.001 C9.749,14.095 10.436,13.188 10.967,12.095 L10.967,11.939 C11.998,10.251 12.998,8.251 13.842,6.189 C14.111,5.579 14.267,4.867 14.267,4.119 C14.267,3.459 14.145,2.828 13.923,2.247 L13.935,2.283 L13.966,2.283 C13.465,1.498 12.599,0.985 11.613,0.985 C11.506,0.985 11.4,0.991 11.297,1.003 L11.31,1.002 L11.313,1 Z M44.188,12.75 C44.188,12.129 44.692,11.625 45.313,11.625 C45.934,11.625 46.438,12.129 46.438,12.75 L46.438,12.75 C46.438,13.371 45.934,13.875 45.313,13.875 C44.692,13.875 44.188,13.371 44.188,12.75 L44.188,12.75 Z M46.281,12.75 C46.264,12.246 45.851,11.844 45.344,11.844 C44.826,11.844 44.406,12.264 44.406,12.782 C44.406,13.3 44.825,13.719 45.343,13.72 L45.343,13.72 C45.843,13.689 46.281,13.282 46.281,12.751 L46.281,12.75 Z M45.875,13.375 L45.656,13.375 L45.312,12.812 L45.062,12.812 L45.062,13.375 L44.906,13.375 L44.906,12.125 L45.437,12.125 C45.656,12.125 45.875,12.125 45.875,12.438 C45.875,12.751 45.719,12.782 45.5,12.782 L45.875,13.375 Z M45.313,12.656 C45.438,12.656 45.719,12.656 45.719,12.468 C45.719,12.28 45.531,12.312 45.406,12.312 L45.093,12.312 L45.093,12.656 L45.313,12.656 Z" id="paris-13" fill="#343840"></path>
</svg>