<svg xmlns="http://www.w3.org/2000/svg" xmlns:xlink="http://www.w3.org/1999/xlink" width="119px" height="32px" viewBox="0 0 119 32" version="1.1" class="injected-svg" data-src="/content/dam/empire/logos/logo-train/planet_hollywood.svg">
	<title>Planet Hollywood</title>
  <path d="M0.813,15.031 L0.813,14.656 C0.813,6.906 6.782,0.593 14.376,0 L13.876,0 C6.166,0.227 0.002,6.531 0.002,14.275 C0.002,19.564 2.878,24.182 7.151,26.65 L7.22,26.687 C3.439,24.083 0.956,19.83 0.814,14.99 L0.814,14.969 L0.813,15.031 Z M10.625,16.875 C8.821,16.875 7.359,15.413 7.359,13.609 C7.359,11.805 8.821,10.343 10.625,10.343 L10.625,10.343 C12.268,10.425 13.568,11.777 13.568,13.433 C13.568,13.5 13.566,13.567 13.562,13.633 L13.562,13.624 L13.593,13.78 C13.593,15.436 12.28,16.78 10.655,16.874 L10.625,16.875 Z M28.281,8.063 C27.496,7.281 26.412,6.797 25.216,6.797 C25.085,6.797 24.955,6.803 24.827,6.814 L24.844,6.813 C23.281,6.844 21.906,7.626 21.063,8.813 L21.063,0 L17.125,0 L17.125,11.5 C16.406,8.969 14.156,7.125 11.469,7.031 C9.813,7.031 8.313,7.719 7.25,8.812 L7.25,7.249 L3.594,7.249 L3.594,20.562 C4.563,22.312 5.844,23.781 7.375,24.937 L7.406,18.437 C8.437,19.5 9.875,20.187 11.469,20.187 C14.219,20.093 16.5,18.218 17.188,15.687 L17.188,19.968 L21.063,19.968 L21.063,12.093 C21.218,11.006 22.143,10.18 23.261,10.18 C24.412,10.18 25.358,11.056 25.469,12.178 L25.47,12.187 L25.47,19.968 L28.408,19.968 C28.752,19.405 29.096,18.718 29.346,17.999 L29.377,11.28 C29.346,10.155 28.939,9.155 28.314,8.342 L28.281,8.063 Z M15.719,27.594 L15.625,27.594 C8.008,27.556 1.848,21.373 1.848,13.75 C1.848,10.247 3.149,7.048 5.294,4.609 L5.281,4.624 C2.706,7.188 1.113,10.736 1.113,14.655 C1.113,22.473 7.451,28.811 15.269,28.811 C15.295,28.811 15.321,28.811 15.347,28.811 L15.343,28.811 L15.562,28.811 L15.937,28.842 C22.531,28.842 28.031,24.186 29.375,17.998 C27.4,23.633 22.135,27.605 15.94,27.623 L15.875,27.623 L15.719,27.594 Z M50.781,5.875 C49.537,5.938 48.552,6.962 48.552,8.216 C48.552,8.294 48.556,8.371 48.563,8.447 L48.562,8.437 C48.562,9.687 49.531,10.718 50.781,10.781 C51.978,10.684 52.912,9.689 52.912,8.476 C52.912,8.419 52.91,8.362 52.906,8.305 L52.906,8.313 L52.906,8.188 C52.906,6.969 51.968,5.969 50.781,5.875 L50.781,5.875 Z M51.094,12.844 C50.094,12.844 49.188,12.406 48.531,11.75 L48.531,16.469 L46.312,16.469 L46.312,4.031 L48.468,4.031 L48.468,4.937 C49.124,4.249 50.031,3.812 51.062,3.812 L51.093,3.812 C53.389,3.878 55.225,5.754 55.225,8.06 C55.225,8.149 55.222,8.236 55.217,8.324 L55.218,8.312 L55.218,8.562 C55.218,10.875 53.405,12.75 51.093,12.843 L51.094,12.844 Z M56.781,0.188 L59,0.188 L59,12.657 L56.781,12.657 L56.781,0.188 Z M65,5.875 C63.758,5.94 62.776,6.963 62.776,8.216 C62.776,8.272 62.778,8.328 62.782,8.383 L62.782,8.376 L62.782,8.501 C62.782,9.751 63.782,10.751 65.001,10.814 C66.251,10.751 67.22,9.72 67.22,8.47 L67.22,8.251 C67.22,7.001 66.251,5.938 65.001,5.876 L65,5.875 Z M69.438,12.656 L67.313,12.656 L67.313,11.75 C66.657,12.438 65.75,12.875 64.719,12.875 L64.688,12.875 C62.388,12.793 60.556,10.908 60.556,8.596 C60.556,8.507 60.559,8.419 60.564,8.331 L60.563,8.343 L60.563,8.093 C60.563,5.812 62.376,3.937 64.625,3.812 L64.688,3.812 C65.719,3.812 66.626,4.25 67.282,4.937 L67.282,3.999 L69.407,3.999 L69.438,12.656 Z M79.531,12.656 L77.343,12.656 L77.343,7.406 C77.343,7.405 77.343,7.404 77.343,7.403 C77.343,6.557 76.657,5.872 75.812,5.872 C75.779,5.872 75.746,5.873 75.714,5.875 L75.718,5.875 L75.655,5.875 C74.753,5.891 74.027,6.626 74.027,7.531 C74.027,7.564 74.028,7.597 74.03,7.629 L74.03,7.624 L74.03,12.655 L71.811,12.655 L71.811,4.03 L73.936,4.03 L73.936,4.843 C74.467,4.218 75.28,3.812 76.155,3.78 C78.035,3.782 79.558,5.306 79.558,7.186 C79.558,7.34 79.548,7.492 79.528,7.641 L79.53,7.624 L79.531,12.656 Z M87.594,7.406 C87.313,6.5 86.5,5.875 85.531,5.875 L85.437,5.875 C84.406,5.875 83.562,6.563 83.312,7.5 L87.594,7.406 Z M83.281,9.219 C83.5,10.219 84.375,10.969 85.437,10.969 L85.531,10.969 C86.281,10.969 86.937,10.563 87.281,9.938 L89.656,9.938 C89.143,11.654 87.578,12.884 85.727,12.884 C85.636,12.884 85.546,12.881 85.457,12.875 L85.469,12.876 C82.958,12.876 80.922,10.84 80.922,8.329 C80.922,5.818 82.958,3.782 85.469,3.782 L85.469,3.782 C87.929,3.814 89.912,5.817 89.912,8.282 C89.912,8.614 89.876,8.938 89.808,9.25 L89.813,9.22 L83.281,9.219 Z M98.844,9.063 C98.854,9.166 98.86,9.286 98.86,9.408 C98.86,11.514 97.153,13.221 95.047,13.221 C92.941,13.221 91.234,11.514 91.234,9.408 C91.234,9.287 91.24,9.167 91.251,9.048 L91.25,9.063 L91.25,1.782 L93.438,1.782 L93.438,4.001 L98.751,4.001 L98.751,6.095 L93.438,6.095 L93.438,9.033 C93.438,9.913 94.152,10.627 95.032,10.627 C95.912,10.627 96.626,9.913 96.626,9.033 L96.626,9.033 L96.626,8.345 L98.814,8.345 L98.844,9.063 Z M40.438,27.781 L38.188,27.781 L38.188,22.718 L38.219,22.562 C38.219,22.56 38.219,22.557 38.219,22.554 C38.219,21.726 37.547,21.054 36.719,21.054 C36.664,21.054 36.61,21.057 36.556,21.063 L36.563,21.062 L36.532,21.062 C35.626,21.062 34.907,21.781 34.907,22.687 L34.907,27.781 L32.688,27.781 L32.688,15.281 L34.907,15.281 L34.907,19.562 C35.438,19.156 36.157,18.906 36.907,18.906 L36.97,18.906 C36.974,18.906 36.979,18.906 36.984,18.906 C38.9,18.906 40.453,20.459 40.453,22.375 C40.453,22.485 40.448,22.594 40.438,22.701 L40.439,22.687 L40.438,27.781 Z M48.344,23.5 C48.362,23.395 48.373,23.274 48.373,23.15 C48.373,21.959 47.408,20.994 46.217,20.994 C45.026,20.994 44.061,21.959 44.061,23.15 C44.061,23.285 44.073,23.416 44.097,23.544 L44.095,23.531 L44.064,23.75 C44.062,23.78 44.062,23.816 44.062,23.852 C44.062,25.043 45.027,26.008 46.218,26.008 C47.409,26.008 48.374,25.043 48.374,23.852 C48.374,23.728 48.363,23.606 48.343,23.488 L48.345,23.501 L48.344,23.5 Z M50.563,23.5 C50.563,25.933 48.59,27.906 46.157,27.906 C43.724,27.906 41.751,25.933 41.751,23.5 L41.751,23.5 C41.751,21.067 43.724,19.094 46.157,19.094 C48.59,19.094 50.563,21.067 50.563,23.5 L50.563,23.5 Z M52.156,15.281 L54.406,15.281 L54.406,27.781 L52.156,27.781 L52.156,15.281 Z M56.844,15.281 L59.032,15.281 L59.032,27.781 L56.844,27.781 L56.844,15.281 Z M68.688,28.125 L68.688,28.375 C68.679,30.388 67.046,32.016 65.032,32.016 C64.911,32.016 64.791,32.01 64.673,31.999 L64.688,32 C62.907,32 61.438,30.75 61.063,29.094 L63.344,29.063 C63.493,29.636 64.006,30.052 64.616,30.052 C64.697,30.052 64.775,30.045 64.852,30.031 L64.844,30.032 L64.907,30.032 C64.909,30.032 64.912,30.032 64.915,30.032 C65.761,30.032 66.446,29.346 66.446,28.501 C66.446,28.446 66.443,28.392 66.437,28.338 L66.438,28.345 L66.438,27.282 C65.931,27.71 65.271,27.97 64.549,27.97 C64.543,27.97 64.537,27.97 64.53,27.97 L64.375,27.97 C64.37,27.97 64.364,27.97 64.358,27.97 C62.442,27.97 60.889,26.417 60.889,24.501 C60.889,24.38 60.895,24.26 60.907,24.142 L60.906,24.157 L60.906,19.126 L63.156,19.126 L63.156,24.314 C63.156,24.314 63.156,24.314 63.156,24.314 C63.156,25.177 63.856,25.877 64.719,25.877 C64.73,25.877 64.741,25.877 64.752,25.877 L64.75,25.877 L64.813,25.877 C65.719,25.877 66.438,25.127 66.438,24.252 L66.438,19.127 L68.657,19.127 L68.688,28.125 Z M84.125,24.125 L84.125,24.281 C84.125,24.282 84.125,24.284 84.125,24.286 C84.125,26.34 82.46,28.005 80.406,28.005 C80.34,28.005 80.274,28.003 80.209,28 L80.218,28 L80.124,28 C79.061,28 78.093,27.531 77.468,26.781 C76.806,27.537 75.839,28.012 74.76,28.012 C74.657,28.012 74.555,28.008 74.454,27.999 L74.467,28 C72.475,27.987 70.865,26.369 70.865,24.375 C70.865,24.287 70.868,24.2 70.874,24.113 L70.873,24.125 L70.873,19.125 L73.092,19.125 L73.092,24.188 L73.061,24.313 C73.077,25.146 73.756,25.816 74.592,25.816 C74.625,25.816 74.658,25.815 74.69,25.813 L74.686,25.813 L74.78,25.844 C75.686,25.844 76.405,25.094 76.405,24.219 L76.405,19.125 L78.593,19.125 L78.593,24.188 C78.589,24.227 78.587,24.273 78.587,24.319 C78.587,25.165 79.273,25.85 80.118,25.85 C80.164,25.85 80.209,25.848 80.254,25.844 L80.248,25.844 L80.311,25.844 C81.186,25.844 81.936,25.094 81.936,24.219 L81.936,19.125 L84.124,19.125 L84.125,24.125 Z M92.063,23.5 L92.094,23.062 C92.097,23.018 92.099,22.966 92.099,22.914 C92.099,21.706 91.12,20.726 89.911,20.726 C88.702,20.726 87.723,21.705 87.723,22.914 C87.723,23.134 87.755,23.346 87.816,23.546 L87.812,23.531 L87.781,23.75 C87.779,23.78 87.779,23.816 87.779,23.852 C87.779,25.043 88.744,26.008 89.935,26.008 C91.126,26.008 92.091,25.043 92.091,23.852 C92.091,23.728 92.081,23.606 92.06,23.488 L92.062,23.501 L92.063,23.5 Z M94.281,23.5 C94.281,25.933 92.308,27.906 89.875,27.906 C87.442,27.906 85.469,25.933 85.469,23.5 L85.469,23.5 C85.469,21.067 87.442,19.094 89.875,19.094 C92.308,19.094 94.281,21.067 94.281,23.5 L94.281,23.5 Z M101.469,23.5 L101.5,23.062 C101.503,23.018 101.505,22.966 101.505,22.914 C101.505,21.706 100.526,20.726 99.317,20.726 C98.108,20.726 97.129,21.705 97.129,22.914 C97.129,23.134 97.161,23.346 97.222,23.546 L97.218,23.531 L97.187,23.75 C97.185,23.78 97.185,23.816 97.185,23.852 C97.185,25.043 98.15,26.008 99.341,26.008 C100.532,26.008 101.497,25.043 101.497,23.852 C101.497,23.728 101.487,23.606 101.466,23.488 L101.468,23.501 L101.469,23.5 Z M103.688,23.5 C103.688,25.933 101.715,27.906 99.282,27.906 C96.849,27.906 94.876,25.933 94.876,23.5 L94.876,23.5 C94.876,21.067 96.849,19.094 99.282,19.094 C101.715,19.094 103.688,21.067 103.688,23.5 L103.688,23.5 Z M110.5,21.281 L109.156,21.281 C107.937,21.281 106.968,22.25 106.968,23.469 L106.968,23.563 C106.968,24.813 107.937,25.813 109.156,25.844 C110.406,25.813 111.406,24.781 111.406,23.531 L111.406,15.281 L113.625,15.281 L113.625,23.5 L113.656,24.031 C113.571,26.415 111.618,28.315 109.221,28.315 C106.77,28.315 104.783,26.328 104.783,23.877 C104.783,23.7 104.793,23.525 104.814,23.353 L104.812,23.374 C104.812,21.061 106.718,19.155 109.031,19.124 L110.594,19.124 L110.5,21.281 Z M115.969,17.125 C115.969,16.374 116.578,15.766 117.328,15.766 C118.078,15.766 118.687,16.375 118.687,17.125 L118.687,17.125 C118.687,17.876 118.078,18.484 117.328,18.484 C116.578,18.484 115.969,17.875 115.969,17.125 L115.969,17.125 Z M118.5,17.125 C118.51,17.068 118.516,17.002 118.516,16.936 C118.516,16.297 117.998,15.78 117.36,15.78 C116.722,15.78 116.204,16.298 116.204,16.936 C116.204,17.003 116.21,17.069 116.221,17.132 L116.22,17.125 C116.314,17.677 116.789,18.092 117.361,18.092 C117.933,18.092 118.407,17.677 118.501,17.132 L118.502,17.125 L118.5,17.125 Z M118,17.875 L117.75,17.875 L117.312,17.187 L117.031,17.187 L117.031,17.875 L116.843,17.875 L116.843,16.375 L117.531,16.375 C117.812,16.375 118.062,16.375 118.062,16.75 C118.062,17.125 117.874,17.156 117.593,17.156 L118,17.875 Z M117.313,16.969 C117.469,16.969 117.813,16.969 117.813,16.781 C117.813,16.593 117.532,16.593 117.532,16.593 L117.157,16.593 L117.157,16.968 L117.313,16.969 Z" id="planet_hollywood-14" fill="#343840"></path>
</svg>