<svg xmlns="http://www.w3.org/2000/svg" xmlns:xlink="http://www.w3.org/1999/xlink" width="72px" height="32px" viewBox="0 0 72 32" version="1.1" class="injected-svg" data-src="/content/dam/empire/logos/logo-train/rio.svg">
	<title>Rio</title>
  <path d="M49.594,0.594 L49.594,0.625 C49.594,2.406 48.531,3.969 47.031,4.688 C46.616,4.877 46.131,4.988 45.62,4.988 C45.356,4.988 45.099,4.958 44.851,4.903 L44.874,4.907 C44.905,3.907 43.936,2.532 44.905,1.657 C45.968,0.626 47.436,0.001 49.061,0.001 L49.155,0.001 L49.594,0.594 Z M42,5.156 C39.469,7.75 37.406,10.75 35.062,13.5 C34.562,14.813 35.812,15.719 36.437,16.594 C36.658,16.661 36.911,16.7 37.174,16.7 C37.564,16.7 37.934,16.615 38.266,16.463 L38.25,16.47 C40.344,14.22 42.313,11.751 44,9.126 L44.125,6.126 C43.977,5.459 43.391,4.968 42.69,4.968 C42.425,4.968 42.177,5.038 41.962,5.161 L41.969,5.157 L42,5.156 Z M57.75,5.656 C57.562,6.25 57.75,6.875 57.094,7.219 C54.094,8.313 51.531,9.938 49.375,12 L50.594,12.063 C51.782,12.063 52.938,11.844 54,11.438 C57,10.313 59.625,8.5 61.719,6.219 C60.375,5.844 58.969,6.219 57.719,5.625 L57.75,5.656 Z M64.656,2.469 C65.709,3.785 66.346,5.474 66.346,7.311 C66.346,7.865 66.288,8.405 66.178,8.926 L66.187,8.875 C63.409,11.788 59.88,13.962 55.91,15.086 L55.749,15.125 C52.874,15.75 49.718,17.188 46.811,15.75 C45.655,14.437 44.936,12.75 44.78,10.906 C45.655,9.187 46.968,7.843 48.593,6.968 C50.843,5.28 53.374,4.374 55.593,2.937 C55.812,2.687 55.937,2.312 56.249,2.312 L57.312,4.375 C59.562,3.531 61.5,1.844 64.031,2.094 L64.656,2.469 Z M26.813,8.938 C18.282,10.376 10.594,12.938 3.532,16.532 C2.719,16.688 1.376,17.657 0.001,17.032 C0.251,18.688 0.876,20.157 1.782,21.407 C2.282,21.626 2.845,21.376 3.407,21.376 C9.813,18.188 17.345,15.376 25.157,13.345 C26.47,13.032 27.032,12.939 27.626,12.939 C28.22,12.939 28.751,13.033 29.314,13.189 C29.251,13.377 29.251,13.595 29.251,13.658 C26.157,16.627 22.532,19.096 18.595,20.971 C18.314,21.315 18.314,21.565 18.314,21.815 C18.314,22.815 18.564,23.753 19.002,24.596 C19.721,26.94 22.44,26.034 24.283,26.065 C31.476,24.139 39.735,23.033 48.251,23.033 C53.135,23.033 57.935,23.397 62.624,24.099 L62.095,24.034 C64.189,24.222 66.564,25.159 68.564,26.534 C69.095,24.721 71.345,21.784 69.22,20.565 C63.353,18.849 56.614,17.861 49.644,17.861 C45.722,17.861 41.872,18.174 38.119,18.776 L38.532,18.721 C34.313,19.19 29.876,20.096 25.313,21.034 C28.219,19.659 30.688,17.784 32.657,15.503 C33.626,14.159 32.688,12.472 32.688,10.972 C31.625,8.784 29.219,8.972 26.813,8.972 L26.813,8.938 Z M14.813,17.75 C12.344,21.688 9.219,25.063 6.469,28.906 C6,30 6.75,30.844 7.407,31.656 C7.782,31.875 8.251,31.969 8.751,31.969 C9.751,31.969 10.626,31.5 11.157,30.75 L15.47,24.531 C16.283,22.75 17.72,21.062 17.345,18.875 C17.001,17.844 15.751,16.656 14.782,17.781 L14.813,17.75 Z M68.906,13.625 C69.25,13.625 69.531,13.625 69.531,13.156 C69.531,12.687 69.25,12.875 69,12.875 L68.469,12.875 L68.469,13.625 L68.906,13.625 Z M68.469,15.125 L68.031,15.125 L68.031,12.562 L69.031,12.562 C69.656,12.562 69.937,12.75 69.937,13.281 L69.937,13.312 C69.937,13.687 69.656,13.968 69.281,13.968 L69.25,13.968 L69.969,15.124 L69.5,15.124 L68.906,13.905 L68.468,13.905 L68.469,15.125 Z M68.906,15.75 C69.906,15.75 70.719,14.937 70.719,13.937 L70.719,13.906 L70.782,13.406 C70.783,13.385 70.783,13.36 70.783,13.335 C70.783,12.334 69.972,11.522 68.97,11.522 C67.968,11.522 67.157,12.333 67.157,13.335 C67.157,13.539 67.191,13.736 67.253,13.919 L67.249,13.906 L67.218,13.969 C67.218,14.969 68.031,15.782 69.031,15.782 L68.906,15.75 Z M66.688,13.906 L66.688,13.843 C66.688,12.6 67.695,11.593 68.938,11.593 C70.181,11.593 71.188,12.6 71.188,13.843 C71.188,15.086 70.181,16.093 68.938,16.093 L68.938,16.093 L68.875,16.093 C67.656,16.093 66.687,15.093 66.687,13.905 L66.688,13.906 Z" id="rio-15" fill="#343840"></path>
</svg>