<svg xmlns="http://www.w3.org/2000/svg" xmlns:xlink="http://www.w3.org/1999/xlink" viewBox="0 0 99 19" version="1.1" class="injected-svg" data-src="/content/dam/empire/logos/brand-logos/silver_legacy.svg">
	<title>Silver Legacy</title>
  <path d="M93.8,16.8 L26,16.8 L25.7,18.1 L93.7,18.1 C94.5,18.1 95,18.2 95.6,18.3 C95.6,18.3 95.7,18.3 95.8,18.3 L95.8,16.5 C95.7,16.5 95.7,16.5 95.6,16.5 C95.1,16.7 94.7,16.8 93.8,16.8 L93.8,16.8 Z M7,18.1 L22.1,18.1 L21.8,16.8 L7,16.8 C6,16.8 5.6,16.8 4.8,16.6 C4.7,16.6 4.7,16.6 4.6,16.6 L4.6,18.4 C4.7,18.4 4.7,18.4 4.8,18.4 C5.5,18.1 6.1,18.1 7,18.1 L7,18.1 Z M8.1,10.3 C8.2,8.1 7.6,7.3 5.8,6.1 L5.7,6 C5,5.6 4.6,5.3 4.4,4.9 C4.2,4.4 4.2,3.2 4.5,3 L4.5,3 C4.6,3 4.7,2.9 4.9,2.9 C4.9,2.9 5,2.9 5,2.9 C5.3,2.9 5.7,3 6,3.1 L6,3.1 C6.4,3.3 6.7,3.5 7,3.9 L7.3,4.3 L7.3,1 L7.2,0.9 C7.2,0.9 7.1,0.9 7,0.8 C6.3,0.5 5.8,0.4 5.2,0.4 L5.2,0.4 C5.2,0.4 5.1,0.4 5.1,0.4 C4,0.4 3.1,0.8 2.5,1.6 C1.7,2.6 1.4,4.2 1.7,5.8 C1.9,6.8 2.3,7.4 3,8.3 L3,8.3 C3,8.3 3.1,8.4 3.1,8.4 C3.1,8.4 3.2,8.5 3.2,8.5 C3.5,8.8 3.7,9 3.9,9.1 L4.2,9.3 L4.5,9.5 C5.1,9.9 5.4,10.8 5.4,11.2 C5.4,11.6 5.3,12 5,12.2 C4.8,12.4 4.5,12.5 4.1,12.5 C3.8,12.5 3.4,12.4 3,12.2 C2.2,11.8 1.7,11.3 1.3,10.6 L1,10 L1.7,14.6 L2.3,14.8 C2.5,14.9 2.7,14.9 2.8,14.9 C3.3,15 3.7,15.1 4.1,15.1 C6.5,15.1 8,13.3 8.1,10.3 L8.1,10.3 Z M8.8,1.2 C9.2,2 9.3,2.5 9.3,3.6 L9.3,11.9 C9.3,13 9.2,13.5 8.8,14.4 C8.8,14.5 8.7,14.5 8.7,14.6 L8.6,14.8 L12.8,14.8 L12.7,14.6 C12.7,14.5 12.6,14.5 12.6,14.4 L12.6,14.4 C12.2,13.6 12.2,13.1 12.2,12 L12.2,3.6 C12.2,2.5 12.3,2 12.8,1.1 C12.9,1.1 13,1.1 13,1 L13.2,0.7 L8.5,0.7 L8.7,1 C8.7,1 8.8,1.1 8.8,1.2 L8.8,1.2 Z M13.7,14.5 C13.6,14.5 13.6,14.5 13.7,14.5 L13.5,14.9 L20.4,14.9 L21.3,10.2 L20.9,10.7 C20.4,11.3 19.9,11.6 18.3,11.7 C18,11.7 17.6,11.7 17.3,11.7 L17.3,3.7 C17.3,3.6 17.3,3.6 17.3,3.5 C17.3,3.4 17.3,3.4 17.3,3.3 C17.3,2.4 17.5,2 17.8,1.2 C17.8,1.1 17.9,1.1 17.9,1 L18,0.7 L13.6,0.7 L13.7,0.9 C13.7,0.9 13.7,1 13.7,1 C13.7,1 13.7,1.1 13.8,1.1 C14.1,1.9 14.3,2.5 14.3,3.5 L14.3,11.8 C14.3,12.9 14.2,13.4 13.8,14.3 C13.7,14.4 13.7,14.4 13.7,14.5 L13.7,14.5 Z M28.5,0.7 L25.1,0.7 L25.3,1 C25.3,1.1 25.4,1.1 25.4,1.2 C25.8,2 25.8,2.4 25.6,3.3 L24.5,9.1 L22.9,0.7 L19,0.7 L19.1,1 C19.1,1.1 19.2,1.1 19.2,1.2 C19.7,2 19.9,2.4 20.2,3.4 C20.2,3.5 21.1,7.2 21.9,10.8 C22.4,12.9 22.8,14.6 23.1,15.9 C23.7,18.3 23.8,18.3 23.9,18.4 L24.1,18.5 L28.4,1 L28.5,0.7 L28.5,0.7 Z M28.8,1.2 L28.8,1.2 C29.2,2.1 29.3,2.6 29.3,3.7 L29.3,12 C29.3,13.1 29.2,13.6 28.7,14.5 L28.7,14.5 C28.7,14.5 28.7,14.6 28.6,14.6 C28.5,14.6 28.6,14.7 28.5,14.7 L28.3,15 L35.2,15 L36.1,10.5 L35.7,10.9 C34.9,11.6 34.1,12 33,12 C32.8,12 32.5,12 32.3,12 L32.1,12 L32.1,9.2 L32.7,9.2 C33.1,9.2 33.4,9.3 33.7,9.5 L33.7,9.5 L34.1,9.8 L34.1,9.8 L34.6,10.2 L34.6,6.2 L32.1,6.2 L32.1,3.7 L33.5,3.7 L33.7,3.7 L33.9,3.7 C34.2,3.7 34.4,3.8 34.8,4.3 L35,4.5 L35.3,5.1 L35.3,0.7 L28.5,0.7 L28.8,1 C28.8,1 28.8,1.1 28.8,1.2 L28.8,1.2 Z M57.5,1.2 L57.5,1.2 C57.9,2 58,2.6 58,3.6 L58,11.9 C58,13 57.9,13.5 57.4,14.4 L57.4,14.4 C57.4,14.4 57.4,14.5 57.3,14.5 C57.2,14.5 57.3,14.6 57.2,14.6 L57,14.9 L64,14.9 L64.9,10.4 L64.5,10.8 C63.7,11.5 62.9,11.9 61.8,11.9 C61.6,11.9 61.3,11.9 61.1,11.9 L60.9,11.9 L60.9,9.1 L61.5,9.1 C61.9,9.1 62.2,9.2 62.5,9.4 L62.5,9.4 L62.9,9.7 L62.9,9.7 L63.4,10.1 L63.4,6.1 L61,6.1 L61,3.7 L62.4,3.7 L62.6,3.7 L62.8,3.7 C63.1,3.7 63.3,3.8 63.7,4.3 L63.9,4.5 L64.2,5.1 L64.2,0.7 L57.3,0.7 L57.5,1 C57.5,1 57.5,1.1 57.5,1.2 L57.5,1.2 Z M40.9,14.6 C40.9,14.5 40.9,14.5 40.9,14.6 C40.8,14.5 40.8,14.4 40.8,14.4 C40.3,13.5 40.2,13.1 40.2,11.9 L40.2,7.9 C40.5,9.2 40.9,10.5 41.5,12 C42.4,14.3 42.7,14.8 43.4,14.8 C43.4,14.8 43.4,14.8 43.5,14.8 L46.3,14.8 L45.9,14.2 L45.7,14 C45.3,13.4 45,12.7 44.7,12.1 C44.3,11.3 44,10.6 43.8,9.8 L43.5,9 L42.9,7.5 L43.1,7.4 C43.9,6.9 44.3,6.1 44.4,4.8 C44.5,3.5 44.3,2.4 43.7,1.7 C43.2,1.1 42.5,0.8 41.6,0.8 C41.4,0.8 41.2,0.8 41,0.8 L36.6,0.8 L36.7,1 C36.7,1 36.7,1.1 36.8,1.1 L36.8,1.2 C37.2,2.1 37.3,2.5 37.3,3.7 L37.3,12 C37.3,13 37.1,13.6 36.6,14.5 C36.6,14.5 36.6,14.6 36.5,14.6 C36.4,14.6 36.5,14.7 36.4,14.7 L36.2,15 L40.9,15 L40.9,14.6 L40.9,14.6 Z M40.2,3.4 L40.2,3.4 C40.3,3.4 40.4,3.4 40.4,3.4 L40.4,3.4 C40.8,3.4 41.2,3.5 41.4,3.7 C41.7,4 41.8,4.5 41.7,5.2 C41.7,5.5 41.6,5.9 41.3,6.3 C41.1,6.6 40.9,6.8 40.6,6.9 L40.6,6.9 C40.5,6.9 40.5,6.9 40.4,6.9 L40.3,6.9 L40.2,6.9 L40.2,3.4 L40.2,3.4 Z M49.5,14.6 L49.3,14.9 L56.3,14.9 L57.2,11 L56.8,11.4 C56.3,11.9 55.8,12.2 54.2,12.3 C53.9,12.3 53.5,12.3 53.2,12.3 L53.2,3.1 C53.2,3 53.2,3 53.2,2.9 C53.2,2.8 53.2,2.8 53.2,2.7 C53.2,2 53.4,1.6 53.7,1 L53.7,1 C53.7,0.9 53.8,0.9 53.8,0.8 L54,0.5 L49.6,0.5 L49.7,0.8 C49.7,0.9 49.8,0.9 49.8,1 C50.1,1.7 50.2,2.1 50.2,3 L50.2,12.4 C50.2,13.3 50.1,13.7 49.7,14.4 C49.6,14.5 49.5,14.6 49.5,14.6 L49.5,14.6 Z M70.3,15.2 C70.9,15.2 71.4,15.1 72.1,14.9 C72.6,14.8 72.9,14.6 73.4,14.3 L73.5,14.2 L73.5,6.8 L70.3,6.8 L70.4,7 C70.4,7.1 70.5,7.2 70.5,7.2 C70.8,7.9 70.9,8.4 71,9.3 L71,9.3 C71,9.4 71,9.5 71,9.7 L71,12.3 L71,12.3 C71,12.3 70.9,12.3 70.9,12.3 C70.3,12.3 69.9,12.1 69.5,11.7 C68.6,10.8 68.2,9.1 68.2,6.9 C68.3,4.3 69.1,2.5 70.3,2.5 C70.6,2.5 70.9,2.6 71.2,2.8 L71.2,2.8 C71.4,3 71.7,3.2 72,3.5 L72,3.8 L72.4,4.3 L72.4,0.9 L72.3,0.9 C72.2,0.9 72.2,0.9 72.1,0.8 C72,0.7 72,0.8 71.9,0.7 C71.3,0.5 70.7,0.4 70.1,0.4 C69,0.4 68.1,0.8 67.4,1.5 C66.2,2.8 65.5,5.1 65.5,8 C65.5,12.6 67.2,15.2 70.3,15.2 L70.3,15.2 Z M77.2,14.6 C77.2,14.5 77.1,14.5 77.2,14.6 C77.2,14.5 77.1,14.5 77.1,14.4 C76.8,13.6 76.8,13.3 76.9,12.4 C76.9,12.3 76.9,12.2 77,12.1 L77,12 L77.1,11.8 L79.3,11.8 L79.3,12 L79.4,12.8 L79.4,12.8 C79.4,13.4 79.3,13.8 79.1,14.4 C79.1,14.4 79.1,14.5 79.1,14.5 C79.1,14.5 79.1,14.6 79,14.6 L78.9,14.8 L83.7,14.8 L83.5,14.5 C83.5,14.5 83.5,14.4 83.4,14.4 C83.3,14.4 83.4,14.3 83.3,14.3 C82.8,13.5 82.6,12.9 82.4,11.8 L79.9,0.7 L76.7,0.7 L76.8,0.9 C76.8,0.9 76.8,1 76.8,1 C76.8,1 76.8,1.1 76.8,1.1 C77,2 77,2.5 76.8,3.6 L74.8,11.9 C74.5,13 74.3,13.6 73.8,14.4 C73.7,14.5 73.7,14.6 73.7,14.6 L73.6,14.9 L77.4,14.9 L77.2,14.6 L77.2,14.6 Z M78.2,6.2 L78.7,8.9 L77.6,8.9 L78.2,6.2 Z M87.6,15.3 L87.6,15.3 C87.8,15.3 88,15.3 88.1,15.3 C88.7,15.3 89.6,14.9 90.1,14.7 L90.2,14.7 L90.9,10.4 L90.4,11.1 C90,11.7 89.6,12.1 89.1,12.3 C88.8,12.4 88.4,12.5 88.1,12.5 C87.6,12.5 87.1,12.3 86.7,11.9 C85.8,11 85.4,9.2 85.5,7.1 C85.6,4.5 86.4,2.8 87.6,2.8 C88,2.8 88.4,3 88.8,3.4 C88.9,3.4 88.9,3.5 89,3.6 C89.1,3.6 89.1,3.7 89.2,3.7 C89.3,3.8 89.4,4 89.5,4.1 L89.8,4.5 L89.8,0.8 L89.4,0.7 L89,0.6 C88.8,0.5 88.6,0.5 88.4,0.5 C88.1,0.4 87.8,0.4 87.5,0.4 C86.2,0.4 85.1,1 84.3,2.1 C83.5,3.2 83.1,4.8 82.9,6.8 C82.8,8.4 83,10 83.4,11.3 C84.1,14 85.5,15.3 87.6,15.3 L87.6,15.3 Z M97,14.5 C97,14.4 97,14.4 97,14.5 C96.5,13.6 96.4,13.1 96.4,11.9 L96.4,9.5 L99.4,0.7 L96,0.7 L96.1,0.9 C96.1,0.9 96.1,1 96.1,1 C96.1,1 96.1,1.1 96.1,1.1 C96.4,2 96.3,2.5 96,3.6 L95.4,5.6 L94.2,0.7 L90.1,0.7 L90.6,1.5 C91,2.2 91.3,2.8 91.6,3.7 L93.5,9.6 L93.5,12 C93.5,13.1 93.3,13.7 92.9,14.5 C92.9,14.5 92.9,14.6 92.9,14.6 C92.9,14.6 92.9,14.7 92.8,14.7 L92.6,15 L97.3,15 L97.1,14.7 C97.1,14.5 97.1,14.5 97,14.5 L97,14.5 Z" id="silver_legacy-19" fill="#343840"></path>
</svg>