<svg xmlns="http://www.w3.org/2000/svg" viewBox="0 0 24 24" class="injected-svg" data-src="/content/dam/empire/icon-library/fontawesome-icons/swimwear.svg" xmlns:xlink="http://www.w3.org/1999/xlink">
<title>underwear-bikini</title>
<path d="M2.5,10.917a.5.5,0,0,0,.211.426,6.122,6.122,0,0,0,3.6,1.214,8.066,8.066,0,0,0,4.034-1.239.5.5,0,0,1,.251-.068h2.814a.493.493,0,0,1,.251.068,8.066,8.066,0,0,0,4.034,1.239,6.128,6.128,0,0,0,3.6-1.214.5.5,0,0,0,.211-.426,9.058,9.058,0,0,0-2.032-5.829.5.5,0,0,1-.1-.486l1.081-3.29a1,1,0,1,0-1.9-.624L17.458,4.012a.5.5,0,0,1-.212.268A8.95,8.95,0,0,0,13.058,9.4a.5.5,0,0,1-.477.35H11.419a.5.5,0,0,1-.477-.35A8.95,8.95,0,0,0,6.754,4.28a.5.5,0,0,1-.212-.268L5.45.688a1,1,0,0,0-1.9.624L4.631,4.6a.5.5,0,0,1-.1.486A9.058,9.058,0,0,0,2.5,10.917Z"></path>
<path d="M21.142,15.127a1,1,0,0,0-1.078-.823,84.7,84.7,0,0,1-16.128,0,1,1,0,0,0-1.078.822L2.59,16.708a1,1,0,0,0,.916,1.159c.146-.007,3.8-.07,7.067,5.63a1,1,0,0,0,.867.5h1.119a1,1,0,0,0,.868-.5c3.277-5.715,7.032-5.628,7.062-5.63a.991.991,0,0,0,.921-1.159Z"></path>
</svg>