<svg xmlns="http://www.w3.org/2000/svg" xmlns:xlink="http://www.w3.org/1999/xlink" width="248px" height="37px" viewBox="0 0 248 37" version="1.1" class="injected-svg" data-src="/content/dam/empire/logos/logo-train/tropicana.svg">
	<title>Tropicana</title>
  <path d="M58.3,18 C58.3,21.8 59.5,25.5 61.8,28.6 C66.3,22.3 66.2,13.8 61.6,7.6 C59.5,10.6 58.3,14.3 58.3,18 M87.5,18 C87.5,21.8 88.7,25.4 90.9,28.5 C95.4,22.2 95.4,13.8 90.9,7.5 C88.7,10.5 87.5,14.2 87.5,18 M29.2,18.2 C29.2,21.9 30.3,25.5 32.5,28.6 C37.1,22.4 37.1,13.9 32.7,7.6 C30.4,10.6 29.2,14.3 29.2,18.2 M245.4,25.8 C244.2,25.8 243.3,26.7 243.3,27.9 C243.3,29.1 244.2,30 245.4,30 C246.6,30 247.5,29.1 247.5,27.9 C247.5,27.9 247.5,27.9 247.5,27.9 C247.5,26.7 246.6,25.8 245.4,25.8 C245.4,25.8 245.4,25.8 245.4,25.8 Z M245.4,29.7 C244.4,29.7 243.6,28.9 243.6,27.9 C243.6,26.9 244.4,26.1 245.4,26.1 C246.4,26.1 247.2,26.9 247.2,27.9 C247.2,27.9 247.2,27.9 247.2,27.9 C247.2,28.9 246.4,29.7 245.4,29.7 Z M245.8,28 C246.1,27.9 246.3,27.7 246.3,27.4 C246.3,27 246,26.7 245.6,26.7 C245.6,26.7 245.6,26.7 245.6,26.7 L244.8,26.7 L244.8,29 L245.1,29 L245.1,28.1 L245.5,28.1 L246,29 L246.4,29 L245.8,28 Z M245.1,27.8 L245.1,27 L245.5,27 C245.7,27 245.9,27.2 245.9,27.4 C245.9,27.4 245.9,27.4 245.9,27.4 C245.9,27.6 245.7,27.8 245.5,27.8 C245.5,27.8 245.5,27.8 245.5,27.8 L245.1,27.8 Z M151.9,30.2 C149.4,30.3 147,29.3 145.2,27.5 C142.7,25 142.8,21.6 142.8,18 C142.8,14.4 142.7,11 145.2,8.5 C147,6.7 149.4,5.7 151.9,5.8 C156.5,5.8 160.1,8.3 161,13.6 L155,13.6 C154.8,12.1 153.5,10.9 151.9,11 C151,11 150.1,11.3 149.6,12 C149.1,12.7 148.7,13.6 148.7,18 C148.7,22.4 149.1,23.2 149.6,23.9 C150.2,24.6 151,24.9 151.9,24.9 C153.4,24.9 154.7,23.8 155,22.3 L161,22.3 C160.1,27.7 156.4,30.2 151.9,30.2 M128.8,6 L128.8,30 L129.6,30 C133.2,30 134.7,29 134.7,26.2 L134.7,6 L128.8,6 Z M207.1,6 L207.1,18 L199.4,6 L194.2,6 L194.2,30 L195,30 C198.6,30 200.1,29 200.1,26.2 L200.1,17.9 L207.8,30 L213,30 L213,6 L207.1,6 Z M178.7,6 L174.1,6 L165.4,30 L166.2,30 C169.8,30 171.6,29.9 172.6,27 L172.8,26.4 L180.2,26.4 L181.3,30 L187.5,30 L178.7,6 Z M174.4,21.5 L176.6,15.1 L178.6,21.5 L174.4,21.5 Z M233,6 L228.4,6 L219.7,30 L220.5,30 C224.1,30 225.9,29.9 226.9,27 L227.1,26.4 L234.5,26.4 L235.6,30 L241.8,30 L233,6 Z M228.7,21.5 L230.9,15.1 L232.9,21.5 L228.7,21.5 Z M76.3,10.8 C75.3,10.8 74.4,11.2 73.8,11.9 C73.2,12.6 72.9,13.5 72.9,18 C72.9,22.5 73.2,23.3 73.8,24 C75,25.4 77.1,25.6 78.5,24.4 C78.6,24.3 78.8,24.2 78.9,24 C79.5,23.2 79.8,22.5 79.8,18 C79.8,13.5 79.4,12.7 78.9,11.9 C78.2,11.1 77.3,10.7 76.3,10.8 M48,11.2 L44.4,11.2 L44.4,16.5 L48,16.5 C49.5,16.5 50.7,15.3 50.7,13.8 C50.7,12.4 49.5,11.2 48,11.2 C48,11.2 48,11.2 48,11.2 M58.3,18 C58.3,14.3 59.4,10.6 61.6,7.6 C55.8,-0.4 44.6,-2.2 36.6,3.6 C35.1,4.7 33.7,6 32.6,7.6 C37.1,13.9 37,22.4 32.4,28.6 C38.2,36.7 49.4,38.6 57.5,32.8 C59.1,31.6 60.6,30.2 61.7,28.6 C59.5,25.5 58.3,21.8 58.3,18 Z M51,30 L46.8,21.1 L46.7,21 L44.4,21 L44.4,26.4 C44.4,29 43.1,30 39.5,30 L38.9,30 L38.9,6.3 L48.2,6.3 C53.5,6.3 56.2,10.1 56.2,13.8 C56.2,16.4 54.7,18.8 52.4,19.9 L52.2,20 L52.3,20.2 L57.4,29.9 L51,29.9 L51,30 Z M107.2,11 L103.6,11 L103.6,16.3 L107.2,16.3 C108.7,16.3 109.9,15.1 109.9,13.6 C109.8,12.2 108.6,11 107.2,11 C107.2,11 107.2,11 107.2,11 M105.5,0 C99.7,0 94.3,2.8 90.9,7.5 C95.4,13.8 95.4,22.2 90.9,28.5 C96.7,36.6 107.9,38.4 116,32.7 C124.1,27 125.9,15.7 120.2,7.6 C116.8,2.8 111.3,0 105.5,0 Z M107.5,21.2 L103.6,21.2 L103.6,26.2 C103.6,28.8 102.3,29.8 98.7,29.8 L98.1,29.8 L98.1,6.1 L107.4,6.1 C112.7,6.1 115.4,9.9 115.4,13.6 C115.4,17.3 112.7,21.2 107.5,21.2 L107.5,21.2 Z M90.9,7.5 C85.1,-0.6 73.9,-2.4 65.9,3.4 C64.3,4.6 62.8,6 61.7,7.6 C66.3,13.8 66.3,22.3 61.9,28.6 C67.8,36.6 79.1,38.3 87.1,32.4 C88.6,31.3 89.9,30 91,28.5 C86.4,22.2 86.4,13.8 90.9,7.5 L90.9,7.5 Z M85.2,18 L85.2,18.4 C85.2,21.8 85.2,25 82.8,27.4 C79.1,30.9 73.3,30.9 69.6,27.4 C67.2,25 67.2,21.8 67.2,18.4 L67.2,17.6 C67.2,14.2 67.2,11 69.6,8.6 C73.3,5.1 79.1,5.1 82.8,8.6 C85.2,11 85.2,14.2 85.2,17.6 L85.2,18 Z M29.2,18.2 C29.2,14.4 30.4,10.7 32.7,7.6 C27,-0.5 15.8,-2.4 7.7,3.4 C-0.4,9.2 -2.3,20.3 3.5,28.4 C9.3,36.5 20.4,38.4 28.5,32.6 C30.1,31.5 31.5,30.1 32.6,28.6 C30.3,25.6 29.2,21.9 29.2,18.2 Z M26.6,11 L20.7,11 L20.7,26.2 C20.7,28.8 19.4,29.8 15.8,29.8 L15.2,29.8 L15.2,11 L9.3,11 L9.3,6.1 L26.7,6.1 L26.7,11 L26.6,11 Z" id="tropicana-8" fill="#343840"></path>
</svg>