<svg xmlns="http://www.w3.org/2000/svg" xmlns:xlink="http://www.w3.org/1999/xlink" width="76px" height="33px" viewBox="0 0 76 33" version="1.1" class="injected-svg" data-src="/content/dam/empire/logos/logo-train/wsop.svg">
	<title>World Series of Poker</title>
  <path d="M10.969,28.313 L4.813,28.313 C4.817,28.226 4.819,28.124 4.819,28.021 C4.819,27.381 4.737,26.76 4.583,26.168 L4.594,26.219 L1.594,4.969 C1.406,4.156 1.188,3.5 0.969,2.875 L6.813,3 C6.795,3.266 6.785,3.577 6.785,3.891 C6.785,4.205 6.795,4.515 6.815,4.824 L6.813,4.782 L9.094,23.595 C9.094,23.595 10.032,12.032 10.782,5.001 C10.818,4.706 10.838,4.363 10.838,4.017 C10.838,3.671 10.818,3.328 10.778,2.992 L10.782,3.033 L16.438,3.064 L16.438,4.814 L18.719,23.345 L20.563,4.876 L20.594,4.001 C20.594,3.376 20.563,3.376 20.563,3.063 L23.813,3.094 C23.813,3.094 23.563,4.313 23.469,5 L20.563,28.313 L14.532,28.313 L12.501,12.032 L10.969,28.313 Z M46.188,6.688 L46.188,24.938 C46.188,26.032 46.594,26.532 47.563,26.532 C48.532,26.532 48.876,26.094 48.876,24.969 L48.876,6.656 C48.876,5.656 48.407,5.343 47.501,5.343 C46.595,5.343 46.188,5.687 46.188,6.687 L46.188,6.688 Z M41.094,6.25 C41.094,3.344 42.782,3 47.594,3 C52.406,3 54.125,3.469 54.125,6.469 L54.125,25.094 C54.125,28.063 53.469,28.907 47.594,28.907 C41.719,28.907 41.094,28.157 41.094,25.282 L41.094,6.25 Z M38.344,25.5 C38.344,28.375 36.563,28.75 31.813,28.75 C31.601,28.754 31.35,28.756 31.099,28.756 C29.059,28.756 27.051,28.618 25.084,28.35 L25.313,28.376 L25.532,19.282 L30.001,19.282 L30.001,24.97 C30.001,25.876 30.439,26.533 31.657,26.533 C32.875,26.533 33.188,25.939 33.188,25.002 L33.188,19.971 C33.188,18.19 31,17.658 29.469,17.033 C27.063,16.033 25.375,16.033 25.375,12.564 L25.375,6.251 C25.375,3.345 27.219,3.001 32.125,3.001 C34.781,3.001 36.75,3.189 38.188,3.282 L38.188,12.407 L33.594,12.407 L33.594,6.594 C33.594,5.563 33.156,5.313 32.063,5.313 C30.97,5.313 30.469,5.563 30.469,6.657 L30.469,11.532 C30.469,13.688 32.719,14.126 34.375,14.782 C36.031,15.438 38.281,16.095 38.281,18.063 L38.344,25.5 Z M23.188,32.563 L24.501,35.001 L25.751,32.563 L24.501,30.125 L23.188,32.563 Z M38.219,34.719 C37.594,33.406 36.188,32.063 36.188,31.438 C36.188,30.875 36.657,30.407 37.251,30.407 C37.689,30.407 38.064,30.688 38.22,31.063 C38.318,30.585 38.736,30.23 39.236,30.23 C39.808,30.23 40.272,30.694 40.272,31.266 C40.272,31.338 40.265,31.408 40.251,31.476 L40.252,31.469 C40.252,32.032 38.846,33.375 38.221,34.719 L38.219,34.719 Z M31.438,33.531 C31.657,33.781 31.969,33.969 32.313,33.969 L32.407,33.969 C32.938,33.969 33.345,33.563 33.407,33.094 C33.407,32.594 31.969,31.5 31.376,30.406 C30.751,31.5 29.345,32.625 29.345,33.094 C29.408,33.563 29.814,33.969 30.314,33.969 L30.377,33.969 C30.69,33.969 31.002,33.813 31.221,33.563 C31.221,34.094 30.815,34.594 29.846,34.626 L32.815,34.626 C31.815,34.626 31.502,34.095 31.471,33.532 L31.438,33.531 Z M45.281,33.25 L45.469,33.25 C45.617,33.584 45.946,33.812 46.328,33.812 C46.846,33.812 47.266,33.392 47.266,32.874 C47.266,32.362 46.855,31.946 46.345,31.937 L45.813,31.937 C45.625,31.937 45.813,31.937 45.813,31.718 C45.938,31.562 46.001,31.374 46.001,31.155 C45.918,30.716 45.537,30.388 45.079,30.388 C44.621,30.388 44.241,30.716 44.158,31.149 L44.157,31.155 C44.157,31.374 44.22,31.561 44.345,31.718 C44.47,31.875 44.345,31.874 44.345,31.937 C44.345,32 44.345,31.937 44.126,31.937 L43.782,31.937 C43.343,32.02 43.015,32.401 43.015,32.859 C43.015,33.317 43.343,33.697 43.776,33.78 L43.782,33.781 C44.188,33.781 44.501,33.562 44.626,33.218 C44.751,32.874 44.626,33.218 44.845,33.218 C44.845,33.812 44.532,34.374 43.47,34.437 L46.626,34.437 C45.563,34.437 45.251,33.812 45.251,33.218 L45.281,33.25 Z M62.219,5.469 L62.219,16.875 L63.688,16.875 C64.657,16.875 65.001,15.719 65.001,14.75 L65.001,6.906 C65.001,6.125 64.376,5.468 63.563,5.468 L62.219,5.469 Z M62.219,19.156 L62.219,25.812 C62.25,26.968 62.438,28.093 62.782,29.156 L56.657,29.062 C56.819,28.295 56.911,27.414 56.911,26.511 C56.911,26.397 56.91,26.284 56.907,26.171 L56.907,26.188 L56.907,6.25 C56.844,5.062 56.657,3.937 56.376,2.875 L65.814,3 C69.064,3 70.158,3.875 70.158,6.25 L70.158,15.469 C70.158,18.375 69.064,19.188 67.064,19.188 L62.22,19.188 L62.219,19.156 Z M1,31.906 L20.625,31.906 L20.625,33.219 L1,33.219 L1,31.906 Z M50.656,31.906 L70.281,31.906 L70.281,33.219 L50.656,33.219 L50.656,31.906 L50.656,31.906 Z M73.063,4.875 C73.053,4.81 73.047,4.735 73.047,4.659 C73.047,3.831 73.719,3.159 74.547,3.159 C75.375,3.159 76.047,3.831 76.047,4.659 C76.047,4.735 76.041,4.81 76.03,4.883 L76.031,4.875 C75.922,5.605 75.299,6.159 74.547,6.159 C73.795,6.159 73.172,5.605 73.064,4.883 L73.063,4.875 Z M75.844,4.875 C75.844,4.167 75.27,3.594 74.563,3.594 C73.856,3.594 73.282,4.168 73.282,4.875 L73.282,4.875 C73.282,5.583 73.856,6.156 74.563,6.156 C75.27,6.156 75.844,5.582 75.844,4.875 L75.844,4.875 Z M75.313,5.719 L75,5.719 L74.5,4.969 L74.219,4.969 L74.219,5.719 L74,5.719 L74,4.031 L74.719,4.031 C75,4.031 75.313,4.031 75.313,4.469 C75.313,4.907 75.063,4.938 74.782,4.938 L75.313,5.719 Z M74.5,4.719 C74.719,4.719 75.063,4.719 75.063,4.5 C75.063,4.281 74.875,4.312 74.688,4.312 L74.25,4.312 L74.25,4.718 L74.5,4.719 Z" id="wsop-27" fill="#343840"></path>
</svg>